G04*
G04 #@! TF.GenerationSoftware,Altium Limited,Altium Designer,24.4.1 (13)*
G04*
G04 Layer_Physical_Order=3*
G04 Layer_Color=16440176*
%FSLAX25Y25*%
%MOIN*%
G70*
G04*
G04 #@! TF.SameCoordinates,10A595F1-1F81-4761-982A-B2476EFC1E46*
G04*
G04*
G04 #@! TF.FilePolarity,Positive*
G04*
G01*
G75*
%ADD14C,0.00984*%
%ADD66C,0.01181*%
%ADD75C,0.01968*%
G36*
X432441Y244331D02*
X432402Y241850D01*
Y193780D01*
X391700D01*
X391659Y193878D01*
X391161Y194376D01*
X390510Y194646D01*
X389805D01*
X389154Y194376D01*
X388655Y193878D01*
X388615Y193780D01*
X331535D01*
X325236Y187480D01*
Y82287D01*
X317756Y74843D01*
X296024D01*
X290787Y69606D01*
Y50591D01*
X171142D01*
Y76417D01*
X114921Y132638D01*
Y166641D01*
X131981Y183701D01*
X155354D01*
Y199046D01*
X155854Y199319D01*
X156301Y199134D01*
X157006D01*
X157657Y199404D01*
X158156Y199902D01*
X158425Y200553D01*
Y201258D01*
X158156Y201909D01*
X157657Y202407D01*
X157006Y202677D01*
X156301D01*
X155854Y202492D01*
X155354Y202765D01*
Y246220D01*
X432441D01*
Y244331D01*
D02*
G37*
G36*
X56496Y160472D02*
Y109803D01*
X85903Y80396D01*
X85787Y80116D01*
Y79411D01*
X86057Y78760D01*
X86555Y78262D01*
X87207Y77992D01*
X87911D01*
X88191Y78108D01*
X96673Y69626D01*
X96772Y69724D01*
X103706D01*
X105140Y68290D01*
X105564Y68007D01*
X106063Y67908D01*
X113228D01*
Y53031D01*
X113327Y52972D01*
X117520Y48779D01*
X205410D01*
X205617Y48280D01*
X205270Y47933D01*
X205000Y47282D01*
Y46577D01*
X205270Y45926D01*
X205768Y45427D01*
X206419Y45158D01*
X207124D01*
X207775Y45427D01*
X208274Y45926D01*
X208543Y46577D01*
Y47282D01*
X208274Y47933D01*
X207927Y48280D01*
X208134Y48779D01*
X292244D01*
Y50130D01*
X292404Y50236D01*
X293108D01*
X293759Y50506D01*
X294258Y51004D01*
X294528Y51656D01*
Y52360D01*
X294258Y53011D01*
X293759Y53510D01*
X293108Y53780D01*
X292971D01*
X292244Y54507D01*
Y65748D01*
X299055Y72559D01*
X319528D01*
X327874Y80905D01*
Y130276D01*
X356457D01*
Y24724D01*
X10394D01*
X803Y34315D01*
Y49192D01*
X1297Y49270D01*
X1336Y49148D01*
X2448Y46968D01*
X3886Y44987D01*
X5617Y43256D01*
X7597Y41818D01*
X9778Y40706D01*
X12106Y39950D01*
X14524Y39567D01*
X16972D01*
X19390Y39950D01*
X21718Y40706D01*
X23899Y41818D01*
X25879Y43256D01*
X27610Y44987D01*
X29049Y46968D01*
X30160Y49148D01*
X30916Y51477D01*
X31299Y53894D01*
Y56342D01*
X30916Y58760D01*
X30160Y61088D01*
X29049Y63269D01*
X27610Y65249D01*
X25879Y66980D01*
X23899Y68419D01*
X21718Y69530D01*
X19390Y70286D01*
X16972Y70669D01*
X14524D01*
X12106Y70286D01*
X9778Y69530D01*
X7597Y68419D01*
X5617Y66980D01*
X3886Y65249D01*
X2448Y63269D01*
X1336Y61088D01*
X1297Y60966D01*
X803Y61044D01*
Y160944D01*
X46708D01*
X46713Y160939D01*
X47364Y160669D01*
X48069D01*
X48720Y160939D01*
X48725Y160944D01*
X56025D01*
X56496Y160472D01*
D02*
G37*
G36*
X153976Y186024D02*
X130866D01*
X108976Y164134D01*
Y129921D01*
X60315Y129841D01*
X59961Y130194D01*
Y133307D01*
X60589D01*
X61240Y133577D01*
X61738Y134075D01*
X62008Y134726D01*
Y135431D01*
X61738Y136082D01*
X61240Y136581D01*
X60589Y136850D01*
X59961D01*
Y143937D01*
X60589D01*
X61240Y144207D01*
X61738Y144705D01*
X62008Y145356D01*
Y146061D01*
X61738Y146712D01*
X61240Y147211D01*
X60589Y147480D01*
X59961D01*
Y240827D01*
X153976D01*
Y186024D01*
D02*
G37*
%LPC*%
G36*
X252085Y239173D02*
X251380D01*
X250729Y238903D01*
X250230Y238405D01*
X249961Y237754D01*
Y237049D01*
X250230Y236398D01*
X250729Y235900D01*
X251380Y235630D01*
X252085D01*
X252736Y235900D01*
X253234Y236398D01*
X253504Y237049D01*
Y237754D01*
X253234Y238405D01*
X252736Y238903D01*
X252085Y239173D01*
D02*
G37*
G36*
X414998Y237835D02*
X414293D01*
X413642Y237565D01*
X413144Y237067D01*
X412874Y236415D01*
Y235711D01*
X413144Y235059D01*
X413642Y234561D01*
X414293Y234291D01*
X414998D01*
X415649Y234561D01*
X416148Y235059D01*
X416417Y235711D01*
Y236415D01*
X416148Y237067D01*
X415649Y237565D01*
X414998Y237835D01*
D02*
G37*
G36*
X165707Y236772D02*
X165002D01*
X164351Y236502D01*
X163852Y236004D01*
X163583Y235352D01*
Y234648D01*
X163852Y233996D01*
X164351Y233498D01*
X165002Y233228D01*
X165707D01*
X166358Y233498D01*
X166856Y233996D01*
X167126Y234648D01*
Y235352D01*
X166856Y236004D01*
X166358Y236502D01*
X165707Y236772D01*
D02*
G37*
G36*
X332331Y236535D02*
X331626D01*
X330975Y236266D01*
X330476Y235767D01*
X330207Y235116D01*
Y234411D01*
X330476Y233760D01*
X330975Y233262D01*
X331626Y232992D01*
X332331D01*
X332982Y233262D01*
X333480Y233760D01*
X333750Y234411D01*
Y235116D01*
X333480Y235767D01*
X332982Y236266D01*
X332331Y236535D01*
D02*
G37*
G36*
X197321Y228622D02*
X196616D01*
X195965Y228352D01*
X195467Y227854D01*
X195197Y227203D01*
Y226498D01*
X195467Y225847D01*
X195965Y225348D01*
X196616Y225079D01*
X197321D01*
X197972Y225348D01*
X198470Y225847D01*
X198740Y226498D01*
Y227203D01*
X198470Y227854D01*
X197972Y228352D01*
X197321Y228622D01*
D02*
G37*
G36*
X217045Y224370D02*
X216340D01*
X215689Y224100D01*
X215191Y223602D01*
X214921Y222951D01*
Y222246D01*
X215191Y221595D01*
X215689Y221096D01*
X216340Y220827D01*
X217045D01*
X217696Y221096D01*
X218195Y221595D01*
X218465Y222246D01*
Y222951D01*
X218195Y223602D01*
X217696Y224100D01*
X217045Y224370D01*
D02*
G37*
G36*
X236533Y225319D02*
X235829D01*
X235178Y225049D01*
X234679Y224550D01*
X234409Y223899D01*
Y223837D01*
X230639Y220066D01*
X228226D01*
X228130Y220163D01*
X227478Y220433D01*
X226774D01*
X226122Y220163D01*
X225624Y219665D01*
X225354Y219014D01*
Y218309D01*
X225624Y217658D01*
X226122Y217160D01*
X226774Y216890D01*
X227478D01*
X228130Y217160D01*
X228226Y217256D01*
X231221D01*
X231758Y217363D01*
X232214Y217668D01*
X236321Y221775D01*
X236533D01*
X237185Y222045D01*
X237683Y222543D01*
X237953Y223195D01*
Y223899D01*
X237683Y224550D01*
X237185Y225049D01*
X236533Y225319D01*
D02*
G37*
G36*
X390589Y222795D02*
X389884D01*
X389233Y222526D01*
X388734Y222027D01*
X388465Y221376D01*
Y220671D01*
X388734Y220020D01*
X389233Y219522D01*
X389884Y219252D01*
X390589D01*
X391240Y219522D01*
X391738Y220020D01*
X392008Y220671D01*
Y221376D01*
X391738Y222027D01*
X391240Y222526D01*
X390589Y222795D01*
D02*
G37*
G36*
X307951Y221969D02*
X307246D01*
X306595Y221699D01*
X306097Y221200D01*
X305827Y220549D01*
Y219845D01*
X306097Y219193D01*
X306595Y218695D01*
X307246Y218425D01*
X307951D01*
X308602Y218695D01*
X309100Y219193D01*
X309370Y219845D01*
Y220549D01*
X309100Y221200D01*
X308602Y221699D01*
X307951Y221969D01*
D02*
G37*
G36*
X399719Y222523D02*
X399014D01*
X398363Y222253D01*
X397865Y221755D01*
X397604Y221127D01*
X393906Y217429D01*
X391022D01*
X390925Y217526D01*
X390274Y217795D01*
X389569D01*
X388918Y217526D01*
X388419Y217027D01*
X388150Y216376D01*
Y215671D01*
X388419Y215020D01*
X388918Y214522D01*
X389569Y214252D01*
X390274D01*
X390925Y214522D01*
X391022Y214619D01*
X394488D01*
X395026Y214726D01*
X395482Y215030D01*
X399431Y218980D01*
X399719D01*
X400370Y219250D01*
X400868Y219748D01*
X401138Y220399D01*
Y221104D01*
X400868Y221755D01*
X400370Y222253D01*
X399719Y222523D01*
D02*
G37*
G36*
X317349Y221811D02*
X316644D01*
X315992Y221541D01*
X315494Y221043D01*
X315224Y220392D01*
Y220361D01*
X311505Y216641D01*
X308620D01*
X308523Y216738D01*
X307872Y217008D01*
X307167D01*
X306516Y216738D01*
X306018Y216240D01*
X305748Y215589D01*
Y214884D01*
X306018Y214233D01*
X306516Y213734D01*
X307167Y213465D01*
X307872D01*
X308523Y213734D01*
X308620Y213831D01*
X312087D01*
X312624Y213938D01*
X313080Y214243D01*
X317105Y218268D01*
X317349D01*
X318000Y218537D01*
X318498Y219036D01*
X318768Y219687D01*
Y220392D01*
X318498Y221043D01*
X318000Y221541D01*
X317349Y221811D01*
D02*
G37*
G36*
X262006Y219803D02*
X261301D01*
X260650Y219533D01*
X260152Y219035D01*
X259882Y218384D01*
Y217679D01*
X260152Y217028D01*
X260650Y216530D01*
X261301Y216260D01*
X262006D01*
X262657Y216530D01*
X263156Y217028D01*
X263425Y217679D01*
Y218384D01*
X263156Y219035D01*
X262657Y219533D01*
X262006Y219803D01*
D02*
G37*
G36*
X423620Y217244D02*
X422915D01*
X422264Y216974D01*
X421766Y216476D01*
X421496Y215825D01*
Y215120D01*
X421766Y214469D01*
X422264Y213970D01*
X422915Y213701D01*
X423620D01*
X424271Y213970D01*
X424770Y214469D01*
X425039Y215120D01*
Y215825D01*
X424770Y216476D01*
X424271Y216974D01*
X423620Y217244D01*
D02*
G37*
G36*
X340913Y213872D02*
X340208D01*
X339557Y213602D01*
X339058Y213104D01*
X338789Y212453D01*
Y211748D01*
X339058Y211097D01*
X339557Y210598D01*
X340208Y210329D01*
X340913D01*
X341564Y210598D01*
X342062Y211097D01*
X342332Y211748D01*
Y212453D01*
X342062Y213104D01*
X341564Y213602D01*
X340913Y213872D01*
D02*
G37*
G36*
X189919Y212953D02*
X189215D01*
X188563Y212683D01*
X188065Y212185D01*
X187795Y211533D01*
Y210829D01*
X188065Y210177D01*
X188563Y209679D01*
X189215Y209409D01*
X189919D01*
X190570Y209679D01*
X191069Y210177D01*
X191339Y210829D01*
Y211533D01*
X191069Y212185D01*
X190570Y212683D01*
X189919Y212953D01*
D02*
G37*
G36*
X257518Y209685D02*
X256813D01*
X256162Y209415D01*
X255663Y208917D01*
X255394Y208266D01*
Y207561D01*
X255663Y206910D01*
X256162Y206412D01*
X256813Y206142D01*
X257518D01*
X258169Y206412D01*
X258667Y206910D01*
X258937Y207561D01*
Y208266D01*
X258667Y208917D01*
X258169Y209415D01*
X257518Y209685D01*
D02*
G37*
G36*
X229959Y208937D02*
X229254D01*
X228603Y208667D01*
X228104Y208169D01*
X227835Y207518D01*
Y206813D01*
X228104Y206162D01*
X228603Y205663D01*
X229254Y205394D01*
X229959D01*
X230610Y205663D01*
X231108Y206162D01*
X231378Y206813D01*
Y207518D01*
X231108Y208169D01*
X230610Y208667D01*
X229959Y208937D01*
D02*
G37*
G36*
X417951Y202992D02*
X417246D01*
X416595Y202722D01*
X416096Y202224D01*
X415827Y201573D01*
Y200868D01*
X416096Y200217D01*
X416595Y199718D01*
X417246Y199449D01*
X417951D01*
X418602Y199718D01*
X419100Y200217D01*
X419370Y200868D01*
Y201573D01*
X419100Y202224D01*
X418602Y202722D01*
X417951Y202992D01*
D02*
G37*
G36*
X335628Y202480D02*
X334923D01*
X334272Y202211D01*
X333774Y201712D01*
X333504Y201061D01*
Y200356D01*
X333774Y199705D01*
X334272Y199207D01*
X334923Y198937D01*
X335628D01*
X336279Y199207D01*
X336777Y199705D01*
X337047Y200356D01*
Y201061D01*
X336777Y201712D01*
X336279Y202211D01*
X335628Y202480D01*
D02*
G37*
G36*
X221446Y199260D02*
X220742D01*
X220091Y198990D01*
X219592Y198492D01*
X219322Y197841D01*
Y197136D01*
X219592Y196485D01*
X220091Y195987D01*
X220742Y195717D01*
X221446D01*
X222098Y195987D01*
X222596Y196485D01*
X222866Y197136D01*
Y197841D01*
X222596Y198492D01*
X222098Y198990D01*
X221446Y199260D01*
D02*
G37*
G36*
X177557Y198110D02*
X176852D01*
X176201Y197840D01*
X175703Y197342D01*
X175433Y196691D01*
Y195986D01*
X175703Y195335D01*
X176201Y194837D01*
X176852Y194567D01*
X177557D01*
X178208Y194837D01*
X178707Y195335D01*
X178976Y195986D01*
Y196691D01*
X178707Y197342D01*
X178208Y197840D01*
X177557Y198110D01*
D02*
G37*
G36*
X168699Y196035D02*
X167994D01*
X167343Y195766D01*
X166844Y195267D01*
X166575Y194616D01*
Y193911D01*
X166844Y193260D01*
X167343Y192762D01*
X167994Y192492D01*
X168699D01*
X169350Y192762D01*
X169848Y193260D01*
X170118Y193911D01*
Y194616D01*
X169848Y195267D01*
X169350Y195766D01*
X168699Y196035D01*
D02*
G37*
G36*
X307872Y195551D02*
X307167D01*
X306516Y195282D01*
X306018Y194783D01*
X305748Y194132D01*
Y193427D01*
X306018Y192776D01*
X306516Y192278D01*
X307167Y192008D01*
X307872D01*
X308523Y192278D01*
X309022Y192776D01*
X309291Y193427D01*
Y194132D01*
X309022Y194783D01*
X308523Y195282D01*
X307872Y195551D01*
D02*
G37*
G36*
X293256Y194081D02*
X292551D01*
X291900Y193811D01*
X291402Y193313D01*
X291132Y192661D01*
Y191957D01*
X291402Y191305D01*
X291764Y190943D01*
X291526Y190706D01*
X291256Y190055D01*
Y189350D01*
X291526Y188699D01*
X292024Y188200D01*
X292676Y187931D01*
X293380D01*
X294032Y188200D01*
X294530Y188699D01*
X294800Y189350D01*
Y190055D01*
X294530Y190706D01*
X294168Y191068D01*
X294406Y191305D01*
X294675Y191957D01*
Y192661D01*
X294406Y193313D01*
X293907Y193811D01*
X293256Y194081D01*
D02*
G37*
G36*
X309407Y184646D02*
X308703D01*
X308052Y184376D01*
X307553Y183878D01*
X307283Y183226D01*
Y182522D01*
X307553Y181870D01*
X308052Y181372D01*
X308703Y181102D01*
X309407D01*
X310059Y181372D01*
X310557Y181870D01*
X310827Y182522D01*
Y183226D01*
X310557Y183878D01*
X310059Y184376D01*
X309407Y184646D01*
D02*
G37*
G36*
X154762Y181220D02*
X154057D01*
X153406Y180951D01*
X152908Y180452D01*
X152638Y179801D01*
Y179096D01*
X152908Y178445D01*
X153257Y178096D01*
X153113Y177952D01*
X152844Y177301D01*
Y176596D01*
X153113Y175945D01*
X153612Y175447D01*
X154263Y175177D01*
X154968D01*
X155619Y175447D01*
X156117Y175945D01*
X156387Y176596D01*
Y177301D01*
X156117Y177952D01*
X155768Y178302D01*
X155911Y178445D01*
X156181Y179096D01*
Y179801D01*
X155911Y180452D01*
X155413Y180951D01*
X154762Y181220D01*
D02*
G37*
G36*
X202629Y177284D02*
X201925D01*
X201273Y177014D01*
X200775Y176515D01*
X200505Y175864D01*
Y175159D01*
X200775Y174508D01*
X201273Y174010D01*
X201925Y173740D01*
X202273D01*
Y173392D01*
X202543Y172740D01*
X203041Y172242D01*
X203692Y171972D01*
X204397D01*
X205048Y172242D01*
X205547Y172740D01*
X205816Y173392D01*
Y174097D01*
X205547Y174748D01*
X205048Y175246D01*
X204397Y175516D01*
X204049D01*
Y175864D01*
X203779Y176515D01*
X203280Y177014D01*
X202629Y177284D01*
D02*
G37*
G36*
X155982Y170787D02*
X155278D01*
X154626Y170518D01*
X154128Y170019D01*
X153858Y169368D01*
Y168663D01*
X154128Y168012D01*
X154626Y167514D01*
X155278Y167244D01*
X155982D01*
X156633Y167514D01*
X157132Y168012D01*
X157402Y168663D01*
Y169368D01*
X157132Y170019D01*
X156633Y170518D01*
X155982Y170787D01*
D02*
G37*
G36*
X285825Y168819D02*
X285120D01*
X284469Y168549D01*
X283970Y168051D01*
X283701Y167400D01*
Y166695D01*
X283970Y166044D01*
X284469Y165545D01*
X285120Y165276D01*
X285825D01*
X286476Y165545D01*
X286974Y166044D01*
X287244Y166695D01*
Y167400D01*
X286974Y168051D01*
X286476Y168549D01*
X285825Y168819D01*
D02*
G37*
G36*
X294199Y168937D02*
X293494D01*
X292843Y168667D01*
X292344Y168169D01*
X292075Y167518D01*
Y167487D01*
X288355Y163767D01*
X285471D01*
X285374Y163864D01*
X284722Y164134D01*
X284018D01*
X283366Y163864D01*
X282868Y163366D01*
X282598Y162715D01*
Y162010D01*
X282868Y161359D01*
X283366Y160860D01*
X284018Y160591D01*
X284722D01*
X285374Y160860D01*
X285471Y160957D01*
X288937D01*
X289475Y161064D01*
X289931Y161369D01*
X293955Y165394D01*
X294199D01*
X294850Y165663D01*
X295348Y166162D01*
X295618Y166813D01*
Y167518D01*
X295348Y168169D01*
X294850Y168667D01*
X294199Y168937D01*
D02*
G37*
G36*
X318935Y160276D02*
X318230D01*
X317579Y160006D01*
X317081Y159508D01*
X316811Y158856D01*
Y158151D01*
X317081Y157500D01*
X317579Y157002D01*
X318230Y156732D01*
X318935D01*
X319586Y157002D01*
X320085Y157500D01*
X320354Y158151D01*
Y158856D01*
X320085Y159508D01*
X319586Y160006D01*
X318935Y160276D01*
D02*
G37*
G36*
X140510Y155551D02*
X139805D01*
X139154Y155281D01*
X138655Y154783D01*
X138386Y154132D01*
Y154110D01*
X134500Y150224D01*
X134029D01*
X133704Y150549D01*
X133248Y150853D01*
X132768Y150949D01*
X132509Y151208D01*
X131858Y151478D01*
X131153D01*
X130502Y151208D01*
X130004Y150709D01*
X129734Y150058D01*
Y149354D01*
X130004Y148702D01*
X130502Y148204D01*
X131153Y147934D01*
X131858D01*
X132202Y148077D01*
X132454Y147826D01*
X132910Y147521D01*
X133447Y147414D01*
X135082D01*
X135620Y147521D01*
X136076Y147826D01*
X140258Y152008D01*
X140510D01*
X141161Y152278D01*
X141659Y152776D01*
X141929Y153427D01*
Y154132D01*
X141659Y154783D01*
X141161Y155281D01*
X140510Y155551D01*
D02*
G37*
G36*
X208187Y155397D02*
X207482D01*
X206831Y155128D01*
X206332Y154629D01*
X206072Y154000D01*
X202217Y150145D01*
X199805D01*
X199708Y150242D01*
X199057Y150512D01*
X198352D01*
X197701Y150242D01*
X197202Y149744D01*
X196932Y149093D01*
Y148388D01*
X197202Y147737D01*
X197701Y147238D01*
X198352Y146968D01*
X199057D01*
X199708Y147238D01*
X199805Y147335D01*
X202799D01*
X203336Y147442D01*
X203792Y147747D01*
X207899Y151854D01*
X208187D01*
X208838Y152124D01*
X209336Y152622D01*
X209606Y153273D01*
Y153978D01*
X209336Y154629D01*
X208838Y155128D01*
X208187Y155397D01*
D02*
G37*
G36*
X166415Y150000D02*
X165711D01*
X165059Y149730D01*
X164561Y149232D01*
X164291Y148581D01*
Y147876D01*
X164561Y147225D01*
X165059Y146726D01*
X165711Y146457D01*
X166415D01*
X167067Y146726D01*
X167565Y147225D01*
X167835Y147876D01*
Y148581D01*
X167565Y149232D01*
X167067Y149730D01*
X166415Y150000D01*
D02*
G37*
G36*
X314683Y149291D02*
X313978D01*
X313327Y149022D01*
X312829Y148523D01*
X312559Y147872D01*
Y147167D01*
X312829Y146516D01*
X313327Y146018D01*
X313978Y145748D01*
X314683D01*
X315334Y146018D01*
X315833Y146516D01*
X316102Y147167D01*
Y147872D01*
X315833Y148523D01*
X315334Y149022D01*
X314683Y149291D01*
D02*
G37*
G36*
X285156Y140905D02*
X284451D01*
X283800Y140636D01*
X283301Y140137D01*
X283032Y139486D01*
Y138781D01*
X283301Y138130D01*
X283800Y137632D01*
X284451Y137362D01*
X285156D01*
X285807Y137632D01*
X286305Y138130D01*
X286575Y138781D01*
Y139486D01*
X286305Y140137D01*
X285807Y140636D01*
X285156Y140905D01*
D02*
G37*
G36*
X261701Y138189D02*
X260996D01*
X260345Y137919D01*
X259846Y137421D01*
X259577Y136770D01*
Y136065D01*
X259846Y135414D01*
X260345Y134915D01*
X260996Y134646D01*
X261701D01*
X261739Y134661D01*
X262093Y134308D01*
X262077Y134270D01*
Y133565D01*
X262347Y132914D01*
X262845Y132415D01*
X263496Y132146D01*
X264201D01*
X264852Y132415D01*
X265350Y132914D01*
X265620Y133565D01*
Y134270D01*
X265350Y134921D01*
X264852Y135419D01*
X264201Y135689D01*
X263496D01*
X263458Y135673D01*
X263104Y136027D01*
X263120Y136065D01*
Y136770D01*
X262850Y137421D01*
X262352Y137919D01*
X261701Y138189D01*
D02*
G37*
G36*
X285195Y133189D02*
X284490D01*
X283839Y132919D01*
X283341Y132421D01*
X283071Y131770D01*
Y131065D01*
X283341Y130414D01*
X283839Y129915D01*
X284490Y129646D01*
X285195D01*
X285846Y129915D01*
X286345Y130414D01*
X286614Y131065D01*
Y131770D01*
X286345Y132421D01*
X285846Y132919D01*
X285195Y133189D01*
D02*
G37*
G36*
X192990Y129961D02*
X192285D01*
X191634Y129691D01*
X191136Y129192D01*
X190866Y128541D01*
Y127837D01*
X191136Y127185D01*
X191634Y126687D01*
X192285Y126417D01*
X192990D01*
X193641Y126687D01*
X194140Y127185D01*
X194409Y127837D01*
Y128541D01*
X194140Y129192D01*
X193641Y129691D01*
X192990Y129961D01*
D02*
G37*
G36*
X133896Y129055D02*
X133191D01*
X132540Y128785D01*
X132041Y128287D01*
X131772Y127636D01*
Y126931D01*
X132041Y126280D01*
X132540Y125782D01*
X133191Y125512D01*
X133896D01*
X134547Y125782D01*
X135045Y126280D01*
X135315Y126931D01*
Y127636D01*
X135045Y128287D01*
X134547Y128785D01*
X133896Y129055D01*
D02*
G37*
G36*
X311140Y122677D02*
X310435D01*
X309784Y122407D01*
X309285Y121909D01*
X309016Y121258D01*
Y120553D01*
X309285Y119902D01*
X309784Y119404D01*
X310435Y119134D01*
X310451D01*
Y118544D01*
X310720Y117893D01*
X311219Y117395D01*
X311870Y117125D01*
X312575D01*
X313226Y117395D01*
X313724Y117893D01*
X313994Y118544D01*
Y119249D01*
X313724Y119900D01*
X313226Y120399D01*
X312575Y120668D01*
X312559D01*
Y121258D01*
X312289Y121909D01*
X311791Y122407D01*
X311140Y122677D01*
D02*
G37*
G36*
X260658Y119755D02*
X259953D01*
X259302Y119485D01*
X258804Y118987D01*
X258534Y118335D01*
Y117631D01*
X258804Y116980D01*
X259302Y116481D01*
X259953Y116211D01*
X260658D01*
X261309Y116481D01*
X261807Y116980D01*
X262077Y117631D01*
Y118335D01*
X261807Y118987D01*
X261309Y119485D01*
X260658Y119755D01*
D02*
G37*
G36*
X269994Y119571D02*
X269290D01*
X268638Y119301D01*
X268140Y118802D01*
X267880Y118174D01*
X264064Y114358D01*
X261258D01*
X261161Y114455D01*
X260510Y114724D01*
X259805D01*
X259154Y114455D01*
X258656Y113956D01*
X258386Y113305D01*
Y112600D01*
X258656Y111949D01*
X259154Y111451D01*
X259805Y111181D01*
X260510D01*
X261161Y111451D01*
X261258Y111548D01*
X264646D01*
X265183Y111655D01*
X265639Y111959D01*
X269707Y116027D01*
X269994D01*
X270646Y116297D01*
X271144Y116795D01*
X271414Y117446D01*
Y118151D01*
X271144Y118802D01*
X270646Y119301D01*
X269994Y119571D01*
D02*
G37*
G36*
X293817Y114173D02*
X293112D01*
X292461Y113903D01*
X291963Y113405D01*
X291693Y112754D01*
Y112049D01*
X291963Y111398D01*
X292461Y110900D01*
X293112Y110630D01*
X293817D01*
X294468Y110900D01*
X294967Y111398D01*
X295236Y112049D01*
Y112754D01*
X294967Y113405D01*
X294468Y113903D01*
X293817Y114173D01*
D02*
G37*
G36*
X204417Y111653D02*
X203713D01*
X203061Y111384D01*
X202563Y110886D01*
X202293Y110234D01*
Y109529D01*
X202563Y108878D01*
X203061Y108380D01*
X203713Y108110D01*
X204061D01*
Y107762D01*
X204331Y107111D01*
X204829Y106612D01*
X205480Y106342D01*
X206185D01*
X206836Y106612D01*
X207335Y107111D01*
X207604Y107762D01*
Y108466D01*
X207335Y109118D01*
X206836Y109616D01*
X206185Y109886D01*
X205837D01*
Y110234D01*
X205567Y110886D01*
X205068Y111384D01*
X204417Y111653D01*
D02*
G37*
G36*
X294447Y108228D02*
X293742D01*
X293091Y107959D01*
X292593Y107460D01*
X292323Y106809D01*
Y106104D01*
X292593Y105453D01*
X293091Y104955D01*
X293742Y104685D01*
X294447D01*
X295098Y104955D01*
X295596Y105453D01*
X295866Y106104D01*
Y106809D01*
X295596Y107460D01*
X295098Y107959D01*
X294447Y108228D01*
D02*
G37*
G36*
X265510Y103347D02*
X264805D01*
X264154Y103077D01*
X263655Y102578D01*
X263386Y101927D01*
Y101222D01*
X263655Y100571D01*
X264154Y100073D01*
X264805Y99803D01*
X265510D01*
X266161Y100073D01*
X266659Y100571D01*
X266929Y101222D01*
Y101927D01*
X266659Y102578D01*
X266161Y103077D01*
X265510Y103347D01*
D02*
G37*
G36*
X225431Y101850D02*
X224726D01*
X224075Y101581D01*
X223577Y101082D01*
X223307Y100431D01*
Y99726D01*
X223577Y99075D01*
X224075Y98577D01*
X224726Y98307D01*
X225431D01*
X226082Y98577D01*
X226581Y99075D01*
X226850Y99726D01*
Y100431D01*
X226581Y101082D01*
X226082Y101581D01*
X225431Y101850D01*
D02*
G37*
G36*
X254447Y93976D02*
X253742D01*
X253091Y93707D01*
X252593Y93208D01*
X252323Y92557D01*
Y91852D01*
X252593Y91201D01*
X253091Y90703D01*
X253742Y90433D01*
X254447D01*
X255098Y90703D01*
X255596Y91201D01*
X255866Y91852D01*
Y92557D01*
X255596Y93208D01*
X255098Y93707D01*
X254447Y93976D01*
D02*
G37*
G36*
X201415Y87992D02*
X200711D01*
X200059Y87722D01*
X199561Y87224D01*
X199291Y86573D01*
Y85868D01*
X199561Y85217D01*
X200059Y84719D01*
X200711Y84449D01*
X201415D01*
X202067Y84719D01*
X202565Y85217D01*
X202835Y85868D01*
Y86573D01*
X202565Y87224D01*
X202067Y87722D01*
X201415Y87992D01*
D02*
G37*
G36*
X209750Y87963D02*
X209045D01*
X208394Y87693D01*
X207896Y87195D01*
X207626Y86543D01*
Y86503D01*
X203670Y82547D01*
X201179D01*
X201082Y82644D01*
X200431Y82913D01*
X199726D01*
X199075Y82644D01*
X198577Y82145D01*
X198307Y81494D01*
Y80789D01*
X198577Y80138D01*
X199075Y79640D01*
X199726Y79370D01*
X200431D01*
X201082Y79640D01*
X201179Y79737D01*
X204252D01*
X204790Y79844D01*
X205245Y80148D01*
X209516Y84419D01*
X209750D01*
X210401Y84689D01*
X210900Y85187D01*
X211169Y85839D01*
Y86543D01*
X210900Y87195D01*
X210401Y87693D01*
X209750Y87963D01*
D02*
G37*
G36*
X234289Y82598D02*
X233585D01*
X232933Y82329D01*
X232435Y81830D01*
X232165Y81179D01*
Y80474D01*
X232435Y79823D01*
X232933Y79325D01*
X233585Y79055D01*
X234289D01*
X234941Y79325D01*
X235439Y79823D01*
X235709Y80474D01*
Y81179D01*
X235439Y81830D01*
X234941Y82329D01*
X234289Y82598D01*
D02*
G37*
G36*
X234998Y76496D02*
X234293D01*
X233642Y76226D01*
X233144Y75728D01*
X232874Y75077D01*
Y74372D01*
X233144Y73721D01*
X233642Y73223D01*
X234293Y72953D01*
X234998D01*
X235649Y73223D01*
X236148Y73721D01*
X236417Y74372D01*
Y75077D01*
X236148Y75728D01*
X235649Y76226D01*
X234998Y76496D01*
D02*
G37*
G36*
X206927Y60236D02*
X206222D01*
X205571Y59966D01*
X205073Y59468D01*
X204803Y58817D01*
Y58112D01*
X205073Y57461D01*
X205571Y56963D01*
X206222Y56693D01*
X206927D01*
X207578Y56963D01*
X208077Y57461D01*
X208347Y58112D01*
Y58817D01*
X208077Y59468D01*
X207578Y59966D01*
X206927Y60236D01*
D02*
G37*
G36*
X200825Y55000D02*
X200120D01*
X199469Y54730D01*
X198970Y54232D01*
X198701Y53581D01*
Y52876D01*
X198970Y52225D01*
X199469Y51726D01*
X200120Y51457D01*
X200825D01*
X201476Y51726D01*
X201974Y52225D01*
X202244Y52876D01*
Y53581D01*
X201974Y54232D01*
X201476Y54730D01*
X200825Y55000D01*
D02*
G37*
G36*
X53581Y153740D02*
X52876D01*
X52225Y153470D01*
X51726Y152972D01*
X51457Y152321D01*
Y151616D01*
X51726Y150965D01*
X52225Y150467D01*
X52876Y150197D01*
X53581D01*
X54232Y150467D01*
X54730Y150965D01*
X55000Y151616D01*
Y152321D01*
X54730Y152972D01*
X54232Y153470D01*
X53581Y153740D01*
D02*
G37*
G36*
X316809Y66732D02*
X316104D01*
X315453Y66463D01*
X314955Y65964D01*
X314685Y65313D01*
Y64608D01*
X314955Y63957D01*
X315453Y63459D01*
X316104Y63189D01*
X316809D01*
X317460Y63459D01*
X317959Y63957D01*
X318228Y64608D01*
Y65313D01*
X317959Y65964D01*
X317460Y66463D01*
X316809Y66732D01*
D02*
G37*
G36*
X306179D02*
X305474D01*
X304823Y66463D01*
X304325Y65964D01*
X304055Y65313D01*
Y64608D01*
X304325Y63957D01*
X304823Y63459D01*
X305474Y63189D01*
X306179D01*
X306830Y63459D01*
X307329Y63957D01*
X307598Y64608D01*
Y65313D01*
X307329Y65964D01*
X306830Y66463D01*
X306179Y66732D01*
D02*
G37*
G36*
X300433Y59411D02*
X299728D01*
X299077Y59141D01*
X298578Y58643D01*
X298309Y57992D01*
Y57287D01*
X298578Y56636D01*
X299077Y56137D01*
X299728Y55868D01*
X300433D01*
X301084Y56137D01*
X301582Y56636D01*
X301852Y57287D01*
Y57992D01*
X301582Y58643D01*
X301084Y59141D01*
X300433Y59411D01*
D02*
G37*
G36*
X145382Y47063D02*
X144677D01*
X144026Y46793D01*
X143527Y46295D01*
X143257Y45643D01*
Y44939D01*
X143527Y44287D01*
X144026Y43789D01*
X144677Y43519D01*
X145382D01*
X146033Y43789D01*
X146531Y44287D01*
X146801Y44939D01*
Y45643D01*
X146531Y46295D01*
X146033Y46793D01*
X145382Y47063D01*
D02*
G37*
G36*
X152006Y238425D02*
X151301D01*
X150650Y238156D01*
X150152Y237657D01*
X149882Y237006D01*
Y236301D01*
X150152Y235650D01*
X150650Y235152D01*
X151301Y234882D01*
X152006D01*
X152657Y235152D01*
X153156Y235650D01*
X153425Y236301D01*
Y237006D01*
X153156Y237657D01*
X152657Y238156D01*
X152006Y238425D01*
D02*
G37*
G36*
X108778Y238347D02*
X108073D01*
X107422Y238077D01*
X106923Y237578D01*
X106653Y236927D01*
Y236222D01*
X106923Y235571D01*
X107422Y235073D01*
X108073Y234803D01*
X108778D01*
X109429Y235073D01*
X109927Y235571D01*
X110197Y236222D01*
Y236927D01*
X109927Y237578D01*
X109429Y238077D01*
X108778Y238347D01*
D02*
G37*
G36*
X110825Y222992D02*
X110120D01*
X109469Y222722D01*
X108970Y222224D01*
X108701Y221573D01*
Y220868D01*
X108970Y220217D01*
X109469Y219719D01*
X110120Y219449D01*
X110825D01*
X111476Y219719D01*
X111974Y220217D01*
X112244Y220868D01*
Y221573D01*
X111974Y222224D01*
X111476Y222722D01*
X110825Y222992D01*
D02*
G37*
G36*
X66612Y222402D02*
X65907D01*
X65256Y222132D01*
X64758Y221634D01*
X64488Y220982D01*
Y220278D01*
X64758Y219626D01*
X65256Y219128D01*
X65907Y218858D01*
X66612D01*
X67263Y219128D01*
X67762Y219626D01*
X68032Y220278D01*
Y220982D01*
X67762Y221634D01*
X67263Y222132D01*
X66612Y222402D01*
D02*
G37*
G36*
X147754Y217874D02*
X147049D01*
X146398Y217604D01*
X145900Y217106D01*
X145630Y216455D01*
Y215750D01*
X145900Y215099D01*
X146398Y214600D01*
X147049Y214331D01*
X147754D01*
X148405Y214600D01*
X148904Y215099D01*
X149173Y215750D01*
Y216455D01*
X148904Y217106D01*
X148405Y217604D01*
X147754Y217874D01*
D02*
G37*
G36*
X105313D02*
X104608D01*
X103957Y217604D01*
X103459Y217106D01*
X103189Y216455D01*
Y215750D01*
X103459Y215099D01*
X103957Y214600D01*
X104608Y214331D01*
X105313D01*
X105964Y214600D01*
X106463Y215099D01*
X106732Y215750D01*
Y216455D01*
X106463Y217106D01*
X105964Y217604D01*
X105313Y217874D01*
D02*
G37*
G36*
X113620Y212992D02*
X112915D01*
X112264Y212722D01*
X111766Y212224D01*
X111496Y211573D01*
Y210868D01*
X111766Y210217D01*
X112264Y209718D01*
X112915Y209449D01*
X113620D01*
X114271Y209718D01*
X114770Y210217D01*
X115039Y210868D01*
Y211573D01*
X114770Y212224D01*
X114271Y212722D01*
X113620Y212992D01*
D02*
G37*
G36*
X69289Y212913D02*
X68585D01*
X67933Y212644D01*
X67435Y212145D01*
X67165Y211494D01*
Y210789D01*
X67435Y210138D01*
X67933Y209640D01*
X68585Y209370D01*
X69289D01*
X69941Y209640D01*
X70439Y210138D01*
X70709Y210789D01*
Y211494D01*
X70439Y212145D01*
X69941Y212644D01*
X69289Y212913D01*
D02*
G37*
G36*
X146534Y207756D02*
X145829D01*
X145177Y207486D01*
X144679Y206988D01*
X144409Y206337D01*
Y205632D01*
X144679Y204981D01*
X145177Y204482D01*
X145829Y204213D01*
X146534D01*
X147185Y204482D01*
X147683Y204981D01*
X147953Y205632D01*
Y206337D01*
X147683Y206988D01*
X147185Y207486D01*
X146534Y207756D01*
D02*
G37*
G36*
X103108Y207559D02*
X102403D01*
X101752Y207289D01*
X101254Y206791D01*
X100984Y206140D01*
Y205435D01*
X101254Y204784D01*
X101752Y204286D01*
X102403Y204016D01*
X103108D01*
X103760Y204286D01*
X104258Y204784D01*
X104528Y205435D01*
Y206140D01*
X104258Y206791D01*
X103760Y207289D01*
X103108Y207559D01*
D02*
G37*
G36*
X113896Y205472D02*
X113191D01*
X112540Y205203D01*
X112041Y204704D01*
X111772Y204053D01*
Y203348D01*
X112041Y202697D01*
X112540Y202199D01*
X113191Y201929D01*
X113896D01*
X114547Y202199D01*
X115045Y202697D01*
X115315Y203348D01*
Y204053D01*
X115045Y204704D01*
X114547Y205203D01*
X113896Y205472D01*
D02*
G37*
G36*
X82400Y197795D02*
X81695D01*
X81044Y197526D01*
X80545Y197027D01*
X80276Y196376D01*
Y195671D01*
X80545Y195020D01*
X81044Y194522D01*
X81695Y194252D01*
X82400D01*
X83051Y194522D01*
X83549Y195020D01*
X83819Y195671D01*
Y196376D01*
X83549Y197027D01*
X83051Y197526D01*
X82400Y197795D01*
D02*
G37*
G36*
X98266Y172165D02*
X97561D01*
X96910Y171896D01*
X96412Y171397D01*
X96142Y170746D01*
Y170041D01*
X96412Y169390D01*
X96910Y168892D01*
X97561Y168622D01*
X98266D01*
X98917Y168892D01*
X99415Y169390D01*
X99685Y170041D01*
Y170746D01*
X99415Y171397D01*
X98917Y171896D01*
X98266Y172165D01*
D02*
G37*
%LPD*%
D14*
X149089Y70197D02*
X149173D01*
X148105Y69213D02*
X149089Y70197D01*
X106063Y69213D02*
X148105D01*
X102835Y72441D02*
X106063Y69213D01*
D66*
X394488Y216024D02*
X399216Y220752D01*
X399366D01*
X312087Y215236D02*
X316890Y220039D01*
X316996D01*
X293740Y167165D02*
X293847D01*
X288937Y162362D02*
X293740Y167165D01*
X204252Y81142D02*
X209301Y86191D01*
X209398D01*
X132711Y149555D02*
X133447Y148819D01*
X135082D01*
X131656Y149555D02*
X132711D01*
X131506Y149706D02*
X131656Y149555D01*
X87559Y79764D02*
X110181D01*
X111441Y78504D01*
X111732D01*
X264646Y112953D02*
X269492Y117799D01*
X269642D01*
X236106Y223547D02*
X236181D01*
X231221Y218661D02*
X236106Y223547D01*
X207684Y153626D02*
X207835D01*
X202799Y148740D02*
X207684Y153626D01*
X135082Y148819D02*
X140053Y153789D01*
X140149D01*
X289016Y55748D02*
Y56457D01*
Y55748D02*
X292756Y52008D01*
X284370Y162362D02*
X288937D01*
X227126Y218661D02*
X231221D01*
X307520Y215236D02*
X312087D01*
X389921Y216024D02*
X394488D01*
X198704Y148740D02*
X202799D01*
X260157Y112953D02*
X264646D01*
X200079Y81142D02*
X204252D01*
X61339Y162441D02*
X64095Y159685D01*
X47717Y162441D02*
X61339D01*
D75*
X399366Y220752D02*
D03*
X316996Y220039D02*
D03*
X293847Y167165D02*
D03*
X300074Y91364D02*
D03*
X209398Y86191D02*
D03*
X102354Y54681D02*
D03*
Y47712D02*
D03*
X149173Y70197D02*
D03*
X234724Y86339D02*
D03*
X102559Y65192D02*
D03*
X145472Y211024D02*
D03*
X202244Y196102D02*
D03*
X186063Y185709D02*
D03*
X69528Y215945D02*
D03*
X118740Y161063D02*
D03*
X78976Y139724D02*
D03*
Y145276D02*
D03*
X78819Y135039D02*
D03*
X140157Y153779D02*
D03*
X131506Y149706D02*
D03*
X157244Y215945D02*
D03*
X102008Y211063D02*
D03*
X113898Y216024D02*
D03*
X87559Y79764D02*
D03*
X102795Y72362D02*
D03*
X111653Y78504D02*
D03*
X191299Y226850D02*
D03*
X151654Y231181D02*
D03*
X108386D02*
D03*
X177717Y58346D02*
D03*
X269642Y117799D02*
D03*
X236181Y223547D02*
D03*
X207835Y153626D02*
D03*
X306024Y83110D02*
D03*
X300074Y88189D02*
D03*
X294409Y117992D02*
D03*
X292756Y52008D02*
D03*
X287402Y88189D02*
D03*
X284370Y162362D02*
D03*
X257638Y227913D02*
D03*
X227126Y218661D02*
D03*
X229216Y157992D02*
D03*
X337991Y224726D02*
D03*
X307520Y215236D02*
D03*
X315000Y171693D02*
D03*
X420551Y225354D02*
D03*
X389921Y216024D02*
D03*
X161499Y158071D02*
D03*
X198704Y148740D02*
D03*
X260157Y112953D02*
D03*
X200079Y81142D02*
D03*
X323425Y43583D02*
D03*
X316457D02*
D03*
X305827D02*
D03*
X38346Y145433D02*
D03*
Y134882D02*
D03*
Y127756D02*
D03*
X9606Y158661D02*
D03*
X47717Y162441D02*
D03*
X316890Y83110D02*
D03*
X287402Y91378D02*
D03*
X343465Y110000D02*
D03*
X339029D02*
D03*
X334594D02*
D03*
X330157D02*
D03*
X343465Y115354D02*
D03*
X330157D02*
D03*
M02*
