G04*
G04 #@! TF.GenerationSoftware,Altium Limited,Altium Designer,24.4.1 (13)*
G04*
G04 Layer_Physical_Order=5*
G04 Layer_Color=16737945*
%FSLAX25Y25*%
%MOIN*%
G70*
G04*
G04 #@! TF.SameCoordinates,39C6E644-0FB7-41BD-BBFD-9FDE9DEB3176*
G04*
G04*
G04 #@! TF.FilePolarity,Positive*
G04*
G01*
G75*
%ADD65C,0.01500*%
%ADD66C,0.01181*%
%ADD68C,0.05906*%
%ADD69C,0.05693*%
%ADD75C,0.01968*%
D65*
X338602Y239498D02*
X362774Y263670D01*
X311208Y239498D02*
X338602D01*
X361895Y265791D02*
X362774Y264913D01*
Y263670D02*
Y264913D01*
X360652Y265791D02*
X361895D01*
X360005Y265144D02*
X360652Y265791D01*
X312243Y236998D02*
X339637D01*
X365274Y262634D02*
Y265948D01*
X339637Y236998D02*
X365274Y262634D01*
X362573Y268649D02*
X365274Y265948D01*
X362573Y268649D02*
Y271343D01*
X261583Y189873D02*
X311208Y239498D01*
X358882Y275034D02*
X362573Y271343D01*
X338228Y279528D02*
X342722Y275034D01*
X358882D01*
X264083Y188838D02*
X312243Y236998D01*
X334213Y269528D02*
X338597Y265144D01*
X360005D01*
X334213Y269297D02*
Y269528D01*
X227252Y276543D02*
X241161D01*
X243293Y278675D02*
Y281343D01*
X245861Y283911D01*
X251285D02*
X255669Y279528D01*
X223568Y269324D02*
X228288Y274043D01*
X242197D01*
X254029Y275144D02*
X259646Y269528D01*
X245861Y283911D02*
X251285D01*
X242197Y274043D02*
X243958Y275804D01*
X241161Y276543D02*
X243293Y278675D01*
X243958Y275804D02*
X245201D01*
X221068Y270359D02*
X227252Y276543D01*
X245201Y275804D02*
X245861Y275144D01*
X254029D01*
X223568Y233096D02*
Y269324D01*
X221068Y234131D02*
Y270359D01*
X167421Y176949D02*
X223568Y233096D01*
X166386Y179449D02*
X221068Y234131D01*
X264083Y135947D02*
Y188838D01*
X261583Y136983D02*
Y189873D01*
X98003Y170483D02*
Y172029D01*
X97913Y170394D02*
X98003Y170483D01*
X154409Y179449D02*
X166386D01*
X154615Y176949D02*
X167421D01*
X98003Y172029D02*
X160974Y235000D01*
X165354D01*
X263938Y135803D02*
X264083Y135947D01*
X261348Y136417D02*
Y136749D01*
X261583Y136983D01*
X263848Y133917D02*
X263938Y134007D01*
Y135803D01*
X234341Y204040D02*
Y207776D01*
X274722Y248158D01*
X231841Y208811D02*
X272222Y249193D01*
X231841Y205075D02*
Y208811D01*
X202277Y175512D02*
X231841Y205075D01*
X268139Y269026D02*
X271344D01*
X272222Y268147D01*
X267638Y269528D02*
X268139Y269026D01*
X204045Y173744D02*
Y173744D01*
X234341Y204040D01*
X272286Y274431D02*
Y278895D01*
X272222Y249193D02*
Y268147D01*
X272286Y274431D02*
X274722Y271995D01*
X271654Y279528D02*
X272286Y278895D01*
X274722Y248158D02*
Y271995D01*
D66*
X325500Y190933D02*
X335276Y200709D01*
X325500Y42723D02*
Y190933D01*
X298015Y131204D02*
X314331Y147520D01*
X298015Y91619D02*
Y131204D01*
X284803Y139134D02*
X296484Y127453D01*
Y92253D02*
Y127453D01*
X312361Y7816D02*
Y118758D01*
X308098Y118217D02*
X310787Y120905D01*
X298000Y91603D02*
X298015Y91619D01*
X308098Y18039D02*
Y118217D01*
X312222Y118897D02*
X312361Y118758D01*
X321811Y46003D02*
Y179488D01*
X317421Y41613D02*
X321811Y46003D01*
X307520Y193780D02*
X321811Y179488D01*
X107837Y47758D02*
Y53388D01*
X93405Y15726D02*
Y33327D01*
X107837Y47758D01*
Y53388D02*
X146968Y92520D01*
X84255Y12497D02*
X90177D01*
X79232Y17520D02*
X84255Y12497D01*
X90177D02*
X93405Y15726D01*
X89075Y37715D02*
X144606Y93247D01*
X89075Y17520D02*
Y37715D01*
X144606Y93247D02*
Y188858D01*
X167815Y17520D02*
Y22505D01*
X145029Y45291D02*
X167815Y22505D01*
X144606Y188858D02*
X156653Y200905D01*
X166614Y196339D02*
X177205D01*
X146968Y176693D02*
X166614Y196339D01*
X146968Y92520D02*
Y176693D01*
X312361Y7816D02*
X312500Y7677D01*
X307579Y17520D02*
X308098Y18039D01*
X298000Y56786D02*
Y91603D01*
Y56786D02*
X302658Y52128D01*
Y7677D02*
Y52128D01*
X297736Y17520D02*
Y54884D01*
X296468Y56152D02*
Y92237D01*
X296484Y92253D01*
X296468Y56152D02*
X297736Y54884D01*
X322342Y39566D02*
X325500Y42723D01*
X322342Y7677D02*
Y39566D01*
X317421Y17520D02*
Y41613D01*
D68*
X167815Y17520D02*
D03*
X89075D02*
D03*
X79232Y17520D02*
D03*
X312500Y7677D02*
D03*
X307579Y17520D02*
D03*
X297736Y17520D02*
D03*
X322342Y7677D02*
D03*
X317421Y17520D02*
D03*
X302658Y7677D02*
D03*
D69*
X271654Y279528D02*
D03*
X267638Y269528D02*
D03*
X259646D02*
D03*
X255669Y279528D02*
D03*
X334213Y269528D02*
D03*
X338228Y279528D02*
D03*
D75*
X335276Y200709D02*
D03*
X314331Y147520D02*
D03*
X310787Y120905D02*
D03*
X312222Y118897D02*
D03*
X97913Y170394D02*
D03*
X145029Y45291D02*
D03*
X156653Y200905D02*
D03*
X177205Y196339D02*
D03*
X154615Y176949D02*
D03*
X165354Y235000D02*
D03*
X307520Y193780D02*
D03*
X261348Y136417D02*
D03*
X284803Y139134D02*
D03*
X154409Y179449D02*
D03*
X204045Y173744D02*
D03*
X202277Y175512D02*
D03*
X263848Y133917D02*
D03*
M02*
