G04*
G04 #@! TF.GenerationSoftware,Altium Limited,Altium Designer,24.4.1 (13)*
G04*
G04 Layer_Physical_Order=4*
G04 Layer_Color=6736896*
%FSLAX25Y25*%
%MOIN*%
G70*
G04*
G04 #@! TF.SameCoordinates,76420C20-E0AA-4C22-8192-2CE45D6D8625*
G04*
G04*
G04 #@! TF.FilePolarity,Positive*
G04*
G01*
G75*
%ADD69C,0.05906*%
%ADD73C,0.06102*%
%ADD74C,0.13287*%
%ADD76C,0.02362*%
G36*
X444079Y305139D02*
X443585Y305060D01*
X443546Y305182D01*
X442434Y307363D01*
X440996Y309344D01*
X439265Y311074D01*
X437285Y312513D01*
X435103Y313624D01*
X432775Y314381D01*
X430358Y314764D01*
X427910D01*
X425492Y314381D01*
X423164Y313624D01*
X420983Y312513D01*
X419003Y311074D01*
X417272Y309344D01*
X415833Y307363D01*
X414722Y305182D01*
X413966Y302854D01*
X413583Y300436D01*
Y297989D01*
X413966Y295571D01*
X414722Y293243D01*
X415833Y291062D01*
X417272Y289082D01*
X419003Y287351D01*
X420983Y285912D01*
X423164Y284801D01*
X425492Y284044D01*
X427910Y283661D01*
X430358D01*
X432775Y284044D01*
X435103Y284801D01*
X437285Y285912D01*
X439265Y287351D01*
X440996Y289082D01*
X442434Y291062D01*
X443546Y293243D01*
X443585Y293365D01*
X444079Y293286D01*
Y6708D01*
X393701D01*
X393394Y6647D01*
X393133Y6473D01*
X392959Y6213D01*
X392898Y5906D01*
Y803D01*
X63795D01*
Y5906D01*
X63734Y6213D01*
X63560Y6473D01*
X63299Y6647D01*
X62992Y6708D01*
X803D01*
Y49192D01*
X1297Y49270D01*
X1336Y49148D01*
X2448Y46968D01*
X3886Y44987D01*
X5617Y43256D01*
X7597Y41818D01*
X9778Y40706D01*
X12106Y39950D01*
X14524Y39567D01*
X16972D01*
X19390Y39950D01*
X21718Y40706D01*
X23899Y41818D01*
X25879Y43256D01*
X27610Y44987D01*
X29049Y46968D01*
X30160Y49148D01*
X30916Y51477D01*
X31299Y53894D01*
Y56342D01*
X30916Y58760D01*
X30160Y61088D01*
X29049Y63269D01*
X27610Y65249D01*
X25879Y66980D01*
X23899Y68419D01*
X21718Y69530D01*
X19390Y70286D01*
X16972Y70669D01*
X14524D01*
X12106Y70286D01*
X9778Y69530D01*
X7597Y68419D01*
X5617Y66980D01*
X3886Y65249D01*
X2448Y63269D01*
X1336Y61088D01*
X1297Y60966D01*
X803Y61044D01*
Y293286D01*
X1297Y293365D01*
X1336Y293243D01*
X2448Y291062D01*
X3886Y289082D01*
X5617Y287351D01*
X7597Y285912D01*
X9778Y284801D01*
X12106Y284044D01*
X14524Y283661D01*
X16972D01*
X19390Y284044D01*
X21718Y284801D01*
X23899Y285912D01*
X25879Y287351D01*
X27610Y289082D01*
X29049Y291062D01*
X30160Y293243D01*
X30916Y295571D01*
X31299Y297989D01*
Y300436D01*
X30916Y302854D01*
X30160Y305182D01*
X29049Y307363D01*
X27610Y309344D01*
X25879Y311074D01*
X23899Y312513D01*
X21718Y313624D01*
X19390Y314381D01*
X16972Y314764D01*
X14524D01*
X12106Y314381D01*
X9778Y313624D01*
X7597Y312513D01*
X5617Y311074D01*
X3886Y309344D01*
X2448Y307363D01*
X1336Y305182D01*
X1297Y305060D01*
X803Y305139D01*
Y316126D01*
X444079D01*
Y305139D01*
D02*
G37*
%LPC*%
G36*
X380930Y288140D02*
X379503D01*
X378123Y287770D01*
X376887Y287056D01*
X375877Y286047D01*
X375163Y284810D01*
X374793Y283431D01*
Y282003D01*
X375163Y280623D01*
X375877Y279387D01*
X376887Y278377D01*
X378123Y277663D01*
X379503Y277293D01*
X380930D01*
X382310Y277663D01*
X383546Y278377D01*
X384556Y279387D01*
X385270Y280623D01*
X385640Y282003D01*
Y283431D01*
X385270Y284810D01*
X384556Y286047D01*
X383546Y287056D01*
X382310Y287770D01*
X380930Y288140D01*
D02*
G37*
G36*
X316915D02*
X315487D01*
X314107Y287770D01*
X312871Y287056D01*
X311861Y286047D01*
X311147Y284810D01*
X310778Y283431D01*
Y282003D01*
X311147Y280623D01*
X311861Y279387D01*
X312871Y278377D01*
X314107Y277663D01*
X315487Y277293D01*
X316915D01*
X318294Y277663D01*
X319531Y278377D01*
X320540Y279387D01*
X321254Y280623D01*
X321624Y282003D01*
Y283431D01*
X321254Y284810D01*
X320540Y286047D01*
X319531Y287056D01*
X318294Y287770D01*
X316915Y288140D01*
D02*
G37*
G36*
X290379D02*
X288951D01*
X287572Y287770D01*
X286335Y287056D01*
X285326Y286047D01*
X284612Y284810D01*
X284242Y283431D01*
Y282003D01*
X284612Y280623D01*
X285326Y279387D01*
X286335Y278377D01*
X287572Y277663D01*
X288951Y277293D01*
X290379D01*
X291759Y277663D01*
X292995Y278377D01*
X294005Y279387D01*
X294719Y280623D01*
X295089Y282003D01*
Y283431D01*
X294719Y284810D01*
X294005Y286047D01*
X292995Y287056D01*
X291759Y287770D01*
X290379Y288140D01*
D02*
G37*
G36*
X226364D02*
X224936D01*
X223556Y287770D01*
X222320Y287056D01*
X221310Y286047D01*
X220596Y284810D01*
X220226Y283431D01*
Y282003D01*
X220596Y280623D01*
X221310Y279387D01*
X222320Y278377D01*
X223556Y277663D01*
X224936Y277293D01*
X226364D01*
X227743Y277663D01*
X228979Y278377D01*
X229989Y279387D01*
X230703Y280623D01*
X231073Y282003D01*
Y283431D01*
X230703Y284810D01*
X229989Y286047D01*
X228979Y287056D01*
X227743Y287770D01*
X226364Y288140D01*
D02*
G37*
G36*
X196332Y284626D02*
X195321D01*
X194345Y284364D01*
X193470Y283859D01*
X192755Y283144D01*
X192250Y282269D01*
X191988Y281293D01*
Y280282D01*
X192250Y279306D01*
X192755Y278431D01*
X193470Y277716D01*
X194345Y277210D01*
X195321Y276949D01*
X196332D01*
X197308Y277210D01*
X198184Y277716D01*
X198898Y278431D01*
X199404Y279306D01*
X199665Y280282D01*
Y281293D01*
X199404Y282269D01*
X198898Y283144D01*
X198184Y283859D01*
X197308Y284364D01*
X196332Y284626D01*
D02*
G37*
G36*
X186332D02*
X185321D01*
X184345Y284364D01*
X183470Y283859D01*
X182755Y283144D01*
X182250Y282269D01*
X181988Y281293D01*
Y280282D01*
X182250Y279306D01*
X182755Y278431D01*
X183470Y277716D01*
X184345Y277210D01*
X185321Y276949D01*
X186332D01*
X187308Y277210D01*
X188184Y277716D01*
X188898Y278431D01*
X189404Y279306D01*
X189665Y280282D01*
Y281293D01*
X189404Y282269D01*
X188898Y283144D01*
X188184Y283859D01*
X187308Y284364D01*
X186332Y284626D01*
D02*
G37*
G36*
X176332D02*
X175321D01*
X174345Y284364D01*
X173470Y283859D01*
X172755Y283144D01*
X172250Y282269D01*
X171988Y281293D01*
Y280282D01*
X172250Y279306D01*
X172755Y278431D01*
X173470Y277716D01*
X174345Y277210D01*
X175321Y276949D01*
X176332D01*
X177308Y277210D01*
X178184Y277716D01*
X178898Y278431D01*
X179404Y279306D01*
X179665Y280282D01*
Y281293D01*
X179404Y282269D01*
X178898Y283144D01*
X178184Y283859D01*
X177308Y284364D01*
X176332Y284626D01*
D02*
G37*
G36*
X166332D02*
X165321D01*
X164345Y284364D01*
X163470Y283859D01*
X162755Y283144D01*
X162250Y282269D01*
X161988Y281293D01*
Y280282D01*
X162250Y279306D01*
X162755Y278431D01*
X163470Y277716D01*
X164345Y277210D01*
X165321Y276949D01*
X166332D01*
X167308Y277210D01*
X168184Y277716D01*
X168898Y278431D01*
X169404Y279306D01*
X169665Y280282D01*
Y281293D01*
X169404Y282269D01*
X168898Y283144D01*
X168184Y283859D01*
X167308Y284364D01*
X166332Y284626D01*
D02*
G37*
G36*
X156332D02*
X155321D01*
X154345Y284364D01*
X153470Y283859D01*
X152755Y283144D01*
X152250Y282269D01*
X151988Y281293D01*
Y280282D01*
X152250Y279306D01*
X152755Y278431D01*
X153470Y277716D01*
X154345Y277210D01*
X155321Y276949D01*
X156332D01*
X157308Y277210D01*
X158184Y277716D01*
X158898Y278431D01*
X159404Y279306D01*
X159665Y280282D01*
Y281293D01*
X159404Y282269D01*
X158898Y283144D01*
X158184Y283859D01*
X157308Y284364D01*
X156332Y284626D01*
D02*
G37*
G36*
X146332D02*
X145321D01*
X144345Y284364D01*
X143470Y283859D01*
X142755Y283144D01*
X142250Y282269D01*
X141988Y281293D01*
Y280282D01*
X142250Y279306D01*
X142755Y278431D01*
X143470Y277716D01*
X144345Y277210D01*
X145321Y276949D01*
X146332D01*
X147308Y277210D01*
X148184Y277716D01*
X148898Y278431D01*
X149404Y279306D01*
X149665Y280282D01*
Y281293D01*
X149404Y282269D01*
X148898Y283144D01*
X148184Y283859D01*
X147308Y284364D01*
X146332Y284626D01*
D02*
G37*
G36*
X136332D02*
X135321D01*
X134345Y284364D01*
X133470Y283859D01*
X132755Y283144D01*
X132250Y282269D01*
X131988Y281293D01*
Y280282D01*
X132250Y279306D01*
X132755Y278431D01*
X133470Y277716D01*
X134345Y277210D01*
X135321Y276949D01*
X136332D01*
X137308Y277210D01*
X138184Y277716D01*
X138898Y278431D01*
X139404Y279306D01*
X139665Y280282D01*
Y281293D01*
X139404Y282269D01*
X138898Y283144D01*
X138184Y283859D01*
X137308Y284364D01*
X136332Y284626D01*
D02*
G37*
G36*
X126332D02*
X125321D01*
X124345Y284364D01*
X123470Y283859D01*
X122755Y283144D01*
X122250Y282269D01*
X121988Y281293D01*
Y280282D01*
X122250Y279306D01*
X122755Y278431D01*
X123470Y277716D01*
X124345Y277210D01*
X125321Y276949D01*
X126332D01*
X127308Y277210D01*
X128184Y277716D01*
X128898Y278431D01*
X129404Y279306D01*
X129665Y280282D01*
Y281293D01*
X129404Y282269D01*
X128898Y283144D01*
X128184Y283859D01*
X127308Y284364D01*
X126332Y284626D01*
D02*
G37*
G36*
X116332D02*
X115321D01*
X114345Y284364D01*
X113470Y283859D01*
X112755Y283144D01*
X112250Y282269D01*
X111988Y281293D01*
Y280282D01*
X112250Y279306D01*
X112755Y278431D01*
X113470Y277716D01*
X114345Y277210D01*
X115321Y276949D01*
X116332D01*
X117308Y277210D01*
X118184Y277716D01*
X118898Y278431D01*
X119404Y279306D01*
X119665Y280282D01*
Y281293D01*
X119404Y282269D01*
X118898Y283144D01*
X118184Y283859D01*
X117308Y284364D01*
X116332Y284626D01*
D02*
G37*
G36*
X106332D02*
X105321D01*
X104345Y284364D01*
X103470Y283859D01*
X102755Y283144D01*
X102250Y282269D01*
X101988Y281293D01*
Y280282D01*
X102250Y279306D01*
X102755Y278431D01*
X103470Y277716D01*
X104345Y277210D01*
X105321Y276949D01*
X106332D01*
X107308Y277210D01*
X108184Y277716D01*
X108898Y278431D01*
X109404Y279306D01*
X109665Y280282D01*
Y281293D01*
X109404Y282269D01*
X108898Y283144D01*
X108184Y283859D01*
X107308Y284364D01*
X106332Y284626D01*
D02*
G37*
G36*
X96332D02*
X95321D01*
X94345Y284364D01*
X93470Y283859D01*
X92755Y283144D01*
X92250Y282269D01*
X91988Y281293D01*
Y280282D01*
X92250Y279306D01*
X92755Y278431D01*
X93470Y277716D01*
X94345Y277210D01*
X95321Y276949D01*
X96332D01*
X97308Y277210D01*
X98184Y277716D01*
X98898Y278431D01*
X99404Y279306D01*
X99665Y280282D01*
Y281293D01*
X99404Y282269D01*
X98898Y283144D01*
X98184Y283859D01*
X97308Y284364D01*
X96332Y284626D01*
D02*
G37*
G36*
X86332D02*
X85321D01*
X84345Y284364D01*
X83470Y283859D01*
X82755Y283144D01*
X82250Y282269D01*
X81988Y281293D01*
Y280282D01*
X82250Y279306D01*
X82755Y278431D01*
X83470Y277716D01*
X84345Y277210D01*
X85321Y276949D01*
X86332D01*
X87308Y277210D01*
X88184Y277716D01*
X88898Y278431D01*
X89404Y279306D01*
X89665Y280282D01*
Y281293D01*
X89404Y282269D01*
X88898Y283144D01*
X88184Y283859D01*
X87308Y284364D01*
X86332Y284626D01*
D02*
G37*
G36*
X76332D02*
X75321D01*
X74345Y284364D01*
X73470Y283859D01*
X72755Y283144D01*
X72250Y282269D01*
X71988Y281293D01*
Y280282D01*
X72250Y279306D01*
X72755Y278431D01*
X73470Y277716D01*
X74345Y277210D01*
X75321Y276949D01*
X76332D01*
X77308Y277210D01*
X78184Y277716D01*
X78898Y278431D01*
X79404Y279306D01*
X79665Y280282D01*
Y281293D01*
X79404Y282269D01*
X78898Y283144D01*
X78184Y283859D01*
X77308Y284364D01*
X76332Y284626D01*
D02*
G37*
G36*
X66332D02*
X65321D01*
X64345Y284364D01*
X63470Y283859D01*
X62755Y283144D01*
X62250Y282269D01*
X61988Y281293D01*
Y280282D01*
X62250Y279306D01*
X62755Y278431D01*
X63470Y277716D01*
X64345Y277210D01*
X65321Y276949D01*
X66332D01*
X67308Y277210D01*
X68184Y277716D01*
X68898Y278431D01*
X69404Y279306D01*
X69665Y280282D01*
Y281293D01*
X69404Y282269D01*
X68898Y283144D01*
X68184Y283859D01*
X67308Y284364D01*
X66332Y284626D01*
D02*
G37*
G36*
X56332D02*
X55321D01*
X54345Y284364D01*
X53470Y283859D01*
X52755Y283144D01*
X52250Y282269D01*
X51988Y281293D01*
Y280282D01*
X52250Y279306D01*
X52755Y278431D01*
X53470Y277716D01*
X54345Y277210D01*
X55321Y276949D01*
X56332D01*
X57308Y277210D01*
X58184Y277716D01*
X58898Y278431D01*
X59404Y279306D01*
X59665Y280282D01*
Y281293D01*
X59404Y282269D01*
X58898Y283144D01*
X58184Y283859D01*
X57308Y284364D01*
X56332Y284626D01*
D02*
G37*
G36*
X362683Y283161D02*
X361726D01*
X360802Y282914D01*
X359974Y282435D01*
X359297Y281759D01*
X358819Y280930D01*
X358571Y280006D01*
Y279049D01*
X358819Y278125D01*
X359297Y277296D01*
X359974Y276620D01*
X360802Y276141D01*
X361726Y275894D01*
X362683D01*
X363607Y276141D01*
X364436Y276620D01*
X365112Y277296D01*
X365591Y278125D01*
X365839Y279049D01*
Y280006D01*
X365591Y280930D01*
X365112Y281759D01*
X364436Y282435D01*
X363607Y282914D01*
X362683Y283161D01*
D02*
G37*
G36*
X354691D02*
X353734D01*
X352810Y282914D01*
X351981Y282435D01*
X351305Y281759D01*
X350826Y280930D01*
X350579Y280006D01*
Y279049D01*
X350826Y278125D01*
X351305Y277296D01*
X351981Y276620D01*
X352810Y276141D01*
X353734Y275894D01*
X354691D01*
X355615Y276141D01*
X356444Y276620D01*
X357120Y277296D01*
X357599Y278125D01*
X357846Y279049D01*
Y280006D01*
X357599Y280930D01*
X357120Y281759D01*
X356444Y282435D01*
X355615Y282914D01*
X354691Y283161D01*
D02*
G37*
G36*
X346699D02*
X345742D01*
X344818Y282914D01*
X343989Y282435D01*
X343313Y281759D01*
X342834Y280930D01*
X342587Y280006D01*
Y279049D01*
X342834Y278125D01*
X343313Y277296D01*
X343989Y276620D01*
X344818Y276141D01*
X345742Y275894D01*
X346699D01*
X347623Y276141D01*
X348452Y276620D01*
X349128Y277296D01*
X349607Y278125D01*
X349854Y279049D01*
Y280006D01*
X349607Y280930D01*
X349128Y281759D01*
X348452Y282435D01*
X347623Y282914D01*
X346699Y283161D01*
D02*
G37*
G36*
X338707D02*
X337750D01*
X336826Y282914D01*
X335997Y282435D01*
X335320Y281759D01*
X334842Y280930D01*
X334594Y280006D01*
Y279049D01*
X334842Y278125D01*
X335320Y277296D01*
X335997Y276620D01*
X336826Y276141D01*
X337750Y275894D01*
X338707D01*
X339631Y276141D01*
X340460Y276620D01*
X341136Y277296D01*
X341615Y278125D01*
X341862Y279049D01*
Y280006D01*
X341615Y280930D01*
X341136Y281759D01*
X340460Y282435D01*
X339631Y282914D01*
X338707Y283161D01*
D02*
G37*
G36*
X272132D02*
X271175D01*
X270251Y282914D01*
X269422Y282435D01*
X268746Y281759D01*
X268267Y280930D01*
X268020Y280006D01*
Y279049D01*
X268267Y278125D01*
X268746Y277296D01*
X269422Y276620D01*
X270251Y276141D01*
X271175Y275894D01*
X272132D01*
X273056Y276141D01*
X273885Y276620D01*
X274561Y277296D01*
X275040Y278125D01*
X275287Y279049D01*
Y280006D01*
X275040Y280930D01*
X274561Y281759D01*
X273885Y282435D01*
X273056Y282914D01*
X272132Y283161D01*
D02*
G37*
G36*
X264140D02*
X263183D01*
X262259Y282914D01*
X261430Y282435D01*
X260754Y281759D01*
X260275Y280930D01*
X260028Y280006D01*
Y279049D01*
X260275Y278125D01*
X260754Y277296D01*
X261430Y276620D01*
X262259Y276141D01*
X263183Y275894D01*
X264140D01*
X265064Y276141D01*
X265893Y276620D01*
X266569Y277296D01*
X267048Y278125D01*
X267295Y279049D01*
Y280006D01*
X267048Y280930D01*
X266569Y281759D01*
X265893Y282435D01*
X265064Y282914D01*
X264140Y283161D01*
D02*
G37*
G36*
X256148D02*
X255191D01*
X254267Y282914D01*
X253438Y282435D01*
X252762Y281759D01*
X252283Y280930D01*
X252035Y280006D01*
Y279049D01*
X252283Y278125D01*
X252762Y277296D01*
X253438Y276620D01*
X254267Y276141D01*
X255191Y275894D01*
X256148D01*
X257072Y276141D01*
X257901Y276620D01*
X258577Y277296D01*
X259055Y278125D01*
X259303Y279049D01*
Y280006D01*
X259055Y280930D01*
X258577Y281759D01*
X257901Y282435D01*
X257072Y282914D01*
X256148Y283161D01*
D02*
G37*
G36*
X248156D02*
X247199D01*
X246274Y282914D01*
X245446Y282435D01*
X244769Y281759D01*
X244291Y280930D01*
X244043Y280006D01*
Y279049D01*
X244291Y278125D01*
X244769Y277296D01*
X245446Y276620D01*
X246274Y276141D01*
X247199Y275894D01*
X248156D01*
X249080Y276141D01*
X249908Y276620D01*
X250585Y277296D01*
X251063Y278125D01*
X251311Y279049D01*
Y280006D01*
X251063Y280930D01*
X250585Y281759D01*
X249908Y282435D01*
X249080Y282914D01*
X248156Y283161D01*
D02*
G37*
G36*
X56827Y274713D02*
Y271787D01*
X59753D01*
X59602Y272351D01*
X59069Y273275D01*
X58314Y274029D01*
X57390Y274563D01*
X56827Y274713D01*
D02*
G37*
G36*
X54827D02*
X54263Y274563D01*
X53339Y274029D01*
X52585Y273275D01*
X52052Y272351D01*
X51901Y271787D01*
X54827D01*
Y274713D01*
D02*
G37*
G36*
X196332Y274626D02*
X195321D01*
X194345Y274364D01*
X193470Y273859D01*
X192755Y273144D01*
X192250Y272269D01*
X191988Y271293D01*
Y270282D01*
X192250Y269306D01*
X192755Y268430D01*
X193470Y267716D01*
X194345Y267210D01*
X195321Y266949D01*
X196332D01*
X197308Y267210D01*
X198184Y267716D01*
X198898Y268430D01*
X199404Y269306D01*
X199665Y270282D01*
Y271293D01*
X199404Y272269D01*
X198898Y273144D01*
X198184Y273859D01*
X197308Y274364D01*
X196332Y274626D01*
D02*
G37*
G36*
X186332D02*
X185321D01*
X184345Y274364D01*
X183470Y273859D01*
X182755Y273144D01*
X182250Y272269D01*
X181988Y271293D01*
Y270282D01*
X182250Y269306D01*
X182755Y268430D01*
X183470Y267716D01*
X184345Y267210D01*
X185321Y266949D01*
X186332D01*
X187308Y267210D01*
X188184Y267716D01*
X188898Y268430D01*
X189404Y269306D01*
X189665Y270282D01*
Y271293D01*
X189404Y272269D01*
X188898Y273144D01*
X188184Y273859D01*
X187308Y274364D01*
X186332Y274626D01*
D02*
G37*
G36*
X176332D02*
X175321D01*
X174345Y274364D01*
X173470Y273859D01*
X172755Y273144D01*
X172250Y272269D01*
X171988Y271293D01*
Y270282D01*
X172250Y269306D01*
X172755Y268430D01*
X173470Y267716D01*
X174345Y267210D01*
X175321Y266949D01*
X176332D01*
X177308Y267210D01*
X178184Y267716D01*
X178898Y268430D01*
X179404Y269306D01*
X179665Y270282D01*
Y271293D01*
X179404Y272269D01*
X178898Y273144D01*
X178184Y273859D01*
X177308Y274364D01*
X176332Y274626D01*
D02*
G37*
G36*
X166332D02*
X165321D01*
X164345Y274364D01*
X163470Y273859D01*
X162755Y273144D01*
X162250Y272269D01*
X161988Y271293D01*
Y270282D01*
X162250Y269306D01*
X162755Y268430D01*
X163470Y267716D01*
X164345Y267210D01*
X165321Y266949D01*
X166332D01*
X167308Y267210D01*
X168184Y267716D01*
X168898Y268430D01*
X169404Y269306D01*
X169665Y270282D01*
Y271293D01*
X169404Y272269D01*
X168898Y273144D01*
X168184Y273859D01*
X167308Y274364D01*
X166332Y274626D01*
D02*
G37*
G36*
X156332D02*
X155321D01*
X154345Y274364D01*
X153470Y273859D01*
X152755Y273144D01*
X152250Y272269D01*
X151988Y271293D01*
Y270282D01*
X152250Y269306D01*
X152755Y268430D01*
X153470Y267716D01*
X154345Y267210D01*
X155321Y266949D01*
X156332D01*
X157308Y267210D01*
X158184Y267716D01*
X158898Y268430D01*
X159404Y269306D01*
X159665Y270282D01*
Y271293D01*
X159404Y272269D01*
X158898Y273144D01*
X158184Y273859D01*
X157308Y274364D01*
X156332Y274626D01*
D02*
G37*
G36*
X146332D02*
X145321D01*
X144345Y274364D01*
X143470Y273859D01*
X142755Y273144D01*
X142250Y272269D01*
X141988Y271293D01*
Y270282D01*
X142250Y269306D01*
X142755Y268430D01*
X143470Y267716D01*
X144345Y267210D01*
X145321Y266949D01*
X146332D01*
X147308Y267210D01*
X148184Y267716D01*
X148898Y268430D01*
X149404Y269306D01*
X149665Y270282D01*
Y271293D01*
X149404Y272269D01*
X148898Y273144D01*
X148184Y273859D01*
X147308Y274364D01*
X146332Y274626D01*
D02*
G37*
G36*
X136332D02*
X135321D01*
X134345Y274364D01*
X133470Y273859D01*
X132755Y273144D01*
X132250Y272269D01*
X131988Y271293D01*
Y270282D01*
X132250Y269306D01*
X132755Y268430D01*
X133470Y267716D01*
X134345Y267210D01*
X135321Y266949D01*
X136332D01*
X137308Y267210D01*
X138184Y267716D01*
X138898Y268430D01*
X139404Y269306D01*
X139665Y270282D01*
Y271293D01*
X139404Y272269D01*
X138898Y273144D01*
X138184Y273859D01*
X137308Y274364D01*
X136332Y274626D01*
D02*
G37*
G36*
X126332D02*
X125321D01*
X124345Y274364D01*
X123470Y273859D01*
X122755Y273144D01*
X122250Y272269D01*
X121988Y271293D01*
Y270282D01*
X122250Y269306D01*
X122755Y268430D01*
X123470Y267716D01*
X124345Y267210D01*
X125321Y266949D01*
X126332D01*
X127308Y267210D01*
X128184Y267716D01*
X128898Y268430D01*
X129404Y269306D01*
X129665Y270282D01*
Y271293D01*
X129404Y272269D01*
X128898Y273144D01*
X128184Y273859D01*
X127308Y274364D01*
X126332Y274626D01*
D02*
G37*
G36*
X116332D02*
X115321D01*
X114345Y274364D01*
X113470Y273859D01*
X112755Y273144D01*
X112250Y272269D01*
X111988Y271293D01*
Y270282D01*
X112250Y269306D01*
X112755Y268430D01*
X113470Y267716D01*
X114345Y267210D01*
X115321Y266949D01*
X116332D01*
X117308Y267210D01*
X118184Y267716D01*
X118898Y268430D01*
X119404Y269306D01*
X119665Y270282D01*
Y271293D01*
X119404Y272269D01*
X118898Y273144D01*
X118184Y273859D01*
X117308Y274364D01*
X116332Y274626D01*
D02*
G37*
G36*
X106332D02*
X105321D01*
X104345Y274364D01*
X103470Y273859D01*
X102755Y273144D01*
X102250Y272269D01*
X101988Y271293D01*
Y270282D01*
X102250Y269306D01*
X102755Y268430D01*
X103470Y267716D01*
X104345Y267210D01*
X105321Y266949D01*
X106332D01*
X107308Y267210D01*
X108184Y267716D01*
X108898Y268430D01*
X109404Y269306D01*
X109665Y270282D01*
Y271293D01*
X109404Y272269D01*
X108898Y273144D01*
X108184Y273859D01*
X107308Y274364D01*
X106332Y274626D01*
D02*
G37*
G36*
X96332D02*
X95321D01*
X94345Y274364D01*
X93470Y273859D01*
X92755Y273144D01*
X92250Y272269D01*
X91988Y271293D01*
Y270282D01*
X92250Y269306D01*
X92755Y268430D01*
X93470Y267716D01*
X94345Y267210D01*
X95321Y266949D01*
X96332D01*
X97308Y267210D01*
X98184Y267716D01*
X98898Y268430D01*
X99404Y269306D01*
X99665Y270282D01*
Y271293D01*
X99404Y272269D01*
X98898Y273144D01*
X98184Y273859D01*
X97308Y274364D01*
X96332Y274626D01*
D02*
G37*
G36*
X86332D02*
X85321D01*
X84345Y274364D01*
X83470Y273859D01*
X82755Y273144D01*
X82250Y272269D01*
X81988Y271293D01*
Y270282D01*
X82250Y269306D01*
X82755Y268430D01*
X83470Y267716D01*
X84345Y267210D01*
X85321Y266949D01*
X86332D01*
X87308Y267210D01*
X88184Y267716D01*
X88898Y268430D01*
X89404Y269306D01*
X89665Y270282D01*
Y271293D01*
X89404Y272269D01*
X88898Y273144D01*
X88184Y273859D01*
X87308Y274364D01*
X86332Y274626D01*
D02*
G37*
G36*
X76332D02*
X75321D01*
X74345Y274364D01*
X73470Y273859D01*
X72755Y273144D01*
X72250Y272269D01*
X71988Y271293D01*
Y270282D01*
X72250Y269306D01*
X72755Y268430D01*
X73470Y267716D01*
X74345Y267210D01*
X75321Y266949D01*
X76332D01*
X77308Y267210D01*
X78184Y267716D01*
X78898Y268430D01*
X79404Y269306D01*
X79665Y270282D01*
Y271293D01*
X79404Y272269D01*
X78898Y273144D01*
X78184Y273859D01*
X77308Y274364D01*
X76332Y274626D01*
D02*
G37*
G36*
X66332D02*
X65321D01*
X64345Y274364D01*
X63470Y273859D01*
X62755Y273144D01*
X62250Y272269D01*
X61988Y271293D01*
Y270282D01*
X62250Y269306D01*
X62755Y268430D01*
X63470Y267716D01*
X64345Y267210D01*
X65321Y266949D01*
X66332D01*
X67308Y267210D01*
X68184Y267716D01*
X68898Y268430D01*
X69404Y269306D01*
X69665Y270282D01*
Y271293D01*
X69404Y272269D01*
X68898Y273144D01*
X68184Y273859D01*
X67308Y274364D01*
X66332Y274626D01*
D02*
G37*
G36*
X59753Y269787D02*
X56827D01*
Y266861D01*
X57390Y267012D01*
X58314Y267546D01*
X59069Y268300D01*
X59602Y269224D01*
X59753Y269787D01*
D02*
G37*
G36*
X54827D02*
X51901D01*
X52052Y269224D01*
X52585Y268300D01*
X53339Y267546D01*
X54263Y267012D01*
X54827Y266861D01*
Y269787D01*
D02*
G37*
G36*
X358667Y273161D02*
X357711D01*
X356786Y272914D01*
X355958Y272435D01*
X355281Y271759D01*
X354803Y270930D01*
X354555Y270006D01*
Y269049D01*
X354803Y268125D01*
X355281Y267296D01*
X355958Y266620D01*
X356786Y266141D01*
X357711Y265894D01*
X358667D01*
X359592Y266141D01*
X360420Y266620D01*
X361097Y267296D01*
X361575Y268125D01*
X361823Y269049D01*
Y270006D01*
X361575Y270930D01*
X361097Y271759D01*
X360420Y272435D01*
X359592Y272914D01*
X358667Y273161D01*
D02*
G37*
G36*
X350675D02*
X349718D01*
X348794Y272914D01*
X347966Y272435D01*
X347289Y271759D01*
X346811Y270930D01*
X346563Y270006D01*
Y269049D01*
X346811Y268125D01*
X347289Y267296D01*
X347966Y266620D01*
X348794Y266141D01*
X349718Y265894D01*
X350675D01*
X351600Y266141D01*
X352428Y266620D01*
X353105Y267296D01*
X353583Y268125D01*
X353831Y269049D01*
Y270006D01*
X353583Y270930D01*
X353105Y271759D01*
X352428Y272435D01*
X351600Y272914D01*
X350675Y273161D01*
D02*
G37*
G36*
X342683D02*
X341726D01*
X340802Y272914D01*
X339973Y272435D01*
X339297Y271759D01*
X338819Y270930D01*
X338571Y270006D01*
Y269049D01*
X338819Y268125D01*
X339297Y267296D01*
X339973Y266620D01*
X340802Y266141D01*
X341726Y265894D01*
X342683D01*
X343607Y266141D01*
X344436Y266620D01*
X345112Y267296D01*
X345591Y268125D01*
X345839Y269049D01*
Y270006D01*
X345591Y270930D01*
X345112Y271759D01*
X344436Y272435D01*
X343607Y272914D01*
X342683Y273161D01*
D02*
G37*
G36*
X334691D02*
X333734D01*
X332810Y272914D01*
X331981Y272435D01*
X331305Y271759D01*
X330826Y270930D01*
X330579Y270006D01*
Y269049D01*
X330826Y268125D01*
X331305Y267296D01*
X331981Y266620D01*
X332810Y266141D01*
X333734Y265894D01*
X334691D01*
X335615Y266141D01*
X336444Y266620D01*
X337120Y267296D01*
X337599Y268125D01*
X337846Y269049D01*
Y270006D01*
X337599Y270930D01*
X337120Y271759D01*
X336444Y272435D01*
X335615Y272914D01*
X334691Y273161D01*
D02*
G37*
G36*
X268116D02*
X267159D01*
X266235Y272914D01*
X265407Y272435D01*
X264730Y271759D01*
X264252Y270930D01*
X264004Y270006D01*
Y269049D01*
X264252Y268125D01*
X264730Y267296D01*
X265407Y266620D01*
X266235Y266141D01*
X267159Y265894D01*
X268116D01*
X269040Y266141D01*
X269869Y266620D01*
X270546Y267296D01*
X271024Y268125D01*
X271272Y269049D01*
Y270006D01*
X271024Y270930D01*
X270546Y271759D01*
X269869Y272435D01*
X269040Y272914D01*
X268116Y273161D01*
D02*
G37*
G36*
X260124D02*
X259167D01*
X258243Y272914D01*
X257414Y272435D01*
X256738Y271759D01*
X256259Y270930D01*
X256012Y270006D01*
Y269049D01*
X256259Y268125D01*
X256738Y267296D01*
X257414Y266620D01*
X258243Y266141D01*
X259167Y265894D01*
X260124D01*
X261048Y266141D01*
X261877Y266620D01*
X262554Y267296D01*
X263032Y268125D01*
X263280Y269049D01*
Y270006D01*
X263032Y270930D01*
X262554Y271759D01*
X261877Y272435D01*
X261048Y272914D01*
X260124Y273161D01*
D02*
G37*
G36*
X252132D02*
X251175D01*
X250251Y272914D01*
X249422Y272435D01*
X248746Y271759D01*
X248267Y270930D01*
X248020Y270006D01*
Y269049D01*
X248267Y268125D01*
X248746Y267296D01*
X249422Y266620D01*
X250251Y266141D01*
X251175Y265894D01*
X252132D01*
X253056Y266141D01*
X253885Y266620D01*
X254561Y267296D01*
X255040Y268125D01*
X255287Y269049D01*
Y270006D01*
X255040Y270930D01*
X254561Y271759D01*
X253885Y272435D01*
X253056Y272914D01*
X252132Y273161D01*
D02*
G37*
G36*
X244140D02*
X243183D01*
X242259Y272914D01*
X241430Y272435D01*
X240754Y271759D01*
X240275Y270930D01*
X240028Y270006D01*
Y269049D01*
X240275Y268125D01*
X240754Y267296D01*
X241430Y266620D01*
X242259Y266141D01*
X243183Y265894D01*
X244140D01*
X245064Y266141D01*
X245893Y266620D01*
X246569Y267296D01*
X247048Y268125D01*
X247295Y269049D01*
Y270006D01*
X247048Y270930D01*
X246569Y271759D01*
X245893Y272435D01*
X245064Y272914D01*
X244140Y273161D01*
D02*
G37*
G36*
X373916Y273209D02*
X372501D01*
X371113Y272933D01*
X369805Y272391D01*
X368629Y271605D01*
X367628Y270604D01*
X366841Y269427D01*
X366300Y268119D01*
X366024Y266731D01*
Y265316D01*
X366300Y263928D01*
X366841Y262620D01*
X367628Y261443D01*
X368629Y260443D01*
X369805Y259656D01*
X371113Y259115D01*
X372501Y258839D01*
X373916D01*
X375305Y259115D01*
X376612Y259656D01*
X377789Y260443D01*
X378790Y261443D01*
X379576Y262620D01*
X380118Y263928D01*
X380394Y265316D01*
Y266731D01*
X380118Y268119D01*
X379576Y269427D01*
X378790Y270604D01*
X377789Y271605D01*
X376612Y272391D01*
X375305Y272933D01*
X373916Y273209D01*
D02*
G37*
G36*
X323916D02*
X322501D01*
X321113Y272933D01*
X319805Y272391D01*
X318629Y271605D01*
X317628Y270604D01*
X316841Y269427D01*
X316300Y268119D01*
X316024Y266731D01*
Y265316D01*
X316300Y263928D01*
X316841Y262620D01*
X317628Y261443D01*
X318629Y260443D01*
X319805Y259656D01*
X321113Y259115D01*
X322501Y258839D01*
X323916D01*
X325305Y259115D01*
X326612Y259656D01*
X327789Y260443D01*
X328790Y261443D01*
X329576Y262620D01*
X330118Y263928D01*
X330394Y265316D01*
Y266731D01*
X330118Y268119D01*
X329576Y269427D01*
X328790Y270604D01*
X327789Y271605D01*
X326612Y272391D01*
X325305Y272933D01*
X323916Y273209D01*
D02*
G37*
G36*
X283365D02*
X281950D01*
X280562Y272933D01*
X279254Y272391D01*
X278077Y271605D01*
X277077Y270604D01*
X276290Y269427D01*
X275748Y268119D01*
X275472Y266731D01*
Y265316D01*
X275748Y263928D01*
X276290Y262620D01*
X277077Y261443D01*
X278077Y260443D01*
X279254Y259656D01*
X280562Y259115D01*
X281950Y258839D01*
X283365D01*
X284753Y259115D01*
X286061Y259656D01*
X287238Y260443D01*
X288239Y261443D01*
X289025Y262620D01*
X289566Y263928D01*
X289843Y265316D01*
Y266731D01*
X289566Y268119D01*
X289025Y269427D01*
X288239Y270604D01*
X287238Y271605D01*
X286061Y272391D01*
X284753Y272933D01*
X283365Y273209D01*
D02*
G37*
G36*
X233365D02*
X231950D01*
X230562Y272933D01*
X229254Y272391D01*
X228077Y271605D01*
X227077Y270604D01*
X226290Y269427D01*
X225748Y268119D01*
X225472Y266731D01*
Y265316D01*
X225748Y263928D01*
X226290Y262620D01*
X227077Y261443D01*
X228077Y260443D01*
X229254Y259656D01*
X230562Y259115D01*
X231950Y258839D01*
X233365D01*
X234753Y259115D01*
X236061Y259656D01*
X237238Y260443D01*
X238239Y261443D01*
X239025Y262620D01*
X239566Y263928D01*
X239843Y265316D01*
Y266731D01*
X239566Y268119D01*
X239025Y269427D01*
X238239Y270604D01*
X237238Y271605D01*
X236061Y272391D01*
X234753Y272933D01*
X233365Y273209D01*
D02*
G37*
G36*
X165746Y236968D02*
X164963D01*
X164239Y236669D01*
X163686Y236115D01*
X163386Y235392D01*
Y234608D01*
X163686Y233885D01*
X164239Y233331D01*
X164963Y233032D01*
X165746D01*
X166469Y233331D01*
X167023Y233885D01*
X167323Y234608D01*
Y235392D01*
X167023Y236115D01*
X166469Y236669D01*
X165746Y236968D01*
D02*
G37*
G36*
X152045Y233150D02*
X151262D01*
X150539Y232850D01*
X149985Y232296D01*
X149685Y231573D01*
Y230789D01*
X149985Y230066D01*
X150539Y229512D01*
X151262Y229213D01*
X152045D01*
X152769Y229512D01*
X153322Y230066D01*
X153622Y230789D01*
Y231573D01*
X153322Y232296D01*
X152769Y232850D01*
X152045Y233150D01*
D02*
G37*
G36*
X108777D02*
X107994D01*
X107271Y232850D01*
X106717Y232296D01*
X106417Y231573D01*
Y230789D01*
X106717Y230066D01*
X107271Y229512D01*
X107994Y229213D01*
X108777D01*
X109501Y229512D01*
X110055Y230066D01*
X110354Y230789D01*
Y231573D01*
X110055Y232296D01*
X109501Y232850D01*
X108777Y233150D01*
D02*
G37*
G36*
X258169Y229743D02*
X257385D01*
X256662Y229443D01*
X256108Y228889D01*
X255808Y228166D01*
Y227383D01*
X256108Y226659D01*
X256662Y226105D01*
X257385Y225806D01*
X258169D01*
X258892Y226105D01*
X259446Y226659D01*
X259746Y227383D01*
Y228166D01*
X259446Y228889D01*
X258892Y229443D01*
X258169Y229743D01*
D02*
G37*
G36*
X191691Y228819D02*
X190908D01*
X190184Y228519D01*
X189630Y227965D01*
X189331Y227242D01*
Y226459D01*
X189630Y225735D01*
X190184Y225182D01*
X190908Y224882D01*
X191691D01*
X192414Y225182D01*
X192968Y225735D01*
X193268Y226459D01*
Y227242D01*
X192968Y227965D01*
X192414Y228519D01*
X191691Y228819D01*
D02*
G37*
G36*
X420943Y227323D02*
X420160D01*
X419436Y227023D01*
X418882Y226469D01*
X418583Y225746D01*
Y224963D01*
X418882Y224239D01*
X419436Y223686D01*
X420160Y223386D01*
X420943D01*
X421666Y223686D01*
X422220Y224239D01*
X422520Y224963D01*
Y225746D01*
X422220Y226469D01*
X421666Y227023D01*
X420943Y227323D01*
D02*
G37*
G36*
X338383Y226694D02*
X337599D01*
X336876Y226394D01*
X336322Y225841D01*
X336022Y225117D01*
Y224334D01*
X336322Y223610D01*
X336876Y223057D01*
X337599Y222757D01*
X338383D01*
X339106Y223057D01*
X339660Y223610D01*
X339960Y224334D01*
Y225117D01*
X339660Y225841D01*
X339106Y226394D01*
X338383Y226694D01*
D02*
G37*
G36*
X236573Y225515D02*
X235790D01*
X235066Y225216D01*
X234512Y224662D01*
X234213Y223938D01*
Y223155D01*
X234512Y222432D01*
X235066Y221878D01*
X235790Y221578D01*
X236573D01*
X237296Y221878D01*
X237850Y222432D01*
X238150Y223155D01*
Y223938D01*
X237850Y224662D01*
X237296Y225216D01*
X236573Y225515D01*
D02*
G37*
G36*
X110864Y223189D02*
X110081D01*
X109357Y222889D01*
X108804Y222336D01*
X108504Y221612D01*
Y220829D01*
X108804Y220105D01*
X109357Y219552D01*
X110081Y219252D01*
X110864D01*
X111588Y219552D01*
X112141Y220105D01*
X112441Y220829D01*
Y221612D01*
X112141Y222336D01*
X111588Y222889D01*
X110864Y223189D01*
D02*
G37*
G36*
X399955Y222720D02*
X399172D01*
X398448Y222420D01*
X397895Y221867D01*
X397595Y221143D01*
Y220360D01*
X397895Y219637D01*
X398448Y219083D01*
X399172Y218783D01*
X399955D01*
X400678Y219083D01*
X401232Y219637D01*
X401532Y220360D01*
Y221143D01*
X401232Y221867D01*
X400678Y222420D01*
X399955Y222720D01*
D02*
G37*
G36*
X66651Y222598D02*
X65868D01*
X65145Y222299D01*
X64591Y221745D01*
X64291Y221022D01*
Y220238D01*
X64591Y219515D01*
X65145Y218961D01*
X65868Y218661D01*
X66651D01*
X67375Y218961D01*
X67929Y219515D01*
X68228Y220238D01*
Y221022D01*
X67929Y221745D01*
X67375Y222299D01*
X66651Y222598D01*
D02*
G37*
G36*
X317527Y221869D02*
X316744D01*
X316020Y221569D01*
X315466Y221015D01*
X315167Y220292D01*
Y219509D01*
X315466Y218785D01*
X316020Y218231D01*
X316744Y217932D01*
X317527D01*
X318250Y218231D01*
X318804Y218785D01*
X319104Y219509D01*
Y220292D01*
X318804Y221015D01*
X318250Y221569D01*
X317527Y221869D01*
D02*
G37*
G36*
X227518Y220630D02*
X226734D01*
X226011Y220330D01*
X225457Y219777D01*
X225157Y219053D01*
Y218270D01*
X225457Y217546D01*
X226011Y216993D01*
X226734Y216693D01*
X227518D01*
X228241Y216993D01*
X228795Y217546D01*
X229095Y218270D01*
Y219053D01*
X228795Y219777D01*
X228241Y220330D01*
X227518Y220630D01*
D02*
G37*
G36*
X147793Y218071D02*
X147010D01*
X146286Y217771D01*
X145733Y217217D01*
X145433Y216494D01*
Y215711D01*
X145733Y214987D01*
X146286Y214434D01*
X147010Y214134D01*
X147793D01*
X148517Y214434D01*
X149070Y214987D01*
X149370Y215711D01*
Y216494D01*
X149070Y217217D01*
X148517Y217771D01*
X147793Y218071D01*
D02*
G37*
G36*
X105352D02*
X104569D01*
X103846Y217771D01*
X103292Y217217D01*
X102992Y216494D01*
Y215711D01*
X103292Y214987D01*
X103846Y214434D01*
X104569Y214134D01*
X105352D01*
X106076Y214434D01*
X106629Y214987D01*
X106929Y215711D01*
Y216494D01*
X106629Y217217D01*
X106076Y217771D01*
X105352Y218071D01*
D02*
G37*
G36*
X390313Y217992D02*
X389530D01*
X388806Y217692D01*
X388252Y217139D01*
X387953Y216415D01*
Y215632D01*
X388252Y214909D01*
X388806Y214355D01*
X389530Y214055D01*
X390313D01*
X391036Y214355D01*
X391590Y214909D01*
X391890Y215632D01*
Y216415D01*
X391590Y217139D01*
X391036Y217692D01*
X390313Y217992D01*
D02*
G37*
G36*
X114289D02*
X113506D01*
X112783Y217692D01*
X112229Y217139D01*
X111929Y216415D01*
Y215632D01*
X112229Y214909D01*
X112783Y214355D01*
X113506Y214055D01*
X114289D01*
X115013Y214355D01*
X115567Y214909D01*
X115866Y215632D01*
Y216415D01*
X115567Y217139D01*
X115013Y217692D01*
X114289Y217992D01*
D02*
G37*
G36*
X157636Y217913D02*
X156852D01*
X156129Y217614D01*
X155575Y217060D01*
X155276Y216336D01*
Y215553D01*
X155575Y214830D01*
X156129Y214276D01*
X156852Y213976D01*
X157636D01*
X158359Y214276D01*
X158913Y214830D01*
X159213Y215553D01*
Y216336D01*
X158913Y217060D01*
X158359Y217614D01*
X157636Y217913D01*
D02*
G37*
G36*
X69919D02*
X69136D01*
X68413Y217614D01*
X67859Y217060D01*
X67559Y216336D01*
Y215553D01*
X67859Y214830D01*
X68413Y214276D01*
X69136Y213976D01*
X69919D01*
X70643Y214276D01*
X71196Y214830D01*
X71496Y215553D01*
Y216336D01*
X71196Y217060D01*
X70643Y217614D01*
X69919Y217913D01*
D02*
G37*
G36*
X307911Y217205D02*
X307128D01*
X306405Y216905D01*
X305851Y216351D01*
X305551Y215628D01*
Y214845D01*
X305851Y214121D01*
X306405Y213567D01*
X307128Y213268D01*
X307911D01*
X308635Y213567D01*
X309189Y214121D01*
X309488Y214845D01*
Y215628D01*
X309189Y216351D01*
X308635Y216905D01*
X307911Y217205D01*
D02*
G37*
G36*
X113659Y213189D02*
X112876D01*
X112153Y212889D01*
X111599Y212335D01*
X111299Y211612D01*
Y210829D01*
X111599Y210105D01*
X112153Y209552D01*
X112876Y209252D01*
X113659D01*
X114383Y209552D01*
X114936Y210105D01*
X115236Y210829D01*
Y211612D01*
X114936Y212335D01*
X114383Y212889D01*
X113659Y213189D01*
D02*
G37*
G36*
X69329Y213110D02*
X68546D01*
X67822Y212811D01*
X67268Y212257D01*
X66969Y211533D01*
Y210750D01*
X67268Y210027D01*
X67822Y209473D01*
X68546Y209173D01*
X69329D01*
X70052Y209473D01*
X70606Y210027D01*
X70906Y210750D01*
Y211533D01*
X70606Y212257D01*
X70052Y212811D01*
X69329Y213110D01*
D02*
G37*
G36*
X102399Y213032D02*
X101616D01*
X100893Y212732D01*
X100339Y212178D01*
X100039Y211455D01*
Y210671D01*
X100339Y209948D01*
X100893Y209394D01*
X101616Y209095D01*
X102399D01*
X103123Y209394D01*
X103677Y209948D01*
X103976Y210671D01*
Y211455D01*
X103677Y212178D01*
X103123Y212732D01*
X102399Y213032D01*
D02*
G37*
G36*
X145896Y212961D02*
X145112D01*
X144389Y212661D01*
X143835Y212107D01*
X143535Y211384D01*
Y210601D01*
X143835Y209877D01*
X144389Y209323D01*
X145112Y209024D01*
X145896D01*
X146619Y209323D01*
X147173Y209877D01*
X147472Y210601D01*
Y211384D01*
X147173Y212107D01*
X146619Y212661D01*
X145896Y212961D01*
D02*
G37*
G36*
X146573Y207953D02*
X145790D01*
X145066Y207653D01*
X144512Y207099D01*
X144213Y206376D01*
Y205593D01*
X144512Y204869D01*
X145066Y204315D01*
X145790Y204016D01*
X146573D01*
X147296Y204315D01*
X147850Y204869D01*
X148150Y205593D01*
Y206376D01*
X147850Y207099D01*
X147296Y207653D01*
X146573Y207953D01*
D02*
G37*
G36*
X103147Y207756D02*
X102364D01*
X101641Y207456D01*
X101087Y206903D01*
X100787Y206179D01*
Y205396D01*
X101087Y204672D01*
X101641Y204119D01*
X102364Y203819D01*
X103147D01*
X103871Y204119D01*
X104425Y204672D01*
X104724Y205396D01*
Y206179D01*
X104425Y206903D01*
X103871Y207456D01*
X103147Y207756D01*
D02*
G37*
G36*
X417990Y203189D02*
X417207D01*
X416483Y202889D01*
X415930Y202336D01*
X415630Y201612D01*
Y200829D01*
X415930Y200105D01*
X416483Y199552D01*
X417207Y199252D01*
X417990D01*
X418714Y199552D01*
X419267Y200105D01*
X419567Y200829D01*
Y201612D01*
X419267Y202336D01*
X418714Y202889D01*
X417990Y203189D01*
D02*
G37*
G36*
X157045Y202874D02*
X156262D01*
X155538Y202574D01*
X154985Y202021D01*
X154685Y201297D01*
Y200514D01*
X154985Y199790D01*
X155538Y199237D01*
X156262Y198937D01*
X157045D01*
X157769Y199237D01*
X158322Y199790D01*
X158622Y200514D01*
Y201297D01*
X158322Y202021D01*
X157769Y202574D01*
X157045Y202874D01*
D02*
G37*
G36*
X335667Y202677D02*
X334884D01*
X334160Y202378D01*
X333607Y201824D01*
X333307Y201100D01*
Y200317D01*
X333607Y199594D01*
X334160Y199040D01*
X334884Y198740D01*
X335667D01*
X336391Y199040D01*
X336944Y199594D01*
X337244Y200317D01*
Y201100D01*
X336944Y201824D01*
X336391Y202378D01*
X335667Y202677D01*
D02*
G37*
G36*
X221258Y200591D02*
X220475D01*
X219751Y200291D01*
X219197Y199737D01*
X218898Y199014D01*
Y198231D01*
X219197Y197507D01*
X219751Y196953D01*
X220475Y196653D01*
X221258D01*
X221981Y196953D01*
X222535Y197507D01*
X222835Y198231D01*
Y199014D01*
X222535Y199737D01*
X221981Y200291D01*
X221258Y200591D01*
D02*
G37*
G36*
X177596Y198307D02*
X176813D01*
X176090Y198007D01*
X175536Y197454D01*
X175236Y196730D01*
Y195947D01*
X175536Y195223D01*
X176090Y194670D01*
X176813Y194370D01*
X177596D01*
X178320Y194670D01*
X178874Y195223D01*
X179173Y195947D01*
Y196730D01*
X178874Y197454D01*
X178320Y198007D01*
X177596Y198307D01*
D02*
G37*
G36*
X202636Y198071D02*
X201852D01*
X201129Y197771D01*
X200575Y197217D01*
X200276Y196494D01*
Y195711D01*
X200575Y194987D01*
X201129Y194433D01*
X201852Y194134D01*
X202636D01*
X203359Y194433D01*
X203913Y194987D01*
X204213Y195711D01*
Y196494D01*
X203913Y197217D01*
X203359Y197771D01*
X202636Y198071D01*
D02*
G37*
G36*
X299998Y194134D02*
X299293D01*
X298642Y193864D01*
X298396Y193618D01*
X298149Y193864D01*
X297498Y194134D01*
X296793D01*
X296142Y193864D01*
X295644Y193366D01*
X295374Y192715D01*
Y192010D01*
X295644Y191359D01*
X296142Y190860D01*
X296793Y190591D01*
X297498D01*
X298149Y190860D01*
X298396Y191107D01*
X298642Y190860D01*
X299293Y190591D01*
X299998D01*
X300649Y190860D01*
X301148Y191359D01*
X301417Y192010D01*
Y192715D01*
X301148Y193366D01*
X300649Y193864D01*
X299998Y194134D01*
D02*
G37*
G36*
X307911Y195748D02*
X307128D01*
X306405Y195448D01*
X305851Y194895D01*
X305551Y194171D01*
Y193388D01*
X305851Y192665D01*
X306405Y192111D01*
X307128Y191811D01*
X307911D01*
X308635Y192111D01*
X309189Y192665D01*
X309488Y193388D01*
Y194171D01*
X309189Y194895D01*
X308635Y195448D01*
X307911Y195748D01*
D02*
G37*
G36*
X390549Y194843D02*
X389766D01*
X389042Y194543D01*
X388489Y193989D01*
X388189Y193266D01*
Y192482D01*
X388489Y191759D01*
X389042Y191205D01*
X389766Y190905D01*
X390549D01*
X391273Y191205D01*
X391826Y191759D01*
X392126Y192482D01*
Y193266D01*
X391826Y193989D01*
X391273Y194543D01*
X390549Y194843D01*
D02*
G37*
G36*
X186454Y187677D02*
X185671D01*
X184948Y187378D01*
X184394Y186824D01*
X184095Y186100D01*
Y185317D01*
X184394Y184594D01*
X184948Y184040D01*
X185671Y183740D01*
X186454D01*
X187178Y184040D01*
X187732Y184594D01*
X188031Y185317D01*
Y186100D01*
X187732Y186824D01*
X187178Y187378D01*
X186454Y187677D01*
D02*
G37*
G36*
X409464Y191935D02*
X408249D01*
X407076Y191621D01*
X406024Y191014D01*
X405165Y190155D01*
X404558Y189103D01*
X404244Y187930D01*
Y186716D01*
X404558Y185543D01*
X405165Y184491D01*
X406024Y183632D01*
X407076Y183025D01*
X408249Y182710D01*
X409464D01*
X410637Y183025D01*
X411689Y183632D01*
X412547Y184491D01*
X413154Y185543D01*
X413469Y186716D01*
Y187930D01*
X413154Y189103D01*
X412547Y190155D01*
X411689Y191014D01*
X410637Y191621D01*
X409464Y191935D01*
D02*
G37*
G36*
X369464D02*
X368249D01*
X367076Y191621D01*
X366024Y191014D01*
X365165Y190155D01*
X364558Y189103D01*
X364244Y187930D01*
Y186716D01*
X364558Y185543D01*
X365165Y184491D01*
X366024Y183632D01*
X367076Y183025D01*
X368249Y182710D01*
X369464D01*
X370637Y183025D01*
X371689Y183632D01*
X372547Y184491D01*
X373154Y185543D01*
X373469Y186716D01*
Y187930D01*
X373154Y189103D01*
X372547Y190155D01*
X371689Y191014D01*
X370637Y191621D01*
X369464Y191935D01*
D02*
G37*
G36*
X155037Y181220D02*
X154333D01*
X153682Y180951D01*
X153183Y180452D01*
X152913Y179801D01*
Y179096D01*
X153183Y178445D01*
X153429Y178199D01*
X153183Y177952D01*
X152913Y177301D01*
Y176596D01*
X153183Y175945D01*
X153682Y175447D01*
X154333Y175177D01*
X155037D01*
X155689Y175447D01*
X156187Y175945D01*
X156457Y176596D01*
Y177301D01*
X156187Y177952D01*
X155940Y178199D01*
X156187Y178445D01*
X156457Y179096D01*
Y179801D01*
X156187Y180452D01*
X155689Y180951D01*
X155037Y181220D01*
D02*
G37*
G36*
X202629Y177795D02*
X201925D01*
X201273Y177525D01*
X200775Y177027D01*
X200505Y176376D01*
Y175671D01*
X200775Y175020D01*
X201273Y174522D01*
X201925Y174252D01*
X202273D01*
Y173903D01*
X202543Y173252D01*
X203041Y172754D01*
X203692Y172484D01*
X204397D01*
X205048Y172754D01*
X205547Y173252D01*
X205816Y173903D01*
Y174608D01*
X205547Y175259D01*
X205048Y175758D01*
X204397Y176028D01*
X204049D01*
Y176376D01*
X203779Y177027D01*
X203280Y177525D01*
X202629Y177795D01*
D02*
G37*
G36*
X315392Y173661D02*
X314608D01*
X313885Y173362D01*
X313331Y172808D01*
X313032Y172084D01*
Y171301D01*
X313331Y170578D01*
X313885Y170024D01*
X314608Y169724D01*
X315392D01*
X316115Y170024D01*
X316669Y170578D01*
X316968Y171301D01*
Y172084D01*
X316669Y172808D01*
X316115Y173362D01*
X315392Y173661D01*
D02*
G37*
G36*
X98305Y172362D02*
X97522D01*
X96798Y172063D01*
X96245Y171509D01*
X95945Y170785D01*
Y170002D01*
X96245Y169279D01*
X96798Y168725D01*
X97522Y168425D01*
X98305D01*
X99028Y168725D01*
X99582Y169279D01*
X99882Y170002D01*
Y170785D01*
X99582Y171509D01*
X99028Y172063D01*
X98305Y172362D01*
D02*
G37*
G36*
X294377Y168995D02*
X293594D01*
X292871Y168695D01*
X292317Y168141D01*
X292017Y167418D01*
Y166635D01*
X292317Y165911D01*
X292871Y165357D01*
X293594Y165058D01*
X294377D01*
X295101Y165357D01*
X295655Y165911D01*
X295954Y166635D01*
Y167418D01*
X295655Y168141D01*
X295101Y168695D01*
X294377Y168995D01*
D02*
G37*
G36*
X48108Y164409D02*
X47325D01*
X46602Y164110D01*
X46048Y163556D01*
X45748Y162832D01*
Y162049D01*
X46048Y161326D01*
X46602Y160772D01*
X47325Y160472D01*
X48108D01*
X48832Y160772D01*
X49385Y161326D01*
X49685Y162049D01*
Y162832D01*
X49385Y163556D01*
X48832Y164110D01*
X48108Y164409D01*
D02*
G37*
G36*
X284762Y164331D02*
X283979D01*
X283255Y164031D01*
X282701Y163477D01*
X282402Y162754D01*
Y161971D01*
X282701Y161247D01*
X283255Y160693D01*
X283979Y160394D01*
X284762D01*
X285485Y160693D01*
X286039Y161247D01*
X286339Y161971D01*
Y162754D01*
X286039Y163477D01*
X285485Y164031D01*
X284762Y164331D01*
D02*
G37*
G36*
X384549Y174754D02*
X383085D01*
X381649Y174468D01*
X380297Y173908D01*
X379080Y173095D01*
X378045Y172060D01*
X377232Y170843D01*
X376672Y169490D01*
X376386Y168055D01*
Y166591D01*
X376672Y165155D01*
X377232Y163803D01*
X378045Y162586D01*
X379080Y161551D01*
X380297Y160738D01*
X381649Y160177D01*
X383085Y159892D01*
X384549D01*
X385985Y160177D01*
X387337Y160738D01*
X388554Y161551D01*
X389589Y162586D01*
X390402Y163803D01*
X390963Y165155D01*
X391248Y166591D01*
Y168055D01*
X390963Y169490D01*
X390402Y170843D01*
X389589Y172060D01*
X388554Y173095D01*
X387337Y173908D01*
X385985Y174468D01*
X384549Y174754D01*
D02*
G37*
G36*
X119132Y163031D02*
X118349D01*
X117625Y162732D01*
X117071Y162178D01*
X116772Y161454D01*
Y160671D01*
X117071Y159948D01*
X117625Y159394D01*
X118349Y159095D01*
X119132D01*
X119855Y159394D01*
X120409Y159948D01*
X120709Y160671D01*
Y161454D01*
X120409Y162178D01*
X119855Y162732D01*
X119132Y163031D01*
D02*
G37*
G36*
X9998Y160630D02*
X9215D01*
X8491Y160330D01*
X7937Y159776D01*
X7638Y159053D01*
Y158270D01*
X7937Y157546D01*
X8491Y156993D01*
X9215Y156693D01*
X9998D01*
X10721Y156993D01*
X11275Y157546D01*
X11575Y158270D01*
Y159053D01*
X11275Y159776D01*
X10721Y160330D01*
X9998Y160630D01*
D02*
G37*
G36*
X161891Y160039D02*
X161108D01*
X160384Y159740D01*
X159831Y159186D01*
X159531Y158462D01*
Y157679D01*
X159831Y156956D01*
X160384Y156402D01*
X161108Y156102D01*
X161891D01*
X162615Y156402D01*
X163168Y156956D01*
X163468Y157679D01*
Y158462D01*
X163168Y159186D01*
X162615Y159740D01*
X161891Y160039D01*
D02*
G37*
G36*
X229608Y159961D02*
X228824D01*
X228101Y159661D01*
X227547Y159107D01*
X227248Y158384D01*
Y157601D01*
X227547Y156877D01*
X228101Y156323D01*
X228824Y156024D01*
X229608D01*
X230331Y156323D01*
X230885Y156877D01*
X231185Y157601D01*
Y158384D01*
X230885Y159107D01*
X230331Y159661D01*
X229608Y159961D01*
D02*
G37*
G36*
X140549Y155748D02*
X139766D01*
X139042Y155448D01*
X138489Y154895D01*
X138189Y154171D01*
Y153388D01*
X138489Y152664D01*
X139042Y152111D01*
X139766Y151811D01*
X140549D01*
X141273Y152111D01*
X141826Y152664D01*
X142126Y153388D01*
Y154171D01*
X141826Y154895D01*
X141273Y155448D01*
X140549Y155748D01*
D02*
G37*
G36*
X208226Y155594D02*
X207443D01*
X206719Y155294D01*
X206166Y154741D01*
X205866Y154017D01*
Y153234D01*
X206166Y152510D01*
X206719Y151957D01*
X207443Y151657D01*
X208226D01*
X208949Y151957D01*
X209503Y152510D01*
X209803Y153234D01*
Y154017D01*
X209503Y154741D01*
X208949Y155294D01*
X208226Y155594D01*
D02*
G37*
G36*
X131897Y151674D02*
X131114D01*
X130391Y151375D01*
X129837Y150821D01*
X129537Y150097D01*
Y149314D01*
X129837Y148591D01*
X130391Y148037D01*
X131114Y147737D01*
X131897D01*
X132621Y148037D01*
X133174Y148591D01*
X133474Y149314D01*
Y150097D01*
X133174Y150821D01*
X132621Y151375D01*
X131897Y151674D01*
D02*
G37*
G36*
X199096Y150709D02*
X198313D01*
X197589Y150409D01*
X197035Y149855D01*
X196736Y149132D01*
Y148349D01*
X197035Y147625D01*
X197589Y147071D01*
X198313Y146772D01*
X199096D01*
X199819Y147071D01*
X200373Y147625D01*
X200673Y148349D01*
Y149132D01*
X200373Y149855D01*
X199819Y150409D01*
X199096Y150709D01*
D02*
G37*
G36*
X314722Y149488D02*
X313939D01*
X313216Y149188D01*
X312662Y148635D01*
X312362Y147911D01*
Y147128D01*
X312662Y146405D01*
X313216Y145851D01*
X313939Y145551D01*
X314722D01*
X315446Y145851D01*
X316000Y146405D01*
X316299Y147128D01*
Y147911D01*
X316000Y148635D01*
X315446Y149188D01*
X314722Y149488D01*
D02*
G37*
G36*
X38738Y147402D02*
X37955D01*
X37231Y147102D01*
X36678Y146548D01*
X36378Y145825D01*
Y145042D01*
X36678Y144318D01*
X37231Y143764D01*
X37955Y143465D01*
X38738D01*
X39461Y143764D01*
X40015Y144318D01*
X40315Y145042D01*
Y145825D01*
X40015Y146548D01*
X39461Y147102D01*
X38738Y147402D01*
D02*
G37*
G36*
X79368Y147244D02*
X78585D01*
X77861Y146944D01*
X77308Y146391D01*
X77008Y145667D01*
Y144884D01*
X77308Y144160D01*
X77861Y143607D01*
X78585Y143307D01*
X79368D01*
X80091Y143607D01*
X80645Y144160D01*
X80945Y144884D01*
Y145667D01*
X80645Y146391D01*
X80091Y146944D01*
X79368Y147244D01*
D02*
G37*
G36*
X409464Y151935D02*
X408249D01*
X407076Y151621D01*
X406024Y151014D01*
X405165Y150155D01*
X404558Y149103D01*
X404244Y147930D01*
Y146716D01*
X404558Y145543D01*
X405165Y144491D01*
X406024Y143632D01*
X407076Y143025D01*
X408249Y142710D01*
X409464D01*
X410637Y143025D01*
X411689Y143632D01*
X412547Y144491D01*
X413154Y145543D01*
X413469Y146716D01*
Y147930D01*
X413154Y149103D01*
X412547Y150155D01*
X411689Y151014D01*
X410637Y151621D01*
X409464Y151935D01*
D02*
G37*
G36*
X369464D02*
X368249D01*
X367076Y151621D01*
X366024Y151014D01*
X365165Y150155D01*
X364558Y149103D01*
X364244Y147930D01*
Y146716D01*
X364558Y145543D01*
X365165Y144491D01*
X366024Y143632D01*
X367076Y143025D01*
X368249Y142710D01*
X369464D01*
X370637Y143025D01*
X371689Y143632D01*
X372547Y144491D01*
X373154Y145543D01*
X373469Y146716D01*
Y147930D01*
X373154Y149103D01*
X372547Y150155D01*
X371689Y151014D01*
X370637Y151621D01*
X369464Y151935D01*
D02*
G37*
G36*
X79368Y141693D02*
X78585D01*
X77861Y141393D01*
X77308Y140840D01*
X77008Y140116D01*
Y139333D01*
X77308Y138609D01*
X77861Y138056D01*
X78585Y137756D01*
X79368D01*
X80091Y138056D01*
X80645Y138609D01*
X80945Y139333D01*
Y140116D01*
X80645Y140840D01*
X80091Y141393D01*
X79368Y141693D01*
D02*
G37*
G36*
X285195Y141102D02*
X284412D01*
X283688Y140803D01*
X283134Y140249D01*
X282835Y139525D01*
Y138742D01*
X283134Y138019D01*
X283688Y137465D01*
X284412Y137165D01*
X285195D01*
X285918Y137465D01*
X286472Y138019D01*
X286772Y138742D01*
Y139525D01*
X286472Y140249D01*
X285918Y140803D01*
X285195Y141102D01*
D02*
G37*
G36*
X79211Y137008D02*
X78427D01*
X77704Y136708D01*
X77150Y136154D01*
X76850Y135431D01*
Y134648D01*
X77150Y133924D01*
X77704Y133371D01*
X78427Y133071D01*
X79211D01*
X79934Y133371D01*
X80488Y133924D01*
X80787Y134648D01*
Y135431D01*
X80488Y136154D01*
X79934Y136708D01*
X79211Y137008D01*
D02*
G37*
G36*
X38738Y136850D02*
X37955D01*
X37231Y136551D01*
X36678Y135997D01*
X36378Y135274D01*
Y134490D01*
X36678Y133767D01*
X37231Y133213D01*
X37955Y132913D01*
X38738D01*
X39461Y133213D01*
X40015Y133767D01*
X40315Y134490D01*
Y135274D01*
X40015Y135997D01*
X39461Y136551D01*
X38738Y136850D01*
D02*
G37*
G36*
X261740Y138386D02*
X260957D01*
X260233Y138086D01*
X259680Y137532D01*
X259380Y136809D01*
Y136026D01*
X259680Y135302D01*
X260233Y134748D01*
X260957Y134449D01*
X261418D01*
X261772Y134341D01*
X261880Y133987D01*
Y133526D01*
X262180Y132802D01*
X262733Y132248D01*
X263457Y131949D01*
X264240D01*
X264964Y132248D01*
X265517Y132802D01*
X265817Y133526D01*
Y134309D01*
X265517Y135032D01*
X264964Y135586D01*
X264240Y135886D01*
X263779D01*
X263424Y135993D01*
X263317Y136348D01*
Y136809D01*
X263017Y137532D01*
X262463Y138086D01*
X261740Y138386D01*
D02*
G37*
G36*
X193029Y130157D02*
X192246D01*
X191523Y129858D01*
X190969Y129304D01*
X190669Y128580D01*
Y127797D01*
X190969Y127074D01*
X191523Y126520D01*
X192246Y126221D01*
X193029D01*
X193753Y126520D01*
X194307Y127074D01*
X194606Y127797D01*
Y128580D01*
X194307Y129304D01*
X193753Y129858D01*
X193029Y130157D01*
D02*
G37*
G36*
X38738Y129724D02*
X37955D01*
X37231Y129425D01*
X36678Y128871D01*
X36378Y128147D01*
Y127364D01*
X36678Y126641D01*
X37231Y126087D01*
X37955Y125787D01*
X38738D01*
X39461Y126087D01*
X40015Y126641D01*
X40315Y127364D01*
Y128147D01*
X40015Y128871D01*
X39461Y129425D01*
X38738Y129724D01*
D02*
G37*
G36*
X133935Y129252D02*
X133152D01*
X132428Y128952D01*
X131875Y128399D01*
X131575Y127675D01*
Y126892D01*
X131875Y126168D01*
X132428Y125615D01*
X133152Y125315D01*
X133935D01*
X134658Y125615D01*
X135212Y126168D01*
X135512Y126892D01*
Y127675D01*
X135212Y128399D01*
X134658Y128952D01*
X133935Y129252D01*
D02*
G37*
G36*
X409466Y132880D02*
X408251D01*
X407078Y132566D01*
X406026Y131959D01*
X405167Y131100D01*
X404560Y130048D01*
X404246Y128875D01*
Y127661D01*
X404560Y126487D01*
X405167Y125436D01*
X406026Y124577D01*
X407078Y123970D01*
X408251Y123655D01*
X409466D01*
X410639Y123970D01*
X411690Y124577D01*
X412549Y125436D01*
X413156Y126487D01*
X413471Y127661D01*
Y128875D01*
X413156Y130048D01*
X412549Y131100D01*
X411690Y131959D01*
X410639Y132566D01*
X409466Y132880D01*
D02*
G37*
G36*
X369465D02*
X368251D01*
X367078Y132566D01*
X366026Y131959D01*
X365167Y131100D01*
X364560Y130048D01*
X364246Y128875D01*
Y127661D01*
X364560Y126487D01*
X365167Y125436D01*
X366026Y124577D01*
X367078Y123970D01*
X368251Y123655D01*
X369465D01*
X370639Y123970D01*
X371690Y124577D01*
X372549Y125436D01*
X373156Y126487D01*
X373471Y127661D01*
Y128875D01*
X373156Y130048D01*
X372549Y131100D01*
X371690Y131959D01*
X370639Y132566D01*
X369465Y132880D01*
D02*
G37*
G36*
X296022Y119921D02*
X295238D01*
X294515Y119622D01*
X293961Y119068D01*
X293661Y118344D01*
Y117561D01*
X293961Y116838D01*
X294515Y116284D01*
X295238Y115984D01*
X296022D01*
X296745Y116284D01*
X297299Y116838D01*
X297598Y117561D01*
Y118344D01*
X297299Y119068D01*
X296745Y119622D01*
X296022Y119921D01*
D02*
G37*
G36*
X311179Y122874D02*
X310396D01*
X309672Y122574D01*
X309119Y122021D01*
X308819Y121297D01*
Y120514D01*
X309119Y119790D01*
X309672Y119237D01*
X310396Y118937D01*
X311179D01*
X311272Y118975D01*
X311655Y118593D01*
X311535Y118305D01*
Y117522D01*
X311835Y116798D01*
X312389Y116245D01*
X313112Y115945D01*
X313896D01*
X314619Y116245D01*
X315173Y116798D01*
X315472Y117522D01*
Y118305D01*
X315173Y119028D01*
X314619Y119582D01*
X313896Y119882D01*
X313112D01*
X313019Y119843D01*
X312637Y120226D01*
X312756Y120514D01*
Y121297D01*
X312456Y122021D01*
X311902Y122574D01*
X311179Y122874D01*
D02*
G37*
G36*
X270173Y119628D02*
X269390D01*
X268666Y119328D01*
X268112Y118775D01*
X267813Y118051D01*
Y117268D01*
X268112Y116545D01*
X268666Y115991D01*
X269390Y115691D01*
X270173D01*
X270896Y115991D01*
X271450Y116545D01*
X271750Y117268D01*
Y118051D01*
X271450Y118775D01*
X270896Y119328D01*
X270173Y119628D01*
D02*
G37*
G36*
X343856Y117323D02*
X343073D01*
X342350Y117023D01*
X341796Y116469D01*
X341496Y115746D01*
Y114963D01*
X341796Y114239D01*
X342350Y113686D01*
X343073Y113386D01*
X343856D01*
X344580Y113686D01*
X345133Y114239D01*
X345433Y114963D01*
Y115746D01*
X345133Y116469D01*
X344580Y117023D01*
X343856Y117323D01*
D02*
G37*
G36*
X330549D02*
X329766D01*
X329042Y117023D01*
X328489Y116469D01*
X328189Y115746D01*
Y114963D01*
X328489Y114239D01*
X329042Y113686D01*
X329766Y113386D01*
X330549D01*
X331273Y113686D01*
X331826Y114239D01*
X332126Y114963D01*
Y115746D01*
X331826Y116469D01*
X331273Y117023D01*
X330549Y117323D01*
D02*
G37*
G36*
X260549Y114921D02*
X259766D01*
X259042Y114622D01*
X258489Y114068D01*
X258189Y113344D01*
Y112561D01*
X258489Y111838D01*
X259042Y111284D01*
X259766Y110984D01*
X260549D01*
X261273Y111284D01*
X261826Y111838D01*
X262126Y112561D01*
Y113344D01*
X261826Y114068D01*
X261273Y114622D01*
X260549Y114921D01*
D02*
G37*
G36*
X343856Y111969D02*
X343073D01*
X342350Y111669D01*
X341796Y111115D01*
X341496Y110392D01*
X340998D01*
X340698Y111115D01*
X340144Y111669D01*
X339421Y111969D01*
X338638D01*
X337914Y111669D01*
X337361Y111115D01*
X337061Y110392D01*
X336563D01*
X336263Y111115D01*
X335710Y111669D01*
X334986Y111969D01*
X334203D01*
X333479Y111669D01*
X332926Y111115D01*
X332626Y110392D01*
Y109608D01*
X332926Y108885D01*
X333479Y108331D01*
X334203Y108031D01*
X334986D01*
X335710Y108331D01*
X336263Y108885D01*
X336563Y109608D01*
X337061D01*
X337361Y108885D01*
X337914Y108331D01*
X338638Y108031D01*
X339421D01*
X340144Y108331D01*
X340698Y108885D01*
X340998Y109608D01*
X341496D01*
X341796Y108885D01*
X342350Y108331D01*
X343073Y108031D01*
X343856D01*
X344580Y108331D01*
X345133Y108885D01*
X345433Y109608D01*
Y110392D01*
X345133Y111115D01*
X344580Y111669D01*
X343856Y111969D01*
D02*
G37*
G36*
X330549D02*
X329766D01*
X329042Y111669D01*
X328489Y111115D01*
X328189Y110392D01*
Y109608D01*
X328489Y108885D01*
X329042Y108331D01*
X329766Y108031D01*
X330549D01*
X331273Y108331D01*
X331826Y108885D01*
X332126Y109608D01*
Y110392D01*
X331826Y111115D01*
X331273Y111669D01*
X330549Y111969D01*
D02*
G37*
G36*
X204417Y110591D02*
X203713D01*
X203061Y110321D01*
X202563Y109822D01*
X202293Y109171D01*
Y108466D01*
X202563Y107815D01*
X203061Y107317D01*
X203713Y107047D01*
X204061D01*
Y106699D01*
X204331Y106048D01*
X204829Y105549D01*
X205480Y105280D01*
X206185D01*
X206836Y105549D01*
X207335Y106048D01*
X207604Y106699D01*
Y107404D01*
X207335Y108055D01*
X206836Y108553D01*
X206185Y108823D01*
X205837D01*
Y109171D01*
X205567Y109822D01*
X205068Y110321D01*
X204417Y110591D01*
D02*
G37*
G36*
X254486Y94173D02*
X253703D01*
X252979Y93874D01*
X252426Y93320D01*
X252126Y92596D01*
Y91813D01*
X252426Y91090D01*
X252979Y90536D01*
X253703Y90236D01*
X254486D01*
X255210Y90536D01*
X255763Y91090D01*
X256063Y91813D01*
Y92596D01*
X255763Y93320D01*
X255210Y93874D01*
X254486Y94173D01*
D02*
G37*
G36*
X300466Y93332D02*
X299683D01*
X298959Y93033D01*
X298406Y92479D01*
X298106Y91755D01*
Y90972D01*
X298406Y90249D01*
X298878Y89776D01*
X298406Y89304D01*
X298106Y88581D01*
Y87797D01*
X298406Y87074D01*
X298959Y86520D01*
X299683Y86221D01*
X300466D01*
X301189Y86520D01*
X301743Y87074D01*
X302043Y87797D01*
Y88581D01*
X301743Y89304D01*
X301271Y89776D01*
X301743Y90249D01*
X302043Y90972D01*
Y91755D01*
X301743Y92479D01*
X301189Y93033D01*
X300466Y93332D01*
D02*
G37*
G36*
X287793Y93347D02*
X287010D01*
X286286Y93047D01*
X285733Y92493D01*
X285433Y91769D01*
Y90986D01*
X285733Y90263D01*
X286212Y89784D01*
X285733Y89304D01*
X285433Y88581D01*
Y87797D01*
X285733Y87074D01*
X286286Y86520D01*
X287010Y86221D01*
X287793D01*
X288517Y86520D01*
X289070Y87074D01*
X289370Y87797D01*
Y88581D01*
X289070Y89304D01*
X288591Y89784D01*
X289070Y90263D01*
X289370Y90986D01*
Y91769D01*
X289070Y92493D01*
X288517Y93047D01*
X287793Y93347D01*
D02*
G37*
G36*
X235116Y88307D02*
X234333D01*
X233609Y88007D01*
X233056Y87454D01*
X232756Y86730D01*
Y85947D01*
X233056Y85224D01*
X233609Y84670D01*
X234333Y84370D01*
X235116D01*
X235840Y84670D01*
X236393Y85224D01*
X236693Y85947D01*
Y86730D01*
X236393Y87454D01*
X235840Y88007D01*
X235116Y88307D01*
D02*
G37*
G36*
X209928Y88020D02*
X209145D01*
X208422Y87721D01*
X207868Y87167D01*
X207568Y86443D01*
Y85660D01*
X207868Y84937D01*
X208422Y84383D01*
X209145Y84083D01*
X209928D01*
X210652Y84383D01*
X211206Y84937D01*
X211505Y85660D01*
Y86443D01*
X211206Y87167D01*
X210652Y87721D01*
X209928Y88020D01*
D02*
G37*
G36*
X409466Y92880D02*
X408251D01*
X407078Y92566D01*
X406026Y91959D01*
X405167Y91100D01*
X404560Y90048D01*
X404246Y88875D01*
Y87660D01*
X404560Y86487D01*
X405167Y85436D01*
X406026Y84577D01*
X407078Y83970D01*
X408251Y83655D01*
X409466D01*
X410639Y83970D01*
X411690Y84577D01*
X412549Y85436D01*
X413156Y86487D01*
X413471Y87660D01*
Y88875D01*
X413156Y90048D01*
X412549Y91100D01*
X411690Y91959D01*
X410639Y92566D01*
X409466Y92880D01*
D02*
G37*
G36*
X369465D02*
X368251D01*
X367078Y92566D01*
X366026Y91959D01*
X365167Y91100D01*
X364560Y90048D01*
X364246Y88875D01*
Y87660D01*
X364560Y86487D01*
X365167Y85436D01*
X366026Y84577D01*
X367078Y83970D01*
X368251Y83655D01*
X369465D01*
X370639Y83970D01*
X371690Y84577D01*
X372549Y85436D01*
X373156Y86487D01*
X373471Y87660D01*
Y88875D01*
X373156Y90048D01*
X372549Y91100D01*
X371690Y91959D01*
X370639Y92566D01*
X369465Y92880D01*
D02*
G37*
G36*
X317281Y85079D02*
X316498D01*
X315775Y84779D01*
X315221Y84225D01*
X314921Y83502D01*
Y82719D01*
X315221Y81995D01*
X315775Y81441D01*
X316498Y81142D01*
X317281D01*
X318005Y81441D01*
X318559Y81995D01*
X318858Y82719D01*
Y83502D01*
X318559Y84225D01*
X318005Y84779D01*
X317281Y85079D01*
D02*
G37*
G36*
X306415D02*
X305632D01*
X304909Y84779D01*
X304355Y84225D01*
X304055Y83502D01*
Y82719D01*
X304355Y81995D01*
X304909Y81441D01*
X305632Y81142D01*
X306415D01*
X307139Y81441D01*
X307692Y81995D01*
X307992Y82719D01*
Y83502D01*
X307692Y84225D01*
X307139Y84779D01*
X306415Y85079D01*
D02*
G37*
G36*
X200470Y83110D02*
X199687D01*
X198964Y82811D01*
X198410Y82257D01*
X198110Y81533D01*
Y80750D01*
X198410Y80027D01*
X198964Y79473D01*
X199687Y79173D01*
X200470D01*
X201194Y79473D01*
X201748Y80027D01*
X202047Y80750D01*
Y81533D01*
X201748Y82257D01*
X201194Y82811D01*
X200470Y83110D01*
D02*
G37*
G36*
X87951Y81732D02*
X87168D01*
X86444Y81433D01*
X85890Y80879D01*
X85591Y80155D01*
Y79372D01*
X85890Y78649D01*
X86444Y78095D01*
X87168Y77795D01*
X87951D01*
X88674Y78095D01*
X89228Y78649D01*
X89528Y79372D01*
Y80155D01*
X89228Y80879D01*
X88674Y81433D01*
X87951Y81732D01*
D02*
G37*
G36*
X112045Y80472D02*
X111262D01*
X110538Y80173D01*
X109985Y79619D01*
X109685Y78895D01*
Y78112D01*
X109985Y77389D01*
X110538Y76835D01*
X111262Y76535D01*
X112045D01*
X112769Y76835D01*
X113322Y77389D01*
X113622Y78112D01*
Y78895D01*
X113322Y79619D01*
X112769Y80173D01*
X112045Y80472D01*
D02*
G37*
G36*
X103187Y74331D02*
X102404D01*
X101680Y74031D01*
X101127Y73477D01*
X100827Y72754D01*
Y71971D01*
X101127Y71247D01*
X101680Y70693D01*
X102404Y70394D01*
X103187D01*
X103910Y70693D01*
X104464Y71247D01*
X104764Y71971D01*
Y72754D01*
X104464Y73477D01*
X103910Y74031D01*
X103187Y74331D01*
D02*
G37*
G36*
X149762Y72165D02*
X148978D01*
X148255Y71866D01*
X147701Y71312D01*
X147402Y70588D01*
Y69805D01*
X147701Y69082D01*
X148255Y68528D01*
X148978Y68228D01*
X149762D01*
X150485Y68528D01*
X151039Y69082D01*
X151339Y69805D01*
Y70588D01*
X151039Y71312D01*
X150485Y71866D01*
X149762Y72165D01*
D02*
G37*
G36*
X102811Y67022D02*
X102028D01*
X101305Y66722D01*
X100751Y66168D01*
X100451Y65445D01*
Y64662D01*
X100751Y63938D01*
X101305Y63384D01*
X102028Y63085D01*
X102811D01*
X103535Y63384D01*
X104089Y63938D01*
X104388Y64662D01*
Y65445D01*
X104089Y66168D01*
X103535Y66722D01*
X102811Y67022D01*
D02*
G37*
G36*
X178108Y60315D02*
X177325D01*
X176602Y60015D01*
X176048Y59461D01*
X175748Y58738D01*
Y57955D01*
X176048Y57231D01*
X176602Y56678D01*
X177325Y56378D01*
X178108D01*
X178832Y56678D01*
X179385Y57231D01*
X179685Y57955D01*
Y58738D01*
X179385Y59461D01*
X178832Y60015D01*
X178108Y60315D01*
D02*
G37*
G36*
X102746Y56649D02*
X101963D01*
X101239Y56349D01*
X100686Y55796D01*
X100386Y55072D01*
Y54289D01*
X100686Y53566D01*
X101239Y53012D01*
X101963Y52712D01*
X102746D01*
X103469Y53012D01*
X104023Y53566D01*
X104323Y54289D01*
Y55072D01*
X104023Y55796D01*
X103469Y56349D01*
X102746Y56649D01*
D02*
G37*
G36*
X200864Y55197D02*
X200081D01*
X199357Y54897D01*
X198804Y54343D01*
X198504Y53620D01*
Y52837D01*
X198804Y52113D01*
X199357Y51560D01*
X200081Y51260D01*
X200864D01*
X201588Y51560D01*
X202141Y52113D01*
X202441Y52837D01*
Y53620D01*
X202141Y54343D01*
X201588Y54897D01*
X200864Y55197D01*
D02*
G37*
G36*
X293147Y53976D02*
X292364D01*
X291641Y53677D01*
X291087Y53123D01*
X290787Y52399D01*
Y51616D01*
X291087Y50893D01*
X291641Y50339D01*
X292364Y50039D01*
X293147D01*
X293871Y50339D01*
X294425Y50893D01*
X294724Y51616D01*
Y52399D01*
X294425Y53123D01*
X293871Y53677D01*
X293147Y53976D01*
D02*
G37*
G36*
X102746Y49681D02*
X101963D01*
X101239Y49381D01*
X100686Y48827D01*
X100386Y48104D01*
Y47321D01*
X100686Y46597D01*
X101239Y46043D01*
X101963Y45744D01*
X102746D01*
X103469Y46043D01*
X104023Y46597D01*
X104323Y47321D01*
Y48104D01*
X104023Y48827D01*
X103469Y49381D01*
X102746Y49681D01*
D02*
G37*
G36*
X207163Y48898D02*
X206380D01*
X205657Y48598D01*
X205103Y48044D01*
X204803Y47321D01*
Y46538D01*
X205103Y45814D01*
X205657Y45260D01*
X206380Y44961D01*
X207163D01*
X207887Y45260D01*
X208440Y45814D01*
X208740Y46538D01*
Y47321D01*
X208440Y48044D01*
X207887Y48598D01*
X207163Y48898D01*
D02*
G37*
G36*
X145421Y47260D02*
X144638D01*
X143914Y46960D01*
X143360Y46406D01*
X143061Y45683D01*
Y44899D01*
X143360Y44176D01*
X143914Y43622D01*
X144638Y43323D01*
X145421D01*
X146144Y43622D01*
X146698Y44176D01*
X146998Y44899D01*
Y45683D01*
X146698Y46406D01*
X146144Y46960D01*
X145421Y47260D01*
D02*
G37*
G36*
X323678Y45690D02*
X322895D01*
X322171Y45391D01*
X321617Y44837D01*
X321318Y44113D01*
Y43330D01*
X321617Y42607D01*
X322171Y42053D01*
X322895Y41753D01*
X323678D01*
X324401Y42053D01*
X324955Y42607D01*
X325255Y43330D01*
Y44113D01*
X324955Y44837D01*
X324401Y45391D01*
X323678Y45690D01*
D02*
G37*
G36*
X316848Y45551D02*
X316065D01*
X315342Y45252D01*
X314788Y44698D01*
X314488Y43974D01*
Y43191D01*
X314788Y42468D01*
X315342Y41914D01*
X316065Y41614D01*
X316848D01*
X317572Y41914D01*
X318126Y42468D01*
X318425Y43191D01*
Y43974D01*
X318126Y44698D01*
X317572Y45252D01*
X316848Y45551D01*
D02*
G37*
G36*
X306218D02*
X305435D01*
X304712Y45252D01*
X304158Y44698D01*
X303858Y43974D01*
Y43191D01*
X304158Y42468D01*
X304712Y41914D01*
X305435Y41614D01*
X306218D01*
X306942Y41914D01*
X307496Y42468D01*
X307795Y43191D01*
Y43974D01*
X307496Y44698D01*
X306942Y45252D01*
X306218Y45551D01*
D02*
G37*
G36*
X390988Y70669D02*
X388540D01*
X386122Y70286D01*
X383794Y69530D01*
X381613Y68419D01*
X379633Y66980D01*
X377902Y65249D01*
X376463Y63269D01*
X375352Y61088D01*
X374595Y58760D01*
X374213Y56342D01*
Y53894D01*
X374595Y51477D01*
X375352Y49148D01*
X376463Y46968D01*
X377902Y44987D01*
X379633Y43256D01*
X381613Y41818D01*
X383794Y40706D01*
X386122Y39950D01*
X388540Y39567D01*
X390988D01*
X393405Y39950D01*
X395733Y40706D01*
X397914Y41818D01*
X399895Y43256D01*
X401626Y44987D01*
X403064Y46968D01*
X404176Y49148D01*
X404932Y51477D01*
X405315Y53894D01*
Y56342D01*
X404932Y58760D01*
X404176Y61088D01*
X403064Y63269D01*
X401626Y65249D01*
X399895Y66980D01*
X397914Y68419D01*
X395733Y69530D01*
X393405Y70286D01*
X390988Y70669D01*
D02*
G37*
G36*
X376969Y21260D02*
X375984D01*
X375033Y21005D01*
X374180Y20513D01*
X373483Y19816D01*
X372991Y18963D01*
X372736Y18012D01*
Y17027D01*
X372991Y16076D01*
X373483Y15223D01*
X374180Y14527D01*
X375033Y14034D01*
X375984Y13780D01*
X376969D01*
X377920Y14034D01*
X378773Y14527D01*
X379469Y15223D01*
X379962Y16076D01*
X380217Y17027D01*
Y18012D01*
X379962Y18963D01*
X379469Y19816D01*
X378773Y20513D01*
X377920Y21005D01*
X376969Y21260D01*
D02*
G37*
G36*
X347441D02*
X346456D01*
X345505Y21005D01*
X344652Y20513D01*
X343956Y19816D01*
X343463Y18963D01*
X343209Y18012D01*
Y17027D01*
X343463Y16076D01*
X343956Y15223D01*
X344652Y14527D01*
X345505Y14034D01*
X346456Y13780D01*
X347441D01*
X348393Y14034D01*
X349245Y14527D01*
X349942Y15223D01*
X350434Y16076D01*
X350689Y17027D01*
Y18012D01*
X350434Y18963D01*
X349942Y19816D01*
X349245Y20513D01*
X348393Y21005D01*
X347441Y21260D01*
D02*
G37*
G36*
X327756D02*
X326771D01*
X325820Y21005D01*
X324967Y20513D01*
X324271Y19816D01*
X323779Y18963D01*
X323524Y18012D01*
Y17027D01*
X323779Y16076D01*
X324271Y15223D01*
X324967Y14527D01*
X325820Y14034D01*
X326771Y13780D01*
X327756D01*
X328707Y14034D01*
X329560Y14527D01*
X330257Y15223D01*
X330749Y16076D01*
X331004Y17027D01*
Y18012D01*
X330749Y18963D01*
X330257Y19816D01*
X329560Y20513D01*
X328707Y21005D01*
X327756Y21260D01*
D02*
G37*
G36*
X298229D02*
X297244D01*
X296293Y21005D01*
X295440Y20513D01*
X294743Y19816D01*
X294251Y18963D01*
X293996Y18012D01*
Y17027D01*
X294251Y16076D01*
X294743Y15223D01*
X295440Y14527D01*
X296293Y14034D01*
X297244Y13780D01*
X298229D01*
X299180Y14034D01*
X300033Y14527D01*
X300729Y15223D01*
X301221Y16076D01*
X301476Y17027D01*
Y18012D01*
X301221Y18963D01*
X300729Y19816D01*
X300033Y20513D01*
X299180Y21005D01*
X298229Y21260D01*
D02*
G37*
G36*
X168307D02*
X167323D01*
X166371Y21005D01*
X165518Y20513D01*
X164822Y19816D01*
X164330Y18963D01*
X164075Y18012D01*
Y17027D01*
X164330Y16076D01*
X164822Y15223D01*
X165518Y14527D01*
X166371Y14034D01*
X167323Y13780D01*
X168307D01*
X169259Y14034D01*
X170111Y14527D01*
X170808Y15223D01*
X171300Y16076D01*
X171555Y17027D01*
Y18012D01*
X171300Y18963D01*
X170808Y19816D01*
X170111Y20513D01*
X169259Y21005D01*
X168307Y21260D01*
D02*
G37*
G36*
X138780D02*
X137795D01*
X136844Y21005D01*
X135991Y20513D01*
X135294Y19816D01*
X134802Y18963D01*
X134547Y18012D01*
Y17027D01*
X134802Y16076D01*
X135294Y15223D01*
X135991Y14527D01*
X136844Y14034D01*
X137795Y13780D01*
X138780D01*
X139731Y14034D01*
X140584Y14527D01*
X141280Y15223D01*
X141773Y16076D01*
X142027Y17027D01*
Y18012D01*
X141773Y18963D01*
X141280Y19816D01*
X140584Y20513D01*
X139731Y21005D01*
X138780Y21260D01*
D02*
G37*
G36*
X119095D02*
X118110D01*
X117159Y21005D01*
X116306Y20513D01*
X115610Y19816D01*
X115117Y18963D01*
X114862Y18012D01*
Y17027D01*
X115117Y16076D01*
X115610Y15223D01*
X116306Y14527D01*
X117159Y14034D01*
X118110Y13780D01*
X119095D01*
X120046Y14034D01*
X120899Y14527D01*
X121595Y15223D01*
X122088Y16076D01*
X122343Y17027D01*
Y18012D01*
X122088Y18963D01*
X121595Y19816D01*
X120899Y20513D01*
X120046Y21005D01*
X119095Y21260D01*
D02*
G37*
G36*
X89567D02*
X88582D01*
X87631Y21005D01*
X86778Y20513D01*
X86082Y19816D01*
X85589Y18963D01*
X85335Y18012D01*
Y17027D01*
X85589Y16076D01*
X86082Y15223D01*
X86778Y14527D01*
X87631Y14034D01*
X88582Y13780D01*
X89567D01*
X90518Y14034D01*
X91371Y14527D01*
X92068Y15223D01*
X92560Y16076D01*
X92815Y17027D01*
Y18012D01*
X92560Y18963D01*
X92068Y19816D01*
X91371Y20513D01*
X90518Y21005D01*
X89567Y21260D01*
D02*
G37*
G36*
X367126Y21260D02*
X366141D01*
X365190Y21005D01*
X364337Y20513D01*
X363641Y19816D01*
X363149Y18963D01*
X362894Y18012D01*
Y17027D01*
X363149Y16076D01*
X363641Y15223D01*
X364337Y14527D01*
X365190Y14034D01*
X366141Y13780D01*
X367126D01*
X368077Y14034D01*
X368930Y14527D01*
X369627Y15223D01*
X370119Y16076D01*
X370374Y17027D01*
Y18012D01*
X370119Y18963D01*
X369627Y19816D01*
X368930Y20513D01*
X368077Y21005D01*
X367126Y21260D01*
D02*
G37*
G36*
X337599D02*
X336614D01*
X335663Y21005D01*
X334810Y20513D01*
X334113Y19816D01*
X333621Y18963D01*
X333366Y18012D01*
Y17027D01*
X333621Y16076D01*
X334113Y15223D01*
X334810Y14527D01*
X335663Y14034D01*
X336614Y13780D01*
X337599D01*
X338550Y14034D01*
X339403Y14527D01*
X340099Y15223D01*
X340592Y16076D01*
X340846Y17027D01*
Y18012D01*
X340592Y18963D01*
X340099Y19816D01*
X339403Y20513D01*
X338550Y21005D01*
X337599Y21260D01*
D02*
G37*
G36*
X317914D02*
X316929D01*
X315978Y21005D01*
X315125Y20513D01*
X314428Y19816D01*
X313936Y18963D01*
X313681Y18012D01*
Y17027D01*
X313936Y16076D01*
X314428Y15223D01*
X315125Y14527D01*
X315978Y14034D01*
X316929Y13780D01*
X317914D01*
X318865Y14034D01*
X319718Y14527D01*
X320414Y15223D01*
X320906Y16076D01*
X321161Y17027D01*
Y18012D01*
X320906Y18963D01*
X320414Y19816D01*
X319718Y20513D01*
X318865Y21005D01*
X317914Y21260D01*
D02*
G37*
G36*
X288386D02*
X287401D01*
X286450Y21005D01*
X285597Y20513D01*
X284901Y19816D01*
X284408Y18963D01*
X284154Y18012D01*
Y17027D01*
X284408Y16076D01*
X284901Y15223D01*
X285597Y14527D01*
X286450Y14034D01*
X287401Y13780D01*
X288386D01*
X289337Y14034D01*
X290190Y14527D01*
X290886Y15223D01*
X291379Y16076D01*
X291634Y17027D01*
Y18012D01*
X291379Y18963D01*
X290886Y19816D01*
X290190Y20513D01*
X289337Y21005D01*
X288386Y21260D01*
D02*
G37*
G36*
X158465D02*
X157480D01*
X156529Y21005D01*
X155676Y20513D01*
X154980Y19816D01*
X154487Y18963D01*
X154232Y18012D01*
Y17027D01*
X154487Y16076D01*
X154980Y15223D01*
X155676Y14527D01*
X156529Y14034D01*
X157480Y13780D01*
X158465D01*
X159416Y14034D01*
X160269Y14527D01*
X160965Y15223D01*
X161458Y16076D01*
X161713Y17027D01*
Y18012D01*
X161458Y18963D01*
X160965Y19816D01*
X160269Y20513D01*
X159416Y21005D01*
X158465Y21260D01*
D02*
G37*
G36*
X128937D02*
X127953D01*
X127001Y21005D01*
X126148Y20513D01*
X125452Y19816D01*
X124960Y18963D01*
X124705Y18012D01*
Y17027D01*
X124960Y16076D01*
X125452Y15223D01*
X126148Y14527D01*
X127001Y14034D01*
X127953Y13780D01*
X128937D01*
X129888Y14034D01*
X130741Y14527D01*
X131438Y15223D01*
X131930Y16076D01*
X132185Y17027D01*
Y18012D01*
X131930Y18963D01*
X131438Y19816D01*
X130741Y20513D01*
X129888Y21005D01*
X128937Y21260D01*
D02*
G37*
G36*
X109252D02*
X108267D01*
X107316Y21005D01*
X106463Y20513D01*
X105767Y19816D01*
X105275Y18963D01*
X105020Y18012D01*
Y17027D01*
X105275Y16076D01*
X105767Y15223D01*
X106463Y14527D01*
X107316Y14034D01*
X108267Y13780D01*
X109252D01*
X110204Y14034D01*
X111056Y14527D01*
X111753Y15223D01*
X112245Y16076D01*
X112500Y17027D01*
Y18012D01*
X112245Y18963D01*
X111753Y19816D01*
X111056Y20513D01*
X110204Y21005D01*
X109252Y21260D01*
D02*
G37*
G36*
X79725D02*
X78740D01*
X77789Y21005D01*
X76936Y20513D01*
X76239Y19816D01*
X75747Y18963D01*
X75492Y18012D01*
Y17027D01*
X75747Y16076D01*
X76239Y15223D01*
X76936Y14527D01*
X77789Y14034D01*
X78740Y13780D01*
X79725D01*
X80676Y14034D01*
X81529Y14527D01*
X82225Y15223D01*
X82718Y16076D01*
X82972Y17027D01*
Y18012D01*
X82718Y18963D01*
X82225Y19816D01*
X81529Y20513D01*
X80676Y21005D01*
X79725Y21260D01*
D02*
G37*
G36*
X357284Y21260D02*
X356299D01*
X355348Y21005D01*
X354495Y20513D01*
X353799Y19816D01*
X353306Y18963D01*
X353051Y18012D01*
Y17027D01*
X353306Y16076D01*
X353799Y15223D01*
X354495Y14527D01*
X355348Y14034D01*
X356299Y13780D01*
X357284D01*
X358235Y14034D01*
X359088Y14527D01*
X359784Y15223D01*
X360277Y16076D01*
X360531Y17027D01*
Y18012D01*
X360277Y18963D01*
X359784Y19816D01*
X359088Y20513D01*
X358235Y21005D01*
X357284Y21260D01*
D02*
G37*
G36*
X308071D02*
X307086D01*
X306135Y21005D01*
X305282Y20513D01*
X304586Y19816D01*
X304094Y18963D01*
X303839Y18012D01*
Y17027D01*
X304094Y16076D01*
X304586Y15223D01*
X305282Y14527D01*
X306135Y14034D01*
X307086Y13780D01*
X308071D01*
X309022Y14034D01*
X309875Y14527D01*
X310572Y15223D01*
X311064Y16076D01*
X311319Y17027D01*
Y18012D01*
X311064Y18963D01*
X310572Y19816D01*
X309875Y20513D01*
X309022Y21005D01*
X308071Y21260D01*
D02*
G37*
G36*
X148622D02*
X147637D01*
X146686Y21005D01*
X145833Y20513D01*
X145137Y19816D01*
X144645Y18963D01*
X144390Y18012D01*
Y17027D01*
X144645Y16076D01*
X145137Y15223D01*
X145833Y14527D01*
X146686Y14034D01*
X147637Y13780D01*
X148622D01*
X149574Y14034D01*
X150426Y14527D01*
X151123Y15223D01*
X151615Y16076D01*
X151870Y17027D01*
Y18012D01*
X151615Y18963D01*
X151123Y19816D01*
X150426Y20513D01*
X149574Y21005D01*
X148622Y21260D01*
D02*
G37*
G36*
X99410D02*
X98425D01*
X97474Y21005D01*
X96621Y20513D01*
X95924Y19816D01*
X95432Y18963D01*
X95177Y18012D01*
Y17027D01*
X95432Y16076D01*
X95924Y15223D01*
X96621Y14527D01*
X97474Y14034D01*
X98425Y13780D01*
X99410D01*
X100361Y14034D01*
X101214Y14527D01*
X101910Y15223D01*
X102403Y16076D01*
X102657Y17027D01*
Y18012D01*
X102403Y18963D01*
X101910Y19816D01*
X101214Y20513D01*
X100361Y21005D01*
X99410Y21260D01*
D02*
G37*
G36*
X173736Y11501D02*
Y8677D01*
X176560D01*
X176420Y9203D01*
X175899Y10104D01*
X175163Y10840D01*
X174262Y11361D01*
X173736Y11501D01*
D02*
G37*
G36*
X171736D02*
X171211Y11361D01*
X170309Y10840D01*
X169573Y10104D01*
X169053Y9203D01*
X168912Y8677D01*
X171736D01*
Y11501D01*
D02*
G37*
G36*
X134366Y11501D02*
Y8677D01*
X137190D01*
X137049Y9203D01*
X136529Y10104D01*
X135793Y10840D01*
X134892Y11361D01*
X134366Y11501D01*
D02*
G37*
G36*
X94996D02*
Y8677D01*
X97820D01*
X97679Y9203D01*
X97159Y10104D01*
X96423Y10840D01*
X95522Y11361D01*
X94996Y11501D01*
D02*
G37*
G36*
X293815Y11501D02*
Y8677D01*
X296639D01*
X296498Y9203D01*
X295978Y10104D01*
X295242Y10840D01*
X294341Y11361D01*
X293815Y11501D01*
D02*
G37*
G36*
X291815Y11501D02*
X291289Y11361D01*
X290388Y10840D01*
X289652Y10104D01*
X289132Y9203D01*
X288991Y8677D01*
X291815D01*
Y11501D01*
D02*
G37*
G36*
X92996D02*
X92470Y11361D01*
X91569Y10840D01*
X90833Y10104D01*
X90313Y9203D01*
X90172Y8677D01*
X92996D01*
Y11501D01*
D02*
G37*
G36*
X132366Y11501D02*
X131840Y11361D01*
X130939Y10840D01*
X130203Y10104D01*
X129683Y9203D01*
X129542Y8677D01*
X132366D01*
Y11501D01*
D02*
G37*
G36*
X381890Y11417D02*
X380905D01*
X379954Y11162D01*
X379101Y10670D01*
X378405Y9974D01*
X377912Y9121D01*
X377658Y8170D01*
Y7185D01*
X377912Y6233D01*
X378405Y5381D01*
X379101Y4684D01*
X379954Y4192D01*
X380905Y3937D01*
X381890D01*
X382841Y4192D01*
X383694Y4684D01*
X384390Y5381D01*
X384883Y6233D01*
X385138Y7185D01*
Y8170D01*
X384883Y9121D01*
X384390Y9974D01*
X383694Y10670D01*
X382841Y11162D01*
X381890Y11417D01*
D02*
G37*
G36*
X372047D02*
X371063D01*
X370111Y11162D01*
X369259Y10670D01*
X368562Y9974D01*
X368070Y9121D01*
X367815Y8170D01*
Y7185D01*
X368070Y6233D01*
X368562Y5381D01*
X369259Y4684D01*
X370111Y4192D01*
X371063Y3937D01*
X372047D01*
X372999Y4192D01*
X373852Y4684D01*
X374548Y5381D01*
X375040Y6233D01*
X375295Y7185D01*
Y8170D01*
X375040Y9121D01*
X374548Y9974D01*
X373852Y10670D01*
X372999Y11162D01*
X372047Y11417D01*
D02*
G37*
G36*
X332677D02*
X331693D01*
X330741Y11162D01*
X329889Y10670D01*
X329192Y9974D01*
X328700Y9121D01*
X328445Y8170D01*
Y7185D01*
X328700Y6233D01*
X329192Y5381D01*
X329889Y4684D01*
X330741Y4192D01*
X331693Y3937D01*
X332677D01*
X333629Y4192D01*
X334482Y4684D01*
X335178Y5381D01*
X335670Y6233D01*
X335925Y7185D01*
Y8170D01*
X335670Y9121D01*
X335178Y9974D01*
X334482Y10670D01*
X333629Y11162D01*
X332677Y11417D01*
D02*
G37*
G36*
X322835D02*
X321850D01*
X320899Y11162D01*
X320046Y10670D01*
X319350Y9974D01*
X318857Y9121D01*
X318602Y8170D01*
Y7185D01*
X318857Y6233D01*
X319350Y5381D01*
X320046Y4684D01*
X320899Y4192D01*
X321850Y3937D01*
X322835D01*
X323786Y4192D01*
X324639Y4684D01*
X325335Y5381D01*
X325828Y6233D01*
X326083Y7185D01*
Y8170D01*
X325828Y9121D01*
X325335Y9974D01*
X324639Y10670D01*
X323786Y11162D01*
X322835Y11417D01*
D02*
G37*
G36*
X163386D02*
X162401D01*
X161450Y11162D01*
X160597Y10670D01*
X159901Y9974D01*
X159408Y9121D01*
X159153Y8170D01*
Y7185D01*
X159408Y6233D01*
X159901Y5381D01*
X160597Y4684D01*
X161450Y4192D01*
X162401Y3937D01*
X163386D01*
X164337Y4192D01*
X165190Y4684D01*
X165887Y5381D01*
X166379Y6233D01*
X166634Y7185D01*
Y8170D01*
X166379Y9121D01*
X165887Y9974D01*
X165190Y10670D01*
X164337Y11162D01*
X163386Y11417D01*
D02*
G37*
G36*
X124016D02*
X123031D01*
X122080Y11162D01*
X121227Y10670D01*
X120531Y9974D01*
X120038Y9121D01*
X119783Y8170D01*
Y7185D01*
X120038Y6233D01*
X120531Y5381D01*
X121227Y4684D01*
X122080Y4192D01*
X123031Y3937D01*
X124016D01*
X124967Y4192D01*
X125820Y4684D01*
X126516Y5381D01*
X127009Y6233D01*
X127264Y7185D01*
Y8170D01*
X127009Y9121D01*
X126516Y9974D01*
X125820Y10670D01*
X124967Y11162D01*
X124016Y11417D01*
D02*
G37*
G36*
X114173D02*
X113189D01*
X112237Y11162D01*
X111385Y10670D01*
X110688Y9974D01*
X110196Y9121D01*
X109941Y8170D01*
Y7185D01*
X110196Y6233D01*
X110688Y5381D01*
X111385Y4684D01*
X112237Y4192D01*
X113189Y3937D01*
X114173D01*
X115125Y4192D01*
X115978Y4684D01*
X116674Y5381D01*
X117166Y6233D01*
X117421Y7185D01*
Y8170D01*
X117166Y9121D01*
X116674Y9974D01*
X115978Y10670D01*
X115125Y11162D01*
X114173Y11417D01*
D02*
G37*
G36*
X362205Y11417D02*
X361220D01*
X360269Y11162D01*
X359416Y10670D01*
X358720Y9974D01*
X358227Y9121D01*
X357972Y8170D01*
Y7185D01*
X358227Y6233D01*
X358720Y5381D01*
X359416Y4684D01*
X360269Y4192D01*
X361220Y3937D01*
X362205D01*
X363156Y4192D01*
X364009Y4684D01*
X364705Y5381D01*
X365198Y6233D01*
X365453Y7185D01*
Y8170D01*
X365198Y9121D01*
X364705Y9974D01*
X364009Y10670D01*
X363156Y11162D01*
X362205Y11417D01*
D02*
G37*
G36*
X352362D02*
X351378D01*
X350426Y11162D01*
X349574Y10670D01*
X348877Y9974D01*
X348385Y9121D01*
X348130Y8170D01*
Y7185D01*
X348385Y6233D01*
X348877Y5381D01*
X349574Y4684D01*
X350426Y4192D01*
X351378Y3937D01*
X352362D01*
X353314Y4192D01*
X354167Y4684D01*
X354863Y5381D01*
X355355Y6233D01*
X355610Y7185D01*
Y8170D01*
X355355Y9121D01*
X354863Y9974D01*
X354167Y10670D01*
X353314Y11162D01*
X352362Y11417D01*
D02*
G37*
G36*
X342520D02*
X341535D01*
X340584Y11162D01*
X339731Y10670D01*
X339035Y9974D01*
X338542Y9121D01*
X338287Y8170D01*
Y7185D01*
X338542Y6233D01*
X339035Y5381D01*
X339731Y4684D01*
X340584Y4192D01*
X341535Y3937D01*
X342520D01*
X343471Y4192D01*
X344324Y4684D01*
X345020Y5381D01*
X345513Y6233D01*
X345768Y7185D01*
Y8170D01*
X345513Y9121D01*
X345020Y9974D01*
X344324Y10670D01*
X343471Y11162D01*
X342520Y11417D01*
D02*
G37*
G36*
X312992D02*
X312008D01*
X311056Y11162D01*
X310204Y10670D01*
X309507Y9974D01*
X309015Y9121D01*
X308760Y8170D01*
Y7185D01*
X309015Y6233D01*
X309507Y5381D01*
X310204Y4684D01*
X311056Y4192D01*
X312008Y3937D01*
X312992D01*
X313944Y4192D01*
X314796Y4684D01*
X315493Y5381D01*
X315985Y6233D01*
X316240Y7185D01*
Y8170D01*
X315985Y9121D01*
X315493Y9974D01*
X314796Y10670D01*
X313944Y11162D01*
X312992Y11417D01*
D02*
G37*
G36*
X303150D02*
X302165D01*
X301214Y11162D01*
X300361Y10670D01*
X299665Y9974D01*
X299172Y9121D01*
X298917Y8170D01*
Y7185D01*
X299172Y6233D01*
X299665Y5381D01*
X300361Y4684D01*
X301214Y4192D01*
X302165Y3937D01*
X303150D01*
X304101Y4192D01*
X304954Y4684D01*
X305650Y5381D01*
X306143Y6233D01*
X306398Y7185D01*
Y8170D01*
X306143Y9121D01*
X305650Y9974D01*
X304954Y10670D01*
X304101Y11162D01*
X303150Y11417D01*
D02*
G37*
G36*
X153544D02*
X152559D01*
X151608Y11162D01*
X150755Y10670D01*
X150058Y9974D01*
X149566Y9121D01*
X149311Y8170D01*
Y7185D01*
X149566Y6233D01*
X150058Y5381D01*
X150755Y4684D01*
X151608Y4192D01*
X152559Y3937D01*
X153544D01*
X154495Y4192D01*
X155348Y4684D01*
X156044Y5381D01*
X156536Y6233D01*
X156791Y7185D01*
Y8170D01*
X156536Y9121D01*
X156044Y9974D01*
X155348Y10670D01*
X154495Y11162D01*
X153544Y11417D01*
D02*
G37*
G36*
X143701D02*
X142716D01*
X141765Y11162D01*
X140912Y10670D01*
X140216Y9974D01*
X139723Y9121D01*
X139469Y8170D01*
Y7185D01*
X139723Y6233D01*
X140216Y5381D01*
X140912Y4684D01*
X141765Y4192D01*
X142716Y3937D01*
X143701D01*
X144652Y4192D01*
X145505Y4684D01*
X146202Y5381D01*
X146694Y6233D01*
X146949Y7185D01*
Y8170D01*
X146694Y9121D01*
X146202Y9974D01*
X145505Y10670D01*
X144652Y11162D01*
X143701Y11417D01*
D02*
G37*
G36*
X104331D02*
X103346D01*
X102395Y11162D01*
X101542Y10670D01*
X100846Y9974D01*
X100353Y9121D01*
X100098Y8170D01*
Y7185D01*
X100353Y6233D01*
X100846Y5381D01*
X101542Y4684D01*
X102395Y4192D01*
X103346Y3937D01*
X104331D01*
X105282Y4192D01*
X106135Y4684D01*
X106831Y5381D01*
X107324Y6233D01*
X107579Y7185D01*
Y8170D01*
X107324Y9121D01*
X106831Y9974D01*
X106135Y10670D01*
X105282Y11162D01*
X104331Y11417D01*
D02*
G37*
G36*
X84646D02*
X83661D01*
X82710Y11162D01*
X81857Y10670D01*
X81161Y9974D01*
X80668Y9121D01*
X80413Y8170D01*
Y7185D01*
X80668Y6233D01*
X81161Y5381D01*
X81857Y4684D01*
X82710Y4192D01*
X83661Y3937D01*
X84646D01*
X85597Y4192D01*
X86450Y4684D01*
X87146Y5381D01*
X87639Y6233D01*
X87894Y7185D01*
Y8170D01*
X87639Y9121D01*
X87146Y9974D01*
X86450Y10670D01*
X85597Y11162D01*
X84646Y11417D01*
D02*
G37*
G36*
X176560Y6677D02*
X173736D01*
Y3853D01*
X174262Y3994D01*
X175163Y4514D01*
X175899Y5250D01*
X176420Y6151D01*
X176560Y6677D01*
D02*
G37*
G36*
X171736D02*
X168912D01*
X169053Y6151D01*
X169573Y5250D01*
X170309Y4514D01*
X171211Y3994D01*
X171736Y3853D01*
Y6677D01*
D02*
G37*
G36*
X137190Y6677D02*
X134366D01*
Y3853D01*
X134892Y3994D01*
X135793Y4514D01*
X136529Y5250D01*
X137049Y6151D01*
X137190Y6677D01*
D02*
G37*
G36*
X291815D02*
X288991D01*
X289132Y6151D01*
X289652Y5250D01*
X290388Y4514D01*
X291289Y3994D01*
X291815Y3853D01*
Y6677D01*
D02*
G37*
G36*
X97820D02*
X94996D01*
Y3853D01*
X95522Y3994D01*
X96423Y4514D01*
X97159Y5250D01*
X97679Y6151D01*
X97820Y6677D01*
D02*
G37*
G36*
X92996D02*
X90172D01*
X90313Y6151D01*
X90833Y5250D01*
X91569Y4514D01*
X92470Y3994D01*
X92996Y3853D01*
Y6677D01*
D02*
G37*
G36*
X296639D02*
X293815D01*
Y3853D01*
X294341Y3994D01*
X295242Y4514D01*
X295978Y5250D01*
X296498Y6151D01*
X296639Y6677D01*
D02*
G37*
G36*
X132366D02*
X129542D01*
X129683Y6151D01*
X130203Y5250D01*
X130939Y4514D01*
X131840Y3994D01*
X132366Y3853D01*
Y6677D01*
D02*
G37*
%LPD*%
D69*
X172736Y7677D02*
D03*
X93996Y7677D02*
D03*
X133366D02*
D03*
X292815D02*
D03*
D73*
X55827Y270787D02*
D03*
D74*
X383819Y108268D02*
D03*
D76*
X294331Y106457D02*
D03*
X294134Y112441D02*
D03*
X309055Y182874D02*
D03*
X300219Y57779D02*
D03*
X251871Y237262D02*
D03*
X229606Y207165D02*
D03*
X113543Y203701D02*
D03*
X340560Y212101D02*
D03*
X284842Y131417D02*
D03*
X318583Y158504D02*
D03*
X234646Y74724D02*
D03*
X120984Y74291D02*
D03*
X168307Y193425D02*
D03*
X206575Y58465D02*
D03*
X233937Y80827D02*
D03*
X189567Y211181D02*
D03*
X82047Y196024D02*
D03*
X196968Y226850D02*
D03*
X151654Y236653D02*
D03*
X108425Y236575D02*
D03*
X155630Y169016D02*
D03*
X166063Y148228D02*
D03*
X423268Y215472D02*
D03*
X285472Y167047D02*
D03*
X414646Y236063D02*
D03*
X390236Y221024D02*
D03*
X302874Y261575D02*
D03*
X214961Y261890D02*
D03*
X261653Y218032D02*
D03*
X216693Y222598D02*
D03*
X331978Y234764D02*
D03*
X307598Y220197D02*
D03*
X403858Y16535D02*
D03*
X260306Y117983D02*
D03*
X265158Y101575D02*
D03*
X201063Y86221D02*
D03*
X225079Y100079D02*
D03*
X316457Y64961D02*
D03*
X305827D02*
D03*
X53228Y151969D02*
D03*
X60236Y145709D02*
D03*
Y135079D02*
D03*
X36772Y265984D02*
D03*
X18661Y265945D02*
D03*
X27716D02*
D03*
X9606D02*
D03*
X257165Y207913D02*
D03*
M02*
