G04*
G04 #@! TF.GenerationSoftware,Altium Limited,Altium Designer,24.4.1 (13)*
G04*
G04 Layer_Physical_Order=3*
G04 Layer_Color=16440176*
%FSLAX25Y25*%
%MOIN*%
G70*
G04*
G04 #@! TF.SameCoordinates,C0FDF859-87A2-4171-B3A7-0CEEBBFFB865*
G04*
G04*
G04 #@! TF.FilePolarity,Positive*
G04*
G01*
G75*
%ADD14C,0.00984*%
%ADD66C,0.01181*%
%ADD76C,0.02362*%
G36*
X153976Y237496D02*
X153476Y237397D01*
X153322Y237769D01*
X152769Y238322D01*
X152045Y238622D01*
X151262D01*
X150539Y238322D01*
X149985Y237769D01*
X149685Y237045D01*
Y236262D01*
X149985Y235539D01*
X150539Y234985D01*
X151262Y234685D01*
X152045D01*
X152769Y234985D01*
X153322Y235539D01*
X153476Y235910D01*
X153976Y235811D01*
Y186024D01*
X130866D01*
X108976Y164134D01*
Y129921D01*
X60315Y129841D01*
X59961Y130194D01*
Y133110D01*
X60628D01*
X61351Y133410D01*
X61905Y133964D01*
X62205Y134687D01*
Y135470D01*
X61905Y136194D01*
X61351Y136748D01*
X60628Y137047D01*
X59961D01*
Y143740D01*
X60628D01*
X61351Y144040D01*
X61905Y144594D01*
X62205Y145317D01*
Y146100D01*
X61905Y146824D01*
X61351Y147378D01*
X60628Y147677D01*
X59961D01*
Y240827D01*
X153976D01*
Y237496D01*
D02*
G37*
G36*
X432441Y244331D02*
X432402Y241850D01*
Y193780D01*
X391913D01*
X391826Y193989D01*
X391273Y194543D01*
X390549Y194843D01*
X389766D01*
X389042Y194543D01*
X388489Y193989D01*
X388402Y193780D01*
X331535D01*
X325236Y187480D01*
Y82287D01*
X317756Y74843D01*
X296024D01*
X290787Y69606D01*
Y50591D01*
X171142D01*
Y76417D01*
X114921Y132638D01*
Y166641D01*
X131981Y183701D01*
X155354D01*
Y198772D01*
X155854Y199106D01*
X156262Y198937D01*
X157045D01*
X157769Y199237D01*
X158322Y199790D01*
X158622Y200514D01*
Y201297D01*
X158322Y202021D01*
X157769Y202574D01*
X157045Y202874D01*
X156262D01*
X155854Y202705D01*
X155354Y203039D01*
Y246220D01*
X432441D01*
Y244331D01*
D02*
G37*
G36*
X56496Y160472D02*
Y109803D01*
X85753Y80547D01*
X85591Y80155D01*
Y79372D01*
X85890Y78649D01*
X86444Y78095D01*
X87168Y77795D01*
X87951D01*
X88342Y77957D01*
X96673Y69626D01*
X96772Y69724D01*
X103706D01*
X105140Y68290D01*
X105564Y68007D01*
X106063Y67908D01*
X113228D01*
Y53031D01*
X113327Y52972D01*
X117520Y48779D01*
X205131D01*
X205338Y48280D01*
X205103Y48044D01*
X204803Y47321D01*
Y46538D01*
X205103Y45814D01*
X205657Y45260D01*
X206380Y44961D01*
X207163D01*
X207887Y45260D01*
X208440Y45814D01*
X208740Y46538D01*
Y47321D01*
X208440Y48044D01*
X208205Y48280D01*
X208412Y48779D01*
X292244D01*
Y49959D01*
X292364Y50039D01*
X293147D01*
X293871Y50339D01*
X294425Y50893D01*
X294724Y51616D01*
Y52399D01*
X294425Y53123D01*
X293871Y53677D01*
X293147Y53976D01*
X292774D01*
X292244Y54507D01*
Y65748D01*
X299055Y72559D01*
X319528D01*
X327874Y80905D01*
Y130276D01*
X356457D01*
Y24724D01*
X10394D01*
X803Y34315D01*
Y49192D01*
X1297Y49270D01*
X1336Y49148D01*
X2448Y46968D01*
X3886Y44987D01*
X5617Y43256D01*
X7597Y41818D01*
X9778Y40706D01*
X12106Y39950D01*
X14524Y39567D01*
X16972D01*
X19390Y39950D01*
X21718Y40706D01*
X23899Y41818D01*
X25879Y43256D01*
X27610Y44987D01*
X29049Y46968D01*
X30160Y49148D01*
X30916Y51477D01*
X31299Y53894D01*
Y56342D01*
X30916Y58760D01*
X30160Y61088D01*
X29049Y63269D01*
X27610Y65249D01*
X25879Y66980D01*
X23899Y68419D01*
X21718Y69530D01*
X19390Y70286D01*
X16972Y70669D01*
X14524D01*
X12106Y70286D01*
X9778Y69530D01*
X7597Y68419D01*
X5617Y66980D01*
X3886Y65249D01*
X2448Y63269D01*
X1336Y61088D01*
X1297Y60966D01*
X803Y61044D01*
Y160944D01*
X46430D01*
X46602Y160772D01*
X47325Y160472D01*
X48108D01*
X48832Y160772D01*
X49003Y160944D01*
X56025D01*
X56496Y160472D01*
D02*
G37*
%LPC*%
G36*
X108817Y238543D02*
X108034D01*
X107310Y238244D01*
X106756Y237690D01*
X106457Y236966D01*
Y236183D01*
X106756Y235460D01*
X107310Y234906D01*
X108034Y234606D01*
X108817D01*
X109540Y234906D01*
X110094Y235460D01*
X110394Y236183D01*
Y236966D01*
X110094Y237690D01*
X109540Y238244D01*
X108817Y238543D01*
D02*
G37*
G36*
X110864Y223189D02*
X110081D01*
X109357Y222889D01*
X108804Y222336D01*
X108504Y221612D01*
Y220829D01*
X108804Y220105D01*
X109357Y219552D01*
X110081Y219252D01*
X110864D01*
X111588Y219552D01*
X112141Y220105D01*
X112441Y220829D01*
Y221612D01*
X112141Y222336D01*
X111588Y222889D01*
X110864Y223189D01*
D02*
G37*
G36*
X66651Y222598D02*
X65868D01*
X65145Y222299D01*
X64591Y221745D01*
X64291Y221022D01*
Y220238D01*
X64591Y219515D01*
X65145Y218961D01*
X65868Y218661D01*
X66651D01*
X67375Y218961D01*
X67929Y219515D01*
X68228Y220238D01*
Y221022D01*
X67929Y221745D01*
X67375Y222299D01*
X66651Y222598D01*
D02*
G37*
G36*
X147793Y218071D02*
X147010D01*
X146286Y217771D01*
X145733Y217217D01*
X145433Y216494D01*
Y215711D01*
X145733Y214987D01*
X146286Y214434D01*
X147010Y214134D01*
X147793D01*
X148517Y214434D01*
X149070Y214987D01*
X149370Y215711D01*
Y216494D01*
X149070Y217217D01*
X148517Y217771D01*
X147793Y218071D01*
D02*
G37*
G36*
X105352D02*
X104569D01*
X103846Y217771D01*
X103292Y217217D01*
X102992Y216494D01*
Y215711D01*
X103292Y214987D01*
X103846Y214434D01*
X104569Y214134D01*
X105352D01*
X106076Y214434D01*
X106629Y214987D01*
X106929Y215711D01*
Y216494D01*
X106629Y217217D01*
X106076Y217771D01*
X105352Y218071D01*
D02*
G37*
G36*
X113659Y213189D02*
X112876D01*
X112153Y212889D01*
X111599Y212335D01*
X111299Y211612D01*
Y210829D01*
X111599Y210105D01*
X112153Y209552D01*
X112876Y209252D01*
X113659D01*
X114383Y209552D01*
X114936Y210105D01*
X115236Y210829D01*
Y211612D01*
X114936Y212335D01*
X114383Y212889D01*
X113659Y213189D01*
D02*
G37*
G36*
X69329Y213110D02*
X68546D01*
X67822Y212811D01*
X67268Y212257D01*
X66969Y211533D01*
Y210750D01*
X67268Y210027D01*
X67822Y209473D01*
X68546Y209173D01*
X69329D01*
X70052Y209473D01*
X70606Y210027D01*
X70906Y210750D01*
Y211533D01*
X70606Y212257D01*
X70052Y212811D01*
X69329Y213110D01*
D02*
G37*
G36*
X146573Y207953D02*
X145790D01*
X145066Y207653D01*
X144512Y207099D01*
X144213Y206376D01*
Y205593D01*
X144512Y204869D01*
X145066Y204315D01*
X145790Y204016D01*
X146573D01*
X147296Y204315D01*
X147850Y204869D01*
X148150Y205593D01*
Y206376D01*
X147850Y207099D01*
X147296Y207653D01*
X146573Y207953D01*
D02*
G37*
G36*
X103147Y207756D02*
X102364D01*
X101641Y207456D01*
X101087Y206903D01*
X100787Y206179D01*
Y205396D01*
X101087Y204672D01*
X101641Y204119D01*
X102364Y203819D01*
X103147D01*
X103871Y204119D01*
X104425Y204672D01*
X104724Y205396D01*
Y206179D01*
X104425Y206903D01*
X103871Y207456D01*
X103147Y207756D01*
D02*
G37*
G36*
X113935Y205669D02*
X113152D01*
X112428Y205370D01*
X111874Y204816D01*
X111575Y204092D01*
Y203309D01*
X111874Y202586D01*
X112428Y202032D01*
X113152Y201732D01*
X113935D01*
X114658Y202032D01*
X115212Y202586D01*
X115512Y203309D01*
Y204092D01*
X115212Y204816D01*
X114658Y205370D01*
X113935Y205669D01*
D02*
G37*
G36*
X82439Y197992D02*
X81656D01*
X80932Y197692D01*
X80378Y197139D01*
X80079Y196415D01*
Y195632D01*
X80378Y194908D01*
X80932Y194355D01*
X81656Y194055D01*
X82439D01*
X83162Y194355D01*
X83716Y194908D01*
X84016Y195632D01*
Y196415D01*
X83716Y197139D01*
X83162Y197692D01*
X82439Y197992D01*
D02*
G37*
G36*
X98305Y172362D02*
X97522D01*
X96798Y172063D01*
X96245Y171509D01*
X95945Y170785D01*
Y170002D01*
X96245Y169279D01*
X96798Y168725D01*
X97522Y168425D01*
X98305D01*
X99028Y168725D01*
X99582Y169279D01*
X99882Y170002D01*
Y170785D01*
X99582Y171509D01*
X99028Y172063D01*
X98305Y172362D01*
D02*
G37*
G36*
X252263Y239231D02*
X251480D01*
X250756Y238931D01*
X250203Y238377D01*
X249903Y237654D01*
Y236871D01*
X250203Y236147D01*
X250756Y235594D01*
X251480Y235294D01*
X252263D01*
X252987Y235594D01*
X253540Y236147D01*
X253840Y236871D01*
Y237654D01*
X253540Y238377D01*
X252987Y238931D01*
X252263Y239231D01*
D02*
G37*
G36*
X415037Y238032D02*
X414254D01*
X413531Y237732D01*
X412977Y237178D01*
X412677Y236455D01*
Y235671D01*
X412977Y234948D01*
X413531Y234394D01*
X414254Y234095D01*
X415037D01*
X415761Y234394D01*
X416315Y234948D01*
X416614Y235671D01*
Y236455D01*
X416315Y237178D01*
X415761Y237732D01*
X415037Y238032D01*
D02*
G37*
G36*
X165746Y236968D02*
X164963D01*
X164239Y236669D01*
X163686Y236115D01*
X163386Y235392D01*
Y234608D01*
X163686Y233885D01*
X164239Y233331D01*
X164963Y233032D01*
X165746D01*
X166469Y233331D01*
X167023Y233885D01*
X167323Y234608D01*
Y235392D01*
X167023Y236115D01*
X166469Y236669D01*
X165746Y236968D01*
D02*
G37*
G36*
X332370Y236732D02*
X331587D01*
X330863Y236433D01*
X330310Y235879D01*
X330010Y235155D01*
Y234372D01*
X330310Y233649D01*
X330863Y233095D01*
X331587Y232795D01*
X332370D01*
X333093Y233095D01*
X333647Y233649D01*
X333947Y234372D01*
Y235155D01*
X333647Y235879D01*
X333093Y236433D01*
X332370Y236732D01*
D02*
G37*
G36*
X197360Y228819D02*
X196577D01*
X195853Y228519D01*
X195300Y227965D01*
X195000Y227242D01*
Y226459D01*
X195300Y225735D01*
X195853Y225182D01*
X196577Y224882D01*
X197360D01*
X198084Y225182D01*
X198637Y225735D01*
X198937Y226459D01*
Y227242D01*
X198637Y227965D01*
X198084Y228519D01*
X197360Y228819D01*
D02*
G37*
G36*
X217085Y224567D02*
X216301D01*
X215578Y224267D01*
X215024Y223713D01*
X214724Y222990D01*
Y222207D01*
X215024Y221483D01*
X215578Y220930D01*
X216301Y220630D01*
X217085D01*
X217808Y220930D01*
X218362Y221483D01*
X218661Y222207D01*
Y222990D01*
X218362Y223713D01*
X217808Y224267D01*
X217085Y224567D01*
D02*
G37*
G36*
X236573Y225515D02*
X235790D01*
X235066Y225216D01*
X234512Y224662D01*
X234213Y223938D01*
Y223640D01*
X230639Y220066D01*
X228505D01*
X228241Y220330D01*
X227518Y220630D01*
X226734D01*
X226011Y220330D01*
X225457Y219777D01*
X225157Y219053D01*
Y218270D01*
X225457Y217546D01*
X226011Y216993D01*
X226734Y216693D01*
X227518D01*
X228241Y216993D01*
X228505Y217256D01*
X231221D01*
X231758Y217363D01*
X232214Y217668D01*
X236124Y221578D01*
X236573D01*
X237296Y221878D01*
X237850Y222432D01*
X238150Y223155D01*
Y223938D01*
X237850Y224662D01*
X237296Y225216D01*
X236573Y225515D01*
D02*
G37*
G36*
X390628Y222992D02*
X389845D01*
X389121Y222692D01*
X388567Y222139D01*
X388268Y221415D01*
Y220632D01*
X388567Y219909D01*
X389121Y219355D01*
X389845Y219055D01*
X390628D01*
X391351Y219355D01*
X391905Y219909D01*
X392205Y220632D01*
Y221415D01*
X391905Y222139D01*
X391351Y222692D01*
X390628Y222992D01*
D02*
G37*
G36*
X307990Y222165D02*
X307207D01*
X306483Y221866D01*
X305930Y221312D01*
X305630Y220588D01*
Y219805D01*
X305930Y219082D01*
X306483Y218528D01*
X307207Y218228D01*
X307990D01*
X308714Y218528D01*
X309267Y219082D01*
X309567Y219805D01*
Y220588D01*
X309267Y221312D01*
X308714Y221866D01*
X307990Y222165D01*
D02*
G37*
G36*
X399955Y222720D02*
X399172D01*
X398448Y222420D01*
X397895Y221867D01*
X397595Y221143D01*
Y220770D01*
X396591Y219766D01*
X396347Y219718D01*
X395891Y219413D01*
X393906Y217429D01*
X391300D01*
X391036Y217692D01*
X390313Y217992D01*
X389530D01*
X388806Y217692D01*
X388252Y217139D01*
X387953Y216415D01*
Y215632D01*
X388252Y214909D01*
X388806Y214355D01*
X389530Y214055D01*
X390313D01*
X391036Y214355D01*
X391300Y214619D01*
X394488D01*
X395026Y214726D01*
X395482Y215030D01*
X397524Y217073D01*
X397769Y217122D01*
X398225Y217426D01*
X399582Y218783D01*
X399955D01*
X400678Y219083D01*
X401232Y219637D01*
X401532Y220360D01*
Y221143D01*
X401232Y221867D01*
X400678Y222420D01*
X399955Y222720D01*
D02*
G37*
G36*
X317527Y221869D02*
X316744D01*
X316020Y221569D01*
X315466Y221015D01*
X315167Y220292D01*
Y219919D01*
X314191Y218943D01*
X313900Y218885D01*
X313444Y218581D01*
X311505Y216641D01*
X308899D01*
X308635Y216905D01*
X307911Y217205D01*
X307128D01*
X306405Y216905D01*
X305851Y216351D01*
X305551Y215628D01*
Y214845D01*
X305851Y214121D01*
X306405Y213567D01*
X307128Y213268D01*
X307911D01*
X308635Y213567D01*
X308899Y213831D01*
X312087D01*
X312624Y213938D01*
X313080Y214243D01*
X315068Y216231D01*
X315360Y216289D01*
X315815Y216594D01*
X317154Y217932D01*
X317527D01*
X318250Y218231D01*
X318804Y218785D01*
X319104Y219509D01*
Y220292D01*
X318804Y221015D01*
X318250Y221569D01*
X317527Y221869D01*
D02*
G37*
G36*
X262045Y220000D02*
X261262D01*
X260539Y219700D01*
X259985Y219147D01*
X259685Y218423D01*
Y217640D01*
X259985Y216916D01*
X260539Y216363D01*
X261262Y216063D01*
X262045D01*
X262769Y216363D01*
X263322Y216916D01*
X263622Y217640D01*
Y218423D01*
X263322Y219147D01*
X262769Y219700D01*
X262045Y220000D01*
D02*
G37*
G36*
X423659Y217441D02*
X422876D01*
X422153Y217141D01*
X421599Y216587D01*
X421299Y215864D01*
Y215081D01*
X421599Y214357D01*
X422153Y213804D01*
X422876Y213504D01*
X423659D01*
X424383Y213804D01*
X424936Y214357D01*
X425236Y215081D01*
Y215864D01*
X424936Y216587D01*
X424383Y217141D01*
X423659Y217441D01*
D02*
G37*
G36*
X340952Y214069D02*
X340169D01*
X339445Y213769D01*
X338892Y213215D01*
X338592Y212492D01*
Y211709D01*
X338892Y210985D01*
X339445Y210432D01*
X340169Y210132D01*
X340952D01*
X341675Y210432D01*
X342229Y210985D01*
X342529Y211709D01*
Y212492D01*
X342229Y213215D01*
X341675Y213769D01*
X340952Y214069D01*
D02*
G37*
G36*
X189959Y213150D02*
X189175D01*
X188452Y212850D01*
X187898Y212296D01*
X187598Y211573D01*
Y210789D01*
X187898Y210066D01*
X188452Y209512D01*
X189175Y209213D01*
X189959D01*
X190682Y209512D01*
X191236Y210066D01*
X191535Y210789D01*
Y211573D01*
X191236Y212296D01*
X190682Y212850D01*
X189959Y213150D01*
D02*
G37*
G36*
X257557Y209882D02*
X256774D01*
X256050Y209582D01*
X255497Y209029D01*
X255197Y208305D01*
Y207522D01*
X255497Y206798D01*
X256050Y206245D01*
X256774Y205945D01*
X257557D01*
X258280Y206245D01*
X258834Y206798D01*
X259134Y207522D01*
Y208305D01*
X258834Y209029D01*
X258280Y209582D01*
X257557Y209882D01*
D02*
G37*
G36*
X229998Y209134D02*
X229215D01*
X228491Y208834D01*
X227938Y208280D01*
X227638Y207557D01*
Y206774D01*
X227938Y206050D01*
X228491Y205497D01*
X229215Y205197D01*
X229998D01*
X230721Y205497D01*
X231275Y206050D01*
X231575Y206774D01*
Y207557D01*
X231275Y208280D01*
X230721Y208834D01*
X229998Y209134D01*
D02*
G37*
G36*
X417990Y203189D02*
X417207D01*
X416483Y202889D01*
X415930Y202336D01*
X415630Y201612D01*
Y200829D01*
X415930Y200105D01*
X416483Y199552D01*
X417207Y199252D01*
X417990D01*
X418714Y199552D01*
X419267Y200105D01*
X419567Y200829D01*
Y201612D01*
X419267Y202336D01*
X418714Y202889D01*
X417990Y203189D01*
D02*
G37*
G36*
X335667Y202677D02*
X334884D01*
X334160Y202378D01*
X333607Y201824D01*
X333307Y201100D01*
Y200317D01*
X333607Y199594D01*
X334160Y199040D01*
X334884Y198740D01*
X335667D01*
X336391Y199040D01*
X336944Y199594D01*
X337244Y200317D01*
Y201100D01*
X336944Y201824D01*
X336391Y202378D01*
X335667Y202677D01*
D02*
G37*
G36*
X221258Y200591D02*
X220475D01*
X219751Y200291D01*
X219197Y199737D01*
X218898Y199014D01*
Y198231D01*
X219197Y197507D01*
X219751Y196953D01*
X220475Y196653D01*
X221258D01*
X221981Y196953D01*
X222535Y197507D01*
X222835Y198231D01*
Y199014D01*
X222535Y199737D01*
X221981Y200291D01*
X221258Y200591D01*
D02*
G37*
G36*
X177596Y198307D02*
X176813D01*
X176090Y198007D01*
X175536Y197454D01*
X175236Y196730D01*
Y195947D01*
X175536Y195223D01*
X176090Y194670D01*
X176813Y194370D01*
X177596D01*
X178320Y194670D01*
X178874Y195223D01*
X179173Y195947D01*
Y196730D01*
X178874Y197454D01*
X178320Y198007D01*
X177596Y198307D01*
D02*
G37*
G36*
X299998Y194134D02*
X299293D01*
X298642Y193864D01*
X298396Y193618D01*
X298149Y193864D01*
X297498Y194134D01*
X296793D01*
X296142Y193864D01*
X295644Y193366D01*
X295374Y192715D01*
Y192010D01*
X295644Y191359D01*
X296142Y190860D01*
X296793Y190591D01*
X297498D01*
X298149Y190860D01*
X298396Y191107D01*
X298642Y190860D01*
X299293Y190591D01*
X299998D01*
X300649Y190860D01*
X301148Y191359D01*
X301417Y192010D01*
Y192715D01*
X301148Y193366D01*
X300649Y193864D01*
X299998Y194134D01*
D02*
G37*
G36*
X307911Y195748D02*
X307128D01*
X306405Y195448D01*
X305851Y194895D01*
X305551Y194171D01*
Y193388D01*
X305851Y192665D01*
X306405Y192111D01*
X307128Y191811D01*
X307911D01*
X308635Y192111D01*
X309189Y192665D01*
X309488Y193388D01*
Y194171D01*
X309189Y194895D01*
X308635Y195448D01*
X307911Y195748D01*
D02*
G37*
G36*
X168699Y195394D02*
X167915D01*
X167192Y195094D01*
X166638Y194540D01*
X166339Y193817D01*
Y193034D01*
X166638Y192310D01*
X167192Y191756D01*
X167915Y191457D01*
X168699D01*
X169422Y191756D01*
X169976Y192310D01*
X170276Y193034D01*
Y193817D01*
X169976Y194540D01*
X169422Y195094D01*
X168699Y195394D01*
D02*
G37*
G36*
X309447Y184843D02*
X308664D01*
X307940Y184543D01*
X307386Y183989D01*
X307087Y183266D01*
Y182483D01*
X307386Y181759D01*
X307940Y181205D01*
X308664Y180905D01*
X309447D01*
X310170Y181205D01*
X310724Y181759D01*
X311024Y182483D01*
Y183266D01*
X310724Y183989D01*
X310170Y184543D01*
X309447Y184843D01*
D02*
G37*
G36*
X155037Y181220D02*
X154333D01*
X153682Y180951D01*
X153183Y180452D01*
X152913Y179801D01*
Y179096D01*
X153183Y178445D01*
X153429Y178199D01*
X153183Y177952D01*
X152913Y177301D01*
Y176596D01*
X153183Y175945D01*
X153682Y175447D01*
X154333Y175177D01*
X155037D01*
X155689Y175447D01*
X156187Y175945D01*
X156457Y176596D01*
Y177301D01*
X156187Y177952D01*
X155940Y178199D01*
X156187Y178445D01*
X156457Y179096D01*
Y179801D01*
X156187Y180452D01*
X155689Y180951D01*
X155037Y181220D01*
D02*
G37*
G36*
X202629Y177795D02*
X201925D01*
X201273Y177525D01*
X200775Y177027D01*
X200505Y176376D01*
Y175671D01*
X200775Y175020D01*
X201273Y174522D01*
X201925Y174252D01*
X202273D01*
Y173903D01*
X202543Y173252D01*
X203041Y172754D01*
X203692Y172484D01*
X204397D01*
X205048Y172754D01*
X205547Y173252D01*
X205816Y173903D01*
Y174608D01*
X205547Y175259D01*
X205048Y175758D01*
X204397Y176028D01*
X204049D01*
Y176376D01*
X203779Y177027D01*
X203280Y177525D01*
X202629Y177795D01*
D02*
G37*
G36*
X156021Y170984D02*
X155238D01*
X154515Y170685D01*
X153961Y170131D01*
X153661Y169407D01*
Y168624D01*
X153961Y167901D01*
X154515Y167347D01*
X155238Y167047D01*
X156021D01*
X156745Y167347D01*
X157299Y167901D01*
X157598Y168624D01*
Y169407D01*
X157299Y170131D01*
X156745Y170685D01*
X156021Y170984D01*
D02*
G37*
G36*
X285864Y169016D02*
X285081D01*
X284357Y168716D01*
X283804Y168162D01*
X283504Y167439D01*
Y166656D01*
X283804Y165932D01*
X284357Y165378D01*
X285081Y165079D01*
X285864D01*
X286588Y165378D01*
X287141Y165932D01*
X287441Y166656D01*
Y167439D01*
X287141Y168162D01*
X286588Y168716D01*
X285864Y169016D01*
D02*
G37*
G36*
X294377Y168995D02*
X293594D01*
X292871Y168695D01*
X292317Y168141D01*
X292017Y167418D01*
Y167045D01*
X291042Y166069D01*
X290750Y166011D01*
X290294Y165706D01*
X288355Y163767D01*
X285749D01*
X285485Y164031D01*
X284762Y164331D01*
X283979D01*
X283255Y164031D01*
X282701Y163477D01*
X282402Y162754D01*
Y161971D01*
X282701Y161247D01*
X283255Y160693D01*
X283979Y160394D01*
X284762D01*
X285485Y160693D01*
X285749Y160957D01*
X288937D01*
X289475Y161064D01*
X289931Y161369D01*
X291919Y163357D01*
X292210Y163415D01*
X292666Y163720D01*
X294004Y165058D01*
X294377D01*
X295101Y165357D01*
X295655Y165911D01*
X295954Y166635D01*
Y167418D01*
X295655Y168141D01*
X295101Y168695D01*
X294377Y168995D01*
D02*
G37*
G36*
X318974Y160472D02*
X318191D01*
X317468Y160173D01*
X316914Y159619D01*
X316614Y158896D01*
Y158112D01*
X316914Y157389D01*
X317468Y156835D01*
X318191Y156535D01*
X318974D01*
X319698Y156835D01*
X320251Y157389D01*
X320551Y158112D01*
Y158896D01*
X320251Y159619D01*
X319698Y160173D01*
X318974Y160472D01*
D02*
G37*
G36*
X140549Y155748D02*
X139766D01*
X139042Y155448D01*
X138489Y154895D01*
X138189Y154171D01*
Y153913D01*
X134500Y150224D01*
X134029D01*
X133704Y150549D01*
X133248Y150853D01*
X133116Y150880D01*
X132621Y151375D01*
X131897Y151674D01*
X131114D01*
X130391Y151375D01*
X129837Y150821D01*
X129537Y150097D01*
Y149314D01*
X129837Y148591D01*
X130391Y148037D01*
X131114Y147737D01*
X131897D01*
X132353Y147926D01*
X132454Y147826D01*
X132910Y147521D01*
X133447Y147414D01*
X135082D01*
X135620Y147521D01*
X136076Y147826D01*
X140061Y151811D01*
X140549D01*
X141273Y152111D01*
X141826Y152664D01*
X142126Y153388D01*
Y154171D01*
X141826Y154895D01*
X141273Y155448D01*
X140549Y155748D01*
D02*
G37*
G36*
X208226Y155594D02*
X207443D01*
X206719Y155294D01*
X206166Y154741D01*
X205866Y154017D01*
Y153794D01*
X202217Y150145D01*
X200083D01*
X199819Y150409D01*
X199096Y150709D01*
X198313D01*
X197589Y150409D01*
X197035Y149855D01*
X196736Y149132D01*
Y148349D01*
X197035Y147625D01*
X197589Y147071D01*
X198313Y146772D01*
X199096D01*
X199819Y147071D01*
X200083Y147335D01*
X202799D01*
X203336Y147442D01*
X203792Y147747D01*
X207702Y151657D01*
X208226D01*
X208949Y151957D01*
X209503Y152510D01*
X209803Y153234D01*
Y154017D01*
X209503Y154741D01*
X208949Y155294D01*
X208226Y155594D01*
D02*
G37*
G36*
X166455Y150197D02*
X165671D01*
X164948Y149897D01*
X164394Y149343D01*
X164094Y148620D01*
Y147837D01*
X164394Y147113D01*
X164948Y146560D01*
X165671Y146260D01*
X166455D01*
X167178Y146560D01*
X167732Y147113D01*
X168032Y147837D01*
Y148620D01*
X167732Y149343D01*
X167178Y149897D01*
X166455Y150197D01*
D02*
G37*
G36*
X314722Y149488D02*
X313939D01*
X313216Y149188D01*
X312662Y148635D01*
X312362Y147911D01*
Y147128D01*
X312662Y146405D01*
X313216Y145851D01*
X313939Y145551D01*
X314722D01*
X315446Y145851D01*
X316000Y146405D01*
X316299Y147128D01*
Y147911D01*
X316000Y148635D01*
X315446Y149188D01*
X314722Y149488D01*
D02*
G37*
G36*
X285195Y141102D02*
X284412D01*
X283688Y140803D01*
X283134Y140249D01*
X282835Y139525D01*
Y138742D01*
X283134Y138019D01*
X283688Y137465D01*
X284412Y137165D01*
X285195D01*
X285918Y137465D01*
X286472Y138019D01*
X286772Y138742D01*
Y139525D01*
X286472Y140249D01*
X285918Y140803D01*
X285195Y141102D01*
D02*
G37*
G36*
X261740Y138386D02*
X260957D01*
X260233Y138086D01*
X259680Y137532D01*
X259380Y136809D01*
Y136026D01*
X259680Y135302D01*
X260233Y134748D01*
X260957Y134449D01*
X261418D01*
X261772Y134341D01*
X261880Y133987D01*
Y133526D01*
X262180Y132802D01*
X262733Y132248D01*
X263457Y131949D01*
X264240D01*
X264964Y132248D01*
X265517Y132802D01*
X265817Y133526D01*
Y134309D01*
X265517Y135032D01*
X264964Y135586D01*
X264240Y135886D01*
X263779D01*
X263424Y135993D01*
X263317Y136348D01*
Y136809D01*
X263017Y137532D01*
X262463Y138086D01*
X261740Y138386D01*
D02*
G37*
G36*
X285234Y133386D02*
X284451D01*
X283727Y133086D01*
X283174Y132532D01*
X282874Y131809D01*
Y131026D01*
X283174Y130302D01*
X283727Y129748D01*
X284451Y129449D01*
X285234D01*
X285958Y129748D01*
X286511Y130302D01*
X286811Y131026D01*
Y131809D01*
X286511Y132532D01*
X285958Y133086D01*
X285234Y133386D01*
D02*
G37*
G36*
X193029Y130157D02*
X192246D01*
X191523Y129858D01*
X190969Y129304D01*
X190669Y128580D01*
Y127797D01*
X190969Y127074D01*
X191523Y126520D01*
X192246Y126221D01*
X193029D01*
X193753Y126520D01*
X194307Y127074D01*
X194606Y127797D01*
Y128580D01*
X194307Y129304D01*
X193753Y129858D01*
X193029Y130157D01*
D02*
G37*
G36*
X133935Y129252D02*
X133152D01*
X132428Y128952D01*
X131875Y128399D01*
X131575Y127675D01*
Y126892D01*
X131875Y126168D01*
X132428Y125615D01*
X133152Y125315D01*
X133935D01*
X134658Y125615D01*
X135212Y126168D01*
X135512Y126892D01*
Y127675D01*
X135212Y128399D01*
X134658Y128952D01*
X133935Y129252D01*
D02*
G37*
G36*
X260697Y119951D02*
X259914D01*
X259191Y119652D01*
X258637Y119098D01*
X258337Y118375D01*
Y117592D01*
X258637Y116868D01*
X259191Y116314D01*
X259914Y116015D01*
X260697D01*
X261421Y116314D01*
X261974Y116868D01*
X262274Y117592D01*
Y118375D01*
X261974Y119098D01*
X261421Y119652D01*
X260697Y119951D01*
D02*
G37*
G36*
X311179Y122874D02*
X310396D01*
X309672Y122574D01*
X309119Y122021D01*
X308819Y121297D01*
Y120514D01*
X309119Y119790D01*
X309672Y119237D01*
X310396Y118937D01*
X311179D01*
X311272Y118975D01*
X311655Y118593D01*
X311535Y118305D01*
Y117522D01*
X311835Y116798D01*
X312389Y116245D01*
X313112Y115945D01*
X313896D01*
X314619Y116245D01*
X315173Y116798D01*
X315472Y117522D01*
Y118305D01*
X315173Y119028D01*
X314619Y119582D01*
X313896Y119882D01*
X313112D01*
X313019Y119843D01*
X312637Y120226D01*
X312756Y120514D01*
Y121297D01*
X312456Y122021D01*
X311902Y122574D01*
X311179Y122874D01*
D02*
G37*
G36*
X270173Y119628D02*
X269390D01*
X268666Y119328D01*
X268112Y118775D01*
X267813Y118051D01*
Y117678D01*
X266870Y116735D01*
X266524Y116666D01*
X266068Y116362D01*
X264064Y114358D01*
X261536D01*
X261273Y114622D01*
X260549Y114921D01*
X259766D01*
X259042Y114622D01*
X258489Y114068D01*
X258189Y113344D01*
Y112561D01*
X258489Y111838D01*
X259042Y111284D01*
X259766Y110984D01*
X260549D01*
X261273Y111284D01*
X261536Y111548D01*
X264646D01*
X265183Y111655D01*
X265639Y111959D01*
X267681Y114002D01*
X268028Y114070D01*
X268484Y114375D01*
X269800Y115691D01*
X270173D01*
X270896Y115991D01*
X271450Y116545D01*
X271750Y117268D01*
Y118051D01*
X271450Y118775D01*
X270896Y119328D01*
X270173Y119628D01*
D02*
G37*
G36*
X294525Y114409D02*
X293742D01*
X293019Y114110D01*
X292465Y113556D01*
X292165Y112832D01*
Y112049D01*
X292465Y111326D01*
X293019Y110772D01*
X293742Y110472D01*
X294525D01*
X295249Y110772D01*
X295803Y111326D01*
X296102Y112049D01*
Y112832D01*
X295803Y113556D01*
X295249Y114110D01*
X294525Y114409D01*
D02*
G37*
G36*
X204417Y110591D02*
X203713D01*
X203061Y110321D01*
X202563Y109822D01*
X202293Y109171D01*
Y108466D01*
X202563Y107815D01*
X203061Y107317D01*
X203713Y107047D01*
X204061D01*
Y106699D01*
X204331Y106048D01*
X204829Y105549D01*
X205480Y105280D01*
X206185D01*
X206836Y105549D01*
X207335Y106048D01*
X207604Y106699D01*
Y107404D01*
X207335Y108055D01*
X206836Y108553D01*
X206185Y108823D01*
X205837D01*
Y109171D01*
X205567Y109822D01*
X205068Y110321D01*
X204417Y110591D01*
D02*
G37*
G36*
X294722Y108425D02*
X293939D01*
X293216Y108125D01*
X292662Y107572D01*
X292362Y106848D01*
Y106065D01*
X292662Y105342D01*
X293216Y104788D01*
X293939Y104488D01*
X294722D01*
X295446Y104788D01*
X296000Y105342D01*
X296299Y106065D01*
Y106848D01*
X296000Y107572D01*
X295446Y108125D01*
X294722Y108425D01*
D02*
G37*
G36*
X265549Y103543D02*
X264766D01*
X264042Y103244D01*
X263489Y102690D01*
X263189Y101966D01*
Y101183D01*
X263489Y100460D01*
X264042Y99906D01*
X264766Y99606D01*
X265549D01*
X266273Y99906D01*
X266826Y100460D01*
X267126Y101183D01*
Y101966D01*
X266826Y102690D01*
X266273Y103244D01*
X265549Y103543D01*
D02*
G37*
G36*
X225470Y102047D02*
X224687D01*
X223964Y101748D01*
X223410Y101194D01*
X223110Y100470D01*
Y99687D01*
X223410Y98964D01*
X223964Y98410D01*
X224687Y98110D01*
X225470D01*
X226194Y98410D01*
X226748Y98964D01*
X227047Y99687D01*
Y100470D01*
X226748Y101194D01*
X226194Y101748D01*
X225470Y102047D01*
D02*
G37*
G36*
X254486Y94173D02*
X253703D01*
X252979Y93874D01*
X252426Y93320D01*
X252126Y92596D01*
Y91813D01*
X252426Y91090D01*
X252979Y90536D01*
X253703Y90236D01*
X254486D01*
X255210Y90536D01*
X255763Y91090D01*
X256063Y91813D01*
Y92596D01*
X255763Y93320D01*
X255210Y93874D01*
X254486Y94173D01*
D02*
G37*
G36*
X201454Y88189D02*
X200671D01*
X199948Y87889D01*
X199394Y87335D01*
X199094Y86612D01*
Y85829D01*
X199394Y85105D01*
X199948Y84552D01*
X200671Y84252D01*
X201454D01*
X202178Y84552D01*
X202732Y85105D01*
X203031Y85829D01*
Y86612D01*
X202732Y87335D01*
X202178Y87889D01*
X201454Y88189D01*
D02*
G37*
G36*
X209928Y88020D02*
X209145D01*
X208422Y87721D01*
X207868Y87167D01*
X207568Y86443D01*
Y86070D01*
X206585Y85087D01*
X206306Y85032D01*
X205851Y84727D01*
X203670Y82547D01*
X201458D01*
X201194Y82811D01*
X200470Y83110D01*
X199687D01*
X198964Y82811D01*
X198410Y82257D01*
X198110Y81533D01*
Y80750D01*
X198410Y80027D01*
X198964Y79473D01*
X199687Y79173D01*
X200470D01*
X201194Y79473D01*
X201458Y79737D01*
X204252D01*
X204790Y79844D01*
X205245Y80148D01*
X207477Y82380D01*
X207756Y82436D01*
X208212Y82740D01*
X209555Y84083D01*
X209928D01*
X210652Y84383D01*
X211206Y84937D01*
X211505Y85660D01*
Y86443D01*
X211206Y87167D01*
X210652Y87721D01*
X209928Y88020D01*
D02*
G37*
G36*
X234329Y82795D02*
X233545D01*
X232822Y82496D01*
X232268Y81942D01*
X231968Y81218D01*
Y80435D01*
X232268Y79712D01*
X232822Y79158D01*
X233545Y78858D01*
X234329D01*
X235052Y79158D01*
X235606Y79712D01*
X235906Y80435D01*
Y81218D01*
X235606Y81942D01*
X235052Y82496D01*
X234329Y82795D01*
D02*
G37*
G36*
X235037Y76693D02*
X234254D01*
X233531Y76393D01*
X232977Y75840D01*
X232677Y75116D01*
Y74333D01*
X232977Y73609D01*
X233531Y73056D01*
X234254Y72756D01*
X235037D01*
X235761Y73056D01*
X236315Y73609D01*
X236614Y74333D01*
Y75116D01*
X236315Y75840D01*
X235761Y76393D01*
X235037Y76693D01*
D02*
G37*
G36*
X206966Y60433D02*
X206183D01*
X205460Y60133D01*
X204906Y59580D01*
X204606Y58856D01*
Y58073D01*
X204906Y57349D01*
X205460Y56796D01*
X206183Y56496D01*
X206966D01*
X207690Y56796D01*
X208244Y57349D01*
X208543Y58073D01*
Y58856D01*
X208244Y59580D01*
X207690Y60133D01*
X206966Y60433D01*
D02*
G37*
G36*
X200864Y55197D02*
X200081D01*
X199357Y54897D01*
X198804Y54343D01*
X198504Y53620D01*
Y52837D01*
X198804Y52113D01*
X199357Y51560D01*
X200081Y51260D01*
X200864D01*
X201588Y51560D01*
X202141Y52113D01*
X202441Y52837D01*
Y53620D01*
X202141Y54343D01*
X201588Y54897D01*
X200864Y55197D01*
D02*
G37*
G36*
X53620Y153937D02*
X52837D01*
X52113Y153637D01*
X51560Y153084D01*
X51260Y152360D01*
Y151577D01*
X51560Y150853D01*
X52113Y150300D01*
X52837Y150000D01*
X53620D01*
X54343Y150300D01*
X54897Y150853D01*
X55197Y151577D01*
Y152360D01*
X54897Y153084D01*
X54343Y153637D01*
X53620Y153937D01*
D02*
G37*
G36*
X316848Y66929D02*
X316065D01*
X315342Y66629D01*
X314788Y66076D01*
X314488Y65352D01*
Y64569D01*
X314788Y63846D01*
X315342Y63292D01*
X316065Y62992D01*
X316848D01*
X317572Y63292D01*
X318126Y63846D01*
X318425Y64569D01*
Y65352D01*
X318126Y66076D01*
X317572Y66629D01*
X316848Y66929D01*
D02*
G37*
G36*
X306218D02*
X305435D01*
X304712Y66629D01*
X304158Y66076D01*
X303858Y65352D01*
Y64569D01*
X304158Y63846D01*
X304712Y63292D01*
X305435Y62992D01*
X306218D01*
X306942Y63292D01*
X307496Y63846D01*
X307795Y64569D01*
Y65352D01*
X307496Y66076D01*
X306942Y66629D01*
X306218Y66929D01*
D02*
G37*
G36*
X300611Y59747D02*
X299828D01*
X299104Y59447D01*
X298551Y58894D01*
X298251Y58170D01*
Y57387D01*
X298551Y56664D01*
X299104Y56110D01*
X299828Y55810D01*
X300611D01*
X301335Y56110D01*
X301888Y56664D01*
X302188Y57387D01*
Y58170D01*
X301888Y58894D01*
X301335Y59447D01*
X300611Y59747D01*
D02*
G37*
G36*
X145421Y47260D02*
X144638D01*
X143914Y46960D01*
X143360Y46406D01*
X143061Y45683D01*
Y44899D01*
X143360Y44176D01*
X143914Y43622D01*
X144638Y43323D01*
X145421D01*
X146144Y43622D01*
X146698Y44176D01*
X146998Y44899D01*
Y45683D01*
X146698Y46406D01*
X146144Y46960D01*
X145421Y47260D01*
D02*
G37*
%LPD*%
D14*
X149089Y70197D02*
X149370D01*
X102835Y72441D02*
X106063Y69213D01*
X148105D02*
X149089Y70197D01*
X106063Y69213D02*
X148105D01*
D66*
X314822Y217587D02*
X317135Y219900D01*
X314437Y217587D02*
X314822D01*
X312087Y215236D02*
X314437Y217587D01*
X291672Y164713D02*
X293986Y167026D01*
X291288Y164713D02*
X291672D01*
X288937Y162362D02*
X291288Y164713D01*
X267061Y115368D02*
X267490D01*
X269781Y117660D01*
X264646Y112953D02*
X267061Y115368D01*
X204252Y81142D02*
X206844Y83734D01*
X207219D02*
X209537Y86052D01*
X206844Y83734D02*
X207219D01*
X135082Y148819D02*
X140053Y153789D01*
X140149D01*
X131506Y149706D02*
X131656Y149555D01*
X133447Y148819D02*
X135082D01*
X131656Y149555D02*
X132711D01*
X133447Y148819D01*
X397231Y218420D02*
X399563Y220752D01*
X396884Y218420D02*
X397231D01*
X394488Y216024D02*
X396884Y218420D01*
X87559Y79764D02*
X110181D01*
X111441Y78504D01*
X111732D01*
X236106Y223547D02*
X236181D01*
X231221Y218661D02*
X236106Y223547D01*
X207684Y153626D02*
X207835D01*
X202799Y148740D02*
X207684Y153626D01*
X289016Y55748D02*
Y56457D01*
Y55748D02*
X292756Y52008D01*
X284370Y162362D02*
X288937D01*
X227126Y218661D02*
X231221D01*
X307520Y215236D02*
X312087D01*
X389921Y216024D02*
X394488D01*
X198704Y148740D02*
X202799D01*
X260157Y112953D02*
X264646D01*
X200079Y81142D02*
X204252D01*
X61339Y162441D02*
X64095Y159685D01*
X47717Y162441D02*
X61339D01*
D76*
X295630Y117953D02*
D03*
X317135Y219900D02*
D03*
X323286Y43722D02*
D03*
X316457Y43583D02*
D03*
X306024Y83110D02*
D03*
X300074Y91364D02*
D03*
X293986Y167026D02*
D03*
X269781Y117660D02*
D03*
X257777Y227774D02*
D03*
X209537Y86052D02*
D03*
X149370Y70197D02*
D03*
X140157Y153779D02*
D03*
X145504Y210992D02*
D03*
X131506Y149706D02*
D03*
X102420Y65053D02*
D03*
X102795Y72362D02*
D03*
X399563Y220752D02*
D03*
X102354Y54681D02*
D03*
Y47712D02*
D03*
X234724Y86339D02*
D03*
X202244Y196102D02*
D03*
X186063Y185709D02*
D03*
X69528Y215945D02*
D03*
X118740Y161063D02*
D03*
X78976Y139724D02*
D03*
Y145276D02*
D03*
X78819Y135039D02*
D03*
X157244Y215945D02*
D03*
X102008Y211063D02*
D03*
X113898Y216024D02*
D03*
X87559Y79764D02*
D03*
X111653Y78504D02*
D03*
X191299Y226850D02*
D03*
X151654Y231181D02*
D03*
X108386D02*
D03*
X177717Y58346D02*
D03*
X236181Y223547D02*
D03*
X207835Y153626D02*
D03*
X300074Y88189D02*
D03*
X292756Y52008D02*
D03*
X287402Y88189D02*
D03*
X284370Y162362D02*
D03*
X227126Y218661D02*
D03*
X229216Y157992D02*
D03*
X337991Y224726D02*
D03*
X307520Y215236D02*
D03*
X315000Y171693D02*
D03*
X420551Y225354D02*
D03*
X389921Y216024D02*
D03*
X161499Y158071D02*
D03*
X198704Y148740D02*
D03*
X260157Y112953D02*
D03*
X200079Y81142D02*
D03*
X305827Y43583D02*
D03*
X38346Y145433D02*
D03*
Y134882D02*
D03*
Y127756D02*
D03*
X9606Y158661D02*
D03*
X47717Y162441D02*
D03*
X316890Y83110D02*
D03*
X287402Y91378D02*
D03*
X343465Y110000D02*
D03*
X339029D02*
D03*
X334594D02*
D03*
X330157D02*
D03*
X343465Y115354D02*
D03*
X330157D02*
D03*
M02*
