G04*
G04 #@! TF.GenerationSoftware,Altium Limited,Altium Designer,24.4.1 (13)*
G04*
G04 Layer_Physical_Order=2*
G04 Layer_Color=36540*
%FSLAX25Y25*%
%MOIN*%
G70*
G04*
G04 #@! TF.SameCoordinates,A81E2695-EE2E-47AF-8E55-1ABE3A742792*
G04*
G04*
G04 #@! TF.FilePolarity,Positive*
G04*
G01*
G75*
%ADD66C,0.01500*%
%ADD67C,0.01181*%
%ADD69C,0.05906*%
%ADD70C,0.05693*%
%ADD76C,0.02362*%
%ADD77C,0.01968*%
D66*
X297146Y192362D02*
Y193398D01*
X298760Y195012D01*
X302405D01*
X308068Y189350D01*
X309310D01*
X299735Y192452D02*
X300067D01*
X307032Y186850D02*
X310346D01*
X299646Y192362D02*
X299735Y192452D01*
X300067D02*
X300127Y192512D01*
X301370D02*
X307032Y186850D01*
X300127Y192512D02*
X301370D01*
X310346Y186850D02*
X320934Y197438D01*
X318434Y198474D02*
Y198474D01*
X320934Y197438D02*
Y197438D01*
X318434Y198474D02*
X361801Y241841D01*
X309310Y189350D02*
X318434Y198474D01*
X320934Y197438D02*
X364301Y240805D01*
X242500Y143718D02*
Y144781D01*
X221279Y126032D02*
X221279D01*
X240000Y144754D01*
X204065Y108819D02*
X221279Y126032D01*
X222314Y123532D02*
X242500Y143718D01*
X222314Y123532D02*
X222314D01*
X240000Y144754D02*
Y232365D01*
X205833Y107051D02*
X222314Y123532D01*
X205833Y107051D02*
Y107051D01*
X242500Y231329D02*
X256476Y245305D01*
X240000Y232365D02*
X255441Y247806D01*
X242500Y144781D02*
Y231329D01*
X97913Y70381D02*
Y170394D01*
Y70381D02*
X98917Y69377D01*
Y17520D02*
Y69377D01*
X364301Y240805D02*
Y271859D01*
X255441Y247806D02*
X256358D01*
X247677Y279528D02*
X252170Y275034D01*
X272022Y268649D02*
X274722Y265948D01*
Y262634D02*
Y265948D01*
X270101Y265791D02*
X271344D01*
X257394Y245305D02*
X274722Y262634D01*
X272022Y268649D02*
Y271343D01*
X269454Y265144D02*
X270101Y265791D01*
X256476Y245305D02*
X257394D01*
X272222Y263670D02*
Y264913D01*
X256358Y247806D02*
X272222Y263670D01*
X252170Y275034D02*
X268331D01*
X272022Y271343D01*
X271344Y265791D02*
X272222Y264913D01*
X248045Y265144D02*
X269454D01*
X243661Y269528D02*
X248045Y265144D01*
X360923Y268054D02*
X361801Y267175D01*
X359324Y269528D02*
X360798Y268054D01*
X358189Y269528D02*
X359324D01*
X362205Y273955D02*
X364301Y271859D01*
X362205Y273955D02*
Y279528D01*
X360798Y268054D02*
X360923D01*
X361801Y241841D02*
Y267175D01*
D67*
X313504Y117913D02*
X318493D01*
X401800Y201220D01*
X310787Y120905D02*
X382756Y192874D01*
X147098Y48177D02*
Y124854D01*
X220866Y198622D01*
X148130Y17520D02*
Y47146D01*
X147098Y48177D02*
X148130Y47146D01*
X145029Y45291D02*
Y125062D01*
X128701Y112553D02*
X133150Y108104D01*
X128701Y112553D02*
Y197402D01*
X147402Y216102D01*
X111024Y142118D02*
Y208976D01*
X113268Y211221D01*
X111024Y142118D02*
X114449Y138693D01*
X100276Y203307D02*
X102756Y205787D01*
X100276Y70410D02*
X113681Y57004D01*
X100276Y70410D02*
Y203307D01*
X104961Y215783D02*
Y216102D01*
X105827Y67756D02*
Y214917D01*
Y67756D02*
X118602Y54980D01*
X104961Y215783D02*
X105827Y214917D01*
X108701Y68307D02*
Y219449D01*
X110472Y221220D01*
X108701Y68307D02*
X123524Y53484D01*
X401800Y201220D02*
X417598D01*
X204882Y53228D02*
X232008Y26102D01*
X348209D01*
X356791Y17520D01*
X162894Y7677D02*
X163779Y8563D01*
X253976Y92323D02*
X254095Y92205D01*
X166279Y8563D02*
X172736Y15020D01*
X163779Y8563D02*
X166279D01*
X200472Y53228D02*
X204882D01*
X172736Y34232D02*
X230827Y92323D01*
X253976D01*
X172736Y15020D02*
Y34232D01*
X66260Y36617D02*
X83563Y19313D01*
X66260Y36617D02*
Y220630D01*
X68937Y44567D02*
Y211142D01*
Y44567D02*
X94587Y18917D01*
Y15726D02*
Y18917D01*
X88386Y12008D02*
X95790D01*
X83563Y16831D02*
Y19313D01*
Y16831D02*
X88386Y12008D01*
X95790D02*
X99820Y7978D01*
X103538D02*
X103839Y7677D01*
X99820Y7978D02*
X103538D01*
X104429Y13189D02*
X108760Y17520D01*
X94587Y15726D02*
X97123Y13189D01*
X104429D01*
X145029Y125062D02*
X146181Y126214D01*
Y205984D01*
X138878Y11593D02*
X142618Y15333D01*
Y118209D01*
X133543Y127284D02*
X142618Y118209D01*
X206772Y46772D02*
X229252Y24291D01*
X206772Y46772D02*
Y46929D01*
X229252Y24291D02*
X346302D01*
X133150Y16100D02*
Y108104D01*
X138878Y5883D02*
Y11593D01*
Y5883D02*
X141415Y3347D01*
X145002D01*
X148429Y6773D02*
X152147D01*
X145002Y3347D02*
X148429Y6773D01*
X152147D02*
X153051Y7677D01*
X129035Y11986D02*
X133150Y16100D01*
X129035Y7064D02*
Y11986D01*
X125317Y3347D02*
X129035Y7064D01*
X92202Y3347D02*
X125317D01*
X88775Y6773D02*
X92202Y3347D01*
X85057Y6773D02*
X88775D01*
X84153Y7677D02*
X85057Y6773D01*
X128445Y17520D02*
Y53563D01*
X114449Y67559D02*
X128445Y53563D01*
X114449Y67559D02*
Y138693D01*
X113681Y7677D02*
Y57004D01*
X118602Y17520D02*
Y54980D01*
X123524Y7677D02*
Y53484D01*
X346302Y24291D02*
X352461Y18132D01*
Y15726D02*
Y18132D01*
Y15726D02*
X360509Y7677D01*
X361713D01*
X382756Y192874D02*
X390158D01*
X153642Y16907D02*
Y89193D01*
X192638Y128189D01*
X144412Y7677D02*
X153642Y16907D01*
X143209Y7677D02*
X144412D01*
D69*
X162894Y7677D02*
D03*
X153051Y7677D02*
D03*
X148130Y17520D02*
D03*
X143209Y7677D02*
D03*
X108760Y17520D02*
D03*
X118602Y17520D02*
D03*
X84153Y7677D02*
D03*
X113681Y7677D02*
D03*
X98917Y17520D02*
D03*
X103839Y7677D02*
D03*
X123524Y7677D02*
D03*
X128445Y17520D02*
D03*
X356791Y17520D02*
D03*
X361713Y7677D02*
D03*
D70*
X247677Y279528D02*
D03*
X243661Y269528D02*
D03*
X358189D02*
D03*
X362205Y279528D02*
D03*
D76*
X313504Y117913D02*
D03*
X310787Y120905D02*
D03*
X220866Y198622D02*
D03*
X145029Y45291D02*
D03*
X417598Y201220D02*
D03*
X97913Y170394D02*
D03*
X146181Y205984D02*
D03*
X133543Y127284D02*
D03*
X200472Y53228D02*
D03*
X206772Y46929D02*
D03*
X147402Y216102D02*
D03*
X113268Y211221D02*
D03*
X110472Y221220D02*
D03*
X104961Y216102D02*
D03*
X102756Y205787D02*
D03*
X66260Y220630D02*
D03*
X68937Y211142D02*
D03*
X390158Y192874D02*
D03*
X254095Y92205D02*
D03*
X192638Y128189D02*
D03*
D77*
X297146Y192362D02*
D03*
X299646D02*
D03*
X205833Y107051D02*
D03*
X204065Y108819D02*
D03*
M02*
