G04*
G04 #@! TF.GenerationSoftware,Altium Limited,Altium Designer,24.4.1 (13)*
G04*
G04 Layer_Physical_Order=1*
G04 Layer_Color=255*
%FSLAX25Y25*%
%MOIN*%
G70*
G04*
G04 #@! TF.SameCoordinates,39C6E644-0FB7-41BD-BBFD-9FDE9DEB3176*
G04*
G04*
G04 #@! TF.FilePolarity,Positive*
G04*
G01*
G75*
%ADD11C,0.00787*%
%ADD12C,0.01968*%
%ADD14C,0.00984*%
%ADD19C,0.03937*%
%ADD21R,0.04724X0.06496*%
%ADD22R,0.06496X0.04724*%
%ADD23R,0.03347X0.03740*%
%ADD24R,0.03740X0.03347*%
G04:AMPARAMS|DCode=25|XSize=23.62mil|YSize=57.09mil|CornerRadius=2.01mil|HoleSize=0mil|Usage=FLASHONLY|Rotation=90.000|XOffset=0mil|YOffset=0mil|HoleType=Round|Shape=RoundedRectangle|*
%AMROUNDEDRECTD25*
21,1,0.02362,0.05307,0,0,90.0*
21,1,0.01961,0.05709,0,0,90.0*
1,1,0.00402,0.02653,0.00980*
1,1,0.00402,0.02653,-0.00980*
1,1,0.00402,-0.02653,-0.00980*
1,1,0.00402,-0.02653,0.00980*
%
%ADD25ROUNDEDRECTD25*%
%ADD26R,0.03543X0.02756*%
%ADD27R,0.02756X0.03543*%
%ADD28R,0.03150X0.03150*%
%ADD29R,0.06890X0.02362*%
%ADD30R,0.03937X0.03937*%
%ADD31R,0.15000X0.16693*%
%ADD32R,0.02165X0.04134*%
G04:AMPARAMS|DCode=33|XSize=47.64mil|YSize=71.65mil|CornerRadius=7.86mil|HoleSize=0mil|Usage=FLASHONLY|Rotation=270.000|XOffset=0mil|YOffset=0mil|HoleType=Round|Shape=RoundedRectangle|*
%AMROUNDEDRECTD33*
21,1,0.04764,0.05593,0,0,270.0*
21,1,0.03192,0.07165,0,0,270.0*
1,1,0.01572,-0.02797,-0.01596*
1,1,0.01572,-0.02797,0.01596*
1,1,0.01572,0.02797,0.01596*
1,1,0.01572,0.02797,-0.01596*
%
%ADD33ROUNDEDRECTD33*%
%ADD34R,0.06102X0.05315*%
%ADD35R,0.04134X0.02165*%
G04:AMPARAMS|DCode=36|XSize=47.64mil|YSize=71.65mil|CornerRadius=7.86mil|HoleSize=0mil|Usage=FLASHONLY|Rotation=180.000|XOffset=0mil|YOffset=0mil|HoleType=Round|Shape=RoundedRectangle|*
%AMROUNDEDRECTD36*
21,1,0.04764,0.05593,0,0,180.0*
21,1,0.03192,0.07165,0,0,180.0*
1,1,0.01572,-0.01596,0.02797*
1,1,0.01572,0.01596,0.02797*
1,1,0.01572,0.01596,-0.02797*
1,1,0.01572,-0.01596,-0.02797*
%
%ADD36ROUNDEDRECTD36*%
%ADD37R,0.05315X0.06102*%
%ADD65C,0.01500*%
%ADD66C,0.01181*%
%ADD67C,0.02756*%
%ADD68C,0.05906*%
%ADD69C,0.05693*%
%ADD70C,0.09272*%
%ADD71C,0.06398*%
%ADD72C,0.06102*%
%ADD73C,0.13287*%
%ADD74C,0.07650*%
%ADD75C,0.01968*%
%ADD76C,0.29528*%
G36*
X444079Y305139D02*
X443585Y305060D01*
X443546Y305182D01*
X442434Y307363D01*
X440996Y309344D01*
X439265Y311074D01*
X437285Y312513D01*
X435103Y313624D01*
X432775Y314381D01*
X430358Y314764D01*
X427910D01*
X425492Y314381D01*
X423164Y313624D01*
X420983Y312513D01*
X419003Y311074D01*
X417272Y309344D01*
X415833Y307363D01*
X414722Y305182D01*
X413966Y302854D01*
X413583Y300436D01*
Y297989D01*
X413966Y295571D01*
X414722Y293243D01*
X415833Y291062D01*
X417272Y289082D01*
X419003Y287351D01*
X420983Y285912D01*
X423164Y284801D01*
X425492Y284044D01*
X427910Y283661D01*
X430358D01*
X432775Y284044D01*
X435103Y284801D01*
X437285Y285912D01*
X439265Y287351D01*
X440996Y289082D01*
X442434Y291062D01*
X443546Y293243D01*
X443585Y293365D01*
X444079Y293286D01*
Y6708D01*
X393701D01*
X393394Y6647D01*
X393133Y6473D01*
X392959Y6213D01*
X392898Y5906D01*
Y803D01*
X63795D01*
Y5906D01*
X63734Y6213D01*
X63560Y6473D01*
X63299Y6647D01*
X62992Y6708D01*
X803D01*
Y49192D01*
X1297Y49270D01*
X1336Y49148D01*
X2448Y46968D01*
X3886Y44987D01*
X5617Y43256D01*
X7597Y41818D01*
X9778Y40706D01*
X12106Y39950D01*
X14524Y39567D01*
X16972D01*
X19390Y39950D01*
X21718Y40706D01*
X23899Y41818D01*
X25879Y43256D01*
X27610Y44987D01*
X29049Y46968D01*
X30160Y49148D01*
X30916Y51477D01*
X31299Y53894D01*
Y56342D01*
X30916Y58760D01*
X30160Y61088D01*
X29049Y63269D01*
X27610Y65249D01*
X25879Y66980D01*
X23899Y68419D01*
X21718Y69530D01*
X19390Y70286D01*
X16972Y70669D01*
X14524D01*
X12106Y70286D01*
X9778Y69530D01*
X7597Y68419D01*
X5617Y66980D01*
X3886Y65249D01*
X2448Y63269D01*
X1336Y61088D01*
X1297Y60966D01*
X803Y61044D01*
Y293286D01*
X1297Y293365D01*
X1336Y293243D01*
X2448Y291062D01*
X3886Y289082D01*
X5617Y287351D01*
X7597Y285912D01*
X9778Y284801D01*
X12106Y284044D01*
X14524Y283661D01*
X16972D01*
X19390Y284044D01*
X21718Y284801D01*
X23899Y285912D01*
X25879Y287351D01*
X27610Y289082D01*
X29049Y291062D01*
X30160Y293243D01*
X30916Y295571D01*
X31299Y297989D01*
Y300436D01*
X30916Y302854D01*
X30160Y305182D01*
X29049Y307363D01*
X27610Y309344D01*
X25879Y311074D01*
X23899Y312513D01*
X21718Y313624D01*
X19390Y314381D01*
X16972Y314764D01*
X14524D01*
X12106Y314381D01*
X9778Y313624D01*
X7597Y312513D01*
X5617Y311074D01*
X3886Y309344D01*
X2448Y307363D01*
X1336Y305182D01*
X1297Y305060D01*
X803Y305139D01*
Y316126D01*
X444079D01*
Y305139D01*
D02*
G37*
%LPC*%
G36*
X380930Y288140D02*
X379503D01*
X378123Y287770D01*
X376974Y287107D01*
X376749Y287332D01*
X376293Y287637D01*
X375756Y287743D01*
X322119D01*
X321581Y287637D01*
X321125Y287332D01*
X320190Y286397D01*
X319531Y287056D01*
X318294Y287770D01*
X316915Y288140D01*
X315487D01*
X314107Y287770D01*
X312871Y287056D01*
X311861Y286047D01*
X311147Y284810D01*
X310778Y283431D01*
Y282003D01*
X310983Y281237D01*
X303623Y273878D01*
X300295D01*
Y268972D01*
X300083D01*
Y267299D01*
X302953D01*
Y266299D01*
D01*
Y267299D01*
X305823D01*
Y268972D01*
X305610D01*
Y271891D01*
X312484Y278764D01*
X312871Y278377D01*
X314107Y277663D01*
X315487Y277293D01*
X316797D01*
X317067Y276857D01*
X310083Y269872D01*
X309743Y269363D01*
X309623Y268763D01*
Y241961D01*
X305059D01*
Y242854D01*
X299744D01*
Y238236D01*
X299744Y237933D01*
X299744Y237433D01*
Y232815D01*
X300997D01*
Y227185D01*
X298169D01*
Y225465D01*
X288734Y216030D01*
X288394Y215521D01*
X288275Y214921D01*
Y212795D01*
X287677D01*
Y207677D01*
X288196D01*
Y206043D01*
X287224D01*
Y200728D01*
X291843D01*
X292146Y200728D01*
X292646Y200728D01*
X297264D01*
Y201981D01*
X299941D01*
Y200728D01*
X304559D01*
X304862Y200728D01*
X305362Y200728D01*
X306115D01*
Y194880D01*
X306018Y194783D01*
X305748Y194132D01*
Y193427D01*
X306018Y192776D01*
X306516Y192278D01*
X307167Y192008D01*
X307872D01*
X308523Y192278D01*
X309022Y192776D01*
X309291Y193427D01*
Y194132D01*
X309022Y194783D01*
X308925Y194880D01*
Y200728D01*
X309980D01*
Y206043D01*
X305362D01*
X305059Y206043D01*
X304559Y206043D01*
X299941D01*
Y204791D01*
X297264D01*
Y206043D01*
X296208D01*
Y207677D01*
X297520D01*
Y208831D01*
X298169D01*
Y208248D01*
X306634D01*
Y212185D01*
X298169D01*
Y211641D01*
X297520D01*
Y212795D01*
X293189D01*
Y207677D01*
X293398D01*
Y206397D01*
X293045Y206043D01*
X292342Y206043D01*
X291843Y206043D01*
X291331D01*
Y207677D01*
X292008D01*
Y212795D01*
X291410D01*
Y214272D01*
X297495Y220357D01*
X297957Y220165D01*
Y218035D01*
X301402D01*
Y220216D01*
Y222398D01*
X300189D01*
X299998Y222860D01*
X300386Y223248D01*
X306634D01*
Y227185D01*
X303806D01*
Y232815D01*
X305059D01*
Y237433D01*
X305059Y237736D01*
X305059Y238236D01*
Y238826D01*
X310312D01*
X310912Y238946D01*
X311421Y239285D01*
X312109Y239973D01*
X312441Y240107D01*
X312773Y239973D01*
X313461Y239285D01*
X313970Y238946D01*
X314570Y238826D01*
X319469D01*
X319823Y238473D01*
X319823Y237933D01*
X319823Y237433D01*
Y232815D01*
X321075D01*
Y227185D01*
X318248D01*
Y226286D01*
X317983Y226234D01*
X317474Y225894D01*
X313653Y222073D01*
X313314Y221565D01*
X313194Y220965D01*
Y213996D01*
X313314Y213396D01*
X313653Y212888D01*
X315716Y210825D01*
Y206043D01*
X314823D01*
Y200892D01*
X314823Y200728D01*
X314823D01*
X314921Y200433D01*
X314921Y200433D01*
Y195315D01*
X319252D01*
Y200433D01*
X319338Y200501D01*
X319744Y200728D01*
X319941D01*
X320347Y200501D01*
X320433Y200433D01*
Y195315D01*
X324764D01*
Y200433D01*
X324764Y200433D01*
X324862Y200728D01*
X324862D01*
X324862Y200892D01*
Y206043D01*
X323969D01*
Y208248D01*
X324496D01*
X324679Y208065D01*
X325187Y207725D01*
X325787Y207606D01*
X328563D01*
Y206516D01*
X333668Y206516D01*
X334021Y206162D01*
Y201960D01*
X333774Y201712D01*
X333504Y201061D01*
Y200356D01*
X333774Y199705D01*
X334272Y199207D01*
X334923Y198937D01*
X335628D01*
X336279Y199207D01*
X336777Y199705D01*
X337047Y200356D01*
Y201061D01*
X336831Y201583D01*
Y206516D01*
X338602D01*
X338602Y211831D01*
X339084Y211874D01*
X340213D01*
Y213646D01*
X337835D01*
Y215646D01*
X340213D01*
X340213Y217417D01*
X340703Y217441D01*
X340866D01*
Y222953D01*
X339396D01*
Y223625D01*
X339493Y223722D01*
X339763Y224373D01*
Y225078D01*
X339493Y225729D01*
X338995Y226227D01*
X338343Y226497D01*
X337639D01*
X336987Y226227D01*
X336489Y225729D01*
X336219Y225078D01*
Y224373D01*
X336489Y223722D01*
X336586Y223625D01*
Y222953D01*
X335461D01*
X335354Y222953D01*
X334961D01*
X334854Y222953D01*
X333610D01*
Y223740D01*
X334764D01*
Y228071D01*
X329646D01*
Y223740D01*
X330800D01*
Y222953D01*
X329449D01*
Y221621D01*
X326713D01*
Y222185D01*
X318906D01*
X318699Y222685D01*
X319232Y223218D01*
X322049D01*
X322201Y223248D01*
X326713D01*
Y227185D01*
X323885D01*
Y232815D01*
X325138D01*
Y237433D01*
X325138Y237736D01*
X325138Y238236D01*
Y242854D01*
X319823D01*
Y241961D01*
X315259D01*
Y267078D01*
X315663Y267483D01*
X316124Y267237D01*
X316024Y266731D01*
Y265316D01*
X316300Y263928D01*
X316841Y262620D01*
X317628Y261443D01*
X318629Y260443D01*
X319805Y259656D01*
X321113Y259115D01*
X322501Y258839D01*
X323916D01*
X325305Y259115D01*
X326612Y259656D01*
X327789Y260443D01*
X328790Y261443D01*
X329576Y262620D01*
X330118Y263928D01*
X330394Y265316D01*
Y266731D01*
X330118Y268119D01*
X329576Y269427D01*
X328790Y270604D01*
X327789Y271605D01*
X327360Y271891D01*
X327512Y272391D01*
X331284D01*
X331475Y271929D01*
X331305Y271759D01*
X330826Y270930D01*
X330579Y270006D01*
Y269049D01*
X330826Y268125D01*
X331305Y267296D01*
X331981Y266620D01*
X332810Y266141D01*
X333734Y265894D01*
X334691D01*
X335615Y266141D01*
X336444Y266620D01*
X337120Y267296D01*
X337599Y268125D01*
X337846Y269049D01*
Y270006D01*
X337599Y270930D01*
X337120Y271759D01*
X336444Y272435D01*
X335615Y272914D01*
X334769Y273141D01*
X334527Y273606D01*
X334957Y274035D01*
X335304D01*
X335813Y273695D01*
X336413Y273576D01*
X341342D01*
X341408Y273076D01*
X340802Y272914D01*
X339973Y272435D01*
X339297Y271759D01*
X338819Y270930D01*
X338571Y270006D01*
Y269049D01*
X338819Y268125D01*
X339297Y267296D01*
X339973Y266620D01*
X340802Y266141D01*
X341726Y265894D01*
X342683D01*
X343423Y266092D01*
X345480Y264035D01*
X345989Y263696D01*
X346589Y263576D01*
X361107D01*
X361707Y263696D01*
X362215Y264035D01*
X365663Y267483D01*
X366124Y267237D01*
X366024Y266731D01*
Y265316D01*
X366300Y263928D01*
X366841Y262620D01*
X367628Y261443D01*
X368629Y260443D01*
X369805Y259656D01*
X371113Y259115D01*
X372501Y258839D01*
X373916D01*
X375305Y259115D01*
X376612Y259656D01*
X377789Y260443D01*
X378790Y261443D01*
X379576Y262620D01*
X380118Y263928D01*
X380394Y265316D01*
Y266731D01*
X380293Y267237D01*
X380754Y267483D01*
X392025Y256212D01*
Y242749D01*
X387461D01*
Y243642D01*
X382146D01*
Y239024D01*
X382146Y238720D01*
X382146Y238221D01*
Y233602D01*
X383398D01*
Y227972D01*
X380571D01*
Y226252D01*
X371136Y216817D01*
X370796Y216308D01*
X370677Y215709D01*
Y213583D01*
X370079D01*
Y208465D01*
X370598D01*
Y206831D01*
X369626D01*
Y201516D01*
X374244D01*
X374547Y201516D01*
X375047Y201516D01*
X379665D01*
Y202768D01*
X382343D01*
Y201516D01*
X386961D01*
X387264Y201516D01*
X387764Y201516D01*
X388634D01*
Y193826D01*
X388386Y193226D01*
Y192522D01*
X388655Y191870D01*
X389154Y191372D01*
X389805Y191102D01*
X390510D01*
X391161Y191372D01*
X391659Y191870D01*
X391929Y192522D01*
Y193226D01*
X391659Y193878D01*
X391444Y194093D01*
Y201516D01*
X392382D01*
Y206831D01*
X387764D01*
X387461Y206831D01*
X386961Y206831D01*
X382343D01*
Y205578D01*
X379665D01*
Y206831D01*
X378610D01*
Y208465D01*
X379921D01*
Y209619D01*
X380571D01*
Y209035D01*
X389035D01*
Y212972D01*
X380571D01*
Y212429D01*
X379921D01*
Y213583D01*
X375591D01*
Y208465D01*
X375800D01*
Y207184D01*
X375446Y206831D01*
X374744Y206831D01*
X374244Y206831D01*
X373733D01*
Y208465D01*
X374410D01*
Y213583D01*
X373812D01*
Y215059D01*
X379896Y221144D01*
X380358Y220953D01*
Y218823D01*
X383803D01*
Y221004D01*
Y223185D01*
X382591D01*
X382399Y223647D01*
X382788Y224035D01*
X389035D01*
Y227972D01*
X386208D01*
Y233602D01*
X387461D01*
Y238221D01*
X387461Y238524D01*
X387461Y239024D01*
Y239614D01*
X392714D01*
X393314Y239733D01*
X393822Y240073D01*
X394510Y240761D01*
X394843Y240894D01*
X395175Y240761D01*
X395863Y240073D01*
X396371Y239733D01*
X396971Y239614D01*
X401871D01*
X402224Y239260D01*
X402224Y238720D01*
X402224Y238221D01*
Y233602D01*
X403477D01*
Y227972D01*
X400650D01*
Y227065D01*
X400428Y227021D01*
X399920Y226681D01*
X396024Y222785D01*
X395684Y222277D01*
X395565Y221677D01*
Y214840D01*
X395684Y214240D01*
X396024Y213732D01*
X398275Y211481D01*
Y206831D01*
X397382D01*
Y201516D01*
X398177D01*
Y200866D01*
X397480D01*
Y195748D01*
X401811D01*
Y200866D01*
X401312D01*
Y201516D01*
X402303D01*
Y201516D01*
X402500D01*
Y201516D01*
X403491D01*
Y200866D01*
X402992D01*
Y195748D01*
X407323D01*
Y200866D01*
X406627D01*
Y201516D01*
X407421D01*
Y206831D01*
X406528D01*
Y208720D01*
X407028Y208905D01*
X407120Y208813D01*
X407628Y208473D01*
X408228Y208354D01*
X410807D01*
Y207264D01*
X415425D01*
X415728Y207264D01*
X415991D01*
X416344Y206910D01*
Y202472D01*
X416096Y202224D01*
X415827Y201573D01*
Y200868D01*
X416096Y200217D01*
X416595Y199718D01*
X417246Y199449D01*
X417951D01*
X418602Y199718D01*
X419100Y200217D01*
X419370Y200868D01*
Y201573D01*
X419154Y202094D01*
Y207264D01*
X420847D01*
X420847Y212579D01*
X421312Y212661D01*
X422614D01*
Y214433D01*
X420236D01*
Y216433D01*
X422614D01*
X422614Y218205D01*
X423104Y218228D01*
X423268D01*
Y223740D01*
X421956D01*
Y224254D01*
X422053Y224351D01*
X422323Y225002D01*
Y225707D01*
X422053Y226358D01*
X421555Y226856D01*
X420904Y227126D01*
X420199D01*
X419548Y226856D01*
X419049Y226358D01*
X418780Y225707D01*
Y225002D01*
X419049Y224351D01*
X419146Y224254D01*
Y223740D01*
X417862D01*
X417756Y223740D01*
X417362D01*
X417256Y223740D01*
X416011D01*
Y224528D01*
X417165D01*
Y228858D01*
X412047D01*
Y224528D01*
X413201D01*
Y223740D01*
X411850D01*
Y222409D01*
X409114D01*
Y222972D01*
X401351D01*
X401144Y223472D01*
X401677Y224005D01*
X404451D01*
X404602Y224035D01*
X409114D01*
Y227972D01*
X406287D01*
Y233602D01*
X407539D01*
Y238221D01*
X407539Y238524D01*
X407539Y239024D01*
Y243642D01*
X402224D01*
Y242749D01*
X397660D01*
Y257897D01*
X397541Y258497D01*
X397201Y259005D01*
X379350Y276856D01*
X379620Y277293D01*
X380930D01*
X382310Y277663D01*
X383546Y278377D01*
X384556Y279387D01*
X385270Y280623D01*
X385640Y282003D01*
Y283431D01*
X385270Y284810D01*
X384556Y286047D01*
X383546Y287056D01*
X382310Y287770D01*
X380930Y288140D01*
D02*
G37*
G36*
X290379D02*
X288951D01*
X287572Y287770D01*
X286335Y287056D01*
X285662Y286383D01*
X285612Y286416D01*
X285074Y286523D01*
X230241D01*
X229703Y286416D01*
X229653Y286383D01*
X228979Y287056D01*
X227743Y287770D01*
X226364Y288140D01*
X224936D01*
X223556Y287770D01*
X222320Y287056D01*
X221310Y286047D01*
X220596Y284810D01*
X220226Y283431D01*
Y282003D01*
X220596Y280623D01*
X221204Y279569D01*
X215513Y273878D01*
X212185D01*
Y268972D01*
X211972D01*
Y267299D01*
X214843D01*
Y266299D01*
D01*
Y267299D01*
X217713D01*
Y268972D01*
X217500D01*
Y271891D01*
X223376Y277767D01*
X223556Y277663D01*
X224936Y277293D01*
X226364D01*
X227743Y277663D01*
X228979Y278377D01*
X229989Y279387D01*
X230703Y280623D01*
X231073Y282003D01*
Y283431D01*
X231290Y283713D01*
X284025D01*
X284242Y283431D01*
Y282003D01*
X284612Y280623D01*
X285326Y279387D01*
X286335Y278377D01*
X287572Y277663D01*
X288951Y277293D01*
X290379D01*
X291759Y277663D01*
X292995Y278377D01*
X294005Y279387D01*
X294719Y280623D01*
X295089Y282003D01*
Y283431D01*
X294719Y284810D01*
X294005Y286047D01*
X292995Y287056D01*
X291759Y287770D01*
X290379Y288140D01*
D02*
G37*
G36*
X272132Y283161D02*
X271175D01*
X270251Y282914D01*
X269422Y282435D01*
X268746Y281759D01*
X268267Y280930D01*
X268020Y280006D01*
Y279049D01*
X268267Y278125D01*
X268408Y277881D01*
X268008Y277573D01*
X267134Y278448D01*
X267295Y279049D01*
Y280006D01*
X267048Y280930D01*
X266569Y281759D01*
X265893Y282435D01*
X265064Y282914D01*
X264140Y283161D01*
X263183D01*
X262259Y282914D01*
X261430Y282435D01*
X260754Y281759D01*
X260275Y280930D01*
X260028Y280006D01*
Y279049D01*
X260275Y278125D01*
X260754Y277296D01*
X261430Y276620D01*
X262259Y276141D01*
X263183Y275894D01*
X264140D01*
X265019Y276129D01*
X267525Y273623D01*
X267334Y273161D01*
X267159D01*
X266235Y272914D01*
X265407Y272435D01*
X264730Y271759D01*
X264252Y270930D01*
X264004Y270006D01*
Y269049D01*
X264252Y268125D01*
X264730Y267296D01*
X264853Y267173D01*
X264662Y266711D01*
X262622D01*
X262430Y267173D01*
X262554Y267296D01*
X263032Y268125D01*
X263280Y269049D01*
Y270006D01*
X263032Y270930D01*
X262554Y271759D01*
X261877Y272435D01*
X261048Y272914D01*
X260124Y273161D01*
X259167D01*
X258243Y272914D01*
X257414Y272435D01*
X256738Y271759D01*
X256259Y270930D01*
X256012Y270006D01*
Y269049D01*
X256259Y268125D01*
X256641Y267464D01*
X256241Y267157D01*
X255089Y268309D01*
X255287Y269049D01*
Y270006D01*
X255040Y270930D01*
X254561Y271759D01*
X253885Y272435D01*
X253056Y272914D01*
X252132Y273161D01*
X251175D01*
X250251Y272914D01*
X249422Y272435D01*
X248746Y271759D01*
X248267Y270930D01*
X248020Y270006D01*
Y269049D01*
X248267Y268125D01*
X248746Y267296D01*
X249422Y266620D01*
X250251Y266141D01*
X251175Y265894D01*
X252132D01*
X252872Y266092D01*
X254929Y264035D01*
X255437Y263696D01*
X256037Y263576D01*
X265423D01*
X265615Y263114D01*
X258585Y256084D01*
X240366D01*
X239766Y255965D01*
X239257Y255625D01*
X229590Y245958D01*
X229251Y245450D01*
X229131Y244850D01*
Y243260D01*
X224587D01*
Y244153D01*
X219272D01*
Y239535D01*
X219272Y239232D01*
X219272Y238732D01*
Y234114D01*
X220524D01*
Y230610D01*
X217697D01*
Y229214D01*
X217446Y229164D01*
X216990Y228859D01*
X208377Y220245D01*
X208072Y219790D01*
X207965Y219252D01*
Y216142D01*
X207205D01*
Y211024D01*
X207808D01*
Y210059D01*
X206752D01*
Y204744D01*
X211370D01*
X211673Y204744D01*
X212173Y204744D01*
X216791D01*
Y205997D01*
X218898D01*
Y204606D01*
X219674D01*
Y198574D01*
X219592Y198492D01*
X219322Y197841D01*
Y197136D01*
X219592Y196485D01*
X220091Y195987D01*
X220742Y195717D01*
X221446D01*
X222098Y195987D01*
X222596Y196485D01*
X222866Y197136D01*
Y197841D01*
X222596Y198492D01*
X222483Y198605D01*
Y204606D01*
X223228D01*
Y209724D01*
X218898D01*
Y208806D01*
X216791D01*
Y210059D01*
X216287D01*
Y211024D01*
X217047D01*
Y212237D01*
X217697D01*
Y211673D01*
X226161D01*
Y215610D01*
X217697D01*
Y215047D01*
X217047D01*
Y216142D01*
X212717D01*
Y211024D01*
X213477D01*
Y210413D01*
X213123Y210059D01*
X211870Y210059D01*
X211370Y210059D01*
X210617D01*
Y211024D01*
X211535D01*
Y216142D01*
X210775D01*
Y218670D01*
X217022Y224917D01*
X217484Y224726D01*
Y224642D01*
X220929D01*
Y225823D01*
X219017D01*
X218759Y226323D01*
X218858Y226461D01*
X221153D01*
X221691Y226568D01*
X221849Y226673D01*
X226161D01*
Y230610D01*
X223334D01*
Y234114D01*
X224587D01*
Y238732D01*
X224587Y239035D01*
X224587Y239535D01*
Y240125D01*
X229820D01*
X230420Y240245D01*
X230928Y240584D01*
X231616Y241272D01*
X231949Y241406D01*
X232281Y241272D01*
X232969Y240584D01*
X233478Y240245D01*
X234078Y240125D01*
X238958D01*
X239311Y239772D01*
X239311Y239232D01*
X239311Y238732D01*
Y234114D01*
X240603D01*
Y230610D01*
X237776D01*
Y229259D01*
X236205D01*
X235667Y229152D01*
X235211Y228848D01*
X232668Y226304D01*
X232363Y225849D01*
X232257Y225311D01*
Y217700D01*
X232363Y217162D01*
X232668Y216706D01*
X234028Y215346D01*
Y209705D01*
X232972D01*
Y204390D01*
X232972D01*
X233071Y204173D01*
Y199055D01*
X237402D01*
Y204173D01*
X237812Y204390D01*
X238172D01*
X238583Y204173D01*
Y199055D01*
X242913D01*
Y204173D01*
X243012Y204390D01*
X243012D01*
Y209705D01*
X241956D01*
Y211673D01*
X246240D01*
Y212237D01*
X249587D01*
Y209705D01*
X254492D01*
Y209492D01*
X256165D01*
Y212362D01*
X257165D01*
Y213362D01*
X259839D01*
Y214879D01*
X259839Y215232D01*
X259740Y215691D01*
X259740Y217110D01*
X257362D01*
X254984D01*
Y215339D01*
X254528Y215232D01*
X254492D01*
Y215020D01*
X250904D01*
X250768Y215047D01*
X246240D01*
Y215610D01*
X237776D01*
Y211673D01*
X239146D01*
Y210058D01*
X238793Y209705D01*
X238091Y209705D01*
X237591Y209705D01*
X236838D01*
Y215928D01*
X236731Y216466D01*
X236426Y216921D01*
X235066Y218282D01*
Y221550D01*
X235566Y221884D01*
X235829Y221775D01*
X236533D01*
X237185Y222045D01*
X237276Y222136D01*
X237776Y222060D01*
Y221673D01*
X246240D01*
Y222237D01*
X248976D01*
Y220905D01*
X249283D01*
X249685Y220669D01*
X249685Y220406D01*
Y219515D01*
X246240D01*
Y220610D01*
X237776D01*
Y216673D01*
X246240D01*
Y216705D01*
X249685D01*
Y215551D01*
X254016D01*
X254016Y220638D01*
X254419Y220902D01*
X254888Y220877D01*
X254984Y220448D01*
X254984Y219110D01*
X257362D01*
X259740D01*
Y220882D01*
X260230Y220905D01*
X260394D01*
Y226417D01*
X259295D01*
X259140Y226910D01*
X259409Y227561D01*
Y228266D01*
X259140Y228917D01*
X258641Y229415D01*
X257990Y229685D01*
X257285D01*
X256634Y229415D01*
X256136Y228917D01*
X255866Y228266D01*
Y227561D01*
X256136Y226910D01*
X255981Y226417D01*
X254988D01*
X254710Y226417D01*
X254291Y226836D01*
Y230945D01*
X249173D01*
Y226614D01*
X248976Y226417D01*
X248976D01*
Y225047D01*
X246240D01*
Y225610D01*
X237776D01*
Y224999D01*
X237234D01*
X237185Y225049D01*
X236533Y225319D01*
X236363D01*
X236156Y225818D01*
X236787Y226449D01*
X241220D01*
X241758Y226556D01*
X241933Y226673D01*
X246240D01*
Y230610D01*
X243413D01*
Y234114D01*
X244626D01*
Y238732D01*
X244626Y239035D01*
X244626Y239535D01*
Y244153D01*
X239311D01*
Y243260D01*
X235515D01*
X235324Y243722D01*
X242051Y250449D01*
X260269D01*
X260869Y250569D01*
X261378Y250908D01*
X271348Y260878D01*
X271688Y261387D01*
X271807Y261987D01*
Y265281D01*
X273130Y266603D01*
X273470Y267112D01*
X273589Y267712D01*
Y271343D01*
X273470Y271943D01*
X273130Y272452D01*
X269700Y275882D01*
X270006Y276283D01*
X270251Y276141D01*
X271175Y275894D01*
X272132D01*
X273056Y276141D01*
X273885Y276620D01*
X274561Y277296D01*
X275040Y278125D01*
X275287Y279049D01*
Y280006D01*
X275040Y280930D01*
X274561Y281759D01*
X273885Y282435D01*
X273056Y282914D01*
X272132Y283161D01*
D02*
G37*
G36*
X196332Y284626D02*
X195321D01*
X194345Y284364D01*
X193470Y283859D01*
X192755Y283144D01*
X192250Y282269D01*
X191988Y281293D01*
Y280282D01*
X192250Y279306D01*
X192755Y278431D01*
X193470Y277716D01*
X194345Y277210D01*
X195321Y276949D01*
X196332D01*
X197308Y277210D01*
X198184Y277716D01*
X198898Y278431D01*
X199404Y279306D01*
X199665Y280282D01*
Y281293D01*
X199404Y282269D01*
X198898Y283144D01*
X198184Y283859D01*
X197308Y284364D01*
X196332Y284626D01*
D02*
G37*
G36*
X186332D02*
X185321D01*
X184345Y284364D01*
X183470Y283859D01*
X182755Y283144D01*
X182250Y282269D01*
X181988Y281293D01*
Y280282D01*
X182250Y279306D01*
X182755Y278431D01*
X183470Y277716D01*
X184345Y277210D01*
X185321Y276949D01*
X186332D01*
X187308Y277210D01*
X188184Y277716D01*
X188898Y278431D01*
X189404Y279306D01*
X189665Y280282D01*
Y281293D01*
X189404Y282269D01*
X188898Y283144D01*
X188184Y283859D01*
X187308Y284364D01*
X186332Y284626D01*
D02*
G37*
G36*
X146332D02*
X145321D01*
X144345Y284364D01*
X143470Y283859D01*
X142755Y283144D01*
X142250Y282269D01*
X141988Y281293D01*
Y280282D01*
X142250Y279306D01*
X142755Y278431D01*
X143470Y277716D01*
X144345Y277210D01*
X145321Y276949D01*
X146332D01*
X147308Y277210D01*
X148184Y277716D01*
X148898Y278431D01*
X149404Y279306D01*
X149665Y280282D01*
Y281293D01*
X149404Y282269D01*
X148898Y283144D01*
X148184Y283859D01*
X147308Y284364D01*
X146332Y284626D01*
D02*
G37*
G36*
X56332D02*
X55321D01*
X54345Y284364D01*
X53470Y283859D01*
X52755Y283144D01*
X52250Y282269D01*
X51988Y281293D01*
Y280282D01*
X52250Y279306D01*
X52755Y278431D01*
X53470Y277716D01*
X54345Y277210D01*
X55321Y276949D01*
X56332D01*
X57308Y277210D01*
X58184Y277716D01*
X58898Y278431D01*
X59404Y279306D01*
X59665Y280282D01*
Y281293D01*
X59404Y282269D01*
X58898Y283144D01*
X58184Y283859D01*
X57308Y284364D01*
X56332Y284626D01*
D02*
G37*
G36*
X256148Y283161D02*
X255191D01*
X254267Y282914D01*
X253438Y282435D01*
X252762Y281759D01*
X252283Y280930D01*
X252035Y280006D01*
Y279049D01*
X252283Y278125D01*
X252762Y277296D01*
X253438Y276620D01*
X254267Y276141D01*
X255191Y275894D01*
X256148D01*
X257072Y276141D01*
X257901Y276620D01*
X258577Y277296D01*
X259055Y278125D01*
X259303Y279049D01*
Y280006D01*
X259055Y280930D01*
X258577Y281759D01*
X257901Y282435D01*
X257072Y282914D01*
X256148Y283161D01*
D02*
G37*
G36*
X248156D02*
X247199D01*
X246274Y282914D01*
X245446Y282435D01*
X244769Y281759D01*
X244291Y280930D01*
X244043Y280006D01*
Y279049D01*
X244291Y278125D01*
X244769Y277296D01*
X245446Y276620D01*
X246274Y276141D01*
X247199Y275894D01*
X248156D01*
X249080Y276141D01*
X249908Y276620D01*
X250585Y277296D01*
X251063Y278125D01*
X251311Y279049D01*
Y280006D01*
X251063Y280930D01*
X250585Y281759D01*
X249908Y282435D01*
X249080Y282914D01*
X248156Y283161D01*
D02*
G37*
G36*
X136332Y284626D02*
X135321D01*
X134345Y284364D01*
X133470Y283859D01*
X132755Y283144D01*
X132250Y282269D01*
X131988Y281293D01*
Y280282D01*
X132250Y279306D01*
X132755Y278431D01*
X133379Y277807D01*
Y277045D01*
X129476Y273143D01*
X128950Y273144D01*
X128851Y273191D01*
X128184Y273859D01*
X127308Y274364D01*
X126332Y274626D01*
X126046D01*
X125855Y275088D01*
X126055Y275288D01*
X126394Y275796D01*
X126514Y276396D01*
Y276997D01*
X127308Y277210D01*
X128184Y277716D01*
X128898Y278431D01*
X129404Y279306D01*
X129665Y280282D01*
Y281293D01*
X129404Y282269D01*
X128898Y283144D01*
X128184Y283859D01*
X127308Y284364D01*
X126332Y284626D01*
X125321D01*
X124345Y284364D01*
X123470Y283859D01*
X122755Y283144D01*
X122250Y282269D01*
X121988Y281293D01*
Y280282D01*
X122250Y279306D01*
X122755Y278431D01*
X123379Y277807D01*
Y277045D01*
X119476Y273143D01*
X118950Y273144D01*
X118851Y273191D01*
X118184Y273859D01*
X117308Y274364D01*
X116332Y274626D01*
X116046D01*
X115855Y275088D01*
X116054Y275288D01*
X116394Y275796D01*
X116514Y276396D01*
Y276997D01*
X117308Y277210D01*
X118184Y277716D01*
X118898Y278431D01*
X119404Y279306D01*
X119665Y280282D01*
Y281293D01*
X119404Y282269D01*
X118898Y283144D01*
X118184Y283859D01*
X117308Y284364D01*
X116332Y284626D01*
X115321D01*
X114345Y284364D01*
X113470Y283859D01*
X112755Y283144D01*
X112250Y282269D01*
X111988Y281293D01*
Y280282D01*
X112250Y279306D01*
X112755Y278431D01*
X113379Y277807D01*
Y277045D01*
X109476Y273143D01*
X108950Y273144D01*
X108851Y273191D01*
X108184Y273859D01*
X107308Y274364D01*
X106332Y274626D01*
X106046D01*
X105855Y275088D01*
X106054Y275288D01*
X106394Y275796D01*
X106514Y276396D01*
Y276997D01*
X107308Y277210D01*
X108184Y277716D01*
X108898Y278431D01*
X109404Y279306D01*
X109665Y280282D01*
Y281293D01*
X109404Y282269D01*
X108898Y283144D01*
X108184Y283859D01*
X107308Y284364D01*
X106332Y284626D01*
X105321D01*
X104345Y284364D01*
X103470Y283859D01*
X102755Y283144D01*
X102250Y282269D01*
X101988Y281293D01*
Y280282D01*
X102250Y279306D01*
X102755Y278431D01*
X103379Y277807D01*
Y277045D01*
X99476Y273143D01*
X98950Y273144D01*
X98851Y273191D01*
X98184Y273859D01*
X97308Y274364D01*
X96332Y274626D01*
X96046D01*
X95855Y275088D01*
X96055Y275288D01*
X96394Y275796D01*
X96514Y276396D01*
Y276997D01*
X97308Y277210D01*
X98184Y277716D01*
X98898Y278431D01*
X99404Y279306D01*
X99665Y280282D01*
Y281293D01*
X99404Y282269D01*
X98898Y283144D01*
X98184Y283859D01*
X97308Y284364D01*
X96332Y284626D01*
X95321D01*
X94345Y284364D01*
X93470Y283859D01*
X92755Y283144D01*
X92250Y282269D01*
X91988Y281293D01*
Y280282D01*
X92250Y279306D01*
X92755Y278431D01*
X93379Y277807D01*
Y277045D01*
X89477Y273143D01*
X88950Y273144D01*
X88851Y273191D01*
X88184Y273859D01*
X87308Y274364D01*
X86332Y274626D01*
X86046D01*
X85855Y275088D01*
X86054Y275288D01*
X86394Y275796D01*
X86514Y276396D01*
Y276997D01*
X87308Y277210D01*
X88184Y277716D01*
X88898Y278431D01*
X89404Y279306D01*
X89665Y280282D01*
Y281293D01*
X89404Y282269D01*
X88898Y283144D01*
X88184Y283859D01*
X87308Y284364D01*
X86332Y284626D01*
X85321D01*
X84345Y284364D01*
X83470Y283859D01*
X82755Y283144D01*
X82250Y282269D01*
X81988Y281293D01*
Y280282D01*
X82250Y279306D01*
X82755Y278431D01*
X83379Y277807D01*
Y277045D01*
X79476Y273143D01*
X78950Y273144D01*
X78851Y273191D01*
X78184Y273859D01*
X77308Y274364D01*
X76332Y274626D01*
X76046D01*
X75855Y275088D01*
X76055Y275288D01*
X76394Y275796D01*
X76514Y276396D01*
Y276997D01*
X77308Y277210D01*
X78184Y277716D01*
X78898Y278431D01*
X79404Y279306D01*
X79665Y280282D01*
Y281293D01*
X79404Y282269D01*
X78898Y283144D01*
X78184Y283859D01*
X77308Y284364D01*
X76332Y284626D01*
X75321D01*
X74345Y284364D01*
X73470Y283859D01*
X72755Y283144D01*
X72250Y282269D01*
X71988Y281293D01*
Y280282D01*
X72250Y279306D01*
X72755Y278431D01*
X73379Y277807D01*
Y277045D01*
X69476Y273143D01*
X68950Y273144D01*
X68851Y273191D01*
X68184Y273859D01*
X67308Y274364D01*
X66332Y274626D01*
X66046D01*
X65855Y275088D01*
X66054Y275288D01*
X66394Y275796D01*
X66514Y276396D01*
Y276997D01*
X67308Y277210D01*
X68184Y277716D01*
X68898Y278431D01*
X69404Y279306D01*
X69665Y280282D01*
Y281293D01*
X69404Y282269D01*
X68898Y283144D01*
X68184Y283859D01*
X67308Y284364D01*
X66332Y284626D01*
X65321D01*
X64345Y284364D01*
X63470Y283859D01*
X62755Y283144D01*
X62250Y282269D01*
X61988Y281293D01*
Y280282D01*
X62250Y279306D01*
X62755Y278431D01*
X63379Y277807D01*
Y277045D01*
X59632Y273299D01*
X59069Y273275D01*
X58314Y274029D01*
X57390Y274563D01*
X56827Y274713D01*
Y270787D01*
Y266861D01*
X57390Y267012D01*
X57537Y267097D01*
X57970Y266847D01*
Y253332D01*
X57703Y252933D01*
X57609Y252461D01*
X55768D01*
Y247146D01*
X57609D01*
X57703Y246673D01*
X57970Y246274D01*
Y237187D01*
X58089Y236587D01*
X58429Y236079D01*
X68283Y226224D01*
X68792Y225885D01*
X69392Y225765D01*
X71870D01*
Y225102D01*
X71947Y224717D01*
X72166Y224390D01*
X72492Y224171D01*
X72878Y224095D01*
X78185D01*
X78571Y224171D01*
X78898Y224390D01*
X79055Y224625D01*
X79502Y224564D01*
X79555Y224542D01*
Y222623D01*
X79502Y222602D01*
X79055Y222540D01*
X78898Y222775D01*
X78571Y222994D01*
X78185Y223071D01*
X72878D01*
X72492Y222994D01*
X72166Y222775D01*
X71973Y222488D01*
X70193D01*
X69656Y222381D01*
X69200Y222076D01*
X69159Y222035D01*
X67360D01*
X67263Y222132D01*
X66612Y222402D01*
X65907D01*
X65256Y222132D01*
X64758Y221634D01*
X64488Y220982D01*
Y220278D01*
X64758Y219626D01*
X65256Y219128D01*
X65907Y218858D01*
X66612D01*
X67263Y219128D01*
X67360Y219225D01*
X69741D01*
X70278Y219332D01*
X70734Y219637D01*
X70775Y219678D01*
X71973D01*
X72166Y219390D01*
X72492Y219172D01*
X72878Y219095D01*
X78185D01*
X78571Y219172D01*
X78898Y219390D01*
X79055Y219625D01*
X79502Y219564D01*
X79555Y219542D01*
Y217623D01*
X79502Y217602D01*
X79055Y217540D01*
X78898Y217775D01*
X78571Y217994D01*
X78185Y218071D01*
X72878D01*
X72492Y217994D01*
X72166Y217775D01*
X71947Y217449D01*
X71941Y217419D01*
X70559D01*
X70531Y217447D01*
X69880Y217717D01*
X69175D01*
X68524Y217447D01*
X68427Y217350D01*
X44873D01*
X38177Y224046D01*
Y231240D01*
X39429D01*
Y235858D01*
X39429Y236161D01*
X39429Y236661D01*
Y241280D01*
X38177D01*
Y251732D01*
X39134D01*
Y256457D01*
X34409D01*
Y251732D01*
X35367D01*
Y241280D01*
X34114D01*
Y236661D01*
X34114Y236358D01*
X34114Y235858D01*
Y231240D01*
X35367D01*
Y224138D01*
X34867Y223931D01*
X29318Y229480D01*
Y231201D01*
X30374D01*
Y235819D01*
X30374Y236122D01*
X30374Y236622D01*
Y241240D01*
X29122D01*
Y251693D01*
X30079D01*
Y256417D01*
X25354D01*
Y251693D01*
X26312D01*
Y241240D01*
X25059D01*
Y236622D01*
X25059Y236319D01*
X25059Y235819D01*
Y231201D01*
X26508D01*
Y228898D01*
X26615Y228360D01*
X26920Y227904D01*
X86827Y167997D01*
X86636Y167535D01*
X73110D01*
X72803Y167474D01*
X72543Y167300D01*
X72369Y167040D01*
X72328Y166837D01*
X71864Y166594D01*
X66906Y171552D01*
X66646Y171726D01*
X66339Y171787D01*
X57795D01*
X57488Y171726D01*
X57228Y171552D01*
X57059Y171299D01*
X52835D01*
Y168168D01*
X52235Y167568D01*
X51930Y167112D01*
X51823Y166575D01*
Y164311D01*
X50374D01*
Y161071D01*
X50374Y160571D01*
X50374D01*
Y160571D01*
X50374Y160571D01*
Y157043D01*
X50161D01*
Y155961D01*
X53228D01*
Y153961D01*
X50161D01*
Y152878D01*
X51823D01*
Y151969D01*
X51930Y151431D01*
X52235Y150975D01*
X52691Y150671D01*
X52923Y150624D01*
X52926Y150616D01*
X52976Y150104D01*
X52510Y149793D01*
X52115Y149202D01*
X51977Y148505D01*
Y146709D01*
X54394D01*
Y150326D01*
X54151D01*
X53999Y150826D01*
X54222Y150975D01*
X54526Y151431D01*
X54633Y151969D01*
Y152878D01*
X56295D01*
Y153201D01*
X56795Y153408D01*
X58684Y151519D01*
X58945Y151345D01*
X59252Y151284D01*
X69621D01*
X69766Y151313D01*
X69837Y151325D01*
X70009Y151144D01*
X70126Y150907D01*
X69550Y150331D01*
X69376Y150071D01*
X69315Y149764D01*
Y149760D01*
X67220D01*
Y145709D01*
Y141657D01*
X69315D01*
Y139130D01*
X67220D01*
Y135079D01*
Y131027D01*
X69315D01*
Y130236D01*
X69315Y130235D01*
X69315Y130235D01*
X69346Y130081D01*
X69376Y129929D01*
X69377Y129928D01*
X69377Y129928D01*
X69462Y129800D01*
X69550Y129668D01*
X69551Y129668D01*
X69551Y129667D01*
X69905Y129314D01*
X69905Y129314D01*
X69906Y129314D01*
X70034Y129229D01*
X70165Y129141D01*
X70166Y129140D01*
X70166Y129140D01*
X70319Y129110D01*
X70473Y129080D01*
X70473Y129080D01*
X70474Y129080D01*
X89884Y129118D01*
X90038Y129149D01*
X90189Y129180D01*
X90190Y129180D01*
X90191Y129180D01*
X90321Y129268D01*
X90450Y129354D01*
X90450Y129354D01*
X90451Y129355D01*
X90537Y129484D01*
X90624Y129614D01*
X90624Y129615D01*
X90624Y129615D01*
X90654Y129769D01*
X90685Y129921D01*
Y163486D01*
X91147Y163678D01*
X94755Y160070D01*
X95210Y159765D01*
X95748Y159658D01*
X117640D01*
X117737Y159561D01*
X118388Y159291D01*
X119093D01*
X119744Y159561D01*
X120242Y160059D01*
X120512Y160711D01*
Y161415D01*
X120242Y162067D01*
X119744Y162565D01*
X119093Y162835D01*
X118388D01*
X117737Y162565D01*
X117640Y162468D01*
X96330D01*
X44758Y214040D01*
X44965Y214540D01*
X68427D01*
X68524Y214443D01*
X69175Y214173D01*
X69880D01*
X70531Y214443D01*
X70697Y214609D01*
X72019D01*
X72166Y214390D01*
X72492Y214172D01*
X72878Y214095D01*
X78185D01*
X78571Y214172D01*
X78898Y214390D01*
X79055Y214626D01*
X79502Y214563D01*
X79555Y214542D01*
Y212623D01*
X79502Y212602D01*
X79055Y212540D01*
X78898Y212775D01*
X78571Y212994D01*
X78185Y213071D01*
X72878D01*
X72492Y212994D01*
X72166Y212775D01*
X71993Y212517D01*
X70067D01*
X69941Y212644D01*
X69289Y212913D01*
X68585D01*
X67933Y212644D01*
X67435Y212145D01*
X67165Y211494D01*
Y210789D01*
X67435Y210138D01*
X67933Y209640D01*
X68585Y209370D01*
X69289D01*
X69941Y209640D01*
X70008Y209707D01*
X71953D01*
X72166Y209390D01*
X72492Y209172D01*
X72878Y209095D01*
X78185D01*
X78571Y209172D01*
X78898Y209390D01*
X79055Y209626D01*
X79502Y209563D01*
X79555Y209542D01*
Y207623D01*
X79502Y207602D01*
X79055Y207540D01*
X78898Y207775D01*
X78571Y207994D01*
X78185Y208070D01*
X72878D01*
X72492Y207994D01*
X72166Y207775D01*
X71947Y207449D01*
X71870Y207063D01*
Y205102D01*
X71947Y204717D01*
X72166Y204390D01*
X72492Y204171D01*
X72878Y204095D01*
X76976D01*
X77156Y203915D01*
X77289Y203583D01*
X77156Y203250D01*
X76976Y203070D01*
X72878D01*
X72492Y202994D01*
X72166Y202775D01*
X71947Y202449D01*
X71870Y202063D01*
Y200102D01*
X71947Y199717D01*
X72166Y199390D01*
X72492Y199171D01*
X72878Y199095D01*
X78185D01*
X78571Y199171D01*
X78898Y199390D01*
X79116Y199717D01*
X79193Y200102D01*
Y200765D01*
X81279D01*
X81879Y200885D01*
X82388Y201224D01*
X84731Y203567D01*
X85071Y204076D01*
X85190Y204676D01*
Y206002D01*
X85652Y206193D01*
X91871Y199974D01*
X92379Y199635D01*
X92979Y199515D01*
X93538D01*
X93622Y199390D01*
X93949Y199171D01*
X94335Y199095D01*
X98804D01*
X98995Y198633D01*
X98443Y198081D01*
X97419D01*
X97365Y198071D01*
X94335D01*
X93949Y197994D01*
X93622Y197775D01*
X93404Y197449D01*
X93327Y197063D01*
Y195102D01*
X93404Y194717D01*
X93622Y194390D01*
X93949Y194172D01*
X94335Y194095D01*
X99642D01*
X100027Y194172D01*
X100354Y194390D01*
X100573Y194717D01*
X100649Y195102D01*
Y195854D01*
X102683Y197888D01*
X103023Y198396D01*
X103142Y198996D01*
Y202704D01*
X103023Y203304D01*
X102881Y203516D01*
X103102Y204002D01*
X103140Y204029D01*
X103760Y204286D01*
X104258Y204784D01*
X104528Y205435D01*
Y206140D01*
X104258Y206791D01*
X103760Y207289D01*
X103108Y207559D01*
X102403D01*
X102231Y207488D01*
X100547D01*
X100354Y207775D01*
X100027Y207994D01*
X99642Y208070D01*
X94335D01*
X93949Y207994D01*
X93622Y207775D01*
X93404Y207449D01*
X93349Y207172D01*
X92882Y206932D01*
X89560Y210255D01*
Y223349D01*
X90022Y223540D01*
X93156Y220405D01*
X93327Y220291D01*
Y220102D01*
X93404Y219717D01*
X93622Y219390D01*
X93949Y219172D01*
X94335Y219095D01*
X99642D01*
X100027Y219172D01*
X100354Y219390D01*
X100573Y219717D01*
X100649Y220102D01*
Y222063D01*
X100573Y222449D01*
X100354Y222775D01*
X100027Y222994D01*
X99642Y223071D01*
X96611D01*
X96557Y223081D01*
X94914D01*
X94401Y223595D01*
X94608Y224095D01*
X99642D01*
X100027Y224171D01*
X100354Y224390D01*
X100573Y224717D01*
X100649Y225102D01*
Y227063D01*
X100573Y227449D01*
X100354Y227775D01*
X100027Y227994D01*
X99642Y228070D01*
X94335D01*
X93910Y228496D01*
Y228670D01*
X94335Y229095D01*
X99642D01*
X100027Y229171D01*
X100354Y229390D01*
X100573Y229717D01*
X100575Y229727D01*
X101457D01*
Y229016D01*
X106575D01*
Y229776D01*
X107285D01*
X107382Y229679D01*
X108033Y229410D01*
X108738D01*
X108968Y229505D01*
X109395Y229276D01*
X109432Y229155D01*
X109448Y229076D01*
X109787Y228567D01*
X112130Y226224D01*
X112639Y225885D01*
X113239Y225765D01*
X115217D01*
Y225102D01*
X115294Y224717D01*
X115512Y224390D01*
X115839Y224171D01*
X116224Y224095D01*
X121531D01*
X121829Y223851D01*
Y223315D01*
X121531Y223071D01*
X116224D01*
X115839Y222994D01*
X115512Y222775D01*
X115366Y222556D01*
X111642D01*
X111476Y222722D01*
X110825Y222992D01*
X110120D01*
X109469Y222722D01*
X108970Y222224D01*
X108701Y221573D01*
Y220868D01*
X108970Y220217D01*
X109469Y219719D01*
X110120Y219449D01*
X110825D01*
X111476Y219719D01*
X111504Y219747D01*
X115288D01*
X115294Y219717D01*
X115512Y219390D01*
X115839Y219172D01*
X116224Y219095D01*
X121531D01*
X121829Y218851D01*
Y218315D01*
X121531Y218071D01*
X116224D01*
X115839Y217994D01*
X115512Y217775D01*
X115404Y217614D01*
X114901Y217526D01*
X114250Y217795D01*
X113545D01*
X112894Y217526D01*
X112396Y217027D01*
X112126Y216376D01*
Y215671D01*
X112396Y215020D01*
X112894Y214522D01*
X113545Y214252D01*
X114250D01*
X114901Y214522D01*
X115456Y214474D01*
X115512Y214390D01*
X115839Y214172D01*
X116224Y214095D01*
X121531D01*
X121829Y213851D01*
Y213315D01*
X121531Y213071D01*
X116224D01*
X115839Y212994D01*
X115512Y212775D01*
X115366Y212557D01*
X114437D01*
X114271Y212722D01*
X113620Y212992D01*
X112915D01*
X112264Y212722D01*
X111766Y212224D01*
X111496Y211573D01*
Y210868D01*
X111766Y210217D01*
X112264Y209718D01*
X112915Y209449D01*
X113620D01*
X114271Y209718D01*
X114299Y209747D01*
X115288D01*
X115294Y209717D01*
X115512Y209390D01*
X115839Y209172D01*
X116224Y209095D01*
X121531D01*
X121829Y208851D01*
Y208315D01*
X121531Y208070D01*
X116224D01*
X115839Y207994D01*
X115512Y207775D01*
X115294Y207449D01*
X115217Y207063D01*
Y205102D01*
X115294Y204717D01*
X115512Y204390D01*
X115839Y204171D01*
X116224Y204095D01*
X120693D01*
X120885Y203633D01*
X120322Y203070D01*
X116224D01*
X115839Y202994D01*
X115512Y202775D01*
X115294Y202449D01*
X115217Y202063D01*
Y200102D01*
X115294Y199717D01*
X115512Y199390D01*
X115839Y199171D01*
X116224Y199095D01*
X121531D01*
X121917Y199171D01*
X122244Y199390D01*
X122462Y199717D01*
X122539Y200102D01*
Y200854D01*
X123909Y202224D01*
X124153Y202273D01*
X124662Y202612D01*
X127005Y204956D01*
X127345Y205464D01*
X127464Y206064D01*
Y206667D01*
X127964Y206874D01*
X134864Y199974D01*
X135372Y199635D01*
X135972Y199515D01*
X136885D01*
X136969Y199390D01*
X137295Y199171D01*
X137681Y199095D01*
X142150D01*
X142341Y198633D01*
X141790Y198081D01*
X140766D01*
X140712Y198071D01*
X137681D01*
X137295Y197994D01*
X136969Y197775D01*
X136750Y197449D01*
X136674Y197063D01*
Y195102D01*
X136750Y194717D01*
X136969Y194390D01*
X137295Y194172D01*
X137681Y194095D01*
X142988D01*
X143374Y194172D01*
X143701Y194390D01*
X143919Y194717D01*
X143996Y195102D01*
Y195854D01*
X145754Y197612D01*
X146094Y198121D01*
X146213Y198721D01*
Y202704D01*
X146094Y203304D01*
X145818Y203717D01*
X145927Y204038D01*
X146061Y204213D01*
X146534D01*
X147185Y204482D01*
X147683Y204981D01*
X147953Y205632D01*
Y206337D01*
X147683Y206988D01*
X147185Y207486D01*
X146534Y207756D01*
X145829D01*
X145177Y207486D01*
X145130Y207438D01*
X143921D01*
X143919Y207449D01*
X143701Y207775D01*
X143374Y207994D01*
X142988Y208070D01*
X137681D01*
X137295Y207994D01*
X136969Y207775D01*
X136750Y207449D01*
X136674Y207063D01*
Y206787D01*
X136212Y206596D01*
X132886Y209921D01*
Y223521D01*
X133348Y223712D01*
X135163Y221898D01*
Y221083D01*
X135282Y220483D01*
X135622Y219974D01*
X136130Y219635D01*
X136730Y219515D01*
X136885D01*
X136969Y219390D01*
X137295Y219172D01*
X137681Y219095D01*
X142988D01*
X143374Y219172D01*
X143701Y219390D01*
X143919Y219717D01*
X143996Y220102D01*
Y222063D01*
X143919Y222449D01*
X143701Y222775D01*
X143374Y222994D01*
X142988Y223071D01*
X138194D01*
X138179Y223147D01*
X137879Y223595D01*
X137940Y223821D01*
X138107Y224095D01*
X142988D01*
X143374Y224171D01*
X143701Y224390D01*
X143919Y224717D01*
X143996Y225102D01*
Y227063D01*
X143919Y227449D01*
X143701Y227775D01*
X143374Y227994D01*
X142988Y228070D01*
X139958D01*
X139903Y228081D01*
X139849Y228070D01*
X138298D01*
Y229095D01*
X142988D01*
X143374Y229171D01*
X143701Y229390D01*
X143919Y229717D01*
X143921Y229727D01*
X144449D01*
Y229016D01*
X149567D01*
Y229776D01*
X150553D01*
X150650Y229679D01*
X151301Y229410D01*
X152006D01*
X152657Y229679D01*
X153156Y230177D01*
X153425Y230829D01*
Y231534D01*
X153156Y232185D01*
X152657Y232683D01*
X152006Y232953D01*
X151301D01*
X150650Y232683D01*
X150553Y232586D01*
X149567D01*
Y233347D01*
X144449D01*
Y232537D01*
X143860D01*
X143701Y232775D01*
X143374Y232994D01*
X142988Y233070D01*
X137948D01*
Y235259D01*
X148965Y246275D01*
X149304Y246784D01*
X149376Y247146D01*
X151240D01*
Y252461D01*
X150347D01*
Y254685D01*
X150228Y255285D01*
X149888Y255793D01*
X145805Y259876D01*
X138411Y267270D01*
X138385Y267322D01*
X138428Y267960D01*
X138898Y268430D01*
X139404Y269306D01*
X139665Y270282D01*
Y271293D01*
X139404Y272269D01*
X138898Y273144D01*
X138184Y273859D01*
X137308Y274364D01*
X136332Y274626D01*
X136046D01*
X135855Y275088D01*
X136055Y275288D01*
X136394Y275796D01*
X136514Y276396D01*
Y276997D01*
X137308Y277210D01*
X138184Y277716D01*
X138898Y278431D01*
X139404Y279306D01*
X139665Y280282D01*
Y281293D01*
X139404Y282269D01*
X138898Y283144D01*
X138184Y283859D01*
X137308Y284364D01*
X136332Y284626D01*
D02*
G37*
G36*
X176332D02*
X175321D01*
X174345Y284364D01*
X173470Y283859D01*
X172755Y283144D01*
X172250Y282269D01*
X171988Y281293D01*
Y280282D01*
X172250Y279306D01*
X172755Y278431D01*
X173470Y277716D01*
X174345Y277210D01*
X175140Y276997D01*
Y276396D01*
X175259Y275796D01*
X175599Y275288D01*
X175799Y275088D01*
X175607Y274626D01*
X175321D01*
X174345Y274364D01*
X173470Y273859D01*
X172802Y273191D01*
X172703Y273144D01*
X172177Y273143D01*
X168275Y277045D01*
Y277807D01*
X168898Y278431D01*
X169404Y279306D01*
X169665Y280282D01*
Y281293D01*
X169404Y282269D01*
X168898Y283144D01*
X168184Y283859D01*
X167308Y284364D01*
X166332Y284626D01*
X165321D01*
X164345Y284364D01*
X163470Y283859D01*
X162755Y283144D01*
X162250Y282269D01*
X161988Y281293D01*
Y280282D01*
X162250Y279306D01*
X162755Y278431D01*
X163470Y277716D01*
X164345Y277210D01*
X165140Y276997D01*
Y276396D01*
X165259Y275796D01*
X165599Y275288D01*
X165799Y275088D01*
X165607Y274626D01*
X165321D01*
X164345Y274364D01*
X163470Y273859D01*
X162802Y273191D01*
X162703Y273144D01*
X162177Y273143D01*
X158275Y277045D01*
Y277807D01*
X158898Y278431D01*
X159404Y279306D01*
X159665Y280282D01*
Y281293D01*
X159404Y282269D01*
X158898Y283144D01*
X158184Y283859D01*
X157308Y284364D01*
X156332Y284626D01*
X155321D01*
X154345Y284364D01*
X153470Y283859D01*
X152755Y283144D01*
X152250Y282269D01*
X151988Y281293D01*
Y280282D01*
X152250Y279306D01*
X152755Y278431D01*
X153470Y277716D01*
X154345Y277210D01*
X155140Y276997D01*
Y276396D01*
X155259Y275796D01*
X155599Y275288D01*
X155799Y275088D01*
X155607Y274626D01*
X155321D01*
X154345Y274364D01*
X153470Y273859D01*
X152755Y273144D01*
X152250Y272269D01*
X151988Y271293D01*
Y270282D01*
X152250Y269306D01*
X152755Y268430D01*
X153470Y267716D01*
X154345Y267210D01*
X155321Y266949D01*
X156332D01*
X156709Y267050D01*
X157171Y266676D01*
Y264370D01*
X156815Y264015D01*
X156475Y263506D01*
X156356Y262906D01*
Y254823D01*
X153169D01*
Y250205D01*
X153169Y249902D01*
X153169Y249402D01*
Y244783D01*
X154422D01*
Y225807D01*
X154529Y225269D01*
X154833Y224814D01*
X158563Y221084D01*
Y220102D01*
X158640Y219717D01*
X158858Y219390D01*
X159185Y219172D01*
X159571Y219095D01*
X164878D01*
X165263Y219172D01*
X165590Y219390D01*
X165809Y219717D01*
X165885Y220102D01*
Y222063D01*
X165809Y222449D01*
X165590Y222775D01*
X165263Y222994D01*
X164878Y223071D01*
X160550D01*
X160026Y223595D01*
X160233Y224095D01*
X164878D01*
X165263Y224171D01*
X165590Y224390D01*
X165809Y224717D01*
X165885Y225102D01*
Y227063D01*
X165809Y227449D01*
X165590Y227775D01*
X165263Y227994D01*
X164878Y228070D01*
X160550D01*
X160026Y228595D01*
X160233Y229095D01*
X164878D01*
X165263Y229171D01*
X165590Y229390D01*
X165809Y229717D01*
X165885Y230102D01*
Y231460D01*
X165896Y231514D01*
Y233198D01*
X166082Y233384D01*
X166358Y233498D01*
X166856Y233996D01*
X167126Y234648D01*
Y235352D01*
X166856Y236004D01*
X166358Y236502D01*
X165707Y236772D01*
X165002D01*
X164351Y236502D01*
X163852Y236004D01*
X163583Y235352D01*
Y235318D01*
X163220Y234956D01*
X162881Y234448D01*
X162761Y233848D01*
Y233070D01*
X159835D01*
Y235268D01*
X163513Y238947D01*
X163818Y239403D01*
X163925Y239941D01*
Y244783D01*
X165177D01*
Y249402D01*
X165177Y249705D01*
X165177Y250205D01*
Y254823D01*
X161991D01*
Y261222D01*
X162347Y261577D01*
X162686Y262086D01*
X162806Y262686D01*
Y267727D01*
X163268Y267918D01*
X163470Y267716D01*
X164345Y267210D01*
X165321Y266949D01*
X166332D01*
X166709Y267050D01*
X167171Y266676D01*
Y265028D01*
X167290Y264428D01*
X167630Y263920D01*
X169741Y261808D01*
Y254823D01*
X166555D01*
Y250205D01*
X166555Y249902D01*
X166555Y249402D01*
Y244783D01*
X167808D01*
Y216980D01*
X166385Y215557D01*
X165885Y215765D01*
Y217063D01*
X165809Y217449D01*
X165590Y217775D01*
X165263Y217994D01*
X164878Y218071D01*
X159571D01*
X159185Y217994D01*
X158858Y217775D01*
X158716Y217563D01*
X158348Y217472D01*
X158149Y217488D01*
X157597Y217717D01*
X156892D01*
X156240Y217447D01*
X155742Y216948D01*
X155472Y216297D01*
Y215593D01*
X155742Y214941D01*
X156240Y214443D01*
X156892Y214173D01*
X157597D01*
X158248Y214443D01*
X158270Y214465D01*
X158836Y214423D01*
X158858Y214390D01*
X159185Y214172D01*
X159571Y214095D01*
X164216D01*
X164423Y213595D01*
X163899Y213071D01*
X159571D01*
X159185Y212994D01*
X158858Y212775D01*
X158640Y212449D01*
X158563Y212063D01*
Y210102D01*
X158640Y209717D01*
X158858Y209390D01*
X159185Y209172D01*
X159571Y209095D01*
X164216D01*
X164423Y208595D01*
X163899Y208070D01*
X159571D01*
X159185Y207994D01*
X158858Y207775D01*
X158640Y207449D01*
X158563Y207063D01*
Y205102D01*
X158640Y204717D01*
X158858Y204390D01*
X159185Y204171D01*
X159571Y204095D01*
X164878D01*
X165263Y204171D01*
X165590Y204390D01*
X165809Y204717D01*
X165885Y205102D01*
Y206084D01*
X172096Y212294D01*
X172400Y212750D01*
X172507Y213287D01*
Y241859D01*
X175432Y244783D01*
X178563D01*
Y249402D01*
X178563Y249705D01*
X178563Y250205D01*
Y254823D01*
X175377D01*
Y263493D01*
X175257Y264093D01*
X174917Y264601D01*
X172806Y266713D01*
Y267727D01*
X173268Y267918D01*
X173470Y267716D01*
X174345Y267210D01*
X175321Y266949D01*
X176332D01*
X176708Y267050D01*
X177140Y266743D01*
X177178Y266682D01*
X177290Y266121D01*
X177630Y265613D01*
X183127Y260115D01*
Y254823D01*
X179941D01*
Y250205D01*
X179941Y249902D01*
X179941Y249402D01*
Y244783D01*
X181193D01*
Y240109D01*
X173967Y232883D01*
X173663Y232427D01*
X173556Y231890D01*
Y209961D01*
X173663Y209423D01*
X173967Y208967D01*
X177845Y205089D01*
X178301Y204785D01*
X178839Y204678D01*
X180123D01*
X180315Y204390D01*
X180642Y204171D01*
X181027Y204095D01*
X185672D01*
X185880Y203595D01*
X185355Y203070D01*
X181027D01*
X180642Y202994D01*
X180315Y202775D01*
X180097Y202449D01*
X180020Y202063D01*
Y200102D01*
X180097Y199717D01*
X180315Y199390D01*
X180642Y199171D01*
X181027Y199095D01*
X186335D01*
X186720Y199171D01*
X187047Y199390D01*
X187266Y199717D01*
X187342Y200102D01*
Y201084D01*
X189852Y203593D01*
X190156Y204049D01*
X190263Y204587D01*
Y207402D01*
X190156Y207939D01*
X189852Y208395D01*
X188710Y209537D01*
X188254Y209841D01*
X188026Y209887D01*
X187602Y210083D01*
X183681D01*
Y211083D01*
X182681D01*
Y213287D01*
X181027D01*
X180559Y213194D01*
X180251Y212989D01*
X179924Y213091D01*
X179751Y213210D01*
Y214334D01*
X180251Y214485D01*
X180315Y214390D01*
X180642Y214172D01*
X181027Y214095D01*
X186335D01*
X186720Y214172D01*
X187047Y214390D01*
X187266Y214717D01*
X187342Y215102D01*
Y217063D01*
X187266Y217449D01*
X187047Y217775D01*
X186720Y217994D01*
X186335Y218071D01*
X181027D01*
X180642Y217994D01*
X180315Y217775D01*
X180251Y217680D01*
X179751Y217832D01*
Y219334D01*
X180251Y219485D01*
X180315Y219390D01*
X180642Y219172D01*
X181027Y219095D01*
X186335D01*
X186720Y219172D01*
X187047Y219390D01*
X187266Y219717D01*
X187342Y220102D01*
Y222063D01*
X187266Y222449D01*
X187047Y222775D01*
X186720Y222994D01*
X186335Y223071D01*
X181027D01*
X180642Y222994D01*
X180315Y222775D01*
X180251Y222680D01*
X179751Y222832D01*
Y224334D01*
X180251Y224485D01*
X180315Y224390D01*
X180642Y224171D01*
X181027Y224095D01*
X186335D01*
X186720Y224171D01*
X187047Y224390D01*
X187266Y224717D01*
X187342Y225102D01*
Y227063D01*
X187266Y227449D01*
X187047Y227775D01*
X186720Y227994D01*
X186335Y228070D01*
X181027D01*
X180642Y227994D01*
X180315Y227775D01*
X180251Y227680D01*
X179751Y227832D01*
Y229334D01*
X180251Y229485D01*
X180315Y229390D01*
X180642Y229171D01*
X181027Y229095D01*
X186335D01*
X186720Y229171D01*
X187047Y229390D01*
X187239Y229678D01*
X189094D01*
Y228543D01*
X189875D01*
Y227931D01*
X189797Y227854D01*
X189528Y227203D01*
Y226498D01*
X189797Y225847D01*
X190296Y225348D01*
X190947Y225079D01*
X191652D01*
X192303Y225348D01*
X192801Y225847D01*
X193071Y226498D01*
Y227203D01*
X192801Y227854D01*
X192684Y227971D01*
Y228543D01*
X193425D01*
Y233661D01*
X189094D01*
Y232488D01*
X187239D01*
X187047Y232775D01*
X186720Y232994D01*
X186335Y233070D01*
X181931D01*
X181740Y233533D01*
X190285Y242077D01*
X190589Y242533D01*
X190696Y243071D01*
Y244783D01*
X191949D01*
Y249402D01*
X191949Y249705D01*
X191949Y250205D01*
Y254823D01*
X188762D01*
Y261800D01*
X188643Y262400D01*
X188303Y262908D01*
X184582Y266629D01*
X184841Y267077D01*
X185321Y266949D01*
X186332D01*
X187308Y267210D01*
X188184Y267716D01*
X188898Y268430D01*
X189404Y269306D01*
X189665Y270282D01*
Y271293D01*
X189404Y272269D01*
X188898Y273144D01*
X188184Y273859D01*
X187308Y274364D01*
X186332Y274626D01*
X185321D01*
X184345Y274364D01*
X183470Y273859D01*
X182802Y273191D01*
X182703Y273144D01*
X182177Y273143D01*
X178275Y277045D01*
Y277807D01*
X178898Y278431D01*
X179404Y279306D01*
X179665Y280282D01*
Y281293D01*
X179404Y282269D01*
X178898Y283144D01*
X178184Y283859D01*
X177308Y284364D01*
X176332Y284626D01*
D02*
G37*
G36*
X54827Y274713D02*
X54263Y274563D01*
X53339Y274029D01*
X52585Y273275D01*
X52052Y272351D01*
X51901Y271787D01*
X54827D01*
Y274713D01*
D02*
G37*
G36*
X196332Y274626D02*
X195321D01*
X194345Y274364D01*
X193470Y273859D01*
X192755Y273144D01*
X192250Y272269D01*
X191988Y271293D01*
Y270282D01*
X192250Y269306D01*
X192755Y268430D01*
X193470Y267716D01*
X194345Y267210D01*
X195321Y266949D01*
X196332D01*
X197308Y267210D01*
X198184Y267716D01*
X198898Y268430D01*
X199404Y269306D01*
X199665Y270282D01*
Y271293D01*
X199404Y272269D01*
X198898Y273144D01*
X198184Y273859D01*
X197308Y274364D01*
X196332Y274626D01*
D02*
G37*
G36*
X146332D02*
X145321D01*
X144345Y274364D01*
X143470Y273859D01*
X142755Y273144D01*
X142250Y272269D01*
X141988Y271293D01*
Y270282D01*
X142250Y269306D01*
X142755Y268430D01*
X143470Y267716D01*
X144345Y267210D01*
X145321Y266949D01*
X146332D01*
X147308Y267210D01*
X148184Y267716D01*
X148898Y268430D01*
X149404Y269306D01*
X149665Y270282D01*
Y271293D01*
X149404Y272269D01*
X148898Y273144D01*
X148184Y273859D01*
X147308Y274364D01*
X146332Y274626D01*
D02*
G37*
G36*
X54827Y269787D02*
X51901D01*
X52052Y269224D01*
X52585Y268300D01*
X53339Y267546D01*
X54263Y267012D01*
X54827Y266861D01*
Y269787D01*
D02*
G37*
G36*
X244140Y273161D02*
X243183D01*
X242259Y272914D01*
X241430Y272435D01*
X240754Y271759D01*
X240275Y270930D01*
X240028Y270006D01*
Y269049D01*
X240275Y268125D01*
X240754Y267296D01*
X241430Y266620D01*
X242259Y266141D01*
X243183Y265894D01*
X244140D01*
X245064Y266141D01*
X245893Y266620D01*
X246569Y267296D01*
X247048Y268125D01*
X247295Y269049D01*
Y270006D01*
X247048Y270930D01*
X246569Y271759D01*
X245893Y272435D01*
X245064Y272914D01*
X244140Y273161D01*
D02*
G37*
G36*
X305823Y265299D02*
X303953D01*
Y263626D01*
X305823D01*
Y265299D01*
D02*
G37*
G36*
X301953D02*
X300083D01*
Y263626D01*
X301953D01*
Y265299D01*
D02*
G37*
G36*
X217713D02*
X215843D01*
Y263626D01*
X217713D01*
Y265299D01*
D02*
G37*
G36*
X213843D02*
X211972D01*
Y263626D01*
X213843D01*
Y265299D01*
D02*
G37*
G36*
X39347Y262968D02*
X37772D01*
Y261394D01*
X39347D01*
Y262968D01*
D02*
G37*
G36*
X35772D02*
X34197D01*
Y261394D01*
X35772D01*
Y262968D01*
D02*
G37*
G36*
X30291Y262929D02*
X28716D01*
Y261354D01*
X30291D01*
Y262929D01*
D02*
G37*
G36*
X26717D02*
X25142D01*
Y261354D01*
X26717D01*
Y262929D01*
D02*
G37*
G36*
X21236D02*
X19661D01*
Y261354D01*
X21236D01*
Y262929D01*
D02*
G37*
G36*
X12181D02*
X10606D01*
Y261354D01*
X12181D01*
Y262929D01*
D02*
G37*
G36*
X17661D02*
X16087D01*
Y261354D01*
X17661D01*
Y262929D01*
D02*
G37*
G36*
X8606D02*
X7032D01*
Y261354D01*
X8606D01*
Y262929D01*
D02*
G37*
G36*
X283365Y273209D02*
X281950D01*
X280562Y272933D01*
X279254Y272391D01*
X278077Y271605D01*
X277077Y270604D01*
X276290Y269427D01*
X275748Y268119D01*
X275472Y266731D01*
Y265316D01*
X275748Y263928D01*
X276290Y262620D01*
X277077Y261443D01*
X278077Y260443D01*
X279254Y259656D01*
X280562Y259115D01*
X281950Y258839D01*
X283365D01*
X284753Y259115D01*
X286061Y259656D01*
X287238Y260443D01*
X288239Y261443D01*
X289025Y262620D01*
X289566Y263928D01*
X289843Y265316D01*
Y266731D01*
X289566Y268119D01*
X289025Y269427D01*
X288239Y270604D01*
X287238Y271605D01*
X286061Y272391D01*
X284753Y272933D01*
X283365Y273209D01*
D02*
G37*
G36*
X233365D02*
X231950D01*
X230562Y272933D01*
X229254Y272391D01*
X228077Y271605D01*
X227077Y270604D01*
X226290Y269427D01*
X225748Y268119D01*
X225472Y266731D01*
Y265316D01*
X225748Y263928D01*
X226290Y262620D01*
X227077Y261443D01*
X228077Y260443D01*
X229254Y259656D01*
X230562Y259115D01*
X231950Y258839D01*
X233365D01*
X234753Y259115D01*
X236061Y259656D01*
X237238Y260443D01*
X238239Y261443D01*
X239025Y262620D01*
X239566Y263928D01*
X239843Y265316D01*
Y266731D01*
X239566Y268119D01*
X239025Y269427D01*
X238239Y270604D01*
X237238Y271605D01*
X236061Y272391D01*
X234753Y272933D01*
X233365Y273209D01*
D02*
G37*
G36*
X39347Y259394D02*
X37772D01*
Y257819D01*
X39347D01*
Y259394D01*
D02*
G37*
G36*
X35772D02*
X34197D01*
Y257819D01*
X35772D01*
Y259394D01*
D02*
G37*
G36*
X30291Y259354D02*
X28716D01*
Y257780D01*
X30291D01*
Y259354D01*
D02*
G37*
G36*
X26717D02*
X25142D01*
Y257780D01*
X26717D01*
Y259354D01*
D02*
G37*
G36*
X21236Y259354D02*
X19661D01*
Y257780D01*
X21236D01*
Y259354D01*
D02*
G37*
G36*
X17661D02*
X16087D01*
Y257780D01*
X17661D01*
Y259354D01*
D02*
G37*
G36*
X12181D02*
X10606D01*
Y257780D01*
X12181D01*
Y259354D01*
D02*
G37*
G36*
X8606D02*
X7032D01*
Y257780D01*
X8606D01*
Y259354D01*
D02*
G37*
G36*
X149779Y239071D02*
X148008D01*
Y237693D01*
X149779D01*
Y239071D01*
D02*
G37*
G36*
X146008D02*
X144236D01*
Y237693D01*
X146008D01*
Y239071D01*
D02*
G37*
G36*
X254504Y236669D02*
X252732D01*
Y235291D01*
X254504D01*
Y236669D01*
D02*
G37*
G36*
X250732D02*
X248961D01*
Y235291D01*
X250732D01*
Y236669D01*
D02*
G37*
G36*
X149779Y235693D02*
X148008D01*
Y234315D01*
X149779D01*
Y235693D01*
D02*
G37*
G36*
X146008D02*
X144236D01*
Y234315D01*
X146008D01*
Y235693D01*
D02*
G37*
G36*
X417378Y234583D02*
X415606D01*
Y233205D01*
X417378D01*
Y234583D01*
D02*
G37*
G36*
X413606D02*
X411835D01*
Y233205D01*
X413606D01*
Y234583D01*
D02*
G37*
G36*
X334976Y233795D02*
X333205D01*
Y232417D01*
X334976D01*
Y233795D01*
D02*
G37*
G36*
X331205D02*
X329433D01*
Y232417D01*
X331205D01*
Y233795D01*
D02*
G37*
G36*
X199150Y233874D02*
X197772D01*
Y232102D01*
X199150D01*
Y233874D01*
D02*
G37*
G36*
X195772D02*
X194394D01*
Y232102D01*
X195772D01*
Y233874D01*
D02*
G37*
G36*
X254504Y233291D02*
X252732D01*
Y231913D01*
X254504D01*
Y233291D01*
D02*
G37*
G36*
X250732D02*
X248961D01*
Y231913D01*
X250732D01*
Y233291D01*
D02*
G37*
G36*
X417378Y231205D02*
X415606D01*
Y229827D01*
X417378D01*
Y231205D01*
D02*
G37*
G36*
X413606D02*
X411835D01*
Y229827D01*
X413606D01*
Y231205D01*
D02*
G37*
G36*
X334976Y230417D02*
X333205D01*
Y229039D01*
X334976D01*
Y230417D01*
D02*
G37*
G36*
X331205D02*
X329433D01*
Y229039D01*
X331205D01*
Y230417D01*
D02*
G37*
G36*
X199150Y230102D02*
X197772D01*
Y228331D01*
X199150D01*
Y230102D01*
D02*
G37*
G36*
X195772D02*
X194394D01*
Y228331D01*
X195772D01*
Y230102D01*
D02*
G37*
G36*
X226374Y225823D02*
X222929D01*
Y224642D01*
X226374D01*
Y225823D01*
D02*
G37*
G36*
X389248Y223185D02*
X385803D01*
Y222004D01*
X389248D01*
Y223185D01*
D02*
G37*
G36*
X226374Y222642D02*
X222929D01*
Y221461D01*
X226374D01*
Y222642D01*
D02*
G37*
G36*
X220929D02*
X217484D01*
Y221461D01*
X220929D01*
Y222642D01*
D02*
G37*
G36*
X306846Y222398D02*
X303402D01*
Y221217D01*
X306846D01*
Y222398D01*
D02*
G37*
G36*
X389248Y220004D02*
X385803D01*
Y218823D01*
X389248D01*
Y220004D01*
D02*
G37*
G36*
X306846Y219216D02*
X303402D01*
Y218035D01*
X306846D01*
Y219216D01*
D02*
G37*
G36*
X226161Y220610D02*
Y220610D01*
X217697D01*
Y216673D01*
X226161D01*
Y216693D01*
X226577Y216971D01*
X226774Y216890D01*
X227478D01*
X228130Y217160D01*
X228628Y217658D01*
X228898Y218309D01*
Y219014D01*
X228628Y219665D01*
X228130Y220163D01*
X227478Y220433D01*
X226774D01*
X226559Y220344D01*
X226161Y220610D01*
D02*
G37*
G36*
X142988Y218071D02*
X137681D01*
X137295Y217994D01*
X136969Y217775D01*
X136750Y217449D01*
X136674Y217063D01*
Y215102D01*
X136750Y214717D01*
X136969Y214390D01*
X137295Y214172D01*
X137681Y214095D01*
X142988D01*
X143374Y214172D01*
X143701Y214390D01*
X143900Y214688D01*
X146311D01*
X146398Y214600D01*
X147049Y214331D01*
X147754D01*
X148405Y214600D01*
X148904Y215099D01*
X149173Y215750D01*
Y216455D01*
X148904Y217106D01*
X148405Y217604D01*
X147754Y217874D01*
X147049D01*
X146398Y217604D01*
X146291Y217497D01*
X143886D01*
X143701Y217775D01*
X143374Y217994D01*
X142988Y218071D01*
D02*
G37*
G36*
X99642D02*
X94335D01*
X93949Y217994D01*
X93622Y217775D01*
X93404Y217449D01*
X93327Y217063D01*
Y215102D01*
X93404Y214717D01*
X93622Y214390D01*
X93949Y214172D01*
X94335Y214095D01*
X99642D01*
X100027Y214172D01*
X100354Y214390D01*
X100553Y214688D01*
X103870D01*
X103957Y214600D01*
X104608Y214331D01*
X105313D01*
X105964Y214600D01*
X106463Y215099D01*
X106732Y215750D01*
Y216455D01*
X106463Y217106D01*
X105964Y217604D01*
X105313Y217874D01*
X104608D01*
X103957Y217604D01*
X103850Y217497D01*
X100540D01*
X100354Y217775D01*
X100027Y217994D01*
X99642Y218071D01*
D02*
G37*
G36*
X389035Y217972D02*
Y217972D01*
X380571D01*
Y214035D01*
X389035D01*
Y214035D01*
X389440Y214305D01*
X389569Y214252D01*
X390274D01*
X390925Y214522D01*
X391423Y215020D01*
X391693Y215671D01*
Y216376D01*
X391423Y217027D01*
X390925Y217526D01*
X390274Y217795D01*
X389569D01*
X389403Y217727D01*
X389035Y217972D01*
D02*
G37*
G36*
X306634Y217185D02*
Y217185D01*
X298169D01*
Y213248D01*
X306634D01*
Y213248D01*
X307038Y213518D01*
X307167Y213465D01*
X307872D01*
X308523Y213734D01*
X309022Y214233D01*
X309291Y214884D01*
Y215589D01*
X309022Y216240D01*
X308523Y216738D01*
X307872Y217008D01*
X307167D01*
X307002Y216939D01*
X306634Y217185D01*
D02*
G37*
G36*
X186335Y213287D02*
X184681D01*
Y212083D01*
X187555D01*
X187466Y212531D01*
X187200Y212929D01*
X186803Y213194D01*
X186335Y213287D01*
D02*
G37*
G36*
X259839Y211362D02*
X258165D01*
Y209492D01*
X259839D01*
Y211362D01*
D02*
G37*
G36*
X99642Y213071D02*
X94335D01*
X93949Y212994D01*
X93622Y212775D01*
X93404Y212449D01*
X93327Y212063D01*
Y210102D01*
X93404Y209717D01*
X93622Y209390D01*
X93949Y209172D01*
X94335Y209095D01*
X99642D01*
X100027Y209172D01*
X100354Y209390D01*
X100452Y209536D01*
X100992Y209573D01*
X101004Y209561D01*
X101655Y209291D01*
X102360D01*
X103011Y209561D01*
X103510Y210059D01*
X103779Y210711D01*
Y211415D01*
X103510Y212067D01*
X103011Y212565D01*
X102360Y212835D01*
X101655D01*
X101004Y212565D01*
X100469Y212603D01*
X100354Y212775D01*
X100027Y212994D01*
X99642Y213071D01*
D02*
G37*
G36*
X142988D02*
X137681D01*
X137295Y212994D01*
X136969Y212775D01*
X136750Y212449D01*
X136674Y212063D01*
Y210102D01*
X136750Y209717D01*
X136969Y209390D01*
X137295Y209172D01*
X137681Y209095D01*
X142988D01*
X143374Y209172D01*
X143701Y209390D01*
X143854Y209620D01*
X144344Y209647D01*
X144469Y209522D01*
X145120Y209252D01*
X145825D01*
X146476Y209522D01*
X146974Y210020D01*
X147244Y210671D01*
Y211376D01*
X146974Y212027D01*
X146476Y212526D01*
X145825Y212795D01*
X145120D01*
X144469Y212526D01*
X144401Y212458D01*
X143913D01*
X143701Y212775D01*
X143374Y212994D01*
X142988Y213071D01*
D02*
G37*
G36*
X228953Y209937D02*
X227575D01*
Y208165D01*
X228953D01*
Y209937D01*
D02*
G37*
G36*
X225575D02*
X224197D01*
Y208165D01*
X225575D01*
Y209937D01*
D02*
G37*
G36*
X228953Y206165D02*
X227575D01*
Y204394D01*
X228953D01*
Y206165D01*
D02*
G37*
G36*
X225575D02*
X224197D01*
Y204394D01*
X225575D01*
Y206165D01*
D02*
G37*
G36*
X164878Y203070D02*
X159571D01*
X159185Y202994D01*
X158858Y202775D01*
X158640Y202449D01*
X158630Y202399D01*
X157666D01*
X157657Y202407D01*
X157006Y202677D01*
X156301D01*
X155650Y202407D01*
X155152Y201909D01*
X154882Y201258D01*
Y200553D01*
X155152Y199902D01*
X155650Y199404D01*
X156301Y199134D01*
X157006D01*
X157657Y199404D01*
X157843Y199589D01*
X158725D01*
X158858Y199390D01*
X159185Y199171D01*
X159571Y199095D01*
X162777D01*
X162815Y199087D01*
X166191D01*
X174973Y190305D01*
Y188327D01*
X173917D01*
Y183012D01*
X178535D01*
X178839Y183012D01*
X179339Y183012D01*
X183957D01*
Y184304D01*
X184962D01*
X185059Y184207D01*
X185711Y183937D01*
X186415D01*
X187067Y184207D01*
X187565Y184705D01*
X187835Y185356D01*
Y186061D01*
X187565Y186712D01*
X187067Y187211D01*
X186415Y187480D01*
X185711D01*
X185059Y187211D01*
X184962Y187114D01*
X183957D01*
Y188327D01*
X179339D01*
X179035Y188327D01*
X178535Y188327D01*
X177783D01*
Y190887D01*
X177676Y191425D01*
X177371Y191880D01*
X167766Y201486D01*
X167310Y201790D01*
X166773Y201897D01*
X165885D01*
Y202063D01*
X165809Y202449D01*
X165590Y202775D01*
X165263Y202994D01*
X164878Y203070D01*
D02*
G37*
G36*
X194980Y198760D02*
X194480Y198760D01*
X189862D01*
Y197488D01*
X187239D01*
X187047Y197775D01*
X186720Y197994D01*
X186335Y198071D01*
X181027D01*
X180642Y197994D01*
X180315Y197775D01*
X180208Y197616D01*
X178433D01*
X178208Y197840D01*
X177557Y198110D01*
X176852D01*
X176201Y197840D01*
X175703Y197342D01*
X175433Y196691D01*
Y195986D01*
X175703Y195335D01*
X176201Y194837D01*
X176852Y194567D01*
X177557D01*
X178133Y194806D01*
X180079D01*
X180097Y194717D01*
X180315Y194390D01*
X180642Y194172D01*
X181027Y194095D01*
X186335D01*
X186720Y194172D01*
X187047Y194390D01*
X187239Y194678D01*
X189862D01*
Y193445D01*
X194480D01*
X194783Y193445D01*
X195283Y193445D01*
X199902D01*
Y194697D01*
X201144D01*
X201240Y194600D01*
X201892Y194331D01*
X202596D01*
X203248Y194600D01*
X203746Y195099D01*
X204016Y195750D01*
Y196455D01*
X203746Y197106D01*
X203248Y197604D01*
X202596Y197874D01*
X201892D01*
X201240Y197604D01*
X201144Y197507D01*
X199902D01*
Y198760D01*
X195283D01*
X194980Y198760D01*
D02*
G37*
G36*
X164878Y198287D02*
X163224D01*
Y197083D01*
X166098D01*
X166009Y197531D01*
X165744Y197929D01*
X165347Y198194D01*
X164878Y198287D01*
D02*
G37*
G36*
X161224D02*
X159571D01*
X159102Y198194D01*
X158705Y197929D01*
X158440Y197531D01*
X158351Y197083D01*
X161224D01*
Y198287D01*
D02*
G37*
G36*
X121531D02*
X119878D01*
Y197083D01*
X122752D01*
X122663Y197531D01*
X122397Y197929D01*
X122000Y198194D01*
X121531Y198287D01*
D02*
G37*
G36*
X78185D02*
X76531D01*
Y197083D01*
X79405D01*
X79316Y197531D01*
X79051Y197929D01*
X78654Y198194D01*
X78185Y198287D01*
D02*
G37*
G36*
X117878D02*
X116224D01*
X115756Y198194D01*
X115359Y197929D01*
X115093Y197531D01*
X115004Y197083D01*
X117878D01*
Y198287D01*
D02*
G37*
G36*
X74532D02*
X72878D01*
X72409Y198194D01*
X72012Y197929D01*
X71747Y197531D01*
X71658Y197083D01*
X74532D01*
Y198287D01*
D02*
G37*
G36*
X166098Y195083D02*
X163224D01*
Y193878D01*
X164878D01*
X165347Y193971D01*
X165744Y194237D01*
X166009Y194634D01*
X166098Y195083D01*
D02*
G37*
G36*
X161224D02*
X158351D01*
X158440Y194634D01*
X158705Y194237D01*
X159102Y193971D01*
X159571Y193878D01*
X161224D01*
Y195083D01*
D02*
G37*
G36*
X122752Y195083D02*
X119878D01*
Y193878D01*
X121531D01*
X122000Y193971D01*
X122397Y194237D01*
X122663Y194634D01*
X122752Y195083D01*
D02*
G37*
G36*
X117878D02*
X115004D01*
X115093Y194634D01*
X115359Y194237D01*
X115756Y193971D01*
X116224Y193878D01*
X117878D01*
Y195083D01*
D02*
G37*
G36*
X79405D02*
X76531D01*
Y193878D01*
X78185D01*
X78654Y193971D01*
X79051Y194237D01*
X79316Y194634D01*
X79405Y195083D01*
D02*
G37*
G36*
X74532D02*
X71658D01*
X71747Y194634D01*
X72012Y194237D01*
X72409Y193971D01*
X72878Y193878D01*
X74532D01*
Y195083D01*
D02*
G37*
G36*
X293256Y194081D02*
X292551D01*
X291900Y193811D01*
X291402Y193313D01*
X291132Y192661D01*
Y191957D01*
X291402Y191305D01*
X291764Y190943D01*
X291526Y190706D01*
X291412Y190429D01*
X290070Y189087D01*
X281909D01*
Y189980D01*
X276594D01*
Y185362D01*
X276594Y185059D01*
X276594Y184559D01*
Y179941D01*
X277847D01*
Y174311D01*
X275020D01*
Y172591D01*
X265584Y163156D01*
X265245Y162647D01*
X265125Y162047D01*
Y159921D01*
X264528D01*
Y154803D01*
X265047D01*
Y153169D01*
X264075D01*
Y147854D01*
X268693D01*
X268996Y147854D01*
X269496Y147854D01*
X274114D01*
Y149107D01*
X276791D01*
Y147854D01*
X281409D01*
X281713Y147854D01*
X282213Y147854D01*
X282965D01*
Y139780D01*
X283032Y139446D01*
Y138781D01*
X283301Y138130D01*
X283800Y137632D01*
X284451Y137362D01*
X285156D01*
X285807Y137632D01*
X286305Y138130D01*
X286575Y138781D01*
Y139486D01*
X286305Y140137D01*
X285807Y140636D01*
X285775Y140649D01*
Y147854D01*
X286831D01*
Y153169D01*
X282213D01*
X281909Y153169D01*
X281409Y153169D01*
X276791D01*
Y151917D01*
X274114D01*
Y153169D01*
X273059D01*
Y154803D01*
X274370D01*
Y155957D01*
X275020D01*
Y155374D01*
X283484D01*
Y159311D01*
X275020D01*
Y158767D01*
X274370D01*
Y159921D01*
X270039D01*
Y154803D01*
X270249D01*
Y153523D01*
X269895Y153169D01*
X269193Y153169D01*
X268693Y153169D01*
X268182D01*
Y154803D01*
X268858D01*
Y159921D01*
X268260D01*
Y161398D01*
X274345Y167483D01*
X274807Y167291D01*
Y165161D01*
X278252D01*
Y167342D01*
Y169524D01*
X277039D01*
X276848Y169986D01*
X277237Y170374D01*
X283484D01*
Y174311D01*
X280657D01*
Y179941D01*
X281909D01*
Y184559D01*
X281909Y184862D01*
X281909Y185362D01*
Y185952D01*
X290719D01*
X291319Y186072D01*
X291827Y186411D01*
X293346Y187931D01*
X293380D01*
X294032Y188200D01*
X294530Y188699D01*
X294677Y189053D01*
X295262Y189175D01*
X296673Y187764D01*
Y185362D01*
X296673Y185059D01*
X296673Y184559D01*
Y179941D01*
X297926D01*
Y174311D01*
X295098D01*
Y173412D01*
X294833Y173360D01*
X294324Y173020D01*
X290504Y169199D01*
X290164Y168691D01*
X290045Y168091D01*
Y158879D01*
X290164Y158280D01*
X290504Y157771D01*
X294180Y154094D01*
Y153169D01*
X293287D01*
Y147854D01*
X294082D01*
Y147323D01*
X293386D01*
Y142205D01*
X297716D01*
Y147323D01*
X297217D01*
Y147854D01*
X298209D01*
Y147854D01*
X298406D01*
Y147854D01*
X299859D01*
Y147323D01*
X298898D01*
Y142205D01*
X303228D01*
Y147323D01*
X302267D01*
Y147854D01*
X303327D01*
Y153169D01*
X302070D01*
Y155374D01*
X303563D01*
Y156138D01*
X306909D01*
Y153051D01*
X311527D01*
X311831Y153051D01*
X312331Y153051D01*
X313004D01*
Y148699D01*
X312829Y148523D01*
X312559Y147872D01*
Y147167D01*
X312829Y146516D01*
X313327Y146018D01*
X313978Y145748D01*
X314683D01*
X315334Y146018D01*
X315833Y146516D01*
X316102Y147167D01*
Y147872D01*
X315833Y148523D01*
X315814Y148541D01*
Y153051D01*
X316949D01*
Y158366D01*
X312331D01*
X312028Y158366D01*
X311527Y158366D01*
X308527D01*
X308394Y158455D01*
X307933Y158547D01*
X307933Y158547D01*
X303563D01*
Y159311D01*
X295098D01*
Y158263D01*
X294637Y158072D01*
X293180Y159529D01*
Y165184D01*
X293494Y165394D01*
X294199D01*
X294598Y165559D01*
X295098Y165374D01*
Y165374D01*
X303563D01*
Y165938D01*
X306299D01*
Y164567D01*
X306606D01*
X306738Y164489D01*
X306800Y163893D01*
X306654Y163748D01*
X303563D01*
Y164311D01*
X295098D01*
Y160374D01*
X303563D01*
Y160938D01*
X307008D01*
Y159213D01*
X311339D01*
X311339Y164300D01*
X311742Y164563D01*
X312211Y164539D01*
X312307Y164109D01*
Y162772D01*
X314685D01*
X317063D01*
X317063Y164543D01*
X317553Y164567D01*
X317717D01*
Y170079D01*
X316405D01*
Y170592D01*
X316502Y170689D01*
X316772Y171341D01*
Y172045D01*
X316502Y172696D01*
X316004Y173195D01*
X315352Y173465D01*
X314648D01*
X313996Y173195D01*
X313498Y172696D01*
X313228Y172045D01*
Y171341D01*
X313498Y170689D01*
X313595Y170592D01*
Y170079D01*
X312311D01*
X312205Y170079D01*
X311811D01*
X311705Y170079D01*
X310460D01*
Y170866D01*
X311614D01*
Y175197D01*
X306496D01*
Y170866D01*
X307650D01*
Y170079D01*
X306299D01*
Y168747D01*
X303563D01*
Y169311D01*
X295756D01*
X295549Y169811D01*
X296082Y170344D01*
X298900D01*
X299051Y170374D01*
X303563D01*
Y174311D01*
X300736D01*
Y179941D01*
X301988D01*
Y184559D01*
X301988Y184862D01*
X301988Y185362D01*
Y189980D01*
X298890D01*
X295543Y193328D01*
X295034Y193668D01*
X294434Y193787D01*
X293931D01*
X293907Y193811D01*
X293256Y194081D01*
D02*
G37*
G36*
X409464Y191935D02*
X408249D01*
X407076Y191621D01*
X406024Y191014D01*
X405165Y190155D01*
X404558Y189103D01*
X404244Y187930D01*
Y186716D01*
X404558Y185543D01*
X405165Y184491D01*
X406024Y183632D01*
X407076Y183025D01*
X408249Y182710D01*
X409464D01*
X410637Y183025D01*
X411689Y183632D01*
X412547Y184491D01*
X413154Y185543D01*
X413469Y186716D01*
Y187930D01*
X413154Y189103D01*
X412547Y190155D01*
X411689Y191014D01*
X410637Y191621D01*
X409464Y191935D01*
D02*
G37*
G36*
X369464D02*
X368249D01*
X367076Y191621D01*
X366024Y191014D01*
X365165Y190155D01*
X364558Y189103D01*
X364244Y187930D01*
Y186716D01*
X364558Y185543D01*
X365165Y184491D01*
X366024Y183632D01*
X367076Y183025D01*
X368249Y182710D01*
X369464D01*
X370637Y183025D01*
X371689Y183632D01*
X372547Y184491D01*
X373154Y185543D01*
X373469Y186716D01*
Y187930D01*
X373154Y189103D01*
X372547Y190155D01*
X371689Y191014D01*
X370637Y191621D01*
X369464Y191935D01*
D02*
G37*
G36*
X311827Y180921D02*
X310055D01*
Y179543D01*
X311827D01*
Y180921D01*
D02*
G37*
G36*
X308055D02*
X306283D01*
Y179543D01*
X308055D01*
Y180921D01*
D02*
G37*
G36*
X311827Y177543D02*
X310055D01*
Y176165D01*
X311827D01*
Y177543D01*
D02*
G37*
G36*
X308055D02*
X306283D01*
Y176165D01*
X308055D01*
Y177543D01*
D02*
G37*
G36*
X154762Y181220D02*
X154057D01*
X153564Y181016D01*
X150140D01*
X149540Y180897D01*
X149031Y180557D01*
X146040Y177566D01*
X145700Y177057D01*
X145590Y176507D01*
X145275Y176191D01*
X138683D01*
X138343Y176124D01*
X132616D01*
X132017Y176004D01*
X131508Y175664D01*
X129262Y173418D01*
X128448D01*
Y174311D01*
X123133D01*
Y169693D01*
X123133Y169390D01*
X123133Y168890D01*
Y164272D01*
X124386D01*
Y160768D01*
X121558D01*
Y158818D01*
X112238Y149497D01*
X111934Y149042D01*
X111827Y148504D01*
Y146299D01*
X111066D01*
Y141181D01*
X111669D01*
Y140217D01*
X110614D01*
Y134902D01*
X115232D01*
X115535Y134902D01*
X116035Y134902D01*
X120653D01*
Y136154D01*
X122759D01*
Y134764D01*
X125103D01*
X131906Y127961D01*
X131772Y127636D01*
Y126931D01*
X132041Y126280D01*
X132540Y125782D01*
X133191Y125512D01*
X133896D01*
X134547Y125782D01*
X135045Y126280D01*
X135315Y126931D01*
Y127636D01*
X135045Y128287D01*
X134819Y128514D01*
X134730Y128959D01*
X134425Y129415D01*
X129751Y134089D01*
X129943Y134551D01*
X132814D01*
Y136323D01*
X130436D01*
X127787D01*
X127596Y136244D01*
X127090Y136751D01*
Y139882D01*
X122759D01*
Y138964D01*
X120653D01*
Y140217D01*
X120149D01*
Y141181D01*
X120909D01*
Y142394D01*
X121558D01*
Y141831D01*
X130023D01*
Y145768D01*
X121558D01*
Y145204D01*
X120909D01*
Y146299D01*
X116578D01*
Y141181D01*
X117339D01*
Y140570D01*
X116985Y140217D01*
X115732Y140217D01*
X115232Y140217D01*
X114479D01*
Y141181D01*
X115397D01*
Y146299D01*
X114637D01*
Y147922D01*
X120884Y154169D01*
X121346Y153978D01*
Y151618D01*
X124791D01*
Y153799D01*
Y155980D01*
X123348D01*
X123157Y156442D01*
X123545Y156831D01*
X130023D01*
Y160768D01*
X127196D01*
Y164272D01*
X128448D01*
Y168890D01*
X128448Y169193D01*
X128448Y169693D01*
Y170283D01*
X129911D01*
X130511Y170402D01*
X131019Y170742D01*
X133266Y172988D01*
X138615D01*
X138955Y173056D01*
X143173D01*
Y169693D01*
X143173Y169390D01*
X143173Y168890D01*
Y164272D01*
X144465D01*
Y160768D01*
X141637D01*
Y159417D01*
X140807D01*
X140269Y159310D01*
X139814Y159005D01*
X136920Y156112D01*
X136615Y155656D01*
X136508Y155118D01*
Y147467D01*
X136615Y146929D01*
X136920Y146473D01*
X137890Y145503D01*
Y139862D01*
X136834D01*
Y134547D01*
X136834D01*
X136933Y134331D01*
Y129213D01*
X141263D01*
Y134331D01*
X141674Y134547D01*
X142034D01*
X142444Y134331D01*
Y129213D01*
X146775D01*
Y134331D01*
X146873Y134547D01*
X146873D01*
Y139862D01*
X145818D01*
Y141831D01*
X150102D01*
Y142394D01*
X153448D01*
Y139862D01*
X158354D01*
Y139650D01*
X160027D01*
Y142520D01*
X161027D01*
Y143520D01*
X163700D01*
Y145037D01*
X163700Y145390D01*
X163602Y145849D01*
X163602Y147268D01*
X161224D01*
X158846D01*
Y145496D01*
X158390Y145390D01*
X158354D01*
Y145177D01*
X154765D01*
X154629Y145204D01*
X150102D01*
Y145768D01*
X141637D01*
Y141831D01*
X143008D01*
Y140216D01*
X142654Y139862D01*
X141952Y139862D01*
X141452Y139862D01*
X140700D01*
Y146085D01*
X140593Y146623D01*
X140288Y147079D01*
X139318Y148049D01*
Y151760D01*
X139734Y152037D01*
X139805Y152008D01*
X140510D01*
X141161Y152278D01*
X141637Y152062D01*
Y151831D01*
X150102D01*
Y152394D01*
X152838D01*
Y151063D01*
X153145D01*
X153547Y150827D01*
X153547Y150563D01*
Y149673D01*
X150102D01*
Y150768D01*
X141637D01*
Y146831D01*
X150102D01*
Y146863D01*
X153547D01*
Y145709D01*
X157877D01*
X157877Y150796D01*
X158281Y151059D01*
X158750Y151035D01*
X158846Y150605D01*
X158846Y149268D01*
X161224D01*
X163602D01*
Y151039D01*
X164092Y151063D01*
X164255D01*
Y156575D01*
X163157D01*
X163001Y157067D01*
X163271Y157719D01*
Y158423D01*
X163001Y159074D01*
X162503Y159573D01*
X161852Y159843D01*
X161147D01*
X160496Y159573D01*
X159997Y159074D01*
X159728Y158423D01*
Y157719D01*
X159997Y157067D01*
X159842Y156575D01*
X158850D01*
X158571Y156575D01*
X158153Y156993D01*
Y161102D01*
X153035D01*
Y156772D01*
X152838Y156575D01*
X152838D01*
Y155204D01*
X150102D01*
Y155768D01*
X141637D01*
Y155722D01*
X141137Y155459D01*
X140947Y155560D01*
X140859Y156077D01*
X141389Y156607D01*
X145082D01*
X145620Y156714D01*
X145795Y156831D01*
X150102D01*
Y160768D01*
X147274D01*
Y164272D01*
X148488D01*
Y168890D01*
X148488Y169193D01*
X148488Y169693D01*
Y171435D01*
X150756Y173704D01*
X151096Y174212D01*
X151206Y174762D01*
X151824Y175381D01*
X153770D01*
X154263Y175177D01*
X154968D01*
X155619Y175447D01*
X156117Y175945D01*
X156387Y176596D01*
Y177301D01*
X156117Y177952D01*
X155768Y178302D01*
X155911Y178445D01*
X156181Y179096D01*
Y179801D01*
X155911Y180452D01*
X155413Y180951D01*
X154762Y181220D01*
D02*
G37*
G36*
X202629Y177284D02*
X201925D01*
X201273Y177014D01*
X200775Y176515D01*
X200571Y176023D01*
X197888Y173339D01*
X196165D01*
Y174232D01*
X190850D01*
Y169614D01*
X190850Y169311D01*
X190850Y168811D01*
Y164193D01*
X192102D01*
Y160689D01*
X189275D01*
Y158739D01*
X179955Y149419D01*
X179650Y148963D01*
X179543Y148425D01*
Y146221D01*
X178783D01*
Y141102D01*
X179386D01*
Y140138D01*
X178330D01*
Y134823D01*
X182948D01*
X183251Y134823D01*
X183751Y134823D01*
X188370D01*
Y136075D01*
X190476D01*
Y134685D01*
X191235D01*
Y129291D01*
X191136Y129192D01*
X190866Y128541D01*
Y127837D01*
X191136Y127185D01*
X191634Y126687D01*
X192285Y126417D01*
X192990D01*
X193641Y126687D01*
X194140Y127185D01*
X194409Y127837D01*
Y128541D01*
X194140Y129192D01*
X194044Y129288D01*
Y134685D01*
X194807D01*
Y139803D01*
X190476D01*
Y138885D01*
X188370D01*
Y140138D01*
X187865D01*
Y141102D01*
X188625D01*
Y142315D01*
X189275D01*
Y141752D01*
X197740D01*
Y145689D01*
X189275D01*
Y145125D01*
X188625D01*
Y146221D01*
X184295D01*
Y141102D01*
X185055D01*
Y140491D01*
X184702Y140138D01*
X183448Y140138D01*
X182948Y140138D01*
X182196D01*
Y141102D01*
X183114D01*
Y146221D01*
X182353D01*
Y147843D01*
X188601Y154090D01*
X189062Y153899D01*
Y151539D01*
X192507D01*
Y153720D01*
Y155902D01*
X191065D01*
X190874Y156363D01*
X191262Y156752D01*
X197740D01*
Y160689D01*
X194912D01*
Y164193D01*
X196165D01*
Y168811D01*
X196165Y169114D01*
X196165Y169614D01*
Y170204D01*
X198537D01*
X199137Y170324D01*
X199645Y170663D01*
X201984Y173002D01*
X202475Y172905D01*
X202543Y172740D01*
X203041Y172242D01*
X203692Y171972D01*
X203726D01*
X205035Y170663D01*
X205544Y170324D01*
X206144Y170204D01*
X210536D01*
X210889Y169851D01*
X210889Y169311D01*
X210889Y168811D01*
Y164193D01*
X212181D01*
Y160689D01*
X209354D01*
Y159338D01*
X208760D01*
X208222Y159231D01*
X207766Y158926D01*
X204479Y155639D01*
X204174Y155183D01*
X204067Y154646D01*
Y147546D01*
X204174Y147008D01*
X204479Y146552D01*
X205606Y145425D01*
Y139784D01*
X204551D01*
Y134468D01*
X204551D01*
X204649Y134252D01*
Y129134D01*
X208980D01*
Y134252D01*
X209390Y134468D01*
X209751D01*
X210161Y134252D01*
Y129134D01*
X214492D01*
Y134252D01*
X214590Y134468D01*
X214590D01*
Y139784D01*
X213534D01*
Y141752D01*
X217818D01*
Y142315D01*
X221165D01*
Y139784D01*
X226070D01*
Y139571D01*
X227744D01*
Y142441D01*
X228744D01*
Y143441D01*
X231417D01*
Y144958D01*
X231417Y145311D01*
X231318Y145770D01*
X231318Y147189D01*
X228940D01*
X226562D01*
Y145417D01*
X226106Y145311D01*
X226070D01*
Y145098D01*
X222482D01*
X222346Y145125D01*
X217818D01*
Y145689D01*
X209354D01*
Y141752D01*
X210724D01*
Y140137D01*
X210371Y139784D01*
X209669Y139784D01*
X209169Y139784D01*
X208416D01*
Y146007D01*
X208309Y146544D01*
X208005Y147000D01*
X206877Y148127D01*
Y151654D01*
X207293Y151932D01*
X207482Y151854D01*
X208187D01*
X208838Y152124D01*
X208854Y152139D01*
X209354Y151957D01*
Y151752D01*
X217818D01*
Y152315D01*
X220555D01*
Y150984D01*
X220861D01*
X221263Y150748D01*
X221263Y150484D01*
Y149594D01*
X217818D01*
Y150689D01*
X209354D01*
Y146752D01*
X217818D01*
Y146784D01*
X221263D01*
Y145630D01*
X225594D01*
X225594Y150717D01*
X225997Y150981D01*
X226466Y150956D01*
X226562Y150527D01*
X226562Y149189D01*
X228940D01*
X231318D01*
Y150961D01*
X231808Y150984D01*
X231972D01*
Y156496D01*
X230873D01*
X230718Y156989D01*
X230988Y157640D01*
Y158344D01*
X230718Y158996D01*
X230220Y159494D01*
X229568Y159764D01*
X228864D01*
X228212Y159494D01*
X227714Y158996D01*
X227444Y158344D01*
Y157640D01*
X227714Y156989D01*
X227559Y156496D01*
X226566D01*
X226288Y156496D01*
X225869Y156915D01*
Y161024D01*
X220751D01*
Y156693D01*
X220554Y156496D01*
X220555D01*
Y155125D01*
X217818D01*
Y155689D01*
X209354D01*
Y155160D01*
X208854Y155112D01*
X208838Y155128D01*
X208620Y155218D01*
X208522Y155708D01*
X209342Y156528D01*
X212799D01*
X213336Y156635D01*
X213511Y156752D01*
X217818D01*
Y160689D01*
X214991D01*
Y164193D01*
X216204D01*
Y168811D01*
X216204Y169114D01*
X216204Y169614D01*
Y174232D01*
X210889D01*
Y173339D01*
X206793D01*
X205661Y174471D01*
X205547Y174748D01*
X205048Y175246D01*
X204397Y175516D01*
X204049D01*
Y175864D01*
X203779Y176515D01*
X203280Y177014D01*
X202629Y177284D01*
D02*
G37*
G36*
X98266Y172165D02*
X97561D01*
X96910Y171896D01*
X96412Y171397D01*
X96142Y170746D01*
Y170041D01*
X96412Y169390D01*
X96910Y168892D01*
X97561Y168622D01*
X98266D01*
X98917Y168892D01*
X99415Y169390D01*
X99685Y170041D01*
Y170746D01*
X99415Y171397D01*
X98917Y171896D01*
X98266Y172165D01*
D02*
G37*
G36*
X283697Y169524D02*
X280252D01*
Y168342D01*
X283697D01*
Y169524D01*
D02*
G37*
G36*
X158366Y166827D02*
X156594D01*
Y165449D01*
X158366D01*
Y166827D01*
D02*
G37*
G36*
X154594D02*
X152822D01*
Y165449D01*
X154594D01*
Y166827D01*
D02*
G37*
G36*
X226082Y166748D02*
X224310D01*
Y165370D01*
X226082D01*
Y166748D01*
D02*
G37*
G36*
X222310D02*
X220539D01*
Y165370D01*
X222310D01*
Y166748D01*
D02*
G37*
G36*
X283697Y166342D02*
X280252D01*
Y165161D01*
X283697D01*
Y166342D01*
D02*
G37*
G36*
X158366Y163449D02*
X156594D01*
Y162071D01*
X158366D01*
Y163449D01*
D02*
G37*
G36*
X154594D02*
X152822D01*
Y162071D01*
X154594D01*
Y163449D01*
D02*
G37*
G36*
X226082Y163370D02*
X224310D01*
Y161992D01*
X226082D01*
Y163370D01*
D02*
G37*
G36*
X222310D02*
X220539D01*
Y161992D01*
X222310D01*
Y163370D01*
D02*
G37*
G36*
X45846Y164311D02*
X40138D01*
Y161071D01*
X40138Y160571D01*
X40138Y160071D01*
Y157299D01*
X36299D01*
X35992Y157238D01*
X35732Y157064D01*
X35557Y156803D01*
X35496Y156496D01*
Y125787D01*
X35557Y125480D01*
X35732Y125220D01*
X35992Y125046D01*
X36299Y124985D01*
X49724D01*
X50032Y125046D01*
X50292Y125220D01*
X50293Y125221D01*
X51441D01*
Y127992D01*
X52441D01*
Y128992D01*
X55034D01*
X55185Y129143D01*
X55489Y129599D01*
X55597Y130136D01*
Y130461D01*
X56990D01*
X57686Y130600D01*
X58277Y130994D01*
X58672Y131585D01*
X58811Y132282D01*
Y134079D01*
X55394D01*
X51977D01*
Y132282D01*
X52115Y131585D01*
X52330Y131264D01*
X52063Y130764D01*
X50527D01*
Y147205D01*
X50466Y147512D01*
X50292Y147772D01*
X46236Y151829D01*
Y156496D01*
X46175Y156803D01*
X46001Y157064D01*
X45846Y157167D01*
Y160071D01*
X45847Y160571D01*
X45931Y161036D01*
X46616D01*
X46713Y160939D01*
X47364Y160669D01*
X48069D01*
X48720Y160939D01*
X49218Y161437D01*
X49488Y162089D01*
Y162793D01*
X49218Y163444D01*
X48720Y163943D01*
X48069Y164213D01*
X47364D01*
X46713Y163943D01*
X46616Y163846D01*
X45846D01*
Y164311D01*
D02*
G37*
G36*
X283484Y164311D02*
Y164311D01*
X275020D01*
Y160374D01*
X283484D01*
Y160374D01*
X283888Y160644D01*
X284018Y160591D01*
X284722D01*
X285374Y160860D01*
X285872Y161359D01*
X286142Y162010D01*
Y162715D01*
X285872Y163366D01*
X285374Y163864D01*
X284722Y164134D01*
X284018D01*
X283852Y164065D01*
X283484Y164311D01*
D02*
G37*
G36*
X317063Y160772D02*
X315685D01*
Y159000D01*
X317063D01*
Y160772D01*
D02*
G37*
G36*
X313685D02*
X312307D01*
Y159000D01*
X313685D01*
Y160772D01*
D02*
G37*
G36*
X11969Y256417D02*
X7244D01*
Y251693D01*
X8201D01*
Y241240D01*
X6949D01*
Y236622D01*
X6949Y236319D01*
X6949Y235819D01*
Y231201D01*
X8201D01*
Y159762D01*
X8104Y159665D01*
X7835Y159014D01*
Y158309D01*
X8104Y157658D01*
X8603Y157159D01*
X9254Y156890D01*
X9959D01*
X10610Y157159D01*
X11108Y157658D01*
X11378Y158309D01*
Y159014D01*
X11108Y159665D01*
X11011Y159762D01*
Y231201D01*
X12264D01*
Y235819D01*
X12264Y236122D01*
X12264Y236622D01*
Y241240D01*
X11011D01*
Y251693D01*
X11969D01*
Y256417D01*
D02*
G37*
G36*
X332875Y178479D02*
X332721Y178448D01*
X332570Y178419D01*
X332569Y178418D01*
X332568Y178418D01*
X332438Y178331D01*
X332308Y178246D01*
X332308Y178245D01*
X332307Y178245D01*
X331953Y177892D01*
X331953Y177891D01*
X331952Y177891D01*
X331865Y177760D01*
X331779Y177631D01*
X331778Y177631D01*
X331778Y177630D01*
X331747Y177476D01*
X331717Y177324D01*
X331717Y177324D01*
X331717Y177323D01*
Y157726D01*
X331666Y157468D01*
X331727Y157161D01*
X331934Y156661D01*
X332108Y156401D01*
X332368Y156227D01*
X332676Y156166D01*
X395276D01*
X395583Y156227D01*
X395843Y156401D01*
X396017Y156661D01*
X396078Y156968D01*
Y177441D01*
X396048Y177594D01*
X396019Y177745D01*
X396018Y177747D01*
X396017Y177748D01*
X395931Y177877D01*
X395845Y178006D01*
X395844Y178007D01*
X395843Y178009D01*
X395714Y178095D01*
X395586Y178182D01*
X395584Y178182D01*
X395583Y178183D01*
X395430Y178213D01*
X395279Y178244D01*
X332877Y178479D01*
X332876Y178479D01*
X332875Y178479D01*
D02*
G37*
G36*
X130236Y155980D02*
X126791D01*
Y154799D01*
X130236D01*
Y155980D01*
D02*
G37*
G36*
X197952Y155902D02*
X194507D01*
Y154720D01*
X197952D01*
Y155902D01*
D02*
G37*
G36*
X353424Y152140D02*
X353423Y152140D01*
X353423Y152140D01*
X329761Y152063D01*
X329608Y152032D01*
X329457Y152002D01*
X329455Y152001D01*
X329454Y152000D01*
X329325Y151913D01*
X329196Y151828D01*
X329195Y151826D01*
X329194Y151826D01*
X329108Y151696D01*
X329022Y151567D01*
X329022Y151566D01*
X329021Y151565D01*
X328991Y151412D01*
X328961Y151260D01*
Y123779D01*
Y122953D01*
X329022Y122645D01*
X329196Y122385D01*
X329457Y122211D01*
X329764Y122150D01*
X332089D01*
X332141Y122160D01*
X332195Y122157D01*
X332669Y122220D01*
X332768Y122254D01*
X332870Y122274D01*
X332915Y122304D01*
X332965Y122321D01*
X333044Y122390D01*
X333131Y122448D01*
X333160Y122493D01*
X333201Y122528D01*
X333247Y122622D01*
X333305Y122708D01*
X333315Y122761D01*
X333339Y122809D01*
X333345Y122913D01*
X333366Y123016D01*
Y123228D01*
X340256D01*
Y123016D01*
X340277Y122913D01*
X340283Y122809D01*
X340307Y122761D01*
X340317Y122708D01*
X340375Y122622D01*
X340422Y122528D01*
X340462Y122493D01*
X340491Y122448D01*
X340578Y122390D01*
X340657Y122321D01*
X340707Y122304D01*
X340752Y122274D01*
X340854Y122254D01*
X340953Y122220D01*
X341427Y122157D01*
X341480Y122160D01*
X341533Y122150D01*
X353780D01*
X354087Y122211D01*
X354347Y122385D01*
X354521Y122645D01*
X354582Y122953D01*
Y150984D01*
X354582Y150985D01*
X354582Y150986D01*
X354552Y151138D01*
X354521Y151292D01*
X354521Y151292D01*
X354521Y151293D01*
X354435Y151420D01*
X354347Y151552D01*
X354347Y151552D01*
X354346Y151553D01*
X353992Y151906D01*
X353992Y151906D01*
X353991Y151907D01*
X353858Y151995D01*
X353731Y152080D01*
X353731Y152080D01*
X353730Y152080D01*
X353576Y152110D01*
X353424Y152140D01*
D02*
G37*
G36*
X130236Y152799D02*
X126791D01*
Y151618D01*
X130236D01*
Y152799D01*
D02*
G37*
G36*
X197952Y152720D02*
X194507D01*
Y151539D01*
X197952D01*
Y152720D01*
D02*
G37*
G36*
X131858Y151478D02*
X131153D01*
X130502Y151208D01*
X130254Y150960D01*
X129737D01*
X129199Y150853D01*
X129112Y150795D01*
X126381D01*
X126246Y150768D01*
X121558D01*
Y146831D01*
X130023D01*
Y148075D01*
X130109Y148092D01*
X130197Y148150D01*
X130632D01*
X131153Y147934D01*
X131858D01*
X132509Y148204D01*
X133008Y148702D01*
X133277Y149354D01*
Y150058D01*
X133008Y150709D01*
X132509Y151208D01*
X131858Y151478D01*
D02*
G37*
G36*
X197740Y150689D02*
Y150689D01*
X189275D01*
Y146752D01*
X197740D01*
Y146772D01*
X198155Y147050D01*
X198352Y146968D01*
X199057D01*
X199708Y147238D01*
X200206Y147737D01*
X200476Y148388D01*
Y149093D01*
X200206Y149744D01*
X199708Y150242D01*
X199057Y150512D01*
X198352D01*
X198137Y150423D01*
X197740Y150689D01*
D02*
G37*
G36*
X56990Y150326D02*
X56394D01*
Y146709D01*
X58811D01*
Y148505D01*
X58672Y149202D01*
X58277Y149793D01*
X57686Y150188D01*
X56990Y150326D01*
D02*
G37*
G36*
X65220Y149760D02*
X62563D01*
Y146709D01*
X65220D01*
Y149760D01*
D02*
G37*
G36*
X409464Y151935D02*
X408249D01*
X407076Y151621D01*
X406024Y151014D01*
X405165Y150155D01*
X404558Y149103D01*
X404244Y147930D01*
Y146716D01*
X404558Y145543D01*
X405165Y144491D01*
X406024Y143632D01*
X407076Y143025D01*
X408249Y142710D01*
X409464D01*
X410637Y143025D01*
X411689Y143632D01*
X412547Y144491D01*
X413154Y145543D01*
X413469Y146716D01*
Y147930D01*
X413154Y149103D01*
X412547Y150155D01*
X411689Y151014D01*
X410637Y151621D01*
X409464Y151935D01*
D02*
G37*
G36*
X369464D02*
X368249D01*
X367076Y151621D01*
X366024Y151014D01*
X365165Y150155D01*
X364558Y149103D01*
X364244Y147930D01*
Y146716D01*
X364558Y145543D01*
X365165Y144491D01*
X366024Y143632D01*
X367076Y143025D01*
X368249Y142710D01*
X369464D01*
X370637Y143025D01*
X371689Y143632D01*
X372547Y144491D01*
X373154Y145543D01*
X373469Y146716D01*
Y147930D01*
X373154Y149103D01*
X372547Y150155D01*
X371689Y151014D01*
X370637Y151621D01*
X369464Y151935D01*
D02*
G37*
G36*
X65220Y144709D02*
X62563D01*
Y141657D01*
X65220D01*
Y144709D01*
D02*
G37*
G36*
X58811D02*
X56394D01*
Y141091D01*
X56990D01*
X57686Y141230D01*
X58277Y141624D01*
X58672Y142215D01*
X58811Y142912D01*
Y144709D01*
D02*
G37*
G36*
X54394D02*
X51977D01*
Y142912D01*
X52115Y142215D01*
X52510Y141624D01*
X53101Y141230D01*
X53798Y141091D01*
X54394D01*
Y144709D01*
D02*
G37*
G36*
X163700Y141520D02*
X162027D01*
Y139650D01*
X163700D01*
Y141520D01*
D02*
G37*
G36*
X231417Y141441D02*
X229744D01*
Y139571D01*
X231417D01*
Y141441D01*
D02*
G37*
G36*
X132814Y140094D02*
X131436D01*
Y138323D01*
X132814D01*
Y140094D01*
D02*
G37*
G36*
X129436D02*
X128059D01*
Y138323D01*
X129436D01*
Y140094D01*
D02*
G37*
G36*
X200531Y140016D02*
X199153D01*
Y138244D01*
X200531D01*
Y140016D01*
D02*
G37*
G36*
X197153D02*
X195775D01*
Y138244D01*
X197153D01*
Y140016D01*
D02*
G37*
G36*
X56990Y139696D02*
X56394D01*
Y136079D01*
X58811D01*
Y137875D01*
X58672Y138572D01*
X58277Y139163D01*
X57686Y139558D01*
X56990Y139696D01*
D02*
G37*
G36*
X65220Y139130D02*
X62563D01*
Y136079D01*
X65220D01*
Y139130D01*
D02*
G37*
G36*
X54394Y139696D02*
X53798D01*
X53101Y139558D01*
X52510Y139163D01*
X52115Y138572D01*
X51977Y137875D01*
Y136079D01*
X54394D01*
Y139696D01*
D02*
G37*
G36*
X277776Y138484D02*
X272461D01*
Y137591D01*
X270501D01*
X269901Y137472D01*
X269393Y137132D01*
X267746Y135485D01*
X264694D01*
X264201Y135689D01*
X263496D01*
X263458Y135673D01*
X263104Y136027D01*
X263120Y136065D01*
Y136770D01*
X262850Y137421D01*
X262352Y137919D01*
X261701Y138189D01*
X260996D01*
X260503Y137985D01*
X260157D01*
X259557Y137865D01*
X259147Y137591D01*
X257736D01*
Y138484D01*
X252421D01*
Y133866D01*
X252421Y133563D01*
X252421Y133063D01*
Y128445D01*
X253634D01*
Y124941D01*
X250807D01*
Y123221D01*
X241372Y113786D01*
X241032Y113277D01*
X240913Y112677D01*
Y110473D01*
X240315D01*
Y105354D01*
X240834D01*
Y104390D01*
X239862D01*
Y99075D01*
X244480D01*
X244783Y99075D01*
X245284Y99075D01*
X249902D01*
Y100327D01*
X252008D01*
Y99173D01*
X252690D01*
Y93305D01*
X252593Y93208D01*
X252323Y92557D01*
Y91852D01*
X252593Y91201D01*
X253091Y90703D01*
X253742Y90433D01*
X254447D01*
X255098Y90703D01*
X255596Y91201D01*
X255866Y91852D01*
Y92557D01*
X255596Y93208D01*
X255499Y93305D01*
Y99173D01*
X256339D01*
Y104291D01*
X252008D01*
Y103137D01*
X249902D01*
Y104390D01*
X248846D01*
Y105354D01*
X250157D01*
Y106508D01*
X250807D01*
Y106004D01*
X259272D01*
Y109941D01*
X250807D01*
Y109318D01*
X250157D01*
Y110473D01*
X245827D01*
Y105354D01*
X246036D01*
Y104743D01*
X245682Y104390D01*
X244980Y104390D01*
X244480Y104390D01*
X243969D01*
Y105354D01*
X244646D01*
Y110473D01*
X244048D01*
Y112028D01*
X250132Y118113D01*
X250594Y117921D01*
Y115791D01*
X254039D01*
Y117973D01*
Y120153D01*
X252827D01*
X252635Y120615D01*
X253024Y121004D01*
X259272D01*
Y124941D01*
X256444D01*
Y128445D01*
X257736D01*
Y133063D01*
X257736Y133366D01*
X257736Y133866D01*
Y134456D01*
X259763D01*
X260363Y134575D01*
X260670Y134781D01*
X260996Y134646D01*
X261701D01*
X261739Y134661D01*
X262093Y134308D01*
X262077Y134270D01*
Y133565D01*
X262347Y132914D01*
X262845Y132415D01*
X263496Y132146D01*
X264201D01*
X264694Y132350D01*
X268395D01*
X268995Y132469D01*
X269503Y132809D01*
X271151Y134456D01*
X272107D01*
X272461Y134102D01*
X272461Y133563D01*
X272461Y133063D01*
Y128445D01*
X273713D01*
Y124941D01*
X270886D01*
Y124041D01*
X270625Y123990D01*
X270116Y123650D01*
X266299Y119833D01*
X265960Y119324D01*
X265840Y118724D01*
Y109501D01*
X265960Y108901D01*
X266299Y108393D01*
X269535Y105157D01*
Y104035D01*
X268642D01*
Y98721D01*
X268642D01*
X268740Y98543D01*
Y93425D01*
X273071D01*
Y98543D01*
X273127Y98567D01*
X273563Y98721D01*
X273760D01*
X274196Y98567D01*
X274252Y98543D01*
Y93425D01*
X278583D01*
Y98543D01*
X278681Y98721D01*
X278681D01*
Y104035D01*
X277425D01*
Y106004D01*
X279350D01*
Y106768D01*
X282776D01*
Y103839D01*
X287681D01*
Y103626D01*
X289354D01*
Y106496D01*
X290354D01*
Y107496D01*
X293028D01*
Y109210D01*
X293028Y109366D01*
X292929Y109825D01*
X292929Y111441D01*
X290551D01*
X288173D01*
Y109866D01*
X288173Y109669D01*
X287799Y109366D01*
X287681D01*
Y109153D01*
X284073D01*
X283957Y109177D01*
X283957Y109177D01*
X279350D01*
Y109941D01*
X270886D01*
Y108893D01*
X270424Y108702D01*
X268975Y110150D01*
Y115817D01*
X269290Y116027D01*
X269994D01*
X270386Y116189D01*
X270886Y116004D01*
Y116004D01*
X279350D01*
Y116568D01*
X282087D01*
Y115236D01*
X282472D01*
X282528Y115203D01*
X282660Y114563D01*
X282533Y114377D01*
X279350D01*
Y114941D01*
X270886D01*
Y111004D01*
X279350D01*
Y111567D01*
X282874D01*
Y109882D01*
X287205D01*
X287205Y114854D01*
X287625Y115173D01*
X288056Y115087D01*
X288173Y114811D01*
Y113441D01*
X290551D01*
X292929D01*
Y115213D01*
X293419Y115236D01*
X293504D01*
Y116000D01*
X293920Y116277D01*
X294057Y116220D01*
X294762D01*
X295413Y116490D01*
X295911Y116989D01*
X296181Y117640D01*
Y118344D01*
X295911Y118996D01*
X295413Y119494D01*
X294762Y119764D01*
X294057D01*
X293920Y119707D01*
X293504Y119985D01*
Y120748D01*
X288098D01*
X287820Y120748D01*
X287402Y121167D01*
Y125276D01*
X282283D01*
Y120945D01*
X282087Y120748D01*
X282087D01*
Y119377D01*
X279350D01*
Y119941D01*
X271548D01*
X271341Y120441D01*
X271874Y120974D01*
X274687D01*
X274838Y121004D01*
X279350D01*
Y124941D01*
X276523D01*
Y128445D01*
X277776D01*
Y133063D01*
X277776Y133366D01*
X277776Y133866D01*
Y138484D01*
D02*
G37*
G36*
X200531Y136244D02*
X199153D01*
Y134473D01*
X200531D01*
Y136244D01*
D02*
G37*
G36*
X197153D02*
X195775D01*
Y134473D01*
X197153D01*
Y136244D01*
D02*
G37*
G36*
X65220Y134079D02*
X62563D01*
Y131027D01*
X65220D01*
Y134079D01*
D02*
G37*
G36*
X284842Y132822D02*
X284305Y132715D01*
X283849Y132411D01*
X283544Y131955D01*
X283438Y131417D01*
Y131000D01*
X282071D01*
Y129622D01*
X287614D01*
Y131000D01*
X286247D01*
Y131417D01*
X286140Y131955D01*
X285836Y132411D01*
X285380Y132715D01*
X284842Y132822D01*
D02*
G37*
G36*
X287614Y127622D02*
X285842D01*
Y126244D01*
X287614D01*
Y127622D01*
D02*
G37*
G36*
X283842D02*
X282071D01*
Y126244D01*
X283842D01*
Y127622D01*
D02*
G37*
G36*
X54819Y126992D02*
X53441D01*
Y125221D01*
X54819D01*
Y126992D01*
D02*
G37*
G36*
X409466Y132880D02*
X408251D01*
X407078Y132566D01*
X406026Y131959D01*
X405167Y131100D01*
X404560Y130048D01*
X404246Y128875D01*
Y127661D01*
X404560Y126487D01*
X405167Y125436D01*
X406026Y124577D01*
X407078Y123970D01*
X408251Y123655D01*
X409466D01*
X410639Y123970D01*
X411690Y124577D01*
X412549Y125436D01*
X413156Y126487D01*
X413471Y127661D01*
Y128875D01*
X413156Y130048D01*
X412549Y131100D01*
X411690Y131959D01*
X410639Y132566D01*
X409466Y132880D01*
D02*
G37*
G36*
X369465D02*
X368251D01*
X367078Y132566D01*
X366026Y131959D01*
X365167Y131100D01*
X364560Y130048D01*
X364246Y128875D01*
Y127661D01*
X364560Y126487D01*
X365167Y125436D01*
X366026Y124577D01*
X367078Y123970D01*
X368251Y123655D01*
X369465D01*
X370639Y123970D01*
X371690Y124577D01*
X372549Y125436D01*
X373156Y126487D01*
X373471Y127661D01*
Y128875D01*
X373156Y130048D01*
X372549Y131100D01*
X371690Y131959D01*
X370639Y132566D01*
X369465Y132880D01*
D02*
G37*
G36*
X311140Y122677D02*
X310435D01*
X309784Y122407D01*
X309285Y121909D01*
X309016Y121258D01*
Y120553D01*
X309285Y119902D01*
X309784Y119404D01*
X310435Y119134D01*
X310451D01*
Y118544D01*
X310720Y117893D01*
X311219Y117395D01*
X311870Y117125D01*
X312575D01*
X313226Y117395D01*
X313724Y117893D01*
X313994Y118544D01*
Y119249D01*
X313724Y119900D01*
X313226Y120399D01*
X312575Y120668D01*
X312559D01*
Y121258D01*
X312289Y121909D01*
X311791Y122407D01*
X311140Y122677D01*
D02*
G37*
G36*
X259484Y120153D02*
X256039D01*
Y117973D01*
Y115791D01*
X259484D01*
Y116578D01*
X260306D01*
X260843Y116685D01*
X261299Y116990D01*
X261604Y117445D01*
X261711Y117983D01*
X261604Y118521D01*
X261299Y118976D01*
X260843Y119281D01*
X260306Y119388D01*
X259484D01*
Y120153D01*
D02*
G37*
G36*
X259272Y114941D02*
Y114941D01*
X250807D01*
Y111004D01*
X259272D01*
Y111004D01*
X259640Y111250D01*
X259805Y111181D01*
X260510D01*
X261161Y111451D01*
X261659Y111949D01*
X261929Y112600D01*
Y113305D01*
X261659Y113956D01*
X261161Y114455D01*
X260510Y114724D01*
X259805D01*
X259676Y114671D01*
X259272Y114941D01*
D02*
G37*
G36*
X345158Y121315D02*
X327953D01*
X327798Y121284D01*
X327647Y121254D01*
X327646Y121254D01*
X327645Y121254D01*
X327515Y121166D01*
X327386Y121080D01*
X327385Y121080D01*
X327385Y121080D01*
X327298Y120949D01*
X327211Y120820D01*
X327211Y120819D01*
X327211Y120819D01*
X327181Y120666D01*
X327150Y120513D01*
X327132Y107373D01*
X327132Y107372D01*
X327132Y107372D01*
X327162Y107217D01*
X327192Y107065D01*
X327192Y107065D01*
X327192Y107065D01*
X327277Y106938D01*
X327366Y106805D01*
X327366Y106805D01*
X327366Y106804D01*
X327808Y106362D01*
X327809Y106362D01*
X327809Y106361D01*
X327934Y106278D01*
X328069Y106188D01*
X328069Y106187D01*
X328069Y106187D01*
X328218Y106158D01*
X328376Y106126D01*
X328376Y106126D01*
X328376Y106126D01*
X345197D01*
X345504Y106187D01*
X345764Y106361D01*
X345939Y106622D01*
X346000Y106929D01*
Y120472D01*
X346000Y120472D01*
X345939Y120780D01*
X345764Y121040D01*
X345764Y121040D01*
X345725Y121080D01*
X345465Y121254D01*
X345158Y121315D01*
D02*
G37*
G36*
X293028Y105496D02*
X291354D01*
Y103626D01*
X293028D01*
Y105496D01*
D02*
G37*
G36*
X262063Y104504D02*
X260685D01*
Y102732D01*
X262063D01*
Y104504D01*
D02*
G37*
G36*
X258685D02*
X257307D01*
Y102732D01*
X258685D01*
Y104504D01*
D02*
G37*
G36*
X262063Y100732D02*
X260685D01*
Y98961D01*
X262063D01*
Y100732D01*
D02*
G37*
G36*
X258685D02*
X257307D01*
Y98961D01*
X258685D01*
Y100732D01*
D02*
G37*
G36*
X227850Y99740D02*
X226079D01*
Y98362D01*
X227850D01*
Y99740D01*
D02*
G37*
G36*
X224079D02*
X222307D01*
Y98362D01*
X224079D01*
Y99740D01*
D02*
G37*
G36*
X227850Y96362D02*
X226079D01*
Y94984D01*
X227850D01*
Y96362D01*
D02*
G37*
G36*
X224079D02*
X222307D01*
Y94984D01*
X224079D01*
Y96362D01*
D02*
G37*
G36*
X114091Y92043D02*
X112417D01*
Y90173D01*
X114091D01*
Y92043D01*
D02*
G37*
G36*
X199721Y88382D02*
X196276D01*
Y87201D01*
X199721D01*
Y88382D01*
D02*
G37*
G36*
X21024Y256417D02*
X16299D01*
Y251693D01*
X17256D01*
Y241240D01*
X16004D01*
Y236622D01*
X16004Y236319D01*
X16004Y235819D01*
Y231201D01*
X17256D01*
Y132897D01*
X17363Y132359D01*
X17668Y131903D01*
X32533Y117038D01*
X32989Y116734D01*
X33527Y116627D01*
X111465D01*
X140134Y87958D01*
X139943Y87496D01*
X136850D01*
X136543Y87435D01*
X136283Y87261D01*
X136109Y87000D01*
X136048Y86693D01*
Y86582D01*
X135548Y86375D01*
X130489Y91434D01*
X130228Y91608D01*
X129921Y91669D01*
X121772D01*
X121464Y91608D01*
X121204Y91434D01*
X121114Y91299D01*
X117441D01*
Y88168D01*
X115857Y86584D01*
X115552Y86128D01*
X115445Y85591D01*
Y84114D01*
X113996D01*
Y80492D01*
X113961Y80315D01*
Y79909D01*
X112754D01*
X112657Y80006D01*
X112006Y80276D01*
X111301D01*
X110650Y80006D01*
X110152Y79507D01*
X109968Y79065D01*
X109468Y79165D01*
X109468Y80374D01*
X109468Y80874D01*
Y84114D01*
X107704D01*
Y86516D01*
X108744D01*
Y86303D01*
X110417D01*
Y89173D01*
Y92043D01*
X108744D01*
Y91831D01*
X103839D01*
Y90578D01*
X101752D01*
Y91634D01*
X96437D01*
Y90578D01*
X95256D01*
Y91634D01*
X90026D01*
X89941Y91634D01*
X89941Y91634D01*
X89567Y91535D01*
X89567Y91535D01*
X84449D01*
Y87205D01*
X89567D01*
X89941Y86901D01*
Y86328D01*
X89567Y86024D01*
X89441Y86024D01*
X84449D01*
Y81693D01*
X86154D01*
Y80864D01*
X86057Y80767D01*
X85787Y80116D01*
Y79411D01*
X86057Y78760D01*
X86555Y78262D01*
X87207Y77992D01*
X87911D01*
X88563Y78262D01*
X89061Y78760D01*
X89331Y79411D01*
Y80116D01*
X89061Y80767D01*
X88982Y80847D01*
Y81357D01*
X89318Y81693D01*
X89482Y81693D01*
X89941Y81595D01*
X90026Y81595D01*
X95256D01*
Y82650D01*
X96437D01*
Y81595D01*
X97689D01*
Y76063D01*
X97796Y75525D01*
X98101Y75070D01*
X100708Y72462D01*
X100723Y72300D01*
X100713Y72248D01*
X100576Y71887D01*
X100491Y71842D01*
X100398Y71767D01*
X100299Y71700D01*
X100277Y71668D01*
X100248Y71644D01*
X100191Y71539D01*
X100124Y71440D01*
X100117Y71402D01*
X100099Y71369D01*
X100087Y71250D01*
X100063Y71133D01*
Y45551D01*
X100124Y45244D01*
X100299Y44984D01*
X100559Y44809D01*
X100866Y44748D01*
X113307D01*
X113614Y44809D01*
X113875Y44984D01*
X113928Y45063D01*
X115102D01*
Y47835D01*
X116102D01*
Y48835D01*
X118480D01*
Y50382D01*
X120612D01*
X121309Y50521D01*
X121899Y50916D01*
X122294Y51507D01*
X122433Y52203D01*
Y54000D01*
X119016D01*
X115599D01*
Y52271D01*
X115109Y51781D01*
X114804Y51325D01*
X114697Y50787D01*
Y50606D01*
X114110D01*
Y66969D01*
X114049Y67276D01*
X113875Y67536D01*
X109819Y71592D01*
Y76260D01*
X109757Y76567D01*
X109583Y76828D01*
X109468Y76904D01*
Y77843D01*
X109968Y77942D01*
X110152Y77500D01*
X110650Y77002D01*
X111301Y76732D01*
X112006D01*
X112657Y77002D01*
X112754Y77099D01*
X113388D01*
X113784Y76846D01*
Y75764D01*
X116850D01*
Y74764D01*
X117850D01*
Y72681D01*
X117975D01*
X118032Y72670D01*
X118088Y72681D01*
X119917D01*
Y74633D01*
X120379Y74824D01*
X123802Y71401D01*
X124063Y71227D01*
X124370Y71166D01*
X133120D01*
X133246Y71191D01*
X133276Y71171D01*
X133489Y70726D01*
X133054Y70292D01*
X132880Y70032D01*
X132819Y69724D01*
Y69681D01*
X130842D01*
Y65630D01*
Y61579D01*
X132819D01*
Y59051D01*
X130842D01*
Y55000D01*
Y50949D01*
X132819D01*
Y13483D01*
X132819Y13482D01*
X132819Y13482D01*
X132850Y13328D01*
X132880Y13175D01*
X132881Y13175D01*
X132881Y13175D01*
X132966Y13047D01*
X133054Y12915D01*
X133055Y12915D01*
X133055Y12914D01*
X133409Y12561D01*
X133409Y12561D01*
X133409Y12561D01*
X133540Y12474D01*
X133669Y12387D01*
X133670Y12387D01*
X133670Y12387D01*
X133825Y12357D01*
X133977Y12327D01*
X133977Y12327D01*
X133977Y12327D01*
X137444Y12333D01*
X137547Y12354D01*
X137651Y12361D01*
X137699Y12385D01*
X137751Y12395D01*
X137838Y12454D01*
X137932Y12500D01*
X137967Y12540D01*
X137993Y12558D01*
X138056Y12584D01*
X138294Y12622D01*
X138533Y12585D01*
X138590Y12562D01*
X138601Y12556D01*
X138622Y12542D01*
X138657Y12502D01*
X138751Y12456D01*
X138839Y12397D01*
X138891Y12387D01*
X138938Y12364D01*
X139043Y12357D01*
X139147Y12337D01*
X153387Y12365D01*
X153492Y12386D01*
X156931D01*
X157034Y12407D01*
X157139Y12414D01*
X157186Y12437D01*
X157238Y12447D01*
X157325Y12506D01*
X157419Y12552D01*
X157454Y12592D01*
X157498Y12621D01*
X157557Y12709D01*
X157626Y12788D01*
X157643Y12838D01*
X157672Y12882D01*
X157693Y12985D01*
X157727Y13084D01*
X158218Y13084D01*
X158252Y12985D01*
X158272Y12882D01*
X158302Y12838D01*
X158319Y12788D01*
X158388Y12709D01*
X158447Y12621D01*
X158491Y12592D01*
X158525Y12552D01*
X158620Y12506D01*
X158707Y12447D01*
X158759Y12437D01*
X158806Y12414D01*
X158911Y12407D01*
X159014Y12386D01*
X162913D01*
X163221Y12447D01*
X163481Y12621D01*
X163655Y12882D01*
X163716Y13189D01*
Y16434D01*
X164216Y16499D01*
X164330Y16076D01*
X164822Y15223D01*
X165518Y14527D01*
X166371Y14034D01*
X167323Y13780D01*
X168307D01*
X169259Y14034D01*
X170111Y14527D01*
X170808Y15223D01*
X171300Y16076D01*
X171555Y17027D01*
Y18012D01*
X171300Y18963D01*
X170808Y19816D01*
X170111Y20513D01*
X169259Y21005D01*
X168307Y21260D01*
X167323D01*
X166371Y21005D01*
X165518Y20513D01*
X164822Y19816D01*
X164330Y18963D01*
X164216Y18540D01*
X163716Y18606D01*
Y25197D01*
X163655Y25504D01*
X163481Y25765D01*
X163481Y25765D01*
X154189Y35057D01*
Y84409D01*
X154128Y84717D01*
X153954Y84977D01*
X151670Y87261D01*
X151410Y87435D01*
X151102Y87496D01*
X144570D01*
X113041Y119025D01*
X112585Y119330D01*
X112047Y119436D01*
X34108D01*
X20066Y133479D01*
Y231201D01*
X21319D01*
Y235819D01*
X21319Y236122D01*
X21319Y236622D01*
Y241240D01*
X20066D01*
Y251693D01*
X21024D01*
Y256417D01*
D02*
G37*
G36*
X114091Y88173D02*
X112417D01*
Y86303D01*
X114091D01*
Y88173D01*
D02*
G37*
G36*
X204417Y111653D02*
X203713D01*
X203061Y111384D01*
X202563Y110886D01*
X202359Y110393D01*
X198433Y106467D01*
X197933Y106674D01*
Y106870D01*
X192618D01*
Y102252D01*
X192618Y101949D01*
X192618Y101449D01*
Y96831D01*
X193871D01*
Y93169D01*
X191043D01*
Y91449D01*
X181608Y82014D01*
X181268Y81505D01*
X181149Y80905D01*
Y78740D01*
X180551D01*
Y73622D01*
X181070D01*
Y71988D01*
X180098D01*
Y66673D01*
X184716D01*
X185020Y66673D01*
X185520Y66673D01*
X190138D01*
Y67926D01*
X192815D01*
Y66673D01*
X197433D01*
X197736Y66673D01*
X198241Y66673D01*
X198595Y66320D01*
Y61507D01*
X197203D01*
X196589Y61385D01*
X196069Y61037D01*
X195721Y60517D01*
X195599Y59903D01*
Y59712D01*
X190138D01*
Y61004D01*
X185520D01*
X185216Y61004D01*
X184716Y61004D01*
X180098D01*
Y59751D01*
X178817D01*
X178720Y59848D01*
X178069Y60118D01*
X177364D01*
X176713Y59848D01*
X176215Y59350D01*
X175945Y58699D01*
Y57994D01*
X176215Y57343D01*
X176713Y56845D01*
X177364Y56575D01*
X178069D01*
X178720Y56845D01*
X178817Y56941D01*
X180098D01*
Y55689D01*
X184716D01*
X185020Y55689D01*
X185520Y55689D01*
X190138D01*
Y56902D01*
X195599D01*
Y56711D01*
X195721Y56097D01*
X196069Y55577D01*
X196589Y55229D01*
X197203Y55107D01*
X198595D01*
Y54020D01*
X198701Y53489D01*
Y52876D01*
X198970Y52225D01*
X199469Y51726D01*
X200120Y51457D01*
X200825D01*
X201476Y51726D01*
X201974Y52225D01*
X202244Y52876D01*
Y53581D01*
X201974Y54232D01*
X201599Y54607D01*
X201774Y55107D01*
X202797D01*
X203411Y55229D01*
X203931Y55577D01*
X204279Y56097D01*
X204401Y56711D01*
Y59903D01*
X204279Y60517D01*
X203931Y61037D01*
X203411Y61385D01*
X202797Y61507D01*
X201405D01*
Y66673D01*
X202854D01*
Y71988D01*
X198236D01*
X197933Y71988D01*
X197433Y71988D01*
X192815D01*
Y70736D01*
X190138D01*
Y71988D01*
X189358D01*
Y73622D01*
X190394D01*
Y74796D01*
X191043D01*
Y74232D01*
X199508D01*
Y78169D01*
X191043D01*
Y77606D01*
X190394D01*
Y78740D01*
X186063D01*
Y73622D01*
X186548D01*
Y72342D01*
X186194Y71988D01*
X185216Y71988D01*
X184716Y71988D01*
X184205D01*
Y73622D01*
X184882D01*
Y78740D01*
X184284D01*
Y80256D01*
X190369Y86341D01*
X190831Y86150D01*
Y84020D01*
X194276D01*
Y86201D01*
Y88382D01*
X193063D01*
X192872Y88844D01*
X193260Y89232D01*
X199508D01*
Y93169D01*
X196680D01*
Y96831D01*
X197933D01*
Y101449D01*
X197933Y101752D01*
X197933Y102252D01*
Y102842D01*
X198592D01*
X199192Y102961D01*
X199701Y103301D01*
X203772Y107372D01*
X204263Y107275D01*
X204331Y107111D01*
X204829Y106612D01*
X205322Y106408D01*
X208429Y103301D01*
X208938Y102961D01*
X209537Y102842D01*
X212343D01*
X212697Y102488D01*
X212697Y101949D01*
X212697Y101449D01*
Y96831D01*
X213949D01*
Y93169D01*
X211122D01*
Y92337D01*
X210817D01*
X210217Y92218D01*
X209708Y91878D01*
X206055Y88225D01*
X205715Y87716D01*
X205596Y87116D01*
Y73506D01*
X205715Y72906D01*
X206055Y72398D01*
X208681Y69771D01*
Y66837D01*
X208681Y66673D01*
X208681D01*
X208780Y66378D01*
X208780Y66378D01*
Y61520D01*
X208780Y61260D01*
X208379Y61020D01*
X208232D01*
Y59346D01*
X213972D01*
X213972Y60563D01*
Y60629D01*
X213985Y60729D01*
X214023Y60915D01*
X214068Y61002D01*
X214203Y61158D01*
X214213Y61164D01*
X214506Y61260D01*
X214507Y61260D01*
X214729Y61260D01*
X218622D01*
Y66378D01*
X218622Y66378D01*
X218721Y66673D01*
X218721D01*
X218721Y66837D01*
Y71988D01*
X217665D01*
Y73513D01*
X218165Y73715D01*
X218478Y73505D01*
X219016Y73398D01*
X222933D01*
Y72146D01*
X227839D01*
Y71933D01*
X229512D01*
Y74803D01*
X230512D01*
Y75803D01*
X233185D01*
Y77596D01*
X233185Y77673D01*
X233087Y78132D01*
X233087Y78173D01*
Y79827D01*
X230709D01*
X228331D01*
Y78173D01*
X228331Y78055D01*
X228046Y77673D01*
X227839D01*
Y77461D01*
X222933D01*
Y76208D01*
X219598D01*
X219587Y76219D01*
Y78169D01*
X211122D01*
Y74232D01*
X214855D01*
Y72342D01*
X214501Y71988D01*
X213799Y71988D01*
X213299Y71988D01*
X210898D01*
X208731Y74155D01*
Y84209D01*
X209045Y84419D01*
X209750D01*
X210401Y84689D01*
X210503Y84791D01*
X211122D01*
Y84232D01*
X219587D01*
Y84796D01*
X222323D01*
Y83583D01*
X222613D01*
X223031Y83386D01*
X223031Y83106D01*
X222976Y82606D01*
X219587D01*
Y83169D01*
X211122D01*
Y79232D01*
X219587D01*
Y79796D01*
X223031D01*
Y78268D01*
X227362D01*
Y83083D01*
X227362Y83386D01*
X227781Y83583D01*
X227835D01*
X228331Y83573D01*
Y81827D01*
X230709D01*
X233087D01*
Y83583D01*
X233740D01*
Y84379D01*
X234156Y84656D01*
X234372Y84567D01*
X235077D01*
X235728Y84837D01*
X236226Y85335D01*
X236496Y85986D01*
Y86691D01*
X236226Y87342D01*
X235728Y87840D01*
X235077Y88110D01*
X234372D01*
X234156Y88021D01*
X233740Y88298D01*
Y89095D01*
X228335D01*
X228228Y89095D01*
X227835D01*
X227728Y89095D01*
X226484D01*
Y89685D01*
X227638D01*
Y94016D01*
X222520D01*
Y89685D01*
X223674D01*
Y89095D01*
X222323D01*
Y87606D01*
X219587D01*
Y88169D01*
X211595D01*
X211109Y88657D01*
X211109Y88846D01*
X211466Y89202D01*
X214923D01*
X215075Y89232D01*
X219587D01*
Y93169D01*
X216759D01*
Y96831D01*
X218012D01*
Y101449D01*
X218012Y101752D01*
X218012Y102252D01*
Y106870D01*
X212697D01*
Y105977D01*
X210187D01*
X207539Y108625D01*
X207335Y109118D01*
X206836Y109616D01*
X206185Y109886D01*
X205837D01*
Y110234D01*
X205567Y110886D01*
X205068Y111384D01*
X204417Y111653D01*
D02*
G37*
G36*
X199721Y85201D02*
X196276D01*
Y84020D01*
X199721D01*
Y85201D01*
D02*
G37*
G36*
X409466Y92880D02*
X408251D01*
X407078Y92566D01*
X406026Y91959D01*
X405167Y91100D01*
X404560Y90048D01*
X404246Y88875D01*
Y87660D01*
X404560Y86487D01*
X405167Y85436D01*
X406026Y84577D01*
X407078Y83970D01*
X408251Y83655D01*
X409466D01*
X410639Y83970D01*
X411690Y84577D01*
X412549Y85436D01*
X413156Y86487D01*
X413471Y87660D01*
Y88875D01*
X413156Y90048D01*
X412549Y91100D01*
X411690Y91959D01*
X410639Y92566D01*
X409466Y92880D01*
D02*
G37*
G36*
X369465D02*
X368251D01*
X367078Y92566D01*
X366026Y91959D01*
X365167Y91100D01*
X364560Y90048D01*
X364246Y88875D01*
Y87660D01*
X364560Y86487D01*
X365167Y85436D01*
X366026Y84577D01*
X367078Y83970D01*
X368251Y83655D01*
X369465D01*
X370639Y83970D01*
X371690Y84577D01*
X372549Y85436D01*
X373156Y86487D01*
X373471Y87660D01*
Y88875D01*
X373156Y90048D01*
X372549Y91100D01*
X371690Y91959D01*
X370639Y92566D01*
X369465Y92880D01*
D02*
G37*
G36*
X199508Y83169D02*
X191043D01*
Y79232D01*
X199508D01*
Y79232D01*
X199719Y79373D01*
X199726Y79370D01*
X200431D01*
X201082Y79640D01*
X201581Y80138D01*
X201850Y80789D01*
Y81494D01*
X201581Y82145D01*
X201082Y82644D01*
X200431Y82913D01*
X199726D01*
X199508Y83059D01*
Y83169D01*
D02*
G37*
G36*
X321575Y95055D02*
X287047D01*
X286740Y94994D01*
X286480Y94820D01*
X284196Y92536D01*
X284022Y92276D01*
X283961Y91969D01*
Y85215D01*
X274176Y75430D01*
X273734Y74854D01*
X273457Y74184D01*
X273362Y73465D01*
Y26772D01*
X273457Y26052D01*
X273734Y25382D01*
X274176Y24806D01*
X283051Y15931D01*
X283627Y15489D01*
X284298Y15211D01*
X285006Y15118D01*
X285597Y14527D01*
X286450Y14034D01*
X287401Y13780D01*
X288386D01*
X289337Y14034D01*
X290190Y14527D01*
X290886Y15223D01*
X291379Y16076D01*
X291634Y17027D01*
Y18012D01*
X291379Y18963D01*
X290886Y19816D01*
X290190Y20513D01*
X289337Y21005D01*
X288386Y21260D01*
X287401D01*
X286450Y21005D01*
X286063Y20782D01*
X278921Y27923D01*
Y61239D01*
X278976Y61284D01*
X280433D01*
Y57126D01*
X283564D01*
X284164Y56526D01*
X284620Y56222D01*
X285157Y56115D01*
X287382D01*
Y54665D01*
X290622D01*
X291122Y54665D01*
Y54665D01*
X291122D01*
Y54665D01*
X294650D01*
Y54453D01*
X295732D01*
Y57520D01*
X296732D01*
Y58520D01*
X298815D01*
Y60587D01*
X296051D01*
X295844Y61087D01*
X300253Y65495D01*
X300427Y65756D01*
X300488Y66063D01*
Y73829D01*
X300964Y73998D01*
X301075Y74010D01*
X301165Y73921D01*
X301425Y73747D01*
X301732Y73685D01*
X301776D01*
Y71512D01*
X305827D01*
X309878D01*
Y73685D01*
X312405D01*
Y71512D01*
X316457D01*
X320508D01*
Y73685D01*
X321260D01*
X321261Y73685D01*
X321261Y73685D01*
X321415Y73716D01*
X321568Y73747D01*
X321568Y73747D01*
X321568Y73747D01*
X321696Y73832D01*
X321828Y73921D01*
X321828Y73921D01*
X321829Y73921D01*
X322182Y74275D01*
X322182Y74275D01*
X322182Y74275D01*
X322268Y74404D01*
X322356Y74536D01*
X322356Y74536D01*
X322356Y74536D01*
X322386Y74689D01*
X322416Y74843D01*
X322416Y74843D01*
X322416Y74844D01*
X322378Y94254D01*
X322347Y94408D01*
X322317Y94559D01*
X322316Y94560D01*
X322316Y94561D01*
X322228Y94691D01*
X322143Y94820D01*
X322142Y94820D01*
X322141Y94821D01*
X322012Y94907D01*
X321882Y94994D01*
X321881Y94994D01*
X321881Y94994D01*
X321727Y95024D01*
X321575Y95055D01*
D02*
G37*
G36*
X115850Y73764D02*
X113784D01*
Y72681D01*
X115850D01*
Y73764D01*
D02*
G37*
G36*
X233185Y73803D02*
X231512D01*
Y71933D01*
X233185D01*
Y73803D01*
D02*
G37*
G36*
X320508Y69512D02*
X317457D01*
Y66854D01*
X320508D01*
Y69512D01*
D02*
G37*
G36*
X315457D02*
X312405D01*
Y66854D01*
X315457D01*
Y69512D01*
D02*
G37*
G36*
X309878D02*
X306827D01*
Y66854D01*
X309878D01*
Y69512D01*
D02*
G37*
G36*
X304827D02*
X301776D01*
Y66854D01*
X304827D01*
Y69512D01*
D02*
G37*
G36*
X120612Y70248D02*
X120016D01*
Y66630D01*
X122433D01*
Y68427D01*
X122294Y69124D01*
X121899Y69714D01*
X121309Y70109D01*
X120612Y70248D01*
D02*
G37*
G36*
X128842Y69681D02*
X126185D01*
Y66630D01*
X128842D01*
Y69681D01*
D02*
G37*
G36*
X118016Y70248D02*
X117420D01*
X116723Y70109D01*
X116132Y69714D01*
X115737Y69124D01*
X115599Y68427D01*
Y66630D01*
X118016D01*
Y70248D01*
D02*
G37*
G36*
X128842Y64630D02*
X126185D01*
Y61579D01*
X128842D01*
Y64630D01*
D02*
G37*
G36*
X122433D02*
X120016D01*
Y61012D01*
X120612D01*
X121309Y61151D01*
X121899Y61546D01*
X122294Y62136D01*
X122433Y62833D01*
Y64630D01*
D02*
G37*
G36*
X118016D02*
X115599D01*
Y62833D01*
X115737Y62136D01*
X116132Y61546D01*
X116723Y61151D01*
X117420Y61012D01*
X118016D01*
Y64630D01*
D02*
G37*
G36*
X308623Y63102D02*
X306827D01*
Y60685D01*
X310444D01*
Y61281D01*
X310306Y61978D01*
X309911Y62569D01*
X309320Y62963D01*
X308623Y63102D01*
D02*
G37*
G36*
X315457D02*
X313660D01*
X312963Y62963D01*
X312372Y62569D01*
X311978Y61978D01*
X311839Y61281D01*
Y60685D01*
X315457D01*
Y63102D01*
D02*
G37*
G36*
X304827D02*
X303030D01*
X302333Y62963D01*
X301743Y62569D01*
X301348Y61978D01*
X301209Y61281D01*
Y60685D01*
X304827D01*
Y63102D01*
D02*
G37*
G36*
X326354Y59110D02*
X324583D01*
Y57732D01*
X326354D01*
Y59110D01*
D02*
G37*
G36*
X315457Y58685D02*
X311839D01*
Y58089D01*
X311978Y57392D01*
X312372Y56801D01*
X312963Y56407D01*
X313660Y56268D01*
X315457D01*
Y58685D01*
D02*
G37*
G36*
X310444D02*
X306827D01*
Y56268D01*
X308623D01*
X309320Y56407D01*
X309911Y56801D01*
X310306Y57392D01*
X310444Y58089D01*
Y58685D01*
D02*
G37*
G36*
X304827D02*
X301209D01*
Y58089D01*
X301348Y57392D01*
X301743Y56801D01*
X302333Y56407D01*
X303030Y56268D01*
X304827D01*
Y58685D01*
D02*
G37*
G36*
X128842Y59051D02*
X126185D01*
Y56000D01*
X128842D01*
Y59051D01*
D02*
G37*
G36*
X120612Y59618D02*
X120016D01*
Y56000D01*
X122433D01*
Y57797D01*
X122294Y58494D01*
X121899Y59084D01*
X121309Y59479D01*
X120612Y59618D01*
D02*
G37*
G36*
X118016D02*
X117420D01*
X116723Y59479D01*
X116132Y59084D01*
X115737Y58494D01*
X115599Y57797D01*
Y56000D01*
X118016D01*
Y59618D01*
D02*
G37*
G36*
X298815Y56520D02*
X297732D01*
Y54453D01*
X298815D01*
Y56520D01*
D02*
G37*
G36*
X128842Y54000D02*
X126185D01*
Y50949D01*
X128842D01*
Y54000D01*
D02*
G37*
G36*
X319253Y63102D02*
X317457D01*
Y59685D01*
Y56268D01*
X319253D01*
X319950Y56407D01*
X320311Y56648D01*
X320811Y56381D01*
Y54779D01*
X304410D01*
X304102Y54718D01*
X303842Y54544D01*
X299786Y50488D01*
X295118D01*
X294811Y50427D01*
X294550Y50253D01*
X294544Y50243D01*
X294189Y50261D01*
X294004Y50751D01*
X294258Y51004D01*
X294528Y51656D01*
Y52360D01*
X294258Y53011D01*
X293759Y53510D01*
X293108Y53780D01*
X292404D01*
X291752Y53510D01*
X291254Y53011D01*
X290984Y52360D01*
Y51987D01*
X289135Y50138D01*
X287382D01*
Y44429D01*
X290622D01*
X291122Y44429D01*
Y44429D01*
X291122D01*
Y44429D01*
X294315D01*
Y41260D01*
X294376Y40953D01*
X294550Y40692D01*
X294811Y40518D01*
X295118Y40457D01*
X325827D01*
X326134Y40518D01*
X326395Y40692D01*
X326569Y40953D01*
X326630Y41260D01*
Y53976D01*
X326569Y54284D01*
X326395Y54544D01*
X326354Y54571D01*
Y55732D01*
X323583D01*
Y56732D01*
X322583D01*
Y59110D01*
X321074D01*
Y61281D01*
X320936Y61978D01*
X320541Y62569D01*
X319950Y62963D01*
X319253Y63102D01*
D02*
G37*
G36*
X213972Y57346D02*
X208232D01*
Y55673D01*
X208445D01*
Y52755D01*
X205929Y50239D01*
X205624Y49783D01*
X205517Y49245D01*
Y48390D01*
X204401D01*
Y48486D01*
X204279Y49099D01*
X203931Y49620D01*
X203411Y49968D01*
X202797Y50090D01*
X197203D01*
X196589Y49968D01*
X196069Y49620D01*
X195721Y49099D01*
X195599Y48486D01*
Y45294D01*
X195721Y44680D01*
X196069Y44159D01*
X196589Y43812D01*
X197203Y43690D01*
X202797D01*
X203411Y43812D01*
X203931Y44159D01*
X204279Y44680D01*
X204401Y45294D01*
Y45580D01*
X205615D01*
X205768Y45427D01*
X206419Y45158D01*
X207124D01*
X207775Y45427D01*
X208274Y45926D01*
X208543Y46577D01*
Y47282D01*
X208327Y47803D01*
Y48663D01*
X210432Y50768D01*
X213760D01*
Y55673D01*
X213972D01*
Y57346D01*
D02*
G37*
G36*
X118480Y46835D02*
X117102D01*
Y45063D01*
X118480D01*
Y46835D01*
D02*
G37*
G36*
X390988Y70669D02*
X388540D01*
X386122Y70286D01*
X383794Y69530D01*
X381613Y68419D01*
X379633Y66980D01*
X377902Y65249D01*
X376463Y63269D01*
X375352Y61088D01*
X374595Y58760D01*
X374213Y56342D01*
Y53894D01*
X374595Y51477D01*
X375352Y49148D01*
X376463Y46968D01*
X377902Y44987D01*
X379633Y43256D01*
X381613Y41818D01*
X383794Y40706D01*
X386122Y39950D01*
X388540Y39567D01*
X390988D01*
X393405Y39950D01*
X395733Y40706D01*
X397914Y41818D01*
X399895Y43256D01*
X401626Y44987D01*
X403064Y46968D01*
X404176Y49148D01*
X404932Y51477D01*
X405315Y53894D01*
Y56342D01*
X404932Y58760D01*
X404176Y61088D01*
X403064Y63269D01*
X401626Y65249D01*
X399895Y66980D01*
X397914Y68419D01*
X395733Y69530D01*
X393405Y70286D01*
X390988Y70669D01*
D02*
G37*
G36*
X401335Y19445D02*
X399661D01*
Y17575D01*
X401335D01*
Y19445D01*
D02*
G37*
G36*
X376969Y21260D02*
X375984D01*
X375033Y21005D01*
X374180Y20513D01*
X373483Y19816D01*
X372991Y18963D01*
X372736Y18012D01*
Y17027D01*
X372991Y16076D01*
X373483Y15223D01*
X374180Y14527D01*
X375033Y14034D01*
X375984Y13780D01*
X376969D01*
X377920Y14034D01*
X378773Y14527D01*
X379469Y15223D01*
X379962Y16076D01*
X380217Y17027D01*
Y18012D01*
X379962Y18963D01*
X379469Y19816D01*
X378773Y20513D01*
X377920Y21005D01*
X376969Y21260D01*
D02*
G37*
G36*
X347441D02*
X346456D01*
X345505Y21005D01*
X344652Y20513D01*
X343956Y19816D01*
X343463Y18963D01*
X343209Y18012D01*
Y17027D01*
X343463Y16076D01*
X343956Y15223D01*
X344652Y14527D01*
X345505Y14034D01*
X346456Y13780D01*
X347441D01*
X348393Y14034D01*
X349245Y14527D01*
X349942Y15223D01*
X350434Y16076D01*
X350689Y17027D01*
Y18012D01*
X350434Y18963D01*
X349942Y19816D01*
X349245Y20513D01*
X348393Y21005D01*
X347441Y21260D01*
D02*
G37*
G36*
X327756D02*
X326771D01*
X325820Y21005D01*
X324967Y20513D01*
X324271Y19816D01*
X323779Y18963D01*
X323524Y18012D01*
Y17027D01*
X323779Y16076D01*
X324271Y15223D01*
X324967Y14527D01*
X325820Y14034D01*
X326771Y13780D01*
X327756D01*
X328707Y14034D01*
X329560Y14527D01*
X330257Y15223D01*
X330749Y16076D01*
X331004Y17027D01*
Y18012D01*
X330749Y18963D01*
X330257Y19816D01*
X329560Y20513D01*
X328707Y21005D01*
X327756Y21260D01*
D02*
G37*
G36*
X298229D02*
X297244D01*
X296293Y21005D01*
X295440Y20513D01*
X294743Y19816D01*
X294251Y18963D01*
X293996Y18012D01*
Y17027D01*
X294251Y16076D01*
X294743Y15223D01*
X295440Y14527D01*
X296293Y14034D01*
X297244Y13780D01*
X298229D01*
X299180Y14034D01*
X300033Y14527D01*
X300729Y15223D01*
X301221Y16076D01*
X301476Y17027D01*
Y18012D01*
X301221Y18963D01*
X300729Y19816D01*
X300033Y20513D01*
X299180Y21005D01*
X298229Y21260D01*
D02*
G37*
G36*
X119095D02*
X118110D01*
X117159Y21005D01*
X116306Y20513D01*
X115610Y19816D01*
X115117Y18963D01*
X114862Y18012D01*
Y17027D01*
X115117Y16076D01*
X115610Y15223D01*
X116306Y14527D01*
X117159Y14034D01*
X118110Y13780D01*
X119095D01*
X120046Y14034D01*
X120899Y14527D01*
X121595Y15223D01*
X122088Y16076D01*
X122343Y17027D01*
Y18012D01*
X122088Y18963D01*
X121595Y19816D01*
X120899Y20513D01*
X120046Y21005D01*
X119095Y21260D01*
D02*
G37*
G36*
X89567D02*
X88582D01*
X87631Y21005D01*
X86778Y20513D01*
X86082Y19816D01*
X85589Y18963D01*
X85335Y18012D01*
Y17027D01*
X85589Y16076D01*
X86082Y15223D01*
X86778Y14527D01*
X87631Y14034D01*
X88582Y13780D01*
X89567D01*
X90518Y14034D01*
X91371Y14527D01*
X92068Y15223D01*
X92560Y16076D01*
X92815Y17027D01*
Y18012D01*
X92560Y18963D01*
X92068Y19816D01*
X91371Y20513D01*
X90518Y21005D01*
X89567Y21260D01*
D02*
G37*
G36*
X367126Y21260D02*
X366141D01*
X365190Y21005D01*
X364337Y20513D01*
X363641Y19816D01*
X363149Y18963D01*
X362894Y18012D01*
Y17027D01*
X363149Y16076D01*
X363641Y15223D01*
X364337Y14527D01*
X365190Y14034D01*
X366141Y13780D01*
X367126D01*
X368077Y14034D01*
X368930Y14527D01*
X369627Y15223D01*
X370119Y16076D01*
X370374Y17027D01*
Y18012D01*
X370119Y18963D01*
X369627Y19816D01*
X368930Y20513D01*
X368077Y21005D01*
X367126Y21260D01*
D02*
G37*
G36*
X337599D02*
X336614D01*
X335663Y21005D01*
X334810Y20513D01*
X334113Y19816D01*
X333621Y18963D01*
X333366Y18012D01*
Y17027D01*
X333621Y16076D01*
X334113Y15223D01*
X334810Y14527D01*
X335663Y14034D01*
X336614Y13780D01*
X337599D01*
X338550Y14034D01*
X339403Y14527D01*
X340099Y15223D01*
X340592Y16076D01*
X340846Y17027D01*
Y18012D01*
X340592Y18963D01*
X340099Y19816D01*
X339403Y20513D01*
X338550Y21005D01*
X337599Y21260D01*
D02*
G37*
G36*
X317914D02*
X316929D01*
X315978Y21005D01*
X315125Y20513D01*
X314428Y19816D01*
X313936Y18963D01*
X313681Y18012D01*
Y17027D01*
X313936Y16076D01*
X314428Y15223D01*
X315125Y14527D01*
X315978Y14034D01*
X316929Y13780D01*
X317914D01*
X318865Y14034D01*
X319718Y14527D01*
X320414Y15223D01*
X320906Y16076D01*
X321161Y17027D01*
Y18012D01*
X320906Y18963D01*
X320414Y19816D01*
X319718Y20513D01*
X318865Y21005D01*
X317914Y21260D01*
D02*
G37*
G36*
X128937D02*
X127953D01*
X127001Y21005D01*
X126148Y20513D01*
X125452Y19816D01*
X124960Y18963D01*
X124705Y18012D01*
Y17027D01*
X124960Y16076D01*
X125452Y15223D01*
X126148Y14527D01*
X127001Y14034D01*
X127953Y13780D01*
X128937D01*
X129888Y14034D01*
X130741Y14527D01*
X131438Y15223D01*
X131930Y16076D01*
X132185Y17027D01*
Y18012D01*
X131930Y18963D01*
X131438Y19816D01*
X130741Y20513D01*
X129888Y21005D01*
X128937Y21260D01*
D02*
G37*
G36*
X109252D02*
X108267D01*
X107316Y21005D01*
X106463Y20513D01*
X105767Y19816D01*
X105275Y18963D01*
X105020Y18012D01*
Y17027D01*
X105275Y16076D01*
X105767Y15223D01*
X106463Y14527D01*
X107316Y14034D01*
X108267Y13780D01*
X109252D01*
X110204Y14034D01*
X111056Y14527D01*
X111753Y15223D01*
X112245Y16076D01*
X112500Y17027D01*
Y18012D01*
X112245Y18963D01*
X111753Y19816D01*
X111056Y20513D01*
X110204Y21005D01*
X109252Y21260D01*
D02*
G37*
G36*
X79725D02*
X78740D01*
X77789Y21005D01*
X76936Y20513D01*
X76239Y19816D01*
X75747Y18963D01*
X75492Y18012D01*
Y17027D01*
X75747Y16076D01*
X76239Y15223D01*
X76936Y14527D01*
X77789Y14034D01*
X78740Y13780D01*
X79725D01*
X80676Y14034D01*
X81529Y14527D01*
X82225Y15223D01*
X82718Y16076D01*
X82972Y17027D01*
Y18012D01*
X82718Y18963D01*
X82225Y19816D01*
X81529Y20513D01*
X80676Y21005D01*
X79725Y21260D01*
D02*
G37*
G36*
X357284Y21260D02*
X356299D01*
X355348Y21005D01*
X354495Y20513D01*
X353799Y19816D01*
X353306Y18963D01*
X353051Y18012D01*
Y17027D01*
X353306Y16076D01*
X353799Y15223D01*
X354495Y14527D01*
X355348Y14034D01*
X356299Y13780D01*
X357284D01*
X358235Y14034D01*
X359088Y14527D01*
X359784Y15223D01*
X360277Y16076D01*
X360531Y17027D01*
Y18012D01*
X360277Y18963D01*
X359784Y19816D01*
X359088Y20513D01*
X358235Y21005D01*
X357284Y21260D01*
D02*
G37*
G36*
X308071D02*
X307086D01*
X306135Y21005D01*
X305282Y20513D01*
X304586Y19816D01*
X304094Y18963D01*
X303839Y18012D01*
Y17027D01*
X304094Y16076D01*
X304586Y15223D01*
X305282Y14527D01*
X306135Y14034D01*
X307086Y13780D01*
X308071D01*
X309022Y14034D01*
X309875Y14527D01*
X310572Y15223D01*
X311064Y16076D01*
X311319Y17027D01*
Y18012D01*
X311064Y18963D01*
X310572Y19816D01*
X309875Y20513D01*
X309022Y21005D01*
X308071Y21260D01*
D02*
G37*
G36*
X99410D02*
X98425D01*
X97474Y21005D01*
X96621Y20513D01*
X95924Y19816D01*
X95432Y18963D01*
X95177Y18012D01*
Y17027D01*
X95432Y16076D01*
X95924Y15223D01*
X96621Y14527D01*
X97474Y14034D01*
X98425Y13780D01*
X99410D01*
X100361Y14034D01*
X101214Y14527D01*
X101910Y15223D01*
X102403Y16076D01*
X102657Y17027D01*
Y18012D01*
X102403Y18963D01*
X101910Y19816D01*
X101214Y20513D01*
X100361Y21005D01*
X99410Y21260D01*
D02*
G37*
G36*
X401335Y15575D02*
X399661D01*
Y13705D01*
X401335D01*
Y15575D01*
D02*
G37*
G36*
X397661Y19445D02*
X395988D01*
Y19232D01*
X391083D01*
Y17980D01*
X390295D01*
X389758Y17873D01*
X389302Y17568D01*
X382876Y11142D01*
X382841Y11162D01*
X381890Y11417D01*
X380905D01*
X379954Y11162D01*
X379101Y10670D01*
X378405Y9974D01*
X377912Y9121D01*
X377658Y8170D01*
Y7185D01*
X377912Y6233D01*
X378405Y5381D01*
X379101Y4684D01*
X379954Y4192D01*
X380905Y3937D01*
X381890D01*
X382841Y4192D01*
X383694Y4684D01*
X384390Y5381D01*
X384883Y6233D01*
X385138Y7185D01*
Y8170D01*
X384883Y9121D01*
X384863Y9155D01*
X390583Y14875D01*
X391083Y14668D01*
Y13917D01*
X395988D01*
Y13705D01*
X397661D01*
Y16575D01*
Y19445D01*
D02*
G37*
G36*
X173736Y11501D02*
Y8677D01*
X176560D01*
X176420Y9203D01*
X175899Y10104D01*
X175163Y10840D01*
X174262Y11361D01*
X173736Y11501D01*
D02*
G37*
G36*
X171736D02*
X171211Y11361D01*
X170309Y10840D01*
X169573Y10104D01*
X169053Y9203D01*
X168912Y8677D01*
X171736D01*
Y11501D01*
D02*
G37*
G36*
X134366Y11501D02*
Y8677D01*
X137190D01*
X137049Y9203D01*
X136529Y10104D01*
X135793Y10840D01*
X134892Y11361D01*
X134366Y11501D01*
D02*
G37*
G36*
X94996D02*
Y8677D01*
X97820D01*
X97679Y9203D01*
X97159Y10104D01*
X96423Y10840D01*
X95522Y11361D01*
X94996Y11501D01*
D02*
G37*
G36*
X293815Y11501D02*
Y8677D01*
X296639D01*
X296498Y9203D01*
X295978Y10104D01*
X295242Y10840D01*
X294341Y11361D01*
X293815Y11501D01*
D02*
G37*
G36*
X291815Y11501D02*
X291289Y11361D01*
X290388Y10840D01*
X289652Y10104D01*
X289132Y9203D01*
X288991Y8677D01*
X291815D01*
Y11501D01*
D02*
G37*
G36*
X92996D02*
X92470Y11361D01*
X91569Y10840D01*
X90833Y10104D01*
X90313Y9203D01*
X90172Y8677D01*
X92996D01*
Y11501D01*
D02*
G37*
G36*
X132366Y11501D02*
X131840Y11361D01*
X130939Y10840D01*
X130203Y10104D01*
X129683Y9203D01*
X129542Y8677D01*
X132366D01*
Y11501D01*
D02*
G37*
G36*
X372047Y11417D02*
X371063D01*
X370111Y11162D01*
X369259Y10670D01*
X368562Y9974D01*
X368070Y9121D01*
X367815Y8170D01*
Y7185D01*
X368070Y6233D01*
X368562Y5381D01*
X369259Y4684D01*
X370111Y4192D01*
X371063Y3937D01*
X372047D01*
X372999Y4192D01*
X373852Y4684D01*
X374548Y5381D01*
X375040Y6233D01*
X375295Y7185D01*
Y8170D01*
X375040Y9121D01*
X374548Y9974D01*
X373852Y10670D01*
X372999Y11162D01*
X372047Y11417D01*
D02*
G37*
G36*
X332677D02*
X331693D01*
X330741Y11162D01*
X329889Y10670D01*
X329192Y9974D01*
X328700Y9121D01*
X328445Y8170D01*
Y7185D01*
X328700Y6233D01*
X329192Y5381D01*
X329889Y4684D01*
X330741Y4192D01*
X331693Y3937D01*
X332677D01*
X333629Y4192D01*
X334482Y4684D01*
X335178Y5381D01*
X335670Y6233D01*
X335925Y7185D01*
Y8170D01*
X335670Y9121D01*
X335178Y9974D01*
X334482Y10670D01*
X333629Y11162D01*
X332677Y11417D01*
D02*
G37*
G36*
X322835D02*
X321850D01*
X320899Y11162D01*
X320046Y10670D01*
X319350Y9974D01*
X318857Y9121D01*
X318602Y8170D01*
Y7185D01*
X318857Y6233D01*
X319350Y5381D01*
X320046Y4684D01*
X320899Y4192D01*
X321850Y3937D01*
X322835D01*
X323786Y4192D01*
X324639Y4684D01*
X325335Y5381D01*
X325828Y6233D01*
X326083Y7185D01*
Y8170D01*
X325828Y9121D01*
X325335Y9974D01*
X324639Y10670D01*
X323786Y11162D01*
X322835Y11417D01*
D02*
G37*
G36*
X163386D02*
X162401D01*
X161450Y11162D01*
X160597Y10670D01*
X159901Y9974D01*
X159408Y9121D01*
X159153Y8170D01*
Y7185D01*
X159408Y6233D01*
X159901Y5381D01*
X160597Y4684D01*
X161450Y4192D01*
X162401Y3937D01*
X163386D01*
X164337Y4192D01*
X165190Y4684D01*
X165887Y5381D01*
X166379Y6233D01*
X166634Y7185D01*
Y8170D01*
X166379Y9121D01*
X165887Y9974D01*
X165190Y10670D01*
X164337Y11162D01*
X163386Y11417D01*
D02*
G37*
G36*
X124016D02*
X123031D01*
X122080Y11162D01*
X121227Y10670D01*
X120531Y9974D01*
X120038Y9121D01*
X119783Y8170D01*
Y7185D01*
X120038Y6233D01*
X120531Y5381D01*
X121227Y4684D01*
X122080Y4192D01*
X123031Y3937D01*
X124016D01*
X124967Y4192D01*
X125820Y4684D01*
X126516Y5381D01*
X127009Y6233D01*
X127264Y7185D01*
Y8170D01*
X127009Y9121D01*
X126516Y9974D01*
X125820Y10670D01*
X124967Y11162D01*
X124016Y11417D01*
D02*
G37*
G36*
X114173D02*
X113189D01*
X112237Y11162D01*
X111385Y10670D01*
X110688Y9974D01*
X110196Y9121D01*
X109941Y8170D01*
Y7185D01*
X110196Y6233D01*
X110688Y5381D01*
X111385Y4684D01*
X112237Y4192D01*
X113189Y3937D01*
X114173D01*
X115125Y4192D01*
X115978Y4684D01*
X116674Y5381D01*
X117166Y6233D01*
X117421Y7185D01*
Y8170D01*
X117166Y9121D01*
X116674Y9974D01*
X115978Y10670D01*
X115125Y11162D01*
X114173Y11417D01*
D02*
G37*
G36*
X362205Y11417D02*
X361220D01*
X360269Y11162D01*
X359416Y10670D01*
X358720Y9974D01*
X358227Y9121D01*
X357972Y8170D01*
Y7185D01*
X358227Y6233D01*
X358720Y5381D01*
X359416Y4684D01*
X360269Y4192D01*
X361220Y3937D01*
X362205D01*
X363156Y4192D01*
X364009Y4684D01*
X364705Y5381D01*
X365198Y6233D01*
X365453Y7185D01*
Y8170D01*
X365198Y9121D01*
X364705Y9974D01*
X364009Y10670D01*
X363156Y11162D01*
X362205Y11417D01*
D02*
G37*
G36*
X352362D02*
X351378D01*
X350426Y11162D01*
X349574Y10670D01*
X348877Y9974D01*
X348385Y9121D01*
X348130Y8170D01*
Y7185D01*
X348385Y6233D01*
X348877Y5381D01*
X349574Y4684D01*
X350426Y4192D01*
X351378Y3937D01*
X352362D01*
X353314Y4192D01*
X354167Y4684D01*
X354863Y5381D01*
X355355Y6233D01*
X355610Y7185D01*
Y8170D01*
X355355Y9121D01*
X354863Y9974D01*
X354167Y10670D01*
X353314Y11162D01*
X352362Y11417D01*
D02*
G37*
G36*
X342520D02*
X341535D01*
X340584Y11162D01*
X339731Y10670D01*
X339035Y9974D01*
X338542Y9121D01*
X338287Y8170D01*
Y7185D01*
X338542Y6233D01*
X339035Y5381D01*
X339731Y4684D01*
X340584Y4192D01*
X341535Y3937D01*
X342520D01*
X343471Y4192D01*
X344324Y4684D01*
X345020Y5381D01*
X345513Y6233D01*
X345768Y7185D01*
Y8170D01*
X345513Y9121D01*
X345020Y9974D01*
X344324Y10670D01*
X343471Y11162D01*
X342520Y11417D01*
D02*
G37*
G36*
X312992D02*
X312008D01*
X311056Y11162D01*
X310204Y10670D01*
X309507Y9974D01*
X309015Y9121D01*
X308760Y8170D01*
Y7185D01*
X309015Y6233D01*
X309507Y5381D01*
X310204Y4684D01*
X311056Y4192D01*
X312008Y3937D01*
X312992D01*
X313944Y4192D01*
X314796Y4684D01*
X315493Y5381D01*
X315985Y6233D01*
X316240Y7185D01*
Y8170D01*
X315985Y9121D01*
X315493Y9974D01*
X314796Y10670D01*
X313944Y11162D01*
X312992Y11417D01*
D02*
G37*
G36*
X303150D02*
X302165D01*
X301214Y11162D01*
X300361Y10670D01*
X299665Y9974D01*
X299172Y9121D01*
X298917Y8170D01*
Y7185D01*
X299172Y6233D01*
X299665Y5381D01*
X300361Y4684D01*
X301214Y4192D01*
X302165Y3937D01*
X303150D01*
X304101Y4192D01*
X304954Y4684D01*
X305650Y5381D01*
X306143Y6233D01*
X306398Y7185D01*
Y8170D01*
X306143Y9121D01*
X305650Y9974D01*
X304954Y10670D01*
X304101Y11162D01*
X303150Y11417D01*
D02*
G37*
G36*
X153544D02*
X152559D01*
X151608Y11162D01*
X150755Y10670D01*
X150058Y9974D01*
X149566Y9121D01*
X149311Y8170D01*
Y7185D01*
X149566Y6233D01*
X150058Y5381D01*
X150755Y4684D01*
X151608Y4192D01*
X152559Y3937D01*
X153544D01*
X154495Y4192D01*
X155348Y4684D01*
X156044Y5381D01*
X156536Y6233D01*
X156791Y7185D01*
Y8170D01*
X156536Y9121D01*
X156044Y9974D01*
X155348Y10670D01*
X154495Y11162D01*
X153544Y11417D01*
D02*
G37*
G36*
X143701D02*
X142716D01*
X141765Y11162D01*
X140912Y10670D01*
X140216Y9974D01*
X139723Y9121D01*
X139469Y8170D01*
Y7185D01*
X139723Y6233D01*
X140216Y5381D01*
X140912Y4684D01*
X141765Y4192D01*
X142716Y3937D01*
X143701D01*
X144652Y4192D01*
X145505Y4684D01*
X146202Y5381D01*
X146694Y6233D01*
X146949Y7185D01*
Y8170D01*
X146694Y9121D01*
X146202Y9974D01*
X145505Y10670D01*
X144652Y11162D01*
X143701Y11417D01*
D02*
G37*
G36*
X104331D02*
X103346D01*
X102395Y11162D01*
X101542Y10670D01*
X100846Y9974D01*
X100353Y9121D01*
X100098Y8170D01*
Y7185D01*
X100353Y6233D01*
X100846Y5381D01*
X101542Y4684D01*
X102395Y4192D01*
X103346Y3937D01*
X104331D01*
X105282Y4192D01*
X106135Y4684D01*
X106831Y5381D01*
X107324Y6233D01*
X107579Y7185D01*
Y8170D01*
X107324Y9121D01*
X106831Y9974D01*
X106135Y10670D01*
X105282Y11162D01*
X104331Y11417D01*
D02*
G37*
G36*
X84646D02*
X83661D01*
X82710Y11162D01*
X81857Y10670D01*
X81161Y9974D01*
X80668Y9121D01*
X80413Y8170D01*
Y7185D01*
X80668Y6233D01*
X81161Y5381D01*
X81857Y4684D01*
X82710Y4192D01*
X83661Y3937D01*
X84646D01*
X85597Y4192D01*
X86450Y4684D01*
X87146Y5381D01*
X87639Y6233D01*
X87894Y7185D01*
Y8170D01*
X87639Y9121D01*
X87146Y9974D01*
X86450Y10670D01*
X85597Y11162D01*
X84646Y11417D01*
D02*
G37*
G36*
X176560Y6677D02*
X173736D01*
Y3853D01*
X174262Y3994D01*
X175163Y4514D01*
X175899Y5250D01*
X176420Y6151D01*
X176560Y6677D01*
D02*
G37*
G36*
X171736D02*
X168912D01*
X169053Y6151D01*
X169573Y5250D01*
X170309Y4514D01*
X171211Y3994D01*
X171736Y3853D01*
Y6677D01*
D02*
G37*
G36*
X137190Y6677D02*
X134366D01*
Y3853D01*
X134892Y3994D01*
X135793Y4514D01*
X136529Y5250D01*
X137049Y6151D01*
X137190Y6677D01*
D02*
G37*
G36*
X291815D02*
X288991D01*
X289132Y6151D01*
X289652Y5250D01*
X290388Y4514D01*
X291289Y3994D01*
X291815Y3853D01*
Y6677D01*
D02*
G37*
G36*
X97820D02*
X94996D01*
Y3853D01*
X95522Y3994D01*
X96423Y4514D01*
X97159Y5250D01*
X97679Y6151D01*
X97820Y6677D01*
D02*
G37*
G36*
X92996D02*
X90172D01*
X90313Y6151D01*
X90833Y5250D01*
X91569Y4514D01*
X92470Y3994D01*
X92996Y3853D01*
Y6677D01*
D02*
G37*
G36*
X296639D02*
X293815D01*
Y3853D01*
X294341Y3994D01*
X295242Y4514D01*
X295978Y5250D01*
X296498Y6151D01*
X296639Y6677D01*
D02*
G37*
G36*
X132366D02*
X129542D01*
X129683Y6151D01*
X130203Y5250D01*
X130939Y4514D01*
X131840Y3994D01*
X132366Y3853D01*
Y6677D01*
D02*
G37*
%LPD*%
G36*
X334756Y284472D02*
X332736Y282452D01*
X332396Y281943D01*
X332277Y281343D01*
Y279325D01*
X330979Y278026D01*
X319887D01*
X319680Y278526D01*
X320540Y279387D01*
X321254Y280623D01*
X321624Y282003D01*
Y283431D01*
X321534Y283767D01*
X322701Y284934D01*
X334565D01*
X334756Y284472D01*
D02*
G37*
G36*
X375062Y284434D02*
X374793Y283431D01*
Y282003D01*
X375163Y280623D01*
X375877Y279387D01*
X376737Y278526D01*
X376530Y278026D01*
X368886D01*
X368286Y277907D01*
X367778Y277567D01*
X363172Y272961D01*
X360251Y275882D01*
X360558Y276283D01*
X360802Y276141D01*
X361726Y275894D01*
X362683D01*
X363607Y276141D01*
X364436Y276620D01*
X365112Y277296D01*
X365591Y278125D01*
X365839Y279049D01*
Y280006D01*
X365591Y280930D01*
X365112Y281759D01*
X364436Y282435D01*
X363607Y282914D01*
X362683Y283161D01*
X361726D01*
X360802Y282914D01*
X359974Y282435D01*
X359297Y281759D01*
X358819Y280930D01*
X358571Y280006D01*
Y279049D01*
X358819Y278125D01*
X358960Y277881D01*
X358559Y277573D01*
X357685Y278448D01*
X357846Y279049D01*
Y280006D01*
X357599Y280930D01*
X357120Y281759D01*
X356444Y282435D01*
X355615Y282914D01*
X354691Y283161D01*
X353734D01*
X352810Y282914D01*
X351981Y282435D01*
X351305Y281759D01*
X350826Y280930D01*
X350579Y280006D01*
Y279049D01*
X350826Y278125D01*
X351305Y277296D01*
X351981Y276620D01*
X352810Y276141D01*
X353734Y275894D01*
X354691D01*
X355570Y276129D01*
X358076Y273623D01*
X357885Y273161D01*
X357711D01*
X356786Y272914D01*
X355958Y272435D01*
X355281Y271759D01*
X354803Y270930D01*
X354555Y270006D01*
Y269049D01*
X354803Y268125D01*
X355281Y267296D01*
X355404Y267173D01*
X355213Y266711D01*
X353173D01*
X352981Y267173D01*
X353105Y267296D01*
X353583Y268125D01*
X353831Y269049D01*
Y270006D01*
X353583Y270930D01*
X353105Y271759D01*
X352428Y272435D01*
X351600Y272914D01*
X350675Y273161D01*
X349718D01*
X348978Y272963D01*
X346508Y275433D01*
X346602Y275659D01*
X346743Y275905D01*
X347623Y276141D01*
X348452Y276620D01*
X349128Y277296D01*
X349607Y278125D01*
X349854Y279049D01*
Y280006D01*
X349607Y280930D01*
X349128Y281759D01*
X348452Y282435D01*
X347623Y282914D01*
X346699Y283161D01*
X345742D01*
X345002Y282963D01*
X343493Y284472D01*
X343685Y284934D01*
X374678D01*
X375062Y284434D01*
D02*
G37*
G36*
X129344Y268203D02*
X142094Y255453D01*
Y252461D01*
X141201D01*
Y248095D01*
X133348Y240242D01*
X132886Y240434D01*
Y242244D01*
X134594Y243952D01*
X136760Y246118D01*
X137100Y246626D01*
X137203Y247146D01*
X139035D01*
Y252461D01*
X137147D01*
X137100Y252696D01*
X136760Y253205D01*
X124483Y265482D01*
Y266676D01*
X124945Y267050D01*
X125321Y266949D01*
X126332D01*
X127308Y267210D01*
X128184Y267716D01*
X128707Y268239D01*
X129271Y268240D01*
X129344Y268203D01*
D02*
G37*
G36*
X108848Y267727D02*
Y265166D01*
X108967Y264566D01*
X109307Y264058D01*
X118993Y254371D01*
Y253332D01*
X118727Y252933D01*
X118633Y252461D01*
X116791D01*
Y247146D01*
X118633D01*
X118727Y246673D01*
X118993Y246274D01*
Y237982D01*
X119113Y237382D01*
X119453Y236874D01*
X121829Y234497D01*
Y233315D01*
X121531Y233070D01*
X116224D01*
X115839Y232994D01*
X115512Y232775D01*
X115463Y232702D01*
X114963Y232854D01*
Y242256D01*
X114844Y242856D01*
X114504Y243365D01*
X112424Y245445D01*
Y247146D01*
X114626D01*
Y252461D01*
X112784D01*
X112690Y252933D01*
X112424Y253332D01*
Y258261D01*
X112304Y258861D01*
X111965Y259369D01*
X104761Y266573D01*
X104756Y266596D01*
X105008Y267033D01*
X105321Y266949D01*
X106332D01*
X107308Y267210D01*
X108184Y267716D01*
X108386Y267918D01*
X108848Y267727D01*
D02*
G37*
G36*
X98848D02*
Y265166D01*
X98967Y264566D01*
X99307Y264058D01*
X106789Y256576D01*
Y253332D01*
X106522Y252933D01*
X106428Y252461D01*
X104587D01*
Y247146D01*
X106789D01*
Y243760D01*
X106908Y243160D01*
X107248Y242652D01*
X109328Y240571D01*
Y233158D01*
X108912Y232881D01*
X108738Y232953D01*
X108033D01*
X107382Y232683D01*
X107285Y232586D01*
X106575D01*
Y233347D01*
X101457D01*
Y232537D01*
X100514D01*
X100354Y232775D01*
X100027Y232994D01*
X99642Y233070D01*
X96373D01*
X96181Y233533D01*
X99760Y237111D01*
X100100Y237620D01*
X100219Y238219D01*
Y246274D01*
X100486Y246673D01*
X100580Y247146D01*
X102421D01*
Y252461D01*
X100580D01*
X100486Y252933D01*
X100219Y253332D01*
Y260466D01*
X100100Y261066D01*
X99760Y261574D01*
X94761Y266573D01*
X94756Y266596D01*
X95008Y267033D01*
X95321Y266949D01*
X96332D01*
X97308Y267210D01*
X98184Y267716D01*
X98386Y267918D01*
X98848Y267727D01*
D02*
G37*
G36*
X88848D02*
Y265166D01*
X88967Y264566D01*
X89307Y264058D01*
X94584Y258781D01*
Y253332D01*
X94318Y252933D01*
X94223Y252461D01*
X92382D01*
Y247146D01*
X94223D01*
X94318Y246673D01*
X94584Y246274D01*
Y239904D01*
X89921Y235241D01*
X89368Y235395D01*
X89100Y235796D01*
X88014Y236882D01*
Y246274D01*
X88281Y246673D01*
X88375Y247146D01*
X90216D01*
Y252461D01*
X88375D01*
X88281Y252933D01*
X88014Y253332D01*
Y261727D01*
X87895Y262327D01*
X87555Y262835D01*
X84483Y265907D01*
Y266676D01*
X84945Y267050D01*
X85321Y266949D01*
X86332D01*
X87308Y267210D01*
X88184Y267716D01*
X88386Y267918D01*
X88848Y267727D01*
D02*
G37*
G36*
X78848D02*
Y264223D01*
X78967Y263623D01*
X79307Y263114D01*
X82379Y260042D01*
Y253332D01*
X82113Y252933D01*
X82019Y252461D01*
X80177D01*
Y247146D01*
X82019D01*
X82113Y246673D01*
X82379Y246274D01*
Y237018D01*
X81917Y236827D01*
X75810Y242935D01*
Y246274D01*
X76076Y246673D01*
X76170Y247146D01*
X78012D01*
Y252461D01*
X76170D01*
X76076Y252933D01*
X75810Y253332D01*
Y262829D01*
X75690Y263429D01*
X75350Y263937D01*
X74483Y264805D01*
Y266676D01*
X74945Y267050D01*
X75321Y266949D01*
X76332D01*
X77308Y267210D01*
X78184Y267716D01*
X78386Y267918D01*
X78848Y267727D01*
D02*
G37*
G36*
X68848D02*
Y263120D01*
X68967Y262520D01*
X69307Y262012D01*
X70175Y261144D01*
Y253332D01*
X69908Y252933D01*
X69814Y252461D01*
X67972D01*
Y247146D01*
X69814D01*
X69908Y246673D01*
X70175Y246274D01*
Y241250D01*
X70294Y240650D01*
X70634Y240142D01*
X77243Y233533D01*
X77052Y233070D01*
X72878D01*
X72492Y232994D01*
X72166Y232775D01*
X71947Y232449D01*
X71870Y232063D01*
Y231400D01*
X71077D01*
X63605Y238872D01*
Y246274D01*
X63871Y246673D01*
X63965Y247146D01*
X65807D01*
Y252461D01*
X63965D01*
X63871Y252933D01*
X63605Y253332D01*
Y266324D01*
X64460Y267179D01*
X65321Y266949D01*
X66332D01*
X67308Y267210D01*
X68184Y267716D01*
X68386Y267918D01*
X68848Y267727D01*
D02*
G37*
G36*
X129154Y252842D02*
X128996Y252461D01*
X128996D01*
Y247146D01*
X129111D01*
X129318Y246646D01*
X127710Y245038D01*
X127371Y244529D01*
X127251Y243929D01*
Y237751D01*
X126751Y237544D01*
X124628Y239667D01*
Y246274D01*
X124895Y246673D01*
X124989Y247146D01*
X126831D01*
Y252461D01*
X124989D01*
X124895Y252933D01*
X124628Y253332D01*
Y256056D01*
X124509Y256656D01*
X124261Y257028D01*
X124649Y257347D01*
X129154Y252842D01*
D02*
G37*
G36*
X71969Y165354D02*
Y154334D01*
X69621Y152087D01*
X59252D01*
X56890Y154449D01*
Y156968D01*
X51181D01*
Y160433D01*
X55433D01*
X55571Y160571D01*
X56083D01*
Y161083D01*
X57795Y162795D01*
Y170984D01*
X66339D01*
X71969Y165354D01*
D02*
G37*
G36*
X89882Y164449D02*
Y129921D01*
X70472Y129883D01*
X70118Y130236D01*
Y149764D01*
X73110Y152756D01*
Y166732D01*
X87598D01*
X89882Y164449D01*
D02*
G37*
%LPC*%
G36*
X106787Y239071D02*
X105016D01*
Y237693D01*
X106787D01*
Y239071D01*
D02*
G37*
G36*
X103016D02*
X101244D01*
Y237693D01*
X103016D01*
Y239071D01*
D02*
G37*
G36*
X106787Y235693D02*
X105016D01*
Y234315D01*
X106787D01*
Y235693D01*
D02*
G37*
G36*
X103016D02*
X101244D01*
Y234315D01*
X103016D01*
Y235693D01*
D02*
G37*
G36*
X70646Y162949D02*
X68283D01*
Y159701D01*
X70646D01*
Y162949D01*
D02*
G37*
G36*
X66284D02*
X63921D01*
Y159701D01*
X66284D01*
Y162949D01*
D02*
G37*
G36*
X70646Y157701D02*
X68283D01*
Y154453D01*
X70646D01*
Y157701D01*
D02*
G37*
G36*
X66284D02*
X63921D01*
Y154453D01*
X66284D01*
Y157701D01*
D02*
G37*
G36*
X81669Y162949D02*
X79307D01*
Y159701D01*
X81669D01*
Y162949D01*
D02*
G37*
G36*
X77307D02*
X74945D01*
Y159701D01*
X77307D01*
Y162949D01*
D02*
G37*
G36*
X81669Y157701D02*
X79307D01*
Y154453D01*
X81669D01*
Y157701D01*
D02*
G37*
G36*
X77307D02*
X74945D01*
Y154453D01*
X77307D01*
Y157701D01*
D02*
G37*
%LPD*%
G36*
X159505Y252865D02*
X159862Y252508D01*
Y250205D01*
X159862Y249902D01*
X159862Y249402D01*
Y244783D01*
X161115D01*
Y240523D01*
X157732Y237140D01*
X157232Y237347D01*
Y244783D01*
X158484D01*
Y249402D01*
X158484Y249705D01*
X158484Y250205D01*
Y252508D01*
X158841Y252865D01*
X159173Y252999D01*
X159505Y252865D01*
D02*
G37*
G36*
X45433Y151496D02*
X49724Y147205D01*
Y125787D01*
X36299D01*
Y156496D01*
X45433D01*
Y151496D01*
D02*
G37*
G36*
X395276Y177441D02*
Y156968D01*
X332676D01*
X332469Y157468D01*
X332520Y157520D01*
Y177323D01*
X332874Y177676D01*
X395276Y177441D01*
D02*
G37*
G36*
X353780Y150984D02*
Y122953D01*
X341533D01*
X341059Y123016D01*
X341059Y123453D01*
Y125378D01*
X332563D01*
X332563Y123016D01*
X332089Y122953D01*
X329764D01*
Y123779D01*
Y151260D01*
X353425Y151337D01*
X353780Y150984D01*
D02*
G37*
%LPC*%
G36*
X342323Y144334D02*
X341478Y144166D01*
X340762Y143687D01*
X335250Y138175D01*
X334771Y137459D01*
X334603Y136614D01*
X334771Y135769D01*
X335250Y135053D01*
X335966Y134574D01*
X336811Y134406D01*
X337656Y134574D01*
X338372Y135053D01*
X342607Y139288D01*
X343644Y138250D01*
X344230Y137859D01*
X344921Y137721D01*
X345613Y137859D01*
X346199Y138250D01*
X346590Y138836D01*
X346728Y139527D01*
X346590Y140219D01*
X346199Y140805D01*
X344444Y142559D01*
X344363Y142971D01*
X343884Y143687D01*
X343168Y144166D01*
X342323Y144334D01*
D02*
G37*
G36*
X341059Y129740D02*
X337811D01*
Y127378D01*
X341059D01*
Y129740D01*
D02*
G37*
G36*
X335811D02*
X332563D01*
Y127378D01*
X335811D01*
Y129740D01*
D02*
G37*
%LPD*%
G36*
X345197Y120472D02*
Y106929D01*
X328376D01*
X327934Y107372D01*
X327953Y120512D01*
X345158D01*
X345197Y120472D01*
D02*
G37*
%LPC*%
G36*
X341059Y118717D02*
X337811D01*
Y116354D01*
X341059D01*
Y118717D01*
D02*
G37*
G36*
X335811D02*
X332563D01*
Y116354D01*
X335811D01*
Y118717D01*
D02*
G37*
G36*
X341059Y114354D02*
X337811D01*
Y111992D01*
X341059D01*
Y114354D01*
D02*
G37*
G36*
X335811D02*
X332563D01*
Y111992D01*
X335811D01*
Y114354D01*
D02*
G37*
%LPD*%
G36*
X103839Y86516D02*
X104894D01*
Y84114D01*
X103760D01*
Y80874D01*
X103760Y80374D01*
X103760Y79874D01*
Y76634D01*
X103494Y76244D01*
X102452Y75201D01*
X102050Y75202D01*
X101937Y75230D01*
X101910Y75243D01*
X101888Y75257D01*
X100499Y76645D01*
Y81595D01*
X101752D01*
Y86213D01*
X101752Y86516D01*
X101752Y87016D01*
Y87768D01*
X103839D01*
Y86516D01*
D02*
G37*
G36*
X135433Y85354D02*
Y74183D01*
X133120Y71969D01*
X124370D01*
X120472Y75866D01*
X120472Y76850D01*
X114764D01*
Y80315D01*
X119016D01*
X119075Y80374D01*
X119705D01*
Y81004D01*
X121378Y82677D01*
Y86181D01*
X121772D01*
Y90866D01*
X129921D01*
X135433Y85354D01*
D02*
G37*
G36*
X109016Y71260D02*
X113307Y66969D01*
Y45551D01*
X100866D01*
Y71133D01*
X101022Y71215D01*
X101366Y71286D01*
X101792Y70860D01*
X102443Y70591D01*
X103148D01*
X103799Y70860D01*
X104297Y71359D01*
X104567Y72010D01*
Y72715D01*
X104297Y73366D01*
X103799Y73864D01*
X103204Y74111D01*
X103090Y74359D01*
X103020Y74634D01*
X104646Y76260D01*
X109016D01*
Y71260D01*
D02*
G37*
G36*
X153386Y84409D02*
Y34724D01*
X162913Y25197D01*
Y13189D01*
X159014D01*
X158948Y13689D01*
X159498Y13836D01*
X160399Y14357D01*
X161135Y15093D01*
X161656Y15994D01*
X161797Y16520D01*
X157972D01*
X154148D01*
X154289Y15994D01*
X154809Y15093D01*
X155545Y14357D01*
X156447Y13836D01*
X156997Y13689D01*
X156931Y13189D01*
X153407D01*
X153386Y13168D01*
X139145Y13140D01*
X139079Y13640D01*
X139813Y13836D01*
X140714Y14357D01*
X141450Y15093D01*
X141971Y15994D01*
X142112Y16520D01*
X138287D01*
X134463D01*
X134604Y15994D01*
X135124Y15093D01*
X135860Y14357D01*
X136762Y13836D01*
X137508Y13636D01*
X137442Y13136D01*
X133976Y13129D01*
X133622Y13483D01*
Y69724D01*
X136850Y72953D01*
Y86693D01*
X151102D01*
X153386Y84409D01*
D02*
G37*
%LPC*%
G36*
X134110Y84327D02*
X131748D01*
Y81079D01*
X134110D01*
Y84327D01*
D02*
G37*
G36*
X129748D02*
X127386D01*
Y81079D01*
X129748D01*
Y84327D01*
D02*
G37*
G36*
X134110Y79079D02*
X131748D01*
Y75831D01*
X134110D01*
Y79079D01*
D02*
G37*
G36*
X129748D02*
X127386D01*
Y75831D01*
X129748D01*
Y79079D01*
D02*
G37*
G36*
X145134Y84327D02*
X142772D01*
Y81079D01*
X145134D01*
Y84327D01*
D02*
G37*
G36*
X140772D02*
X138409D01*
Y81079D01*
X140772D01*
Y84327D01*
D02*
G37*
G36*
X145134Y79079D02*
X142772D01*
Y75831D01*
X145134D01*
Y79079D01*
D02*
G37*
G36*
X140772D02*
X138409D01*
Y75831D01*
X140772D01*
Y79079D01*
D02*
G37*
G36*
X145382Y47063D02*
X144677D01*
X144026Y46793D01*
X143527Y46295D01*
X143257Y45643D01*
Y44939D01*
X143527Y44287D01*
X144026Y43789D01*
X144677Y43519D01*
X145382D01*
X146033Y43789D01*
X146531Y44287D01*
X146801Y44939D01*
Y45643D01*
X146531Y46295D01*
X146033Y46793D01*
X145382Y47063D01*
D02*
G37*
G36*
X139287Y21344D02*
Y18520D01*
X142112D01*
X141971Y19045D01*
X141450Y19947D01*
X140714Y20683D01*
X139813Y21203D01*
X139287Y21344D01*
D02*
G37*
G36*
X137287Y21344D02*
X136762Y21203D01*
X135860Y20683D01*
X135124Y19947D01*
X134604Y19045D01*
X134463Y18520D01*
X137287D01*
Y21344D01*
D02*
G37*
G36*
X158972D02*
Y18520D01*
X161797D01*
X161656Y19045D01*
X161135Y19947D01*
X160399Y20683D01*
X159498Y21203D01*
X158972Y21344D01*
D02*
G37*
G36*
X156972Y21344D02*
X156447Y21203D01*
X155545Y20683D01*
X154809Y19947D01*
X154289Y19045D01*
X154148Y18520D01*
X156972D01*
Y21344D01*
D02*
G37*
G36*
X148622Y21260D02*
X147637D01*
X146686Y21005D01*
X145833Y20513D01*
X145137Y19816D01*
X144645Y18963D01*
X144390Y18012D01*
Y17027D01*
X144645Y16076D01*
X145137Y15223D01*
X145833Y14527D01*
X146686Y14034D01*
X147637Y13780D01*
X148622D01*
X149574Y14034D01*
X150426Y14527D01*
X151123Y15223D01*
X151615Y16076D01*
X151870Y17027D01*
Y18012D01*
X151615Y18963D01*
X151123Y19816D01*
X150426Y20513D01*
X149574Y21005D01*
X148622Y21260D01*
D02*
G37*
%LPD*%
G36*
X321614Y74842D02*
X321260Y74488D01*
X301732D01*
X298346Y77874D01*
X284764D01*
Y91969D01*
X287047Y94252D01*
X321575D01*
X321614Y74842D01*
D02*
G37*
G36*
X299685Y73829D02*
Y66063D01*
X294803Y61181D01*
Y55472D01*
X291339D01*
Y59724D01*
X291122Y59941D01*
Y60374D01*
X290689D01*
X288976Y62087D01*
X278976D01*
Y71850D01*
X284055Y76929D01*
X296716D01*
X299685Y73829D01*
D02*
G37*
%LPC*%
G36*
X297240Y86315D02*
X293992D01*
Y83953D01*
X297240D01*
Y86315D01*
D02*
G37*
G36*
X291992D02*
X288744D01*
Y83953D01*
X291992D01*
Y86315D01*
D02*
G37*
G36*
X297240Y81953D02*
X293992D01*
Y79591D01*
X297240D01*
Y81953D01*
D02*
G37*
G36*
X291992D02*
X288744D01*
Y79591D01*
X291992D01*
Y81953D01*
D02*
G37*
G36*
X297240Y75291D02*
X293992D01*
Y72929D01*
X297240D01*
Y75291D01*
D02*
G37*
G36*
X291992D02*
X288744D01*
Y72929D01*
X291992D01*
Y75291D01*
D02*
G37*
G36*
X297240Y70929D02*
X293992D01*
Y68567D01*
X297240D01*
Y70929D01*
D02*
G37*
G36*
X291992D02*
X288744D01*
Y68567D01*
X291992D01*
Y70929D01*
D02*
G37*
%LPD*%
G36*
X325827Y41260D02*
X295118D01*
Y49685D01*
X300118D01*
X304410Y53976D01*
X325827D01*
Y41260D01*
D02*
G37*
D11*
X300079Y157343D02*
X307933D01*
X299331D02*
X300079D01*
X307933D02*
X309370Y155905D01*
Y155709D02*
Y155905D01*
X300079Y157343D02*
X300866Y156555D01*
Y150512D02*
Y156555D01*
Y150512D02*
X301063Y150315D01*
Y144764D02*
Y150315D01*
X275433Y107973D02*
X283957D01*
X275118D02*
X275433D01*
X283957D02*
X285236Y106693D01*
Y106496D02*
Y106693D01*
X276220Y101378D02*
Y107185D01*
X275433Y107973D02*
X276220Y107185D01*
X276417Y95984D02*
Y101181D01*
X276220Y101378D02*
X276417Y101181D01*
D12*
X342323Y142126D02*
X344921Y139527D01*
D14*
X102795Y72362D02*
Y72628D01*
X42992Y154961D02*
Y158701D01*
X292992Y47284D02*
X296732D01*
X106614Y74764D02*
Y78504D01*
X141693Y73622D02*
Y78543D01*
D19*
X276142Y26772D02*
X285017Y17896D01*
X287517D02*
X287894Y17520D01*
X276142Y26772D02*
Y73465D01*
X285017Y17896D02*
X287517D01*
X276142Y73465D02*
X286142Y83465D01*
D21*
X67283Y158701D02*
D03*
X78307D02*
D03*
X130748Y80079D02*
D03*
X141772D02*
D03*
D22*
X292992Y71929D02*
D03*
Y82953D02*
D03*
X336811Y126378D02*
D03*
Y115354D02*
D03*
D23*
X314488Y155709D02*
D03*
X309370D02*
D03*
X197441Y196102D02*
D03*
X192323D02*
D03*
X181496Y185669D02*
D03*
X176378D02*
D03*
X131457Y249803D02*
D03*
X136575D02*
D03*
X143661D02*
D03*
X148779D02*
D03*
X107047D02*
D03*
X112165D02*
D03*
X58228D02*
D03*
X63346D02*
D03*
X82638D02*
D03*
X87756D02*
D03*
X70433D02*
D03*
X75551D02*
D03*
X94842D02*
D03*
X99961D02*
D03*
X119252D02*
D03*
X124370D02*
D03*
X187677Y58346D02*
D03*
X182559D02*
D03*
X144413Y137205D02*
D03*
X139295D02*
D03*
X118192Y137559D02*
D03*
X113074D02*
D03*
X161027Y142520D02*
D03*
X155909D02*
D03*
X266535Y150512D02*
D03*
X271654D02*
D03*
X295748D02*
D03*
X300866D02*
D03*
X279252D02*
D03*
X284370D02*
D03*
X413268Y209921D02*
D03*
X418386D02*
D03*
X384803Y204173D02*
D03*
X389921D02*
D03*
X372087D02*
D03*
X377205D02*
D03*
X289685Y203386D02*
D03*
X294803D02*
D03*
X302402D02*
D03*
X307520D02*
D03*
X331024Y209173D02*
D03*
X336142D02*
D03*
X317284Y203386D02*
D03*
X322402D02*
D03*
X399843Y204173D02*
D03*
X404961D02*
D03*
X182559Y69331D02*
D03*
X187677D02*
D03*
X211142D02*
D03*
X216260D02*
D03*
X225394Y74803D02*
D03*
X230512D02*
D03*
X195276Y69331D02*
D03*
X200394D02*
D03*
X276220Y101378D02*
D03*
X271102D02*
D03*
X290354Y106496D02*
D03*
X285236D02*
D03*
X247441Y101732D02*
D03*
X242323D02*
D03*
X228744Y142441D02*
D03*
X223625D02*
D03*
X185909Y137480D02*
D03*
X180791D02*
D03*
X212129Y137126D02*
D03*
X207011D02*
D03*
X257165Y212362D02*
D03*
X252047D02*
D03*
X214331Y207402D02*
D03*
X209213D02*
D03*
X240551Y207047D02*
D03*
X235433D02*
D03*
X106299Y89173D02*
D03*
X111417D02*
D03*
X393543Y16575D02*
D03*
X398661D02*
D03*
D24*
X169213Y252362D02*
D03*
Y247244D02*
D03*
X175906D02*
D03*
Y252362D02*
D03*
X189291D02*
D03*
Y247244D02*
D03*
X302953Y271417D02*
D03*
Y266299D02*
D03*
X36772Y238819D02*
D03*
Y233701D02*
D03*
X27716Y238779D02*
D03*
Y233661D02*
D03*
X145830Y166732D02*
D03*
Y171850D02*
D03*
X125791Y166732D02*
D03*
Y171850D02*
D03*
X404882Y241181D02*
D03*
Y236063D02*
D03*
X384803Y241181D02*
D03*
Y236063D02*
D03*
X279252Y187520D02*
D03*
Y182402D02*
D03*
X299331Y187520D02*
D03*
Y182402D02*
D03*
X322480Y240394D02*
D03*
Y235276D02*
D03*
X302402Y240394D02*
D03*
Y235276D02*
D03*
X9606Y238779D02*
D03*
Y233661D02*
D03*
X162520Y247244D02*
D03*
Y252362D02*
D03*
X155827Y247244D02*
D03*
Y252362D02*
D03*
X182598Y247244D02*
D03*
Y252362D02*
D03*
X214843Y266299D02*
D03*
Y271417D02*
D03*
X211102Y53228D02*
D03*
Y58346D02*
D03*
X215354Y99291D02*
D03*
Y104410D02*
D03*
X195276Y99291D02*
D03*
Y104410D02*
D03*
X255079Y130905D02*
D03*
Y136024D02*
D03*
X275118Y130905D02*
D03*
Y136024D02*
D03*
X193507Y166654D02*
D03*
Y171772D02*
D03*
X213547Y166654D02*
D03*
Y171772D02*
D03*
X221929Y236575D02*
D03*
Y241693D02*
D03*
X241968Y236575D02*
D03*
Y241693D02*
D03*
X18661Y233661D02*
D03*
Y238779D02*
D03*
X92598Y84055D02*
D03*
Y89173D02*
D03*
X99094Y84055D02*
D03*
Y89173D02*
D03*
D25*
X140335Y196083D02*
D03*
Y201083D02*
D03*
Y206083D02*
D03*
Y211083D02*
D03*
Y216083D02*
D03*
Y221083D02*
D03*
Y226083D02*
D03*
Y231083D02*
D03*
X118878Y196083D02*
D03*
Y201083D02*
D03*
Y206083D02*
D03*
Y211083D02*
D03*
Y216083D02*
D03*
Y221083D02*
D03*
Y226083D02*
D03*
Y231083D02*
D03*
X96988Y196083D02*
D03*
Y201083D02*
D03*
Y206083D02*
D03*
Y211083D02*
D03*
Y216083D02*
D03*
Y221083D02*
D03*
Y226083D02*
D03*
Y231083D02*
D03*
X75532Y196083D02*
D03*
Y201083D02*
D03*
Y206083D02*
D03*
Y211083D02*
D03*
Y216083D02*
D03*
Y221083D02*
D03*
Y226083D02*
D03*
Y231083D02*
D03*
X162224D02*
D03*
Y226083D02*
D03*
Y221083D02*
D03*
Y216083D02*
D03*
Y211083D02*
D03*
Y206083D02*
D03*
Y201083D02*
D03*
Y196083D02*
D03*
X183681Y231083D02*
D03*
Y226083D02*
D03*
Y221083D02*
D03*
Y216083D02*
D03*
Y211083D02*
D03*
Y206083D02*
D03*
Y201083D02*
D03*
Y196083D02*
D03*
D26*
X147008Y236693D02*
D03*
Y231181D02*
D03*
X104016Y236693D02*
D03*
Y231181D02*
D03*
X155594Y164449D02*
D03*
Y158937D02*
D03*
X414606Y226693D02*
D03*
Y232205D02*
D03*
X309055Y173031D02*
D03*
Y178543D02*
D03*
X332205Y225905D02*
D03*
Y231417D02*
D03*
X282992Y64803D02*
D03*
Y59291D02*
D03*
X225079Y97362D02*
D03*
Y91850D02*
D03*
X284842Y128622D02*
D03*
Y123110D02*
D03*
X223310Y164370D02*
D03*
Y158858D02*
D03*
X251732Y234291D02*
D03*
Y228780D02*
D03*
X323583Y56732D02*
D03*
Y51221D02*
D03*
X87008Y89370D02*
D03*
Y83858D02*
D03*
D27*
X377756Y211024D02*
D03*
X372244D02*
D03*
X295354Y210236D02*
D03*
X289843D02*
D03*
X272205Y157362D02*
D03*
X266693D02*
D03*
X209370Y213583D02*
D03*
X214882D02*
D03*
X186460Y143661D02*
D03*
X180948D02*
D03*
X118744Y143740D02*
D03*
X113232D02*
D03*
X161224Y148268D02*
D03*
X155712D02*
D03*
X139098Y131772D02*
D03*
X144610D02*
D03*
X130436Y137323D02*
D03*
X124925D02*
D03*
X322598Y197874D02*
D03*
X317087D02*
D03*
X332323Y214646D02*
D03*
X337835D02*
D03*
X309173Y161772D02*
D03*
X314685D02*
D03*
X301063Y144764D02*
D03*
X295551D02*
D03*
X414724Y215433D02*
D03*
X420236D02*
D03*
X405158Y198307D02*
D03*
X399646D02*
D03*
X191260Y231102D02*
D03*
X196772D02*
D03*
X182717Y76181D02*
D03*
X188228D02*
D03*
X210945Y63819D02*
D03*
X216457D02*
D03*
X230709Y80827D02*
D03*
X225197D02*
D03*
X270905Y95984D02*
D03*
X276417D02*
D03*
X259685Y101732D02*
D03*
X254173D02*
D03*
X242480Y107913D02*
D03*
X247992D02*
D03*
X290551Y112441D02*
D03*
X285039D02*
D03*
X198153Y137244D02*
D03*
X192641D02*
D03*
X206814Y131693D02*
D03*
X212326D02*
D03*
X228940Y148189D02*
D03*
X223429D02*
D03*
X226575Y207165D02*
D03*
X221063D02*
D03*
X235236Y201614D02*
D03*
X240748D02*
D03*
X257362Y218110D02*
D03*
X251850D02*
D03*
X125118Y88740D02*
D03*
X119606D02*
D03*
X116102Y47835D02*
D03*
X110591D02*
D03*
X52441Y127992D02*
D03*
X46929D02*
D03*
X55000Y168740D02*
D03*
X60512D02*
D03*
D28*
X36772Y260394D02*
D03*
Y254095D02*
D03*
X27716Y254055D02*
D03*
Y260354D02*
D03*
X18661Y254055D02*
D03*
Y260354D02*
D03*
X9606Y254055D02*
D03*
Y260354D02*
D03*
D29*
X145870Y143799D02*
D03*
Y148799D02*
D03*
Y153799D02*
D03*
Y158799D02*
D03*
X125791D02*
D03*
Y153799D02*
D03*
Y148799D02*
D03*
Y143799D02*
D03*
X384803Y211004D02*
D03*
Y216004D02*
D03*
Y221004D02*
D03*
Y226004D02*
D03*
X404882D02*
D03*
Y221004D02*
D03*
Y216004D02*
D03*
Y211004D02*
D03*
X279252Y157343D02*
D03*
Y162343D02*
D03*
Y167342D02*
D03*
Y172343D02*
D03*
X299331D02*
D03*
Y167342D02*
D03*
Y162343D02*
D03*
Y157343D02*
D03*
X302402Y210216D02*
D03*
Y215216D02*
D03*
Y220216D02*
D03*
Y225217D02*
D03*
X322480D02*
D03*
Y220216D02*
D03*
Y215216D02*
D03*
Y210216D02*
D03*
X215354Y76201D02*
D03*
Y81201D02*
D03*
Y86201D02*
D03*
Y91201D02*
D03*
X195276D02*
D03*
Y86201D02*
D03*
Y81201D02*
D03*
Y76201D02*
D03*
X275118Y107973D02*
D03*
Y112972D02*
D03*
Y117973D02*
D03*
Y122973D02*
D03*
X255039D02*
D03*
Y117973D02*
D03*
Y112972D02*
D03*
Y107973D02*
D03*
X213586Y143720D02*
D03*
Y148721D02*
D03*
Y153720D02*
D03*
Y158721D02*
D03*
X193507D02*
D03*
Y153720D02*
D03*
Y148721D02*
D03*
Y143720D02*
D03*
X242008Y213642D02*
D03*
Y218642D02*
D03*
Y223642D02*
D03*
Y228642D02*
D03*
X221929D02*
D03*
Y223642D02*
D03*
Y218642D02*
D03*
Y213642D02*
D03*
D30*
X161499Y153819D02*
D03*
X155594D02*
D03*
X309055Y167323D02*
D03*
X314961D02*
D03*
X414606Y220984D02*
D03*
X420512D02*
D03*
X332205Y220197D02*
D03*
X338110D02*
D03*
X230984Y86339D02*
D03*
X225079D02*
D03*
X290748Y117992D02*
D03*
X284842D02*
D03*
X229216Y153740D02*
D03*
X223310D02*
D03*
X257638Y223661D02*
D03*
X251732D02*
D03*
D31*
X342323Y167323D02*
D03*
Y142126D02*
D03*
D32*
X289252Y47284D02*
D03*
X292992D02*
D03*
X296732D02*
D03*
Y57520D02*
D03*
X292992D02*
D03*
X289252D02*
D03*
D33*
X305827Y48268D02*
D03*
Y59685D02*
D03*
X316457Y48268D02*
D03*
Y59685D02*
D03*
X200000Y58307D02*
D03*
Y46890D02*
D03*
D34*
X305827Y70512D02*
D03*
Y78386D02*
D03*
X316457Y70512D02*
D03*
Y78386D02*
D03*
D35*
X116850Y82244D02*
D03*
Y78504D02*
D03*
Y74764D02*
D03*
X106614D02*
D03*
Y78504D02*
D03*
Y82244D02*
D03*
X42992Y162441D02*
D03*
Y158701D02*
D03*
Y154961D02*
D03*
X53228D02*
D03*
Y158701D02*
D03*
Y162441D02*
D03*
D36*
X119016Y55000D02*
D03*
X107598D02*
D03*
Y65630D02*
D03*
X119016D02*
D03*
X43976Y135079D02*
D03*
X55394D02*
D03*
X43976Y145709D02*
D03*
X55394D02*
D03*
D37*
X137716Y65630D02*
D03*
X129842D02*
D03*
X137716Y55000D02*
D03*
X129842D02*
D03*
X66220Y145709D02*
D03*
X74094D02*
D03*
X66220Y135079D02*
D03*
X74094D02*
D03*
D65*
X292993Y192219D02*
X294434D01*
X279252Y187520D02*
X290719D01*
X292901Y189702D01*
X294434Y192219D02*
X299134Y187520D01*
X292901Y189702D02*
X293028D01*
X292903Y192309D02*
X292993Y192219D01*
X404882Y211004D02*
X407146D01*
X408228Y209921D01*
X413268D01*
X404961Y204173D02*
Y210925D01*
Y204173D02*
X405059Y204075D01*
Y198406D02*
X405158Y198307D01*
X405059Y198406D02*
Y204075D01*
X372087Y210866D02*
X372165Y210787D01*
X372244Y215709D02*
X382539Y226004D01*
X384803D01*
X372244Y211024D02*
Y215709D01*
X372087Y204173D02*
X372165Y204252D01*
Y210787D01*
X397132Y214840D02*
X399843Y212130D01*
X401028Y225573D02*
X404451D01*
X399843Y204173D02*
Y212130D01*
X397132Y214840D02*
Y221677D01*
X401028Y225573D01*
X404451D02*
X404882Y226004D01*
X399744Y204075D02*
X399843Y204173D01*
X399646Y198307D02*
X399744Y198406D01*
Y204075D01*
X322402Y203386D02*
X322500Y203287D01*
Y197973D02*
Y203287D01*
Y197973D02*
X322598Y197874D01*
X322402Y203386D02*
Y210138D01*
X322480Y210216D01*
X324744D01*
X325787Y209173D01*
X331024D01*
X289685Y210079D02*
X289764Y210000D01*
X289843Y214921D02*
X300138Y225217D01*
X302402D01*
X289843Y210236D02*
Y214921D01*
X289764Y203465D02*
Y210000D01*
X289685Y203386D02*
X289764Y203465D01*
X322049Y224785D02*
X322480Y225217D01*
X318582Y224785D02*
X322049D01*
X314762Y220965D02*
X318582Y224785D01*
X314762Y213996D02*
Y220965D01*
Y213996D02*
X317284Y211474D01*
Y203386D02*
Y211474D01*
X317185Y203287D02*
X317284Y203386D01*
X317087Y197874D02*
X317185Y197973D01*
Y203287D01*
X266693Y162047D02*
X276988Y172343D01*
X266693Y157362D02*
Y162047D01*
X276988Y172343D02*
X279252D01*
X266535Y150512D02*
X266614Y150591D01*
Y157283D01*
X266693Y157362D01*
X298900Y171911D02*
X299331Y172343D01*
X295433Y171911D02*
X298900D01*
X291612Y168091D02*
X295433Y171911D01*
X291612Y158879D02*
Y168091D01*
Y158879D02*
X295748Y154744D01*
Y150512D02*
Y154744D01*
X295650Y144862D02*
Y150413D01*
X295748Y150512D01*
X295551Y144764D02*
X295650Y144862D01*
X242480Y112677D02*
X252776Y122973D01*
X255039D01*
X242480Y107913D02*
Y112677D01*
X242402Y101811D02*
Y107835D01*
X242480Y107913D01*
X242323Y101732D02*
X242402Y101811D01*
X274687Y122541D02*
X275118Y122973D01*
X271225Y122541D02*
X274687D01*
X267408Y118724D02*
X271225Y122541D01*
X267408Y109501D02*
Y118724D01*
Y109501D02*
X271102Y105807D01*
Y101378D02*
Y105807D01*
X271004Y101279D02*
X271102Y101378D01*
X270905Y95984D02*
X271004Y96083D01*
Y101279D01*
X214923Y90770D02*
X215354Y91201D01*
X210817Y90770D02*
X214923D01*
X207163Y87116D02*
X210817Y90770D01*
X207163Y73506D02*
Y87116D01*
Y73506D02*
X211142Y69528D01*
Y69331D02*
Y69528D01*
X210945Y63819D02*
X211043Y63917D01*
Y69232D01*
X211142Y69331D01*
X182638Y76102D02*
X182717Y76181D01*
X182638Y69410D02*
Y76102D01*
X182559Y69331D02*
X182638Y69410D01*
X182717Y80905D02*
X193012Y91201D01*
X195276D01*
X182717Y76181D02*
Y80905D01*
X151175Y176949D02*
X154615D01*
X165354Y234873D02*
Y235000D01*
X162224Y231083D02*
X163898D01*
X164329Y231514D01*
Y233848D01*
X165354Y234873D01*
X100696Y203583D02*
X101575Y202704D01*
X92979Y201083D02*
X96988D01*
Y196083D02*
X97419Y196514D01*
X101575Y198996D02*
Y202704D01*
X94015Y203583D02*
X100696D01*
X85492Y208570D02*
X92979Y201083D01*
X87992Y209605D02*
X94015Y203583D01*
X97419Y196514D02*
X99093D01*
X101575Y198996D01*
X182598Y252362D02*
X183522Y253285D01*
X183816D01*
X184695Y254164D01*
Y260764D01*
X178738Y266721D02*
Y267607D01*
X188368Y253285D02*
X189291Y252362D01*
X175827Y270519D02*
Y270787D01*
X187195Y254164D02*
X188074Y253285D01*
X188368D01*
X187195Y254164D02*
Y261800D01*
X176707Y276396D02*
Y279907D01*
X178738Y266721D02*
X184695Y260764D01*
X175827Y280787D02*
X176707Y279907D01*
X175827Y270519D02*
X178738Y267607D01*
X176707Y276396D02*
X181238Y271865D01*
Y267757D02*
Y271865D01*
Y267757D02*
X187195Y261800D01*
X170430Y253285D02*
X171309Y254164D01*
X170136Y253285D02*
X170430D01*
X168738Y265028D02*
Y267607D01*
X165827Y270519D02*
X168738Y267607D01*
Y265028D02*
X171309Y262457D01*
Y254164D02*
Y262457D01*
X165827Y270519D02*
Y270787D01*
X166707Y276396D02*
X171238Y271865D01*
Y266064D02*
X173809Y263493D01*
X166707Y276396D02*
Y279907D01*
X171238Y266064D02*
Y271865D01*
X173809Y254164D02*
Y263493D01*
X169213Y252362D02*
X170136Y253285D01*
X173809Y254164D02*
X174688Y253285D01*
X165827Y280787D02*
X166707Y279907D01*
X174982Y253285D02*
X175906Y252362D01*
X174688Y253285D02*
X174982D01*
X147856Y248880D02*
X148779Y249803D01*
X147856Y247384D02*
Y248880D01*
X136380Y229564D02*
Y235908D01*
X147856Y247384D01*
X130415Y269348D02*
X143661Y256102D01*
Y249803D02*
Y256102D01*
X130415Y269348D02*
Y271865D01*
X135827Y270787D02*
X136501Y270114D01*
Y266964D02*
Y270114D01*
Y266964D02*
X144697Y258768D01*
X144697D01*
X148779Y254685D01*
X139903Y226514D02*
X140335Y226083D01*
X130415Y271865D02*
X134946Y276396D01*
X148779Y249606D02*
Y254685D01*
X136730Y221083D02*
Y222547D01*
Y226083D02*
Y229214D01*
X134946Y276396D02*
Y279907D01*
X135827Y280787D01*
X136730Y226083D02*
X140335D01*
X136380Y229564D02*
X136730Y229214D01*
X142911Y249053D02*
X143661Y249803D01*
X142911Y247589D02*
Y249053D01*
X136730Y221083D02*
X140335D01*
X133880Y238558D02*
X142911Y247589D01*
X133880Y225397D02*
X136730Y222547D01*
X133880Y225397D02*
Y238558D01*
X144646Y198721D02*
Y202704D01*
X143767Y203583D02*
X144646Y202704D01*
X140335Y196083D02*
X140766Y196514D01*
X137008Y203583D02*
X143767D01*
X140766Y196514D02*
X142439D01*
X144646Y198721D01*
X131319Y209272D02*
Y242894D01*
X128819Y208236D02*
Y243929D01*
Y208236D02*
X135972Y201083D01*
X140335D01*
X131319Y209272D02*
X137008Y203583D01*
X133485Y245060D02*
X135652Y247226D01*
X128819Y243929D02*
X131308Y246419D01*
Y249655D01*
X135652Y247226D02*
Y248880D01*
X131319Y242894D02*
X133485Y245060D01*
X133485D01*
X131290Y249673D02*
X131308Y249655D01*
X120415Y263797D02*
Y271865D01*
X122915Y264833D02*
Y267607D01*
X135652Y250726D02*
Y252097D01*
X131290Y249673D02*
Y252923D01*
X122915Y264833D02*
X135652Y252097D01*
X120415Y263797D02*
X131290Y252923D01*
X135652Y248880D02*
X136575Y249803D01*
X125827Y270519D02*
Y270787D01*
X122915Y267607D02*
X125827Y270519D01*
X135652Y250726D02*
X136575Y249803D01*
X120415Y271865D02*
X124946Y276396D01*
Y279907D01*
X125827Y280787D01*
X123061Y239018D02*
X125897Y236182D01*
X120551Y201083D02*
X123189Y203721D01*
X123553D02*
X125897Y206064D01*
Y236182D01*
X123189Y203721D02*
X123553D01*
X119016Y206221D02*
X122518D01*
X123397Y207100D01*
X118878Y206083D02*
X119016Y206221D01*
X123397Y207100D02*
Y235147D01*
X120561Y237982D02*
X123397Y235147D01*
X123061Y239018D02*
Y246887D01*
X120561Y237982D02*
Y246887D01*
X123447Y248880D02*
X124370Y249803D01*
X120175Y247273D02*
Y248880D01*
Y247273D02*
X120561Y246887D01*
X118878Y201083D02*
X120551D01*
X119252Y249803D02*
X120175Y248880D01*
X123447Y247273D02*
Y248880D01*
X123061Y246887D02*
X123447Y247273D01*
X112915Y267607D02*
X115827Y270519D01*
X123061Y252719D02*
Y256056D01*
X112915Y266202D02*
X123061Y256056D01*
X112915Y266202D02*
Y267607D01*
X123447Y250726D02*
Y252334D01*
Y250726D02*
X124370Y249803D01*
X110415Y271865D02*
X114946Y276396D01*
X110415Y265166D02*
Y271865D01*
Y265166D02*
X120561Y255021D01*
X115827Y270519D02*
Y270787D01*
X120561Y252719D02*
Y255021D01*
X120175Y252334D02*
X120561Y252719D01*
X123061Y252719D02*
X123447Y252334D01*
X120175Y250726D02*
Y252334D01*
X114946Y276396D02*
Y279907D01*
X115827Y280787D01*
X119252Y249803D02*
X120175Y250726D01*
X110896Y229676D02*
Y241221D01*
X113396Y230711D02*
Y242256D01*
X108356Y243760D02*
X110896Y241221D01*
X110856Y244796D02*
X113396Y242256D01*
X110856Y248297D02*
X112165Y249606D01*
Y249803D01*
X115955Y229833D02*
X117205Y231083D01*
X114274Y229833D02*
X115955D01*
X117205Y231083D02*
X118878D01*
X107047Y249606D02*
Y249803D01*
X113396Y230711D02*
X114274Y229833D01*
X107047Y249606D02*
X108356Y248297D01*
X110896Y229676D02*
X113239Y227333D01*
X110856Y244796D02*
Y248297D01*
X113239Y227333D02*
X115955D01*
X117205Y226083D02*
X118878D01*
X115955Y227333D02*
X117205Y226083D01*
X108356Y243760D02*
Y248297D01*
X102915Y267607D02*
X105827Y270519D01*
X102915Y266202D02*
X110856Y258261D01*
X102915Y266202D02*
Y267607D01*
X110856Y252719D02*
Y258261D01*
Y252719D02*
X111242Y252334D01*
X108356Y252719D02*
Y257225D01*
X100415Y265166D02*
Y271865D01*
X104946Y276396D01*
X100415Y265166D02*
X108356Y257225D01*
X111242Y250726D02*
X112165Y249803D01*
X111242Y250726D02*
Y252334D01*
X104946Y279907D02*
X105827Y280787D01*
X107047Y249803D02*
X107970Y250726D01*
Y252334D02*
X108356Y252719D01*
X104946Y276396D02*
Y279907D01*
X107970Y250726D02*
Y252334D01*
X105827Y270519D02*
Y270787D01*
X96557Y221514D02*
X96988Y221083D01*
X94265Y221514D02*
X96557D01*
X89842Y225937D02*
X94265Y221514D01*
X99037Y248880D02*
X99961Y249803D01*
X99037Y247273D02*
Y248880D01*
X92342Y231910D02*
X98652Y238219D01*
Y246887D01*
X99037Y247273D01*
X92342Y226972D02*
X93221Y226093D01*
X92342Y226972D02*
Y231910D01*
X96978Y226093D02*
X96988Y226083D01*
X93221Y226093D02*
X96978D01*
X95766Y247273D02*
X96152Y246887D01*
X89842Y232946D02*
X96152Y239255D01*
Y246887D01*
X89842Y225937D02*
Y232946D01*
X94842Y249803D02*
X95766Y248880D01*
Y247273D02*
Y248880D01*
X92915Y266202D02*
Y267607D01*
Y266202D02*
X98652Y260466D01*
X99037Y250726D02*
Y252334D01*
Y250726D02*
X99961Y249803D01*
X95766Y252334D02*
X96152Y252719D01*
X95827Y270519D02*
Y270787D01*
X90415Y265166D02*
X96152Y259430D01*
X94946Y279907D02*
X95827Y280787D01*
X92915Y267607D02*
X95827Y270519D01*
X95766Y250726D02*
Y252334D01*
X98652Y252719D02*
X99037Y252334D01*
X96152Y252719D02*
Y259430D01*
X94842Y249803D02*
X95766Y250726D01*
X90415Y265166D02*
Y271865D01*
X98652Y252719D02*
Y260466D01*
X94946Y276396D02*
Y279907D01*
X90415Y271865D02*
X94946Y276396D01*
X85492Y208570D02*
Y233652D01*
X86833Y248880D02*
X87756Y249803D01*
X86833Y247273D02*
Y248880D01*
X86447Y236233D02*
X87992Y234687D01*
X86447Y236233D02*
Y246887D01*
X87992Y209605D02*
Y234687D01*
X83561Y247273D02*
Y248880D01*
X82638Y249803D02*
X83561Y248880D01*
X83947Y235197D02*
Y246887D01*
X83561Y247273D02*
X83947Y246887D01*
Y235197D02*
X85492Y233652D01*
X86447Y246887D02*
X86833Y247273D01*
X74242Y242285D02*
X82158Y234370D01*
X82158D02*
X83622Y232905D01*
X82158Y234370D02*
X82158D01*
X81122Y205711D02*
Y231870D01*
X83622Y204676D02*
Y232905D01*
X81122Y231870D02*
X81122D01*
X78455Y204833D02*
X80244D01*
X81122Y205711D01*
X71742Y241250D02*
X81122Y231870D01*
X78455Y202333D02*
X81279D01*
X83622Y204676D01*
X85827Y270519D02*
Y270787D01*
X86447Y252719D02*
X86833Y252334D01*
Y250726D02*
X87756Y249803D01*
X83561Y252334D02*
X83947Y252719D01*
X86447Y252719D02*
Y261727D01*
X80415Y264223D02*
Y271865D01*
X84946Y279907D02*
X85827Y280787D01*
X82915Y265258D02*
X86447Y261727D01*
X82638Y249803D02*
X83561Y250726D01*
X86833D02*
Y252334D01*
X83947Y252719D02*
Y260691D01*
X82915Y267607D02*
X85827Y270519D01*
X80415Y264223D02*
X83947Y260691D01*
X82915Y265258D02*
Y267607D01*
X80415Y271865D02*
X84946Y276396D01*
X83561Y250726D02*
Y252334D01*
X84946Y276396D02*
Y279907D01*
X71742Y241250D02*
Y246887D01*
X74242Y242285D02*
Y246887D01*
X77205Y206083D02*
X78455Y204833D01*
X75532Y206083D02*
X77205D01*
Y201083D02*
X78455Y202333D01*
X74628Y248880D02*
X75551Y249803D01*
X74628Y247273D02*
Y248880D01*
X75532Y201083D02*
X77205D01*
X74242Y246887D02*
X74628Y247273D01*
X71356D02*
Y248880D01*
X70433Y249803D02*
X71356Y248880D01*
Y247273D02*
X71742Y246887D01*
X72915Y264156D02*
X74242Y262829D01*
X75827Y270519D02*
Y270787D01*
X74628Y250726D02*
Y252334D01*
X71742Y252719D02*
Y261793D01*
X74628Y250726D02*
X75551Y249803D01*
X70415Y271865D02*
X74946Y276396D01*
X74242Y252719D02*
Y262829D01*
X74946Y276396D02*
Y279907D01*
X72915Y267607D02*
X75827Y270519D01*
X74946Y279907D02*
X75827Y280787D01*
X70433Y249803D02*
X71356Y250726D01*
Y252334D02*
X71742Y252719D01*
X71356Y250726D02*
Y252334D01*
X70415Y263120D02*
X71742Y261793D01*
X74242Y252719D02*
X74628Y252334D01*
X72915Y264156D02*
Y267607D01*
X70415Y263120D02*
Y271865D01*
X65827Y270763D02*
Y270787D01*
X62037Y252719D02*
Y266973D01*
X64946Y279907D02*
X65827Y280787D01*
X62423Y250726D02*
X63346Y249803D01*
X64946Y276396D02*
Y279907D01*
X62423Y250726D02*
Y252334D01*
X60415Y271865D02*
X64946Y276396D01*
X60415Y268887D02*
Y271865D01*
X59152Y252334D02*
X59537Y252719D01*
X59152Y250726D02*
Y252334D01*
X59537Y252719D02*
Y268009D01*
X62037Y252719D02*
X62423Y252334D01*
X58228Y249803D02*
X59152Y250726D01*
X59537Y268009D02*
X60415Y268887D01*
X62037Y266973D02*
X65827Y270763D01*
X62037Y238222D02*
X70427Y229833D01*
X62423Y248880D02*
X63346Y249803D01*
X59152Y247273D02*
X59537Y246887D01*
X62037Y238222D02*
Y246887D01*
X59152Y247273D02*
Y248880D01*
X58228Y249803D02*
X59152Y248880D01*
X59537Y237187D02*
Y246887D01*
X62037Y246887D02*
X62423Y247273D01*
Y248880D01*
X70427Y229833D02*
X72608D01*
X73858Y226083D02*
X75532D01*
X72608Y227333D02*
X73858Y226083D01*
X69392Y227333D02*
X72608D01*
X59537Y237187D02*
X69392Y227333D01*
X72608Y229833D02*
X73858Y231083D01*
X75532D01*
X155827Y252362D02*
X156750Y253285D01*
X157045D01*
X157923Y262906D02*
X158738Y263721D01*
X157923Y254164D02*
Y262906D01*
X158738Y263721D02*
Y267607D01*
X155827Y270519D02*
X158738Y267607D01*
X160423Y254164D02*
Y261871D01*
X161238Y262686D01*
X160423Y254164D02*
X161302Y253285D01*
X161597D02*
X162520Y252362D01*
X161302Y253285D02*
X161597D01*
X155827Y270519D02*
Y270787D01*
Y280787D02*
X156707Y279907D01*
X157045Y253285D02*
X157923Y254164D01*
X156707Y276396D02*
X161238Y271865D01*
X156707Y276396D02*
Y279907D01*
X161238Y262686D02*
Y271865D01*
X260157Y136417D02*
X261348D01*
X138683Y174624D02*
X145924D01*
X138615Y174556D02*
X138683Y174624D01*
X145924D02*
X147148Y175848D01*
X146960Y172124D02*
X149648Y174812D01*
Y175422D02*
X151175Y176949D01*
X132616Y174556D02*
X138615D01*
X147148Y176457D02*
X150140Y179449D01*
X145830Y171850D02*
X146103Y172124D01*
X146960D01*
X149648Y174812D02*
Y175422D01*
X150140Y179449D02*
X154409D01*
X147148Y175848D02*
Y176457D01*
X129911Y171850D02*
X132616Y174556D01*
X125791Y171850D02*
X129911D01*
X198537Y171772D02*
X202277Y175512D01*
X206144Y171772D02*
X213547D01*
X204171Y173744D02*
X206144Y171772D01*
X204045Y173744D02*
X204171D01*
X193507Y171772D02*
X198537D01*
X205833Y108114D02*
X209537Y104410D01*
X195276D02*
X198592D01*
X204065Y109882D01*
X209537Y104410D02*
X215354D01*
X268395Y133917D02*
X270501Y136024D01*
X263848Y133917D02*
X268395D01*
X255079Y136024D02*
X259763D01*
X260157Y136417D01*
X270501Y136024D02*
X275118D01*
X299134Y187520D02*
X299331D01*
X221929Y241693D02*
X229820D01*
X251654Y269528D02*
X256037Y265144D01*
X233199Y242572D02*
Y243814D01*
X267740Y263022D02*
Y264265D01*
X233199Y243814D02*
X241401Y252017D01*
X270240Y261987D02*
Y265930D01*
X230699Y244850D02*
X240366Y254517D01*
X230699Y242572D02*
Y244850D01*
X272022Y267712D02*
Y271343D01*
X270240Y265930D02*
X272022Y267712D01*
X259234Y254517D02*
X267740Y263022D01*
X263838Y279528D02*
X272022Y271343D01*
X256037Y265144D02*
X266861D01*
X263661Y279528D02*
X263838D01*
X240366Y254517D02*
X259234D01*
X241401Y252017D02*
X260269D01*
X233199Y242572D02*
X234078Y241693D01*
X229820D02*
X230699Y242572D01*
X260269Y252017D02*
X270240Y261987D01*
X266861Y265144D02*
X267740Y264265D01*
X234078Y241693D02*
X241968D01*
X302402Y240394D02*
X310312D01*
X318886Y276459D02*
X331628D01*
X333844Y278675D02*
Y281343D01*
X331628Y276459D02*
X333844Y278675D01*
Y281343D02*
X336413Y283911D01*
X313691Y267728D02*
X319922Y273959D01*
X313691Y241272D02*
Y267728D01*
X336413Y275144D02*
X344581D01*
X335752Y275804D02*
X336413Y275144D01*
X311191Y268763D02*
X318886Y276459D01*
X311191Y241272D02*
Y268763D01*
X334509Y275804D02*
X335752D01*
X313691Y241272D02*
X314570Y240394D01*
X319922Y273959D02*
X332663D01*
X314570Y240394D02*
X322480D01*
X341837Y283911D02*
X346220Y279528D01*
X336413Y283911D02*
X341837D01*
X332663Y273959D02*
X334509Y275804D01*
X344581Y275144D02*
X350197Y269528D01*
X310312Y240394D02*
X311191Y241272D01*
X393593Y242060D02*
Y256862D01*
X369922Y273959D02*
X376496D01*
X361107Y265144D02*
X369922Y273959D01*
X346589Y265144D02*
X361107D01*
X368886Y276459D02*
X377531D01*
X342205Y269528D02*
X346589Y265144D01*
X384803Y241181D02*
X392714D01*
X363793Y271366D02*
X368886Y276459D01*
X376496Y273959D02*
X393593Y256862D01*
X362551Y271366D02*
X363793D01*
X396093Y242060D02*
X396971Y241181D01*
X354213Y279528D02*
X354389D01*
X377531Y276459D02*
X396093Y257897D01*
X354389Y279528D02*
X362551Y271366D01*
X396093Y242060D02*
Y257897D01*
X396971Y241181D02*
X404882D01*
X392714D02*
X393593Y242060D01*
D66*
X417749Y201371D02*
Y209284D01*
X417598Y201220D02*
X417749Y201371D01*
Y209284D02*
X418386Y209921D01*
X399366Y220752D02*
X399493Y220878D01*
X335276Y200709D02*
X335426Y200859D01*
Y208458D01*
X336142Y209173D01*
X316996Y220039D02*
X317085Y220128D01*
X314409Y147598D02*
Y155630D01*
X314331Y147520D02*
X314409Y147598D01*
Y155630D02*
X314488Y155709D01*
X284842Y128622D02*
Y131417D01*
Y128622D02*
X284842Y128622D01*
X293935Y167254D02*
X299242D01*
X293847Y167165D02*
X293935Y167254D01*
X215669Y76201D02*
X217618D01*
X215354D02*
X215669D01*
X217618D02*
X219016Y74803D01*
X225394D01*
X216260Y69331D02*
Y75610D01*
X215669Y76201D02*
X216260Y75610D01*
X216358Y63917D02*
Y69232D01*
X216260Y69331D02*
X216358Y69232D01*
Y63917D02*
X216457Y63819D01*
X209403Y86196D02*
X215349D01*
X209398Y86191D02*
X209403Y86196D01*
X230241Y285118D02*
X285074D01*
X225650Y282716D02*
X227839D01*
X230241Y285118D01*
X285074D02*
X287476Y282716D01*
X289665D01*
X322119Y286339D02*
X375756D01*
X379378Y282716D01*
X380217D01*
X318497D02*
X322119Y286339D01*
X200472Y53228D02*
Y53548D01*
X214941Y213642D02*
X221929D01*
Y228642D02*
Y236575D01*
X241220Y227854D02*
X242008Y228642D01*
X241968Y236575D02*
X242008Y236535D01*
Y228642D02*
Y236535D01*
Y218642D02*
X242539Y218110D01*
X251850D01*
X240551Y207047D02*
Y212854D01*
X241339Y213642D01*
X242008D01*
X250768D02*
X252047Y212362D01*
X242008Y213642D02*
X250768D01*
X235236Y201614D02*
Y206850D01*
X235433Y207047D01*
X240551D02*
X240748Y206850D01*
Y201614D02*
Y206850D01*
X209213Y207402D02*
Y213425D01*
X214331Y207402D02*
X214882Y207953D01*
X214331Y207402D02*
X220827D01*
X214882Y207953D02*
Y213583D01*
X257165Y212362D02*
X257165Y212362D01*
X257165Y217913D02*
X257362Y218110D01*
X251732Y234291D02*
X251732Y234291D01*
X209213Y213425D02*
X209370Y213583D01*
X214882D02*
X214941Y213642D01*
X295354Y210236D02*
X302382D01*
X302402Y210216D01*
Y225217D02*
Y235276D01*
X322480Y225217D02*
Y235276D01*
X294803Y203386D02*
Y209685D01*
X295354Y210236D01*
X294803Y203386D02*
X302402D01*
X332165Y231457D02*
X332205Y231417D01*
X289685Y210079D02*
X289843Y210236D01*
X337835Y214646D02*
X338520Y213961D01*
X9606Y238779D02*
Y254055D01*
X18661Y238779D02*
Y254055D01*
X27716Y238779D02*
Y254055D01*
X36772Y238819D02*
Y254095D01*
X111417Y89173D02*
X111457Y89213D01*
X215354Y91201D02*
Y99291D01*
X195276Y91201D02*
Y99291D01*
X225079Y97362D02*
X225079Y97362D01*
X230709Y80827D02*
X230709Y80827D01*
X200000Y68937D02*
X200394Y69331D01*
X200000Y58307D02*
Y68937D01*
X210984Y58465D02*
X211102Y58346D01*
X195276Y86201D02*
X195295Y86221D01*
X255039Y122973D02*
Y130866D01*
X255079Y130905D01*
X247441Y101732D02*
X247441Y101732D01*
X247441Y107362D02*
X247992Y107913D01*
X247441Y101732D02*
Y107362D01*
X247992Y107913D02*
X254980D01*
X255039Y107973D01*
X259685Y101732D02*
X259842Y101575D01*
X290551Y112441D02*
X290591Y112402D01*
X255039Y117973D02*
X255050Y117983D01*
X260306D01*
X296732Y57520D02*
X296772Y57559D01*
X323189Y56732D02*
X323583D01*
X316457Y59685D02*
X317659Y58483D01*
X282992Y59291D02*
X283386D01*
X285157Y57520D02*
X289252D01*
X283386Y59291D02*
X285157Y57520D01*
X55000Y168346D02*
Y168740D01*
X53228Y166575D02*
X55000Y168346D01*
X53228Y162441D02*
Y166575D01*
Y154961D02*
X53228Y154961D01*
Y151969D02*
Y154961D01*
X66220Y145709D02*
X66220Y145709D01*
X55394D02*
X55394Y145709D01*
X66220Y135079D02*
X66220Y135079D01*
X55394D02*
X55394Y135079D01*
X54191Y130136D02*
Y133877D01*
X55394Y135079D01*
X52441Y127992D02*
Y128386D01*
X54191Y130136D01*
X117270Y67376D02*
X119016Y65630D01*
X116102Y47835D02*
Y50787D01*
X119016Y53701D02*
Y55000D01*
X116102Y50787D02*
X119016Y53701D01*
X390295Y16575D02*
X393543D01*
X381398Y7677D02*
X390295Y16575D01*
X398661D02*
X398701Y16535D01*
X212129Y142933D02*
X212917Y143720D01*
X212129Y137126D02*
Y142933D01*
X212917Y143720D02*
X213586D01*
X222346D02*
X223625Y142441D01*
X213586Y143720D02*
X222346D01*
X213586Y148721D02*
X214118Y148189D01*
X223429D01*
X207011Y137126D02*
Y146007D01*
X212799Y157933D02*
X213586Y158721D01*
X213547Y166654D02*
X213586Y166614D01*
Y158721D02*
Y166614D01*
X180948Y148425D02*
X191244Y158721D01*
X180948Y143661D02*
Y148425D01*
X191244Y158721D02*
X193507D01*
Y166654D01*
X186519Y143720D02*
X193507D01*
X212129Y137126D02*
X212326Y136929D01*
Y131693D02*
Y136929D01*
X206814Y131693D02*
Y136929D01*
X207011Y137126D01*
X185909Y137480D02*
X186460Y138031D01*
X185909Y137480D02*
X192405D01*
X186460Y138031D02*
Y143661D01*
X192405Y137480D02*
X192641Y137244D01*
X180791Y137480D02*
Y143504D01*
X180948Y143661D01*
X228744Y142441D02*
X228744Y142441D01*
X223310Y164370D02*
X223310Y164370D01*
X228744Y147992D02*
X228940Y148189D01*
X186460Y143661D02*
X186519Y143720D01*
X144413Y143012D02*
X145200Y143799D01*
X144413Y137205D02*
Y143012D01*
X145200Y143799D02*
X145870D01*
X154629D02*
X155909Y142520D01*
X145870Y143799D02*
X154629D01*
X145870Y148799D02*
X146401Y148268D01*
X155712D01*
X139295Y137205D02*
Y146085D01*
X145082Y158012D02*
X145870Y158799D01*
X145830Y166732D02*
X145870Y166693D01*
Y158799D02*
Y166693D01*
X113232Y148504D02*
X123527Y158799D01*
X113232Y143740D02*
Y148504D01*
X123527Y158799D02*
X125791D01*
Y166732D01*
X118803Y143799D02*
X125791D01*
X144413Y137205D02*
X144610Y137008D01*
Y131772D02*
Y137008D01*
X139098Y131772D02*
Y137008D01*
X139295Y137205D01*
X118192Y137559D02*
X118744Y138110D01*
X118192Y137559D02*
X124688D01*
X118744Y138110D02*
Y143740D01*
X113074Y137559D02*
Y143583D01*
X113232Y143740D01*
X161027Y142520D02*
X161027Y142520D01*
X155594Y164449D02*
X155594Y164449D01*
X161027Y148071D02*
X161224Y148268D01*
X118744Y143740D02*
X118803Y143799D01*
X377756Y211024D02*
X384783D01*
X384803Y211004D01*
Y226004D02*
Y236063D01*
X404882Y226004D02*
Y236063D01*
X372087Y210866D02*
X372244Y211024D01*
X377205Y204173D02*
Y210472D01*
X377756Y211024D01*
X377205Y204173D02*
X384803D01*
X414567Y232244D02*
X414606Y232205D01*
X420236Y215433D02*
X420921Y214748D01*
X272205Y157362D02*
X279232D01*
X279252Y157343D01*
Y172343D02*
Y182402D01*
X299331Y172343D02*
Y182402D01*
X271654Y150512D02*
Y156811D01*
X272205Y157362D01*
X271654Y150512D02*
X279252D01*
X309016Y178583D02*
X309055Y178543D01*
X314685Y161772D02*
X315370Y161086D01*
X314449Y282716D02*
X316201D01*
X303150Y271417D02*
X314449Y282716D01*
X302953Y271417D02*
X303150D01*
X214843D02*
X215039D01*
X225650Y282028D02*
Y282716D01*
X215039Y271417D02*
X225650Y282028D01*
X235433Y207047D02*
Y215928D01*
X254095Y101654D02*
X254173Y101732D01*
X254095Y92205D02*
Y101654D01*
X275118Y122973D02*
Y130905D01*
X247441Y101732D02*
X254173D01*
X200000Y54020D02*
Y58307D01*
Y54020D02*
X200472Y53548D01*
X209370Y219252D02*
X217984Y227866D01*
X209370Y213583D02*
Y219252D01*
X217984Y227866D02*
X221153D01*
X221929Y228642D01*
X116850Y74764D02*
X117342D01*
X118032Y74075D01*
X316201Y282716D02*
X318497D01*
X140807Y158012D02*
X145082D01*
X137913Y147467D02*
Y155118D01*
Y147467D02*
X139295Y146085D01*
X137913Y155118D02*
X140807Y158012D01*
X205472Y147546D02*
X207011Y146007D01*
X205472Y154646D02*
X208760Y157933D01*
X212799D01*
X205472Y147546D02*
Y154646D01*
X233661Y217700D02*
X235433Y215928D01*
X236205Y227854D02*
X241220D01*
X233661Y217700D02*
Y225311D01*
X236205Y227854D01*
X187717Y58307D02*
X200000D01*
X187677Y58346D02*
X187717Y58307D01*
X146132Y206033D02*
X146181Y205984D01*
X140335Y206083D02*
X140384Y206033D01*
X146132D01*
X133543Y127284D02*
X133583Y127244D01*
X133432Y127395D02*
X133543Y127284D01*
X133432Y127395D02*
Y128422D01*
X124688Y137165D02*
X133432Y128422D01*
X230984Y86339D02*
X234724D01*
X200096Y46985D02*
X206715D01*
X206772Y46929D01*
X200000Y46890D02*
X200096Y46985D01*
X156653Y200905D02*
X156742Y200994D01*
X162136D01*
X162224Y201083D01*
X177205Y196339D02*
X177333Y196211D01*
X183553D02*
X183681Y196083D01*
X177333Y196211D02*
X183553D01*
X147392Y216092D02*
X147402Y216102D01*
X140335Y216083D02*
X140345Y216092D01*
X147392D01*
X140364Y211053D02*
X145443D01*
X145472Y211024D01*
X140335Y211083D02*
X140364Y211053D01*
X197441Y196102D02*
X202244D01*
X181535Y185709D02*
X186063D01*
X181496Y185669D02*
X181535Y185709D01*
X183681Y196083D02*
X192303D01*
X192323Y196102D01*
X162224Y201083D02*
X162815Y200492D01*
X166773D02*
X176378Y190887D01*
X162815Y200492D02*
X166773D01*
X176378Y185669D02*
Y190887D01*
X113337Y211152D02*
X118809D01*
X113268Y211221D02*
X113337Y211152D01*
X118809D02*
X118878Y211083D01*
X110472Y221220D02*
X110541Y221152D01*
X118809D02*
X118878Y221083D01*
X110541Y221152D02*
X118809D01*
X96988Y216083D02*
X96998Y216092D01*
X104951D01*
X104961Y216102D01*
X102543Y205787D02*
X102756D01*
X96988Y206083D02*
X102248D01*
X102543Y205787D01*
X44291Y215945D02*
X69528D01*
X36772Y223465D02*
X44291Y215945D01*
X69528D02*
X69596Y216014D01*
X75463D01*
X66260Y220630D02*
X69741D01*
X70193Y221083D01*
X75532D01*
X75463Y216014D02*
X75532Y216083D01*
X75502Y211112D02*
X75532Y211083D01*
X68967Y211112D02*
X75502D01*
X68937Y211142D02*
X68967Y211112D01*
X27913Y228898D02*
X95748Y161063D01*
X118740D01*
X27913Y228898D02*
Y233465D01*
X36772Y223465D02*
Y233701D01*
X177717Y58346D02*
X182559D01*
X140384Y231132D02*
X146959D01*
X140335Y231083D02*
X140384Y231132D01*
X146959D02*
X147008Y231181D01*
X129737Y149555D02*
X131355D01*
X129571Y149390D02*
X129737Y149555D01*
X131355D02*
X131506Y149706D01*
X126381Y149390D02*
X129571D01*
X157313Y216014D02*
X162155D01*
X162224Y216083D01*
X157244Y215945D02*
X157313Y216014D01*
X101998Y211073D02*
X102008Y211063D01*
X96988Y211083D02*
X96998Y211073D01*
X101998D01*
X113927Y216053D02*
X118848D01*
X118878Y216083D01*
X113898Y216024D02*
X113927Y216053D01*
X87008Y89370D02*
X87106Y89272D01*
X92500D02*
X92598Y89173D01*
X87106Y89272D02*
X92500D01*
X92598Y89173D02*
X99094D01*
X92598Y89173D02*
X92598Y89173D01*
X99094Y76063D02*
Y84055D01*
Y76063D02*
X102795Y72362D01*
X92598Y84055D02*
X99094D01*
X92598Y84055D02*
X92598Y84055D01*
X87559Y79764D02*
Y83307D01*
X87008Y83858D02*
X87559Y83307D01*
X178347Y209724D02*
X179528Y208543D01*
X187717D02*
X188858Y207402D01*
X179528Y208543D02*
X187717D01*
X178347Y209724D02*
Y232126D01*
X188858Y204587D02*
Y207402D01*
X185354Y201083D02*
X188858Y204587D01*
X178839Y206083D02*
X183681D01*
X174961Y209961D02*
X178839Y206083D01*
X174961Y209961D02*
Y231890D01*
X183681Y201083D02*
X185354D01*
X189291Y243071D02*
Y247244D01*
X178347Y232126D02*
X189291Y243071D01*
X182598Y239528D02*
Y247244D01*
X174961Y231890D02*
X182598Y239528D01*
X163898Y206083D02*
X171102Y213287D01*
Y242441D02*
X175906Y247244D01*
X171102Y213287D02*
Y242441D01*
X162224Y206083D02*
X163898D01*
X169213Y216398D02*
Y247244D01*
X163898Y211083D02*
X169213Y216398D01*
X162224Y211083D02*
X163898D01*
X160551Y226083D02*
X162224D01*
X158430Y228204D02*
X160551Y226083D01*
X158430Y228204D02*
Y235850D01*
X162520Y239941D01*
Y247244D01*
X155827Y225807D02*
X160551Y221083D01*
X155827Y225807D02*
Y247244D01*
X160551Y221083D02*
X162224D01*
X183681Y231083D02*
X191240D01*
X191260Y231102D01*
X191279Y226870D02*
Y231083D01*
X191260Y231102D02*
X191279Y231083D01*
Y226870D02*
X191299Y226850D01*
X147008Y231181D02*
X151654D01*
X103967Y231132D02*
X104016Y231181D01*
X96988Y231083D02*
X97037Y231132D01*
X104095Y231181D02*
X108386D01*
X97037Y231132D02*
X103967D01*
X317085Y220128D02*
X322392D01*
X275031Y117886D02*
X275118Y117973D01*
X269642Y117799D02*
X269729Y117886D01*
X275031D01*
X236181Y223547D02*
X236228Y223594D01*
X241960D01*
X242008Y223642D01*
X215349Y86196D02*
X215354Y86201D01*
X207882Y153673D02*
X213539D01*
X207835Y153626D02*
X207882Y153673D01*
X213539D02*
X213586Y153720D01*
X145865Y153794D02*
X145870Y153799D01*
X140154Y153794D02*
X145865D01*
X140149Y153789D02*
X140154Y153794D01*
X404756Y220878D02*
X404882Y221004D01*
X399493Y220878D02*
X404756D01*
X206922Y47080D02*
Y49245D01*
X206772Y46929D02*
X206922Y47080D01*
Y49245D02*
X210906Y53228D01*
X211102D01*
X389921Y204173D02*
X390039Y204055D01*
Y192992D02*
Y204055D01*
Y192992D02*
X390158Y192874D01*
X290748Y117992D02*
X294409D01*
X292605Y51621D02*
Y51857D01*
X289252Y48268D02*
X292605Y51621D01*
Y51857D02*
X292756Y52008D01*
X307520Y193780D02*
Y203386D01*
X307520Y203386D02*
X307520Y203386D01*
Y193780D02*
X307520Y193780D01*
X279252Y162343D02*
X279262Y162352D01*
X284360D02*
X284370Y162362D01*
X299242Y167254D02*
X299331Y167342D01*
X279262Y162352D02*
X284360D01*
X284803Y139134D02*
Y139347D01*
X284370Y139780D02*
Y150512D01*
Y139780D02*
X284803Y139347D01*
X221063Y207165D02*
X221078Y207150D01*
X220827Y207402D02*
X221063Y207165D01*
X221078Y197504D02*
Y207150D01*
Y197504D02*
X221094Y197489D01*
X192640Y128191D02*
Y137242D01*
X192638Y128189D02*
X192640Y128191D01*
Y137242D02*
X192641Y137244D01*
X124688Y137165D02*
Y137559D01*
X125791Y148799D02*
X126381Y149390D01*
X257638Y223661D02*
Y227913D01*
X257638Y223661D02*
X257638Y223661D01*
X221939Y218652D02*
X227116D01*
X227126Y218661D01*
X229216Y153740D02*
Y157992D01*
X229216Y153740D02*
X229216Y153740D01*
X337991Y220316D02*
X338110Y220197D01*
X337991Y220316D02*
Y224726D01*
X322392Y220128D02*
X322480Y220216D01*
X302411Y215226D02*
X307510D01*
X307520Y215236D01*
X322480Y220216D02*
X332185D01*
X302402Y215216D02*
X302411Y215226D01*
X315000Y167362D02*
Y171693D01*
X314961Y167323D02*
X315000Y167362D01*
X309055Y167323D02*
Y173031D01*
X309055Y167323D02*
X309055Y167323D01*
X308602Y162343D02*
X309173Y161772D01*
X299331Y162343D02*
X308602D01*
X299331Y167342D02*
X309035D01*
X309055Y167323D01*
X420551Y221024D02*
Y225354D01*
X420512Y220984D02*
X420551Y221024D01*
X414606Y220984D02*
Y226693D01*
X414606Y220984D02*
X414606Y220984D01*
X414153Y216004D02*
X414724Y215433D01*
X404882Y216004D02*
X414153D01*
X404882Y221004D02*
X414587D01*
X414606Y220984D01*
X384813Y216014D02*
X389911D01*
X389921Y216024D01*
X384803Y216004D02*
X384813Y216014D01*
X155594Y158937D02*
X155594Y158937D01*
X155574Y153799D02*
X155594Y153819D01*
Y158937D01*
X161499Y153819D02*
Y158071D01*
X161499Y153819D02*
X161499Y153819D01*
X145870Y153799D02*
X155574D01*
X223310Y158858D02*
X223310Y158858D01*
X223291Y153720D02*
X223310Y153740D01*
Y158858D01*
X213586Y153720D02*
X223291D01*
X193517Y148730D02*
X198694D01*
X198704Y148740D01*
X193507Y148721D02*
X193517Y148730D01*
X289252Y47284D02*
Y48268D01*
X284508Y112972D02*
X285039Y112441D01*
X275118Y112972D02*
X284508D01*
X255049Y112963D02*
X260148D01*
X260157Y112953D01*
X255039Y112972D02*
X255049Y112963D01*
X284823Y117973D02*
X284842Y117992D01*
X275118Y117973D02*
X284823D01*
X284842Y117992D02*
X284842Y117992D01*
Y123110D01*
X224823Y81201D02*
X225197Y80827D01*
X215354Y81201D02*
X224823D01*
X225079Y86339D02*
Y91850D01*
X225079Y91850D01*
X187677Y69331D02*
X195276D01*
X187677D02*
X187953Y69606D01*
Y75906D02*
X188228Y76181D01*
X187953Y69606D02*
Y75906D01*
X188228Y76181D02*
X188248Y76201D01*
X195276D01*
X200049Y81171D02*
X200079Y81142D01*
X195276Y81201D02*
X195305Y81171D01*
X200049D01*
X215354Y86201D02*
X224941D01*
X225079Y86339D01*
X111732Y78504D02*
X116850D01*
X111732Y78504D02*
X111732Y78504D01*
X99094Y89173D02*
X106299D01*
Y82559D02*
Y89173D01*
Y82559D02*
X106614Y82244D01*
X116850Y85591D02*
X119606Y88346D01*
X116850Y82244D02*
Y85591D01*
X119606Y88346D02*
Y88740D01*
X27716Y233661D02*
X27913Y233465D01*
X18661Y132897D02*
Y233661D01*
Y132897D02*
X33527Y118032D01*
X112047D01*
X145630Y84449D01*
X9606Y158661D02*
Y233661D01*
X42992Y162441D02*
X42992Y162441D01*
X47717D01*
X316457Y78386D02*
X316496Y78425D01*
X332205Y220197D02*
Y225905D01*
X332205Y220197D02*
X332205Y220197D01*
X331752Y215216D02*
X332323Y214646D01*
X322480Y215216D02*
X331752D01*
X332185Y220216D02*
X332205Y220197D01*
X251732Y228780D02*
X251732Y228780D01*
X251713Y223642D02*
X251732Y223661D01*
Y228780D01*
X242008Y223642D02*
X251713D01*
X221929Y218642D02*
X221939Y218652D01*
D67*
X336811Y136614D02*
X342323Y142126D01*
X137716Y55000D02*
X138002Y54715D01*
Y17805D02*
X138287Y17520D01*
D68*
X172736Y7677D02*
D03*
X167815Y17520D02*
D03*
X162894Y7677D02*
D03*
X157972Y17520D02*
D03*
X153051Y7677D02*
D03*
X148130Y17520D02*
D03*
X143209Y7677D02*
D03*
X138287Y17520D02*
D03*
X93996Y7677D02*
D03*
X108760Y17520D02*
D03*
X118602Y17520D02*
D03*
X84153Y7677D02*
D03*
X113681Y7677D02*
D03*
X89075Y17520D02*
D03*
X98917Y17520D02*
D03*
X103839Y7677D02*
D03*
X79232Y17520D02*
D03*
X123524Y7677D02*
D03*
X133366Y7677D02*
D03*
X128445Y17520D02*
D03*
X337106D02*
D03*
X342028Y7677D02*
D03*
X332185Y7677D02*
D03*
X287894Y17520D02*
D03*
X312500Y7677D02*
D03*
X307579Y17520D02*
D03*
X297736Y17520D02*
D03*
X322342Y7677D02*
D03*
X292815Y7677D02*
D03*
X327264Y17520D02*
D03*
X317421Y17520D02*
D03*
X302658Y7677D02*
D03*
X346949Y17520D02*
D03*
X351870Y7677D02*
D03*
X356791Y17520D02*
D03*
X361713Y7677D02*
D03*
X366634Y17520D02*
D03*
X371555Y7677D02*
D03*
X376476Y17520D02*
D03*
X381398Y7677D02*
D03*
D69*
X271654Y279528D02*
D03*
X267638Y269528D02*
D03*
X263661Y279528D02*
D03*
X259646Y269528D02*
D03*
X255669Y279528D02*
D03*
X251654Y269528D02*
D03*
X247677Y279528D02*
D03*
X243661Y269528D02*
D03*
X334213D02*
D03*
X338228Y279528D02*
D03*
X342205Y269528D02*
D03*
X346220Y279528D02*
D03*
X350197Y269528D02*
D03*
X354213Y279528D02*
D03*
X358189Y269528D02*
D03*
X362205Y279528D02*
D03*
D70*
X289665Y282716D02*
D03*
X225650D02*
D03*
X316201D02*
D03*
X380217D02*
D03*
D71*
X282658Y266024D02*
D03*
X232658D02*
D03*
X323209D02*
D03*
X373209D02*
D03*
D72*
X195827Y270787D02*
D03*
X185827D02*
D03*
X175827D02*
D03*
X165827D02*
D03*
X155827D02*
D03*
X145827D02*
D03*
X135827D02*
D03*
X125827D02*
D03*
X115827D02*
D03*
X105827D02*
D03*
X95827D02*
D03*
X85827D02*
D03*
X75827D02*
D03*
X65827D02*
D03*
X55827D02*
D03*
X195827Y280787D02*
D03*
X185827D02*
D03*
X175827D02*
D03*
X165827D02*
D03*
X155827D02*
D03*
X145827D02*
D03*
X135827D02*
D03*
X125827D02*
D03*
X115827D02*
D03*
X105827D02*
D03*
X95827D02*
D03*
X85827D02*
D03*
X75827D02*
D03*
X65827D02*
D03*
X55827D02*
D03*
D73*
X383817Y167323D02*
D03*
X383819Y108268D02*
D03*
D74*
X408856Y147323D02*
D03*
X368856D02*
D03*
Y187323D02*
D03*
X408856D02*
D03*
X408858Y88268D02*
D03*
X368858D02*
D03*
Y128268D02*
D03*
X408858D02*
D03*
D75*
X292903Y192309D02*
D03*
X293028Y189702D02*
D03*
X417598Y201220D02*
D03*
X399366Y220752D02*
D03*
X335276Y200709D02*
D03*
X316996Y220039D02*
D03*
X340560Y212101D02*
D03*
X314331Y147520D02*
D03*
X284842Y131417D02*
D03*
X293847Y167165D02*
D03*
X300074Y91364D02*
D03*
X310787Y120905D02*
D03*
X312222Y118897D02*
D03*
X318583Y158504D02*
D03*
X294094Y106457D02*
D03*
X209398Y86191D02*
D03*
X234646Y74724D02*
D03*
X102354Y54681D02*
D03*
X120000Y71575D02*
D03*
X102354Y47712D02*
D03*
X97913Y170394D02*
D03*
X145029Y45291D02*
D03*
X149173Y70197D02*
D03*
X146181Y205984D02*
D03*
X133543Y127284D02*
D03*
X168347Y194264D02*
D03*
X206575Y58465D02*
D03*
X200472Y53228D02*
D03*
X234724Y86339D02*
D03*
X233937Y80827D02*
D03*
X206772Y46929D02*
D03*
X156653Y200905D02*
D03*
X177205Y196339D02*
D03*
X154615Y176949D02*
D03*
X165354Y235000D02*
D03*
X102559Y65192D02*
D03*
X147402Y216102D02*
D03*
X145472Y211024D02*
D03*
X202244Y196102D02*
D03*
X186063Y185709D02*
D03*
X189567Y211181D02*
D03*
X82047Y196024D02*
D03*
X113543Y203701D02*
D03*
X113268Y211221D02*
D03*
X110472Y221220D02*
D03*
X104961Y216102D02*
D03*
X102756Y205787D02*
D03*
X69528Y215945D02*
D03*
X66260Y220630D02*
D03*
X68937Y211142D02*
D03*
X118740Y161063D02*
D03*
X78976Y139724D02*
D03*
Y145276D02*
D03*
X78819Y135039D02*
D03*
X140157Y153779D02*
D03*
X131506Y149706D02*
D03*
X157244Y215945D02*
D03*
X102008Y211063D02*
D03*
X113898Y216024D02*
D03*
X87559Y79764D02*
D03*
X102795Y72362D02*
D03*
X111653Y78504D02*
D03*
X196968Y226850D02*
D03*
X191299D02*
D03*
X151654Y231181D02*
D03*
Y236653D02*
D03*
X108386Y231181D02*
D03*
X108425Y236575D02*
D03*
X177717Y58346D02*
D03*
X269642Y117799D02*
D03*
X236181Y223547D02*
D03*
X207835Y153626D02*
D03*
X155630Y169016D02*
D03*
X166063Y148228D02*
D03*
X423268Y215472D02*
D03*
X285472Y167047D02*
D03*
X309055Y182874D02*
D03*
X414646Y236063D02*
D03*
X390236Y221024D02*
D03*
X302874Y261575D02*
D03*
X214961Y261890D02*
D03*
X261653Y218032D02*
D03*
X216693Y222598D02*
D03*
X390158Y192874D02*
D03*
X306024Y83110D02*
D03*
X300074Y88189D02*
D03*
X300080Y57639D02*
D03*
X293465Y112402D02*
D03*
X294409Y117992D02*
D03*
X292756Y52008D02*
D03*
X287402Y88189D02*
D03*
X307520Y193780D02*
D03*
X261348Y136417D02*
D03*
X284370Y162362D02*
D03*
X284803Y139134D02*
D03*
X254095Y92205D02*
D03*
X221094Y197489D02*
D03*
X192638Y128189D02*
D03*
X154409Y179449D02*
D03*
X229606Y207165D02*
D03*
X257638Y227913D02*
D03*
X204045Y173744D02*
D03*
X202277Y175512D02*
D03*
X227126Y218661D02*
D03*
X229216Y157992D02*
D03*
X205833Y108114D02*
D03*
X204065Y109882D02*
D03*
X331978Y234764D02*
D03*
X307598Y220197D02*
D03*
X263848Y133917D02*
D03*
X337991Y224726D02*
D03*
X307520Y215236D02*
D03*
X315000Y171693D02*
D03*
X420551Y225354D02*
D03*
X389921Y216024D02*
D03*
X161499Y158071D02*
D03*
X198704Y148740D02*
D03*
X403858Y16535D02*
D03*
X260306Y117983D02*
D03*
X265158Y101575D02*
D03*
X260157Y112953D02*
D03*
X201063Y86221D02*
D03*
X225079Y100079D02*
D03*
X200079Y81142D02*
D03*
X316457Y64961D02*
D03*
X305827D02*
D03*
X53228Y151969D02*
D03*
X60236Y145709D02*
D03*
Y135079D02*
D03*
X323425Y43583D02*
D03*
X316457D02*
D03*
X305827D02*
D03*
X38346Y145433D02*
D03*
Y134882D02*
D03*
Y127756D02*
D03*
X9606Y158661D02*
D03*
X36772Y265984D02*
D03*
X47717Y162441D02*
D03*
X18661Y265945D02*
D03*
X27716D02*
D03*
X9606D02*
D03*
X316890Y83110D02*
D03*
X287402Y91378D02*
D03*
X251732Y237402D02*
D03*
X257165Y207913D02*
D03*
X343465Y110000D02*
D03*
X339029D02*
D03*
X334594D02*
D03*
X330157D02*
D03*
X343465Y115354D02*
D03*
X330157D02*
D03*
D76*
X389764Y55118D02*
D03*
X429134Y299213D02*
D03*
X15748Y55118D02*
D03*
Y299213D02*
D03*
M02*
