G04*
G04 #@! TF.GenerationSoftware,Altium Limited,Altium Designer,24.5.2 (23)*
G04*
G04 Layer_Color=8388736*
%FSLAX25Y25*%
%MOIN*%
G70*
G04*
G04 #@! TF.SameCoordinates,7F523489-4E1D-4D26-8F9C-4658AA78B57B*
G04*
G04*
G04 #@! TF.FilePolarity,Negative*
G04*
G01*
G75*
%ADD38C,0.00000*%
%ADD39R,0.05524X0.07296*%
%ADD40R,0.07296X0.05524*%
%ADD41R,0.04147X0.04540*%
%ADD42R,0.04540X0.04147*%
G04:AMPARAMS|DCode=43|XSize=31.62mil|YSize=65.09mil|CornerRadius=6.01mil|HoleSize=0mil|Usage=FLASHONLY|Rotation=90.000|XOffset=0mil|YOffset=0mil|HoleType=Round|Shape=RoundedRectangle|*
%AMROUNDEDRECTD43*
21,1,0.03162,0.05307,0,0,90.0*
21,1,0.01961,0.06509,0,0,90.0*
1,1,0.01202,0.02653,0.00980*
1,1,0.01202,0.02653,-0.00980*
1,1,0.01202,-0.02653,-0.00980*
1,1,0.01202,-0.02653,0.00980*
%
%ADD43ROUNDEDRECTD43*%
%ADD44R,0.04343X0.03556*%
%ADD45R,0.03556X0.04343*%
%ADD46R,0.03950X0.03950*%
%ADD47R,0.07690X0.03162*%
%ADD48R,0.04737X0.04737*%
%ADD49R,0.15800X0.17493*%
%ADD50R,0.02965X0.04934*%
G04:AMPARAMS|DCode=51|XSize=55.64mil|YSize=79.65mil|CornerRadius=11.86mil|HoleSize=0mil|Usage=FLASHONLY|Rotation=270.000|XOffset=0mil|YOffset=0mil|HoleType=Round|Shape=RoundedRectangle|*
%AMROUNDEDRECTD51*
21,1,0.05564,0.05593,0,0,270.0*
21,1,0.03192,0.07965,0,0,270.0*
1,1,0.02372,-0.02797,-0.01596*
1,1,0.02372,-0.02797,0.01596*
1,1,0.02372,0.02797,0.01596*
1,1,0.02372,0.02797,-0.01596*
%
%ADD51ROUNDEDRECTD51*%
%ADD52R,0.06902X0.06115*%
%ADD53R,0.04934X0.02965*%
G04:AMPARAMS|DCode=54|XSize=55.64mil|YSize=79.65mil|CornerRadius=11.86mil|HoleSize=0mil|Usage=FLASHONLY|Rotation=180.000|XOffset=0mil|YOffset=0mil|HoleType=Round|Shape=RoundedRectangle|*
%AMROUNDEDRECTD54*
21,1,0.05564,0.05593,0,0,180.0*
21,1,0.03192,0.07965,0,0,180.0*
1,1,0.02372,-0.01596,0.02797*
1,1,0.02372,0.01596,0.02797*
1,1,0.02372,0.01596,-0.02797*
1,1,0.02372,-0.01596,-0.02797*
%
%ADD54ROUNDEDRECTD54*%
%ADD55R,0.06115X0.06902*%
%ADD56C,0.06706*%
%ADD57C,0.06493*%
%ADD58C,0.10072*%
%ADD59C,0.07198*%
%ADD60C,0.06902*%
%ADD61C,0.14087*%
%ADD62C,0.08450*%
%ADD63C,0.03162*%
%ADD64C,0.02769*%
%ADD65C,0.30328*%
D38*
X174936Y7677D02*
G03*
X174936Y7677I-2200J0D01*
G01*
X170015Y17520D02*
G03*
X170015Y17520I-2200J0D01*
G01*
X165094Y7677D02*
G03*
X165094Y7677I-2200J0D01*
G01*
X160172Y17520D02*
G03*
X160172Y17520I-2200J0D01*
G01*
X155251Y7677D02*
G03*
X155251Y7677I-2200J0D01*
G01*
X150330Y17520D02*
G03*
X150330Y17520I-2200J0D01*
G01*
X145409Y7677D02*
G03*
X145409Y7677I-2200J0D01*
G01*
X140487Y17520D02*
G03*
X140487Y17520I-2200J0D01*
G01*
X130645Y17520D02*
G03*
X130645Y17520I-2200J0D01*
G01*
X120802Y17520D02*
G03*
X120802Y17520I-2200J0D01*
G01*
X91275D02*
G03*
X91275Y17520I-2200J0D01*
G01*
X101117Y17520D02*
G03*
X101117Y17520I-2200J0D01*
G01*
X110960Y17520D02*
G03*
X110960Y17520I-2200J0D01*
G01*
X81432D02*
G03*
X81432Y17520I-2200J0D01*
G01*
X125724Y7677D02*
G03*
X125724Y7677I-2200J0D01*
G01*
X106039Y7677D02*
G03*
X106039Y7677I-2200J0D01*
G01*
X135566D02*
G03*
X135566Y7677I-2200J0D01*
G01*
X115881Y7677D02*
G03*
X115881Y7677I-2200J0D01*
G01*
X96196Y7677D02*
G03*
X96196Y7677I-2200J0D01*
G01*
X86353D02*
G03*
X86353Y7677I-2200J0D01*
G01*
X295015D02*
G03*
X295015Y7677I-2200J0D01*
G01*
X304857D02*
G03*
X304857Y7677I-2200J0D01*
G01*
X324542Y7677D02*
G03*
X324542Y7677I-2200J0D01*
G01*
X344228Y7677D02*
G03*
X344228Y7677I-2200J0D01*
G01*
X314700D02*
G03*
X314700Y7677I-2200J0D01*
G01*
X334385Y7677D02*
G03*
X334385Y7677I-2200J0D01*
G01*
X290094Y17520D02*
G03*
X290094Y17520I-2200J0D01*
G01*
X319621D02*
G03*
X319621Y17520I-2200J0D01*
G01*
X309779Y17520D02*
G03*
X309779Y17520I-2200J0D01*
G01*
X299936Y17520D02*
G03*
X299936Y17520I-2200J0D01*
G01*
X329464D02*
G03*
X329464Y17520I-2200J0D01*
G01*
X339306Y17520D02*
G03*
X339306Y17520I-2200J0D01*
G01*
X349149Y17520D02*
G03*
X349149Y17520I-2200J0D01*
G01*
X354070Y7677D02*
G03*
X354070Y7677I-2200J0D01*
G01*
X358991Y17520D02*
G03*
X358991Y17520I-2200J0D01*
G01*
X363913Y7677D02*
G03*
X363913Y7677I-2200J0D01*
G01*
X368834Y17520D02*
G03*
X368834Y17520I-2200J0D01*
G01*
X373755Y7677D02*
G03*
X373755Y7677I-2200J0D01*
G01*
X378676Y17520D02*
G03*
X378676Y17520I-2200J0D01*
G01*
X383598Y7677D02*
G03*
X383598Y7677I-2200J0D01*
G01*
D39*
X67283Y158701D02*
D03*
X78307D02*
D03*
X130748Y80079D02*
D03*
X141772D02*
D03*
D40*
X292992Y71929D02*
D03*
Y82953D02*
D03*
X336811Y126378D02*
D03*
Y115354D02*
D03*
D41*
X314488Y155709D02*
D03*
X309370D02*
D03*
X197441Y196102D02*
D03*
X192323D02*
D03*
X181496Y185669D02*
D03*
X176378D02*
D03*
X131457Y249803D02*
D03*
X136575D02*
D03*
X143661D02*
D03*
X148779D02*
D03*
X107047D02*
D03*
X112165D02*
D03*
X58228D02*
D03*
X63346D02*
D03*
X82638D02*
D03*
X87756D02*
D03*
X70433D02*
D03*
X75551D02*
D03*
X94842D02*
D03*
X99961D02*
D03*
X119252D02*
D03*
X124370D02*
D03*
X187677Y58346D02*
D03*
X182559D02*
D03*
X144413Y137205D02*
D03*
X139295D02*
D03*
X118192Y137559D02*
D03*
X113074D02*
D03*
X161027Y142520D02*
D03*
X155909D02*
D03*
X266535Y150512D02*
D03*
X271654D02*
D03*
X295748D02*
D03*
X300866D02*
D03*
X279252D02*
D03*
X284370D02*
D03*
X413268Y209921D02*
D03*
X418386D02*
D03*
X384803Y204173D02*
D03*
X389921D02*
D03*
X372087D02*
D03*
X377205D02*
D03*
X289685Y203386D02*
D03*
X294803D02*
D03*
X302402D02*
D03*
X307520D02*
D03*
X331024Y209173D02*
D03*
X336142D02*
D03*
X317284Y203386D02*
D03*
X322402D02*
D03*
X399843Y204173D02*
D03*
X404961D02*
D03*
X182559Y69331D02*
D03*
X187677D02*
D03*
X211142D02*
D03*
X216260D02*
D03*
X225394Y74803D02*
D03*
X230512D02*
D03*
X195276Y69331D02*
D03*
X200394D02*
D03*
X276220Y101378D02*
D03*
X271102D02*
D03*
X290354Y106496D02*
D03*
X285236D02*
D03*
X247441Y101732D02*
D03*
X242323D02*
D03*
X228744Y142441D02*
D03*
X223625D02*
D03*
X185909Y137480D02*
D03*
X180791D02*
D03*
X212129Y137126D02*
D03*
X207011D02*
D03*
X257165Y212362D02*
D03*
X252047D02*
D03*
X214331Y207402D02*
D03*
X209213D02*
D03*
X240551Y207047D02*
D03*
X235433D02*
D03*
X106299Y89173D02*
D03*
X111417D02*
D03*
X393543Y16575D02*
D03*
X398661D02*
D03*
D42*
X169213Y252362D02*
D03*
Y247244D02*
D03*
X175906D02*
D03*
Y252362D02*
D03*
X189291D02*
D03*
Y247244D02*
D03*
X302953Y271417D02*
D03*
Y266299D02*
D03*
X36772Y238819D02*
D03*
Y233701D02*
D03*
X27716Y238779D02*
D03*
Y233661D02*
D03*
X145830Y166732D02*
D03*
Y171850D02*
D03*
X125791Y166732D02*
D03*
Y171850D02*
D03*
X404882Y241181D02*
D03*
Y236063D02*
D03*
X384803Y241181D02*
D03*
Y236063D02*
D03*
X279252Y187520D02*
D03*
Y182402D02*
D03*
X299331Y187520D02*
D03*
Y182402D02*
D03*
X322480Y240394D02*
D03*
Y235276D02*
D03*
X302402Y240394D02*
D03*
Y235276D02*
D03*
X9606Y238779D02*
D03*
Y233661D02*
D03*
X162520Y247244D02*
D03*
Y252362D02*
D03*
X155827Y247244D02*
D03*
Y252362D02*
D03*
X182598Y247244D02*
D03*
Y252362D02*
D03*
X214843Y266299D02*
D03*
Y271417D02*
D03*
X211102Y53228D02*
D03*
Y58346D02*
D03*
X215354Y99291D02*
D03*
Y104410D02*
D03*
X195276Y99291D02*
D03*
Y104410D02*
D03*
X255079Y130905D02*
D03*
Y136024D02*
D03*
X275118Y130905D02*
D03*
Y136024D02*
D03*
X193507Y166654D02*
D03*
Y171772D02*
D03*
X213547Y166654D02*
D03*
Y171772D02*
D03*
X221929Y236575D02*
D03*
Y241693D02*
D03*
X241968Y236575D02*
D03*
Y241693D02*
D03*
X18661Y233661D02*
D03*
Y238779D02*
D03*
X92598Y84055D02*
D03*
Y89173D02*
D03*
X99094Y84055D02*
D03*
Y89173D02*
D03*
D43*
X140335Y196083D02*
D03*
Y201083D02*
D03*
Y206083D02*
D03*
Y211083D02*
D03*
Y216083D02*
D03*
Y221083D02*
D03*
Y226083D02*
D03*
Y231083D02*
D03*
X118878Y196083D02*
D03*
Y201083D02*
D03*
Y206083D02*
D03*
Y211083D02*
D03*
Y216083D02*
D03*
Y221083D02*
D03*
Y226083D02*
D03*
Y231083D02*
D03*
X96988Y196083D02*
D03*
Y201083D02*
D03*
Y206083D02*
D03*
Y211083D02*
D03*
Y216083D02*
D03*
Y221083D02*
D03*
Y226083D02*
D03*
Y231083D02*
D03*
X75532Y196083D02*
D03*
Y201083D02*
D03*
Y206083D02*
D03*
Y211083D02*
D03*
Y216083D02*
D03*
Y221083D02*
D03*
Y226083D02*
D03*
Y231083D02*
D03*
X162224D02*
D03*
Y226083D02*
D03*
Y221083D02*
D03*
Y216083D02*
D03*
Y211083D02*
D03*
Y206083D02*
D03*
Y201083D02*
D03*
Y196083D02*
D03*
X183681Y231083D02*
D03*
Y226083D02*
D03*
Y221083D02*
D03*
Y216083D02*
D03*
Y211083D02*
D03*
Y206083D02*
D03*
Y201083D02*
D03*
Y196083D02*
D03*
D44*
X147008Y236693D02*
D03*
Y231181D02*
D03*
X104016Y236693D02*
D03*
Y231181D02*
D03*
X155594Y164449D02*
D03*
Y158937D02*
D03*
X414606Y226693D02*
D03*
Y232205D02*
D03*
X309055Y173031D02*
D03*
Y178543D02*
D03*
X332205Y225905D02*
D03*
Y231417D02*
D03*
X282992Y64803D02*
D03*
Y59291D02*
D03*
X225079Y97362D02*
D03*
Y91850D02*
D03*
X284842Y128622D02*
D03*
Y123110D02*
D03*
X223310Y164370D02*
D03*
Y158858D02*
D03*
X251732Y234291D02*
D03*
Y228780D02*
D03*
X323583Y56732D02*
D03*
Y51221D02*
D03*
X87008Y89370D02*
D03*
Y83858D02*
D03*
D45*
X377756Y211024D02*
D03*
X372244D02*
D03*
X295354Y210236D02*
D03*
X289843D02*
D03*
X272205Y157362D02*
D03*
X266693D02*
D03*
X209370Y213583D02*
D03*
X214882D02*
D03*
X186460Y143661D02*
D03*
X180948D02*
D03*
X118744Y143740D02*
D03*
X113232D02*
D03*
X161224Y148268D02*
D03*
X155712D02*
D03*
X139098Y131772D02*
D03*
X144610D02*
D03*
X130436Y137323D02*
D03*
X124925D02*
D03*
X322598Y197874D02*
D03*
X317087D02*
D03*
X332323Y214646D02*
D03*
X337835D02*
D03*
X309173Y161772D02*
D03*
X314685D02*
D03*
X301063Y144764D02*
D03*
X295551D02*
D03*
X414724Y215433D02*
D03*
X420236D02*
D03*
X405158Y198307D02*
D03*
X399646D02*
D03*
X191260Y231102D02*
D03*
X196772D02*
D03*
X182717Y76181D02*
D03*
X188228D02*
D03*
X210945Y63819D02*
D03*
X216457D02*
D03*
X230709Y80827D02*
D03*
X225197D02*
D03*
X270905Y95984D02*
D03*
X276417D02*
D03*
X259685Y101732D02*
D03*
X254173D02*
D03*
X242480Y107913D02*
D03*
X247992D02*
D03*
X290551Y112441D02*
D03*
X285039D02*
D03*
X198153Y137244D02*
D03*
X192641D02*
D03*
X206814Y131693D02*
D03*
X212326D02*
D03*
X228940Y148189D02*
D03*
X223429D02*
D03*
X226575Y207165D02*
D03*
X221063D02*
D03*
X235236Y201614D02*
D03*
X240748D02*
D03*
X257362Y218110D02*
D03*
X251850D02*
D03*
X125118Y88740D02*
D03*
X119606D02*
D03*
X116102Y47835D02*
D03*
X110591D02*
D03*
X52441Y127992D02*
D03*
X46929D02*
D03*
X55000Y168740D02*
D03*
X60512D02*
D03*
D46*
X36772Y260394D02*
D03*
Y254095D02*
D03*
X27716Y254055D02*
D03*
Y260354D02*
D03*
X18661Y254055D02*
D03*
Y260354D02*
D03*
X9606Y254055D02*
D03*
Y260354D02*
D03*
D47*
X145870Y143799D02*
D03*
Y148799D02*
D03*
Y153799D02*
D03*
Y158799D02*
D03*
X125791D02*
D03*
Y153799D02*
D03*
Y148799D02*
D03*
Y143799D02*
D03*
X384803Y211004D02*
D03*
Y216004D02*
D03*
Y221004D02*
D03*
Y226004D02*
D03*
X404882D02*
D03*
Y221004D02*
D03*
Y216004D02*
D03*
Y211004D02*
D03*
X279252Y157343D02*
D03*
Y162343D02*
D03*
Y167342D02*
D03*
Y172343D02*
D03*
X299331D02*
D03*
Y167342D02*
D03*
Y162343D02*
D03*
Y157343D02*
D03*
X302402Y210216D02*
D03*
Y215216D02*
D03*
Y220216D02*
D03*
Y225217D02*
D03*
X322480D02*
D03*
Y220216D02*
D03*
Y215216D02*
D03*
Y210216D02*
D03*
X215354Y76201D02*
D03*
Y81201D02*
D03*
Y86201D02*
D03*
Y91201D02*
D03*
X195276D02*
D03*
Y86201D02*
D03*
Y81201D02*
D03*
Y76201D02*
D03*
X275118Y107973D02*
D03*
Y112972D02*
D03*
Y117973D02*
D03*
Y122973D02*
D03*
X255039D02*
D03*
Y117973D02*
D03*
Y112972D02*
D03*
Y107973D02*
D03*
X213586Y143720D02*
D03*
Y148721D02*
D03*
Y153720D02*
D03*
Y158721D02*
D03*
X193507D02*
D03*
Y153720D02*
D03*
Y148721D02*
D03*
Y143720D02*
D03*
X242008Y213642D02*
D03*
Y218642D02*
D03*
Y223642D02*
D03*
Y228642D02*
D03*
X221929D02*
D03*
Y223642D02*
D03*
Y218642D02*
D03*
Y213642D02*
D03*
D48*
X161499Y153819D02*
D03*
X155594D02*
D03*
X309055Y167323D02*
D03*
X314961D02*
D03*
X414606Y220984D02*
D03*
X420512D02*
D03*
X332205Y220197D02*
D03*
X338110D02*
D03*
X230984Y86339D02*
D03*
X225079D02*
D03*
X290748Y117992D02*
D03*
X284842D02*
D03*
X229216Y153740D02*
D03*
X223310D02*
D03*
X257638Y223661D02*
D03*
X251732D02*
D03*
D49*
X342323Y167323D02*
D03*
Y142126D02*
D03*
D50*
X289252Y47284D02*
D03*
X292992D02*
D03*
X296732D02*
D03*
Y57520D02*
D03*
X292992D02*
D03*
X289252D02*
D03*
D51*
X305827Y48268D02*
D03*
Y59685D02*
D03*
X316457Y48268D02*
D03*
Y59685D02*
D03*
X200000Y58307D02*
D03*
Y46890D02*
D03*
D52*
X305827Y70512D02*
D03*
Y78386D02*
D03*
X316457Y70512D02*
D03*
Y78386D02*
D03*
D53*
X116850Y82244D02*
D03*
Y78504D02*
D03*
Y74764D02*
D03*
X106614D02*
D03*
Y78504D02*
D03*
Y82244D02*
D03*
X42992Y162441D02*
D03*
Y158701D02*
D03*
Y154961D02*
D03*
X53228D02*
D03*
Y158701D02*
D03*
Y162441D02*
D03*
D54*
X119016Y55000D02*
D03*
X107598D02*
D03*
Y65630D02*
D03*
X119016D02*
D03*
X43976Y135079D02*
D03*
X55394D02*
D03*
X43976Y145709D02*
D03*
X55394D02*
D03*
D55*
X137716Y65630D02*
D03*
X129842D02*
D03*
X137716Y55000D02*
D03*
X129842D02*
D03*
X66220Y145709D02*
D03*
X74094D02*
D03*
X66220Y135079D02*
D03*
X74094D02*
D03*
D56*
X172736Y7677D02*
D03*
X167815Y17520D02*
D03*
X162894Y7677D02*
D03*
X157972Y17520D02*
D03*
X153051Y7677D02*
D03*
X148130Y17520D02*
D03*
X143209Y7677D02*
D03*
X138287Y17520D02*
D03*
X93996Y7677D02*
D03*
X108760Y17520D02*
D03*
X118602Y17520D02*
D03*
X84153Y7677D02*
D03*
X113681Y7677D02*
D03*
X89075Y17520D02*
D03*
X98917Y17520D02*
D03*
X103839Y7677D02*
D03*
X79232Y17520D02*
D03*
X123524Y7677D02*
D03*
X133366Y7677D02*
D03*
X128445Y17520D02*
D03*
X337106D02*
D03*
X342028Y7677D02*
D03*
X332185Y7677D02*
D03*
X287894Y17520D02*
D03*
X312500Y7677D02*
D03*
X307579Y17520D02*
D03*
X297736Y17520D02*
D03*
X322342Y7677D02*
D03*
X292815Y7677D02*
D03*
X327264Y17520D02*
D03*
X317421Y17520D02*
D03*
X302658Y7677D02*
D03*
X346949Y17520D02*
D03*
X351870Y7677D02*
D03*
X356791Y17520D02*
D03*
X361713Y7677D02*
D03*
X366634Y17520D02*
D03*
X371555Y7677D02*
D03*
X376476Y17520D02*
D03*
X381398Y7677D02*
D03*
D57*
X271654Y279528D02*
D03*
X267638Y269528D02*
D03*
X263661Y279528D02*
D03*
X259646Y269528D02*
D03*
X255669Y279528D02*
D03*
X251654Y269528D02*
D03*
X247677Y279528D02*
D03*
X243661Y269528D02*
D03*
X334213D02*
D03*
X338228Y279528D02*
D03*
X342205Y269528D02*
D03*
X346220Y279528D02*
D03*
X350197Y269528D02*
D03*
X354213Y279528D02*
D03*
X358189Y269528D02*
D03*
X362205Y279528D02*
D03*
D58*
X289665Y282716D02*
D03*
X225650D02*
D03*
X316201D02*
D03*
X380217D02*
D03*
D59*
X282658Y266024D02*
D03*
X232658D02*
D03*
X323209D02*
D03*
X373209D02*
D03*
D60*
X195827Y270787D02*
D03*
X185827D02*
D03*
X175827D02*
D03*
X165827D02*
D03*
X155827D02*
D03*
X145827D02*
D03*
X135827D02*
D03*
X125827D02*
D03*
X115827D02*
D03*
X105827D02*
D03*
X95827D02*
D03*
X85827D02*
D03*
X75827D02*
D03*
X65827D02*
D03*
X55827D02*
D03*
X195827Y280787D02*
D03*
X185827D02*
D03*
X175827D02*
D03*
X165827D02*
D03*
X155827D02*
D03*
X145827D02*
D03*
X135827D02*
D03*
X125827D02*
D03*
X115827D02*
D03*
X105827D02*
D03*
X95827D02*
D03*
X85827D02*
D03*
X75827D02*
D03*
X65827D02*
D03*
X55827D02*
D03*
D61*
X383817Y167323D02*
D03*
X383819Y108268D02*
D03*
D62*
X408856Y147323D02*
D03*
X368856D02*
D03*
Y187323D02*
D03*
X408856D02*
D03*
X408858Y88268D02*
D03*
X368858D02*
D03*
Y128268D02*
D03*
X408858D02*
D03*
D63*
X294331Y106457D02*
D03*
X294134Y112441D02*
D03*
X295630Y117953D02*
D03*
X313504Y117913D02*
D03*
X310787Y120905D02*
D03*
X309055Y182874D02*
D03*
X317135Y219900D02*
D03*
X323286Y43722D02*
D03*
X316457Y43583D02*
D03*
X306024Y83110D02*
D03*
X300074Y91364D02*
D03*
X300219Y57779D02*
D03*
X293986Y167026D02*
D03*
X269781Y117660D02*
D03*
X251871Y237262D02*
D03*
X257777Y227774D02*
D03*
X229606Y207165D02*
D03*
X209537Y86052D02*
D03*
X220866Y198622D02*
D03*
X149370Y70197D02*
D03*
X145029Y45291D02*
D03*
X140157Y153779D02*
D03*
X145504Y210992D02*
D03*
X131506Y149706D02*
D03*
X113543Y203701D02*
D03*
X102420Y65053D02*
D03*
X102795Y72362D02*
D03*
X399563Y220752D02*
D03*
X417598Y201220D02*
D03*
X335276Y200709D02*
D03*
X340560Y212101D02*
D03*
X314331Y147520D02*
D03*
X284842Y131417D02*
D03*
X318583Y158504D02*
D03*
X234646Y74724D02*
D03*
X102354Y54681D02*
D03*
X120984Y74291D02*
D03*
X102354Y47712D02*
D03*
X97913Y170394D02*
D03*
X146181Y205984D02*
D03*
X133543Y127284D02*
D03*
X168307Y193425D02*
D03*
X206575Y58465D02*
D03*
X200472Y53228D02*
D03*
X234724Y86339D02*
D03*
X233937Y80827D02*
D03*
X206772Y46929D02*
D03*
X156653Y200905D02*
D03*
X177205Y196339D02*
D03*
X165354Y235000D02*
D03*
X147402Y216102D02*
D03*
X202244Y196102D02*
D03*
X186063Y185709D02*
D03*
X189567Y211181D02*
D03*
X82047Y196024D02*
D03*
X113268Y211221D02*
D03*
X110472Y221220D02*
D03*
X104961Y216102D02*
D03*
X102756Y205787D02*
D03*
X69528Y215945D02*
D03*
X66260Y220630D02*
D03*
X68937Y211142D02*
D03*
X118740Y161063D02*
D03*
X78976Y139724D02*
D03*
Y145276D02*
D03*
X78819Y135039D02*
D03*
X157244Y215945D02*
D03*
X102008Y211063D02*
D03*
X113898Y216024D02*
D03*
X87559Y79764D02*
D03*
X111653Y78504D02*
D03*
X196968Y226850D02*
D03*
X191299D02*
D03*
X151654Y231181D02*
D03*
Y236653D02*
D03*
X108386Y231181D02*
D03*
X108425Y236575D02*
D03*
X177717Y58346D02*
D03*
X236181Y223547D02*
D03*
X207835Y153626D02*
D03*
X155630Y169016D02*
D03*
X166063Y148228D02*
D03*
X423268Y215472D02*
D03*
X285472Y167047D02*
D03*
X414646Y236063D02*
D03*
X390236Y221024D02*
D03*
X302874Y261575D02*
D03*
X214961Y261890D02*
D03*
X261653Y218032D02*
D03*
X216693Y222598D02*
D03*
X390158Y192874D02*
D03*
X300074Y88189D02*
D03*
X292756Y52008D02*
D03*
X287402Y88189D02*
D03*
X307520Y193780D02*
D03*
X261348Y136417D02*
D03*
X284370Y162362D02*
D03*
X284803Y139134D02*
D03*
X254095Y92205D02*
D03*
X192638Y128189D02*
D03*
X227126Y218661D02*
D03*
X229216Y157992D02*
D03*
X331978Y234764D02*
D03*
X307598Y220197D02*
D03*
X263848Y133917D02*
D03*
X337991Y224726D02*
D03*
X307520Y215236D02*
D03*
X315000Y171693D02*
D03*
X420551Y225354D02*
D03*
X389921Y216024D02*
D03*
X161499Y158071D02*
D03*
X198704Y148740D02*
D03*
X403858Y16535D02*
D03*
X260306Y117983D02*
D03*
X265158Y101575D02*
D03*
X260157Y112953D02*
D03*
X201063Y86221D02*
D03*
X225079Y100079D02*
D03*
X200079Y81142D02*
D03*
X316457Y64961D02*
D03*
X305827D02*
D03*
X53228Y151969D02*
D03*
X60236Y145709D02*
D03*
Y135079D02*
D03*
X305827Y43583D02*
D03*
X38346Y145433D02*
D03*
Y134882D02*
D03*
Y127756D02*
D03*
X9606Y158661D02*
D03*
X36772Y265984D02*
D03*
X47717Y162441D02*
D03*
X18661Y265945D02*
D03*
X27716D02*
D03*
X9606D02*
D03*
X316890Y83110D02*
D03*
X287402Y91378D02*
D03*
X257165Y207913D02*
D03*
X343465Y110000D02*
D03*
X339029D02*
D03*
X334594D02*
D03*
X330157D02*
D03*
X343465Y115354D02*
D03*
X330157D02*
D03*
D64*
X297146Y192362D02*
D03*
X299646D02*
D03*
X205833Y107051D02*
D03*
X204065Y108819D02*
D03*
X204045Y174256D02*
D03*
X202277Y176024D02*
D03*
X154685Y179449D02*
D03*
Y176949D02*
D03*
D65*
X389764Y55118D02*
D03*
X429134Y299213D02*
D03*
X15748Y55118D02*
D03*
Y299213D02*
D03*
M02*
