G04*
G04 #@! TF.GenerationSoftware,Altium Limited,Altium Designer,24.4.1 (13)*
G04*
G04 Layer_Color=8421504*
%FSLAX25Y25*%
%MOIN*%
G70*
G04*
G04 #@! TF.SameCoordinates,76420C20-E0AA-4C22-8192-2CE45D6D8625*
G04*
G04*
G04 #@! TF.FilePolarity,Positive*
G04*
G01*
G75*
%ADD21R,0.04724X0.06496*%
%ADD22R,0.06496X0.04724*%
%ADD23R,0.03347X0.03740*%
%ADD24R,0.03740X0.03347*%
G04:AMPARAMS|DCode=25|XSize=23.62mil|YSize=57.09mil|CornerRadius=2.01mil|HoleSize=0mil|Usage=FLASHONLY|Rotation=90.000|XOffset=0mil|YOffset=0mil|HoleType=Round|Shape=RoundedRectangle|*
%AMROUNDEDRECTD25*
21,1,0.02362,0.05307,0,0,90.0*
21,1,0.01961,0.05709,0,0,90.0*
1,1,0.00402,0.02653,0.00980*
1,1,0.00402,0.02653,-0.00980*
1,1,0.00402,-0.02653,-0.00980*
1,1,0.00402,-0.02653,0.00980*
%
%ADD25ROUNDEDRECTD25*%
%ADD26R,0.03543X0.02756*%
%ADD27R,0.02756X0.03543*%
%ADD28R,0.03150X0.03150*%
%ADD29R,0.06890X0.02362*%
%ADD30R,0.03937X0.03937*%
%ADD31R,0.15000X0.16693*%
%ADD32R,0.02165X0.04134*%
G04:AMPARAMS|DCode=33|XSize=47.64mil|YSize=71.65mil|CornerRadius=7.86mil|HoleSize=0mil|Usage=FLASHONLY|Rotation=270.000|XOffset=0mil|YOffset=0mil|HoleType=Round|Shape=RoundedRectangle|*
%AMROUNDEDRECTD33*
21,1,0.04764,0.05593,0,0,270.0*
21,1,0.03192,0.07165,0,0,270.0*
1,1,0.01572,-0.02797,-0.01596*
1,1,0.01572,-0.02797,0.01596*
1,1,0.01572,0.02797,0.01596*
1,1,0.01572,0.02797,-0.01596*
%
%ADD33ROUNDEDRECTD33*%
%ADD34R,0.06102X0.05315*%
%ADD35R,0.04134X0.02165*%
G04:AMPARAMS|DCode=36|XSize=47.64mil|YSize=71.65mil|CornerRadius=7.86mil|HoleSize=0mil|Usage=FLASHONLY|Rotation=180.000|XOffset=0mil|YOffset=0mil|HoleType=Round|Shape=RoundedRectangle|*
%AMROUNDEDRECTD36*
21,1,0.04764,0.05593,0,0,180.0*
21,1,0.03192,0.07165,0,0,180.0*
1,1,0.01572,-0.01596,0.02797*
1,1,0.01572,0.01596,0.02797*
1,1,0.01572,0.01596,-0.02797*
1,1,0.01572,-0.01596,-0.02797*
%
%ADD36ROUNDEDRECTD36*%
%ADD37R,0.05315X0.06102*%
D21*
X67283Y158701D02*
D03*
X78307D02*
D03*
X130748Y80079D02*
D03*
X141772D02*
D03*
D22*
X292992Y71929D02*
D03*
Y82953D02*
D03*
X336811Y126378D02*
D03*
Y115354D02*
D03*
D23*
X314488Y155709D02*
D03*
X309370D02*
D03*
X197441Y196102D02*
D03*
X192323D02*
D03*
X181496Y185669D02*
D03*
X176378D02*
D03*
X131457Y249803D02*
D03*
X136575D02*
D03*
X143661D02*
D03*
X148779D02*
D03*
X107047D02*
D03*
X112165D02*
D03*
X58228D02*
D03*
X63346D02*
D03*
X82638D02*
D03*
X87756D02*
D03*
X70433D02*
D03*
X75551D02*
D03*
X94842D02*
D03*
X99961D02*
D03*
X119252D02*
D03*
X124370D02*
D03*
X187677Y58346D02*
D03*
X182559D02*
D03*
X144413Y137205D02*
D03*
X139295D02*
D03*
X118192Y137559D02*
D03*
X113074D02*
D03*
X161027Y142520D02*
D03*
X155909D02*
D03*
X266535Y150512D02*
D03*
X271654D02*
D03*
X295748D02*
D03*
X300866D02*
D03*
X279252D02*
D03*
X284370D02*
D03*
X413268Y209921D02*
D03*
X418386D02*
D03*
X384803Y204173D02*
D03*
X389921D02*
D03*
X372087D02*
D03*
X377205D02*
D03*
X289685Y203386D02*
D03*
X294803D02*
D03*
X302402D02*
D03*
X307520D02*
D03*
X331024Y209173D02*
D03*
X336142D02*
D03*
X317284Y203386D02*
D03*
X322402D02*
D03*
X399843Y204173D02*
D03*
X404961D02*
D03*
X182559Y69331D02*
D03*
X187677D02*
D03*
X211142D02*
D03*
X216260D02*
D03*
X225394Y74803D02*
D03*
X230512D02*
D03*
X195276Y69331D02*
D03*
X200394D02*
D03*
X276220Y101378D02*
D03*
X271102D02*
D03*
X290354Y106496D02*
D03*
X285236D02*
D03*
X247441Y101732D02*
D03*
X242323D02*
D03*
X228744Y142441D02*
D03*
X223625D02*
D03*
X185909Y137480D02*
D03*
X180791D02*
D03*
X212129Y137126D02*
D03*
X207011D02*
D03*
X257165Y212362D02*
D03*
X252047D02*
D03*
X214331Y207402D02*
D03*
X209213D02*
D03*
X240551Y207047D02*
D03*
X235433D02*
D03*
X106299Y89173D02*
D03*
X111417D02*
D03*
X393543Y16575D02*
D03*
X398661D02*
D03*
D24*
X169213Y252362D02*
D03*
Y247244D02*
D03*
X175906D02*
D03*
Y252362D02*
D03*
X189291D02*
D03*
Y247244D02*
D03*
X302953Y271417D02*
D03*
Y266299D02*
D03*
X36772Y238819D02*
D03*
Y233701D02*
D03*
X27716Y238779D02*
D03*
Y233661D02*
D03*
X145830Y166732D02*
D03*
Y171850D02*
D03*
X125791Y166732D02*
D03*
Y171850D02*
D03*
X404882Y241181D02*
D03*
Y236063D02*
D03*
X384803Y241181D02*
D03*
Y236063D02*
D03*
X279252Y187520D02*
D03*
Y182402D02*
D03*
X299331Y187520D02*
D03*
Y182402D02*
D03*
X322480Y240394D02*
D03*
Y235276D02*
D03*
X302402Y240394D02*
D03*
Y235276D02*
D03*
X9606Y238779D02*
D03*
Y233661D02*
D03*
X162520Y247244D02*
D03*
Y252362D02*
D03*
X155827Y247244D02*
D03*
Y252362D02*
D03*
X182598Y247244D02*
D03*
Y252362D02*
D03*
X214843Y266299D02*
D03*
Y271417D02*
D03*
X211102Y53228D02*
D03*
Y58346D02*
D03*
X215354Y99291D02*
D03*
Y104410D02*
D03*
X195276Y99291D02*
D03*
Y104410D02*
D03*
X255079Y130905D02*
D03*
Y136024D02*
D03*
X275118Y130905D02*
D03*
Y136024D02*
D03*
X193507Y166654D02*
D03*
Y171772D02*
D03*
X213547Y166654D02*
D03*
Y171772D02*
D03*
X221929Y236575D02*
D03*
Y241693D02*
D03*
X241968Y236575D02*
D03*
Y241693D02*
D03*
X18661Y233661D02*
D03*
Y238779D02*
D03*
X92598Y84055D02*
D03*
Y89173D02*
D03*
X99094Y84055D02*
D03*
Y89173D02*
D03*
D25*
X140335Y196083D02*
D03*
Y201083D02*
D03*
Y206083D02*
D03*
Y211083D02*
D03*
Y216083D02*
D03*
Y221083D02*
D03*
Y226083D02*
D03*
Y231083D02*
D03*
X118878Y196083D02*
D03*
Y201083D02*
D03*
Y206083D02*
D03*
Y211083D02*
D03*
Y216083D02*
D03*
Y221083D02*
D03*
Y226083D02*
D03*
Y231083D02*
D03*
X96988Y196083D02*
D03*
Y201083D02*
D03*
Y206083D02*
D03*
Y211083D02*
D03*
Y216083D02*
D03*
Y221083D02*
D03*
Y226083D02*
D03*
Y231083D02*
D03*
X75532Y196083D02*
D03*
Y201083D02*
D03*
Y206083D02*
D03*
Y211083D02*
D03*
Y216083D02*
D03*
Y221083D02*
D03*
Y226083D02*
D03*
Y231083D02*
D03*
X162224D02*
D03*
Y226083D02*
D03*
Y221083D02*
D03*
Y216083D02*
D03*
Y211083D02*
D03*
Y206083D02*
D03*
Y201083D02*
D03*
Y196083D02*
D03*
X183681Y231083D02*
D03*
Y226083D02*
D03*
Y221083D02*
D03*
Y216083D02*
D03*
Y211083D02*
D03*
Y206083D02*
D03*
Y201083D02*
D03*
Y196083D02*
D03*
D26*
X147008Y236693D02*
D03*
Y231181D02*
D03*
X104016Y236693D02*
D03*
Y231181D02*
D03*
X155594Y164449D02*
D03*
Y158937D02*
D03*
X414606Y226693D02*
D03*
Y232205D02*
D03*
X309055Y173031D02*
D03*
Y178543D02*
D03*
X332205Y225905D02*
D03*
Y231417D02*
D03*
X282992Y64803D02*
D03*
Y59291D02*
D03*
X225079Y97362D02*
D03*
Y91850D02*
D03*
X284842Y128622D02*
D03*
Y123110D02*
D03*
X223310Y164370D02*
D03*
Y158858D02*
D03*
X251732Y234291D02*
D03*
Y228780D02*
D03*
X323583Y56732D02*
D03*
Y51221D02*
D03*
X87008Y89370D02*
D03*
Y83858D02*
D03*
D27*
X377756Y211024D02*
D03*
X372244D02*
D03*
X295354Y210236D02*
D03*
X289843D02*
D03*
X272205Y157362D02*
D03*
X266693D02*
D03*
X209370Y213583D02*
D03*
X214882D02*
D03*
X186460Y143661D02*
D03*
X180948D02*
D03*
X118744Y143740D02*
D03*
X113232D02*
D03*
X161224Y148268D02*
D03*
X155712D02*
D03*
X139098Y131772D02*
D03*
X144610D02*
D03*
X130436Y137323D02*
D03*
X124925D02*
D03*
X322598Y197874D02*
D03*
X317087D02*
D03*
X332323Y214646D02*
D03*
X337835D02*
D03*
X309173Y161772D02*
D03*
X314685D02*
D03*
X301063Y144764D02*
D03*
X295551D02*
D03*
X414724Y215433D02*
D03*
X420236D02*
D03*
X405158Y198307D02*
D03*
X399646D02*
D03*
X191260Y231102D02*
D03*
X196772D02*
D03*
X182717Y76181D02*
D03*
X188228D02*
D03*
X210945Y63819D02*
D03*
X216457D02*
D03*
X230709Y80827D02*
D03*
X225197D02*
D03*
X270905Y95984D02*
D03*
X276417D02*
D03*
X259685Y101732D02*
D03*
X254173D02*
D03*
X242480Y107913D02*
D03*
X247992D02*
D03*
X290551Y112441D02*
D03*
X285039D02*
D03*
X198153Y137244D02*
D03*
X192641D02*
D03*
X206814Y131693D02*
D03*
X212326D02*
D03*
X228940Y148189D02*
D03*
X223429D02*
D03*
X226575Y207165D02*
D03*
X221063D02*
D03*
X235236Y201614D02*
D03*
X240748D02*
D03*
X257362Y218110D02*
D03*
X251850D02*
D03*
X125118Y88740D02*
D03*
X119606D02*
D03*
X116102Y47835D02*
D03*
X110591D02*
D03*
X52441Y127992D02*
D03*
X46929D02*
D03*
X55000Y168740D02*
D03*
X60512D02*
D03*
D28*
X36772Y260394D02*
D03*
Y254095D02*
D03*
X27716Y254055D02*
D03*
Y260354D02*
D03*
X18661Y254055D02*
D03*
Y260354D02*
D03*
X9606Y254055D02*
D03*
Y260354D02*
D03*
D29*
X145870Y143799D02*
D03*
Y148799D02*
D03*
Y153799D02*
D03*
Y158799D02*
D03*
X125791D02*
D03*
Y153799D02*
D03*
Y148799D02*
D03*
Y143799D02*
D03*
X384803Y211004D02*
D03*
Y216004D02*
D03*
Y221004D02*
D03*
Y226004D02*
D03*
X404882D02*
D03*
Y221004D02*
D03*
Y216004D02*
D03*
Y211004D02*
D03*
X279252Y157343D02*
D03*
Y162343D02*
D03*
Y167342D02*
D03*
Y172343D02*
D03*
X299331D02*
D03*
Y167342D02*
D03*
Y162343D02*
D03*
Y157343D02*
D03*
X302402Y210216D02*
D03*
Y215216D02*
D03*
Y220216D02*
D03*
Y225217D02*
D03*
X322480D02*
D03*
Y220216D02*
D03*
Y215216D02*
D03*
Y210216D02*
D03*
X215354Y76201D02*
D03*
Y81201D02*
D03*
Y86201D02*
D03*
Y91201D02*
D03*
X195276D02*
D03*
Y86201D02*
D03*
Y81201D02*
D03*
Y76201D02*
D03*
X275118Y107973D02*
D03*
Y112972D02*
D03*
Y117973D02*
D03*
Y122973D02*
D03*
X255039D02*
D03*
Y117973D02*
D03*
Y112972D02*
D03*
Y107973D02*
D03*
X213586Y143720D02*
D03*
Y148721D02*
D03*
Y153720D02*
D03*
Y158721D02*
D03*
X193507D02*
D03*
Y153720D02*
D03*
Y148721D02*
D03*
Y143720D02*
D03*
X242008Y213642D02*
D03*
Y218642D02*
D03*
Y223642D02*
D03*
Y228642D02*
D03*
X221929D02*
D03*
Y223642D02*
D03*
Y218642D02*
D03*
Y213642D02*
D03*
D30*
X161499Y153819D02*
D03*
X155594D02*
D03*
X309055Y167323D02*
D03*
X314961D02*
D03*
X414606Y220984D02*
D03*
X420512D02*
D03*
X332205Y220197D02*
D03*
X338110D02*
D03*
X230984Y86339D02*
D03*
X225079D02*
D03*
X290748Y117992D02*
D03*
X284842D02*
D03*
X229216Y153740D02*
D03*
X223310D02*
D03*
X257638Y223661D02*
D03*
X251732D02*
D03*
D31*
X342323Y167323D02*
D03*
Y142126D02*
D03*
D32*
X289252Y47284D02*
D03*
X292992D02*
D03*
X296732D02*
D03*
Y57520D02*
D03*
X292992D02*
D03*
X289252D02*
D03*
D33*
X305827Y48268D02*
D03*
Y59685D02*
D03*
X316457Y48268D02*
D03*
Y59685D02*
D03*
X200000Y58307D02*
D03*
Y46890D02*
D03*
D34*
X305827Y70512D02*
D03*
Y78386D02*
D03*
X316457Y70512D02*
D03*
Y78386D02*
D03*
D35*
X116850Y82244D02*
D03*
Y78504D02*
D03*
Y74764D02*
D03*
X106614D02*
D03*
Y78504D02*
D03*
Y82244D02*
D03*
X42992Y162441D02*
D03*
Y158701D02*
D03*
Y154961D02*
D03*
X53228D02*
D03*
Y158701D02*
D03*
Y162441D02*
D03*
D36*
X119016Y55000D02*
D03*
X107598D02*
D03*
Y65630D02*
D03*
X119016D02*
D03*
X43976Y135079D02*
D03*
X55394D02*
D03*
X43976Y145709D02*
D03*
X55394D02*
D03*
D37*
X137716Y65630D02*
D03*
X129842D02*
D03*
X137716Y55000D02*
D03*
X129842D02*
D03*
X66220Y145709D02*
D03*
X74094D02*
D03*
X66220Y135079D02*
D03*
X74094D02*
D03*
M02*
