G04*
G04 #@! TF.GenerationSoftware,Altium Limited,Altium Designer,24.4.1 (13)*
G04*
G04 Layer_Physical_Order=4*
G04 Layer_Color=6736896*
%FSLAX25Y25*%
%MOIN*%
G70*
G04*
G04 #@! TF.SameCoordinates,F8817E3C-405B-4703-BB9E-E19D9E1AF3A9*
G04*
G04*
G04 #@! TF.FilePolarity,Positive*
G04*
G01*
G75*
%ADD68C,0.05906*%
%ADD72C,0.06102*%
%ADD73C,0.13287*%
%ADD75C,0.01968*%
G36*
X444079Y305139D02*
X443585Y305060D01*
X443546Y305182D01*
X442434Y307363D01*
X440996Y309344D01*
X439265Y311074D01*
X437285Y312513D01*
X435103Y313624D01*
X432775Y314381D01*
X430358Y314764D01*
X427910D01*
X425492Y314381D01*
X423164Y313624D01*
X420983Y312513D01*
X419003Y311074D01*
X417272Y309344D01*
X415833Y307363D01*
X414722Y305182D01*
X413966Y302854D01*
X413583Y300436D01*
Y297989D01*
X413966Y295571D01*
X414722Y293243D01*
X415833Y291062D01*
X417272Y289082D01*
X419003Y287351D01*
X420983Y285912D01*
X423164Y284801D01*
X425492Y284044D01*
X427910Y283661D01*
X430358D01*
X432775Y284044D01*
X435103Y284801D01*
X437285Y285912D01*
X439265Y287351D01*
X440996Y289082D01*
X442434Y291062D01*
X443546Y293243D01*
X443585Y293365D01*
X444079Y293286D01*
Y6708D01*
X393701D01*
X393394Y6647D01*
X393133Y6473D01*
X392959Y6213D01*
X392898Y5906D01*
Y803D01*
X63795D01*
Y5906D01*
X63734Y6213D01*
X63560Y6473D01*
X63299Y6647D01*
X62992Y6708D01*
X803D01*
Y49192D01*
X1297Y49270D01*
X1336Y49148D01*
X2448Y46968D01*
X3886Y44987D01*
X5617Y43256D01*
X7597Y41818D01*
X9778Y40706D01*
X12106Y39950D01*
X14524Y39567D01*
X16972D01*
X19390Y39950D01*
X21718Y40706D01*
X23899Y41818D01*
X25879Y43256D01*
X27610Y44987D01*
X29049Y46968D01*
X30160Y49148D01*
X30916Y51477D01*
X31299Y53894D01*
Y56342D01*
X30916Y58760D01*
X30160Y61088D01*
X29049Y63269D01*
X27610Y65249D01*
X25879Y66980D01*
X23899Y68419D01*
X21718Y69530D01*
X19390Y70286D01*
X16972Y70669D01*
X14524D01*
X12106Y70286D01*
X9778Y69530D01*
X7597Y68419D01*
X5617Y66980D01*
X3886Y65249D01*
X2448Y63269D01*
X1336Y61088D01*
X1297Y60966D01*
X803Y61044D01*
Y293286D01*
X1297Y293365D01*
X1336Y293243D01*
X2448Y291062D01*
X3886Y289082D01*
X5617Y287351D01*
X7597Y285912D01*
X9778Y284801D01*
X12106Y284044D01*
X14524Y283661D01*
X16972D01*
X19390Y284044D01*
X21718Y284801D01*
X23899Y285912D01*
X25879Y287351D01*
X27610Y289082D01*
X29049Y291062D01*
X30160Y293243D01*
X30916Y295571D01*
X31299Y297989D01*
Y300436D01*
X30916Y302854D01*
X30160Y305182D01*
X29049Y307363D01*
X27610Y309344D01*
X25879Y311074D01*
X23899Y312513D01*
X21718Y313624D01*
X19390Y314381D01*
X16972Y314764D01*
X14524D01*
X12106Y314381D01*
X9778Y313624D01*
X7597Y312513D01*
X5617Y311074D01*
X3886Y309344D01*
X2448Y307363D01*
X1336Y305182D01*
X1297Y305060D01*
X803Y305139D01*
Y316126D01*
X444079D01*
Y305139D01*
D02*
G37*
%LPC*%
G36*
X380930Y288140D02*
X379503D01*
X378123Y287770D01*
X376887Y287056D01*
X375877Y286047D01*
X375163Y284810D01*
X374793Y283431D01*
Y282003D01*
X375163Y280623D01*
X375877Y279387D01*
X376887Y278377D01*
X378123Y277663D01*
X379503Y277293D01*
X380930D01*
X382310Y277663D01*
X383546Y278377D01*
X384556Y279387D01*
X385270Y280623D01*
X385640Y282003D01*
Y283431D01*
X385270Y284810D01*
X384556Y286047D01*
X383546Y287056D01*
X382310Y287770D01*
X380930Y288140D01*
D02*
G37*
G36*
X316915D02*
X315487D01*
X314107Y287770D01*
X312871Y287056D01*
X311861Y286047D01*
X311147Y284810D01*
X310778Y283431D01*
Y282003D01*
X311147Y280623D01*
X311861Y279387D01*
X312871Y278377D01*
X314107Y277663D01*
X315487Y277293D01*
X316915D01*
X318294Y277663D01*
X319531Y278377D01*
X320540Y279387D01*
X321254Y280623D01*
X321624Y282003D01*
Y283431D01*
X321254Y284810D01*
X320540Y286047D01*
X319531Y287056D01*
X318294Y287770D01*
X316915Y288140D01*
D02*
G37*
G36*
X290379D02*
X288951D01*
X287572Y287770D01*
X286335Y287056D01*
X285326Y286047D01*
X284612Y284810D01*
X284242Y283431D01*
Y282003D01*
X284612Y280623D01*
X285326Y279387D01*
X286335Y278377D01*
X287572Y277663D01*
X288951Y277293D01*
X290379D01*
X291759Y277663D01*
X292995Y278377D01*
X294005Y279387D01*
X294719Y280623D01*
X295089Y282003D01*
Y283431D01*
X294719Y284810D01*
X294005Y286047D01*
X292995Y287056D01*
X291759Y287770D01*
X290379Y288140D01*
D02*
G37*
G36*
X226364D02*
X224936D01*
X223556Y287770D01*
X222320Y287056D01*
X221310Y286047D01*
X220596Y284810D01*
X220226Y283431D01*
Y282003D01*
X220596Y280623D01*
X221310Y279387D01*
X222320Y278377D01*
X223556Y277663D01*
X224936Y277293D01*
X226364D01*
X227743Y277663D01*
X228979Y278377D01*
X229989Y279387D01*
X230703Y280623D01*
X231073Y282003D01*
Y283431D01*
X230703Y284810D01*
X229989Y286047D01*
X228979Y287056D01*
X227743Y287770D01*
X226364Y288140D01*
D02*
G37*
G36*
X196332Y284626D02*
X195321D01*
X194345Y284364D01*
X193470Y283859D01*
X192755Y283144D01*
X192250Y282269D01*
X191988Y281293D01*
Y280282D01*
X192250Y279306D01*
X192755Y278431D01*
X193470Y277716D01*
X194345Y277210D01*
X195321Y276949D01*
X196332D01*
X197308Y277210D01*
X198184Y277716D01*
X198898Y278431D01*
X199404Y279306D01*
X199665Y280282D01*
Y281293D01*
X199404Y282269D01*
X198898Y283144D01*
X198184Y283859D01*
X197308Y284364D01*
X196332Y284626D01*
D02*
G37*
G36*
X186332D02*
X185321D01*
X184345Y284364D01*
X183470Y283859D01*
X182755Y283144D01*
X182250Y282269D01*
X181988Y281293D01*
Y280282D01*
X182250Y279306D01*
X182755Y278431D01*
X183470Y277716D01*
X184345Y277210D01*
X185321Y276949D01*
X186332D01*
X187308Y277210D01*
X188184Y277716D01*
X188898Y278431D01*
X189404Y279306D01*
X189665Y280282D01*
Y281293D01*
X189404Y282269D01*
X188898Y283144D01*
X188184Y283859D01*
X187308Y284364D01*
X186332Y284626D01*
D02*
G37*
G36*
X176332D02*
X175321D01*
X174345Y284364D01*
X173470Y283859D01*
X172755Y283144D01*
X172250Y282269D01*
X171988Y281293D01*
Y280282D01*
X172250Y279306D01*
X172755Y278431D01*
X173470Y277716D01*
X174345Y277210D01*
X175321Y276949D01*
X176332D01*
X177308Y277210D01*
X178184Y277716D01*
X178898Y278431D01*
X179404Y279306D01*
X179665Y280282D01*
Y281293D01*
X179404Y282269D01*
X178898Y283144D01*
X178184Y283859D01*
X177308Y284364D01*
X176332Y284626D01*
D02*
G37*
G36*
X166332D02*
X165321D01*
X164345Y284364D01*
X163470Y283859D01*
X162755Y283144D01*
X162250Y282269D01*
X161988Y281293D01*
Y280282D01*
X162250Y279306D01*
X162755Y278431D01*
X163470Y277716D01*
X164345Y277210D01*
X165321Y276949D01*
X166332D01*
X167308Y277210D01*
X168184Y277716D01*
X168898Y278431D01*
X169404Y279306D01*
X169665Y280282D01*
Y281293D01*
X169404Y282269D01*
X168898Y283144D01*
X168184Y283859D01*
X167308Y284364D01*
X166332Y284626D01*
D02*
G37*
G36*
X156332D02*
X155321D01*
X154345Y284364D01*
X153470Y283859D01*
X152755Y283144D01*
X152250Y282269D01*
X151988Y281293D01*
Y280282D01*
X152250Y279306D01*
X152755Y278431D01*
X153470Y277716D01*
X154345Y277210D01*
X155321Y276949D01*
X156332D01*
X157308Y277210D01*
X158184Y277716D01*
X158898Y278431D01*
X159404Y279306D01*
X159665Y280282D01*
Y281293D01*
X159404Y282269D01*
X158898Y283144D01*
X158184Y283859D01*
X157308Y284364D01*
X156332Y284626D01*
D02*
G37*
G36*
X146332D02*
X145321D01*
X144345Y284364D01*
X143470Y283859D01*
X142755Y283144D01*
X142250Y282269D01*
X141988Y281293D01*
Y280282D01*
X142250Y279306D01*
X142755Y278431D01*
X143470Y277716D01*
X144345Y277210D01*
X145321Y276949D01*
X146332D01*
X147308Y277210D01*
X148184Y277716D01*
X148898Y278431D01*
X149404Y279306D01*
X149665Y280282D01*
Y281293D01*
X149404Y282269D01*
X148898Y283144D01*
X148184Y283859D01*
X147308Y284364D01*
X146332Y284626D01*
D02*
G37*
G36*
X136332D02*
X135321D01*
X134345Y284364D01*
X133470Y283859D01*
X132755Y283144D01*
X132250Y282269D01*
X131988Y281293D01*
Y280282D01*
X132250Y279306D01*
X132755Y278431D01*
X133470Y277716D01*
X134345Y277210D01*
X135321Y276949D01*
X136332D01*
X137308Y277210D01*
X138184Y277716D01*
X138898Y278431D01*
X139404Y279306D01*
X139665Y280282D01*
Y281293D01*
X139404Y282269D01*
X138898Y283144D01*
X138184Y283859D01*
X137308Y284364D01*
X136332Y284626D01*
D02*
G37*
G36*
X126332D02*
X125321D01*
X124345Y284364D01*
X123470Y283859D01*
X122755Y283144D01*
X122250Y282269D01*
X121988Y281293D01*
Y280282D01*
X122250Y279306D01*
X122755Y278431D01*
X123470Y277716D01*
X124345Y277210D01*
X125321Y276949D01*
X126332D01*
X127308Y277210D01*
X128184Y277716D01*
X128898Y278431D01*
X129404Y279306D01*
X129665Y280282D01*
Y281293D01*
X129404Y282269D01*
X128898Y283144D01*
X128184Y283859D01*
X127308Y284364D01*
X126332Y284626D01*
D02*
G37*
G36*
X116332D02*
X115321D01*
X114345Y284364D01*
X113470Y283859D01*
X112755Y283144D01*
X112250Y282269D01*
X111988Y281293D01*
Y280282D01*
X112250Y279306D01*
X112755Y278431D01*
X113470Y277716D01*
X114345Y277210D01*
X115321Y276949D01*
X116332D01*
X117308Y277210D01*
X118184Y277716D01*
X118898Y278431D01*
X119404Y279306D01*
X119665Y280282D01*
Y281293D01*
X119404Y282269D01*
X118898Y283144D01*
X118184Y283859D01*
X117308Y284364D01*
X116332Y284626D01*
D02*
G37*
G36*
X106332D02*
X105321D01*
X104345Y284364D01*
X103470Y283859D01*
X102755Y283144D01*
X102250Y282269D01*
X101988Y281293D01*
Y280282D01*
X102250Y279306D01*
X102755Y278431D01*
X103470Y277716D01*
X104345Y277210D01*
X105321Y276949D01*
X106332D01*
X107308Y277210D01*
X108184Y277716D01*
X108898Y278431D01*
X109404Y279306D01*
X109665Y280282D01*
Y281293D01*
X109404Y282269D01*
X108898Y283144D01*
X108184Y283859D01*
X107308Y284364D01*
X106332Y284626D01*
D02*
G37*
G36*
X96332D02*
X95321D01*
X94345Y284364D01*
X93470Y283859D01*
X92755Y283144D01*
X92250Y282269D01*
X91988Y281293D01*
Y280282D01*
X92250Y279306D01*
X92755Y278431D01*
X93470Y277716D01*
X94345Y277210D01*
X95321Y276949D01*
X96332D01*
X97308Y277210D01*
X98184Y277716D01*
X98898Y278431D01*
X99404Y279306D01*
X99665Y280282D01*
Y281293D01*
X99404Y282269D01*
X98898Y283144D01*
X98184Y283859D01*
X97308Y284364D01*
X96332Y284626D01*
D02*
G37*
G36*
X86332D02*
X85321D01*
X84345Y284364D01*
X83470Y283859D01*
X82755Y283144D01*
X82250Y282269D01*
X81988Y281293D01*
Y280282D01*
X82250Y279306D01*
X82755Y278431D01*
X83470Y277716D01*
X84345Y277210D01*
X85321Y276949D01*
X86332D01*
X87308Y277210D01*
X88184Y277716D01*
X88898Y278431D01*
X89404Y279306D01*
X89665Y280282D01*
Y281293D01*
X89404Y282269D01*
X88898Y283144D01*
X88184Y283859D01*
X87308Y284364D01*
X86332Y284626D01*
D02*
G37*
G36*
X76332D02*
X75321D01*
X74345Y284364D01*
X73470Y283859D01*
X72755Y283144D01*
X72250Y282269D01*
X71988Y281293D01*
Y280282D01*
X72250Y279306D01*
X72755Y278431D01*
X73470Y277716D01*
X74345Y277210D01*
X75321Y276949D01*
X76332D01*
X77308Y277210D01*
X78184Y277716D01*
X78898Y278431D01*
X79404Y279306D01*
X79665Y280282D01*
Y281293D01*
X79404Y282269D01*
X78898Y283144D01*
X78184Y283859D01*
X77308Y284364D01*
X76332Y284626D01*
D02*
G37*
G36*
X66332D02*
X65321D01*
X64345Y284364D01*
X63470Y283859D01*
X62755Y283144D01*
X62250Y282269D01*
X61988Y281293D01*
Y280282D01*
X62250Y279306D01*
X62755Y278431D01*
X63470Y277716D01*
X64345Y277210D01*
X65321Y276949D01*
X66332D01*
X67308Y277210D01*
X68184Y277716D01*
X68898Y278431D01*
X69404Y279306D01*
X69665Y280282D01*
Y281293D01*
X69404Y282269D01*
X68898Y283144D01*
X68184Y283859D01*
X67308Y284364D01*
X66332Y284626D01*
D02*
G37*
G36*
X56332D02*
X55321D01*
X54345Y284364D01*
X53470Y283859D01*
X52755Y283144D01*
X52250Y282269D01*
X51988Y281293D01*
Y280282D01*
X52250Y279306D01*
X52755Y278431D01*
X53470Y277716D01*
X54345Y277210D01*
X55321Y276949D01*
X56332D01*
X57308Y277210D01*
X58184Y277716D01*
X58898Y278431D01*
X59404Y279306D01*
X59665Y280282D01*
Y281293D01*
X59404Y282269D01*
X58898Y283144D01*
X58184Y283859D01*
X57308Y284364D01*
X56332Y284626D01*
D02*
G37*
G36*
X362683Y283161D02*
X361726D01*
X360802Y282914D01*
X359974Y282435D01*
X359297Y281759D01*
X358819Y280930D01*
X358571Y280006D01*
Y279049D01*
X358819Y278125D01*
X359297Y277296D01*
X359974Y276620D01*
X360802Y276141D01*
X361726Y275894D01*
X362683D01*
X363607Y276141D01*
X364436Y276620D01*
X365112Y277296D01*
X365591Y278125D01*
X365839Y279049D01*
Y280006D01*
X365591Y280930D01*
X365112Y281759D01*
X364436Y282435D01*
X363607Y282914D01*
X362683Y283161D01*
D02*
G37*
G36*
X354691D02*
X353734D01*
X352810Y282914D01*
X351981Y282435D01*
X351305Y281759D01*
X350826Y280930D01*
X350579Y280006D01*
Y279049D01*
X350826Y278125D01*
X351305Y277296D01*
X351981Y276620D01*
X352810Y276141D01*
X353734Y275894D01*
X354691D01*
X355615Y276141D01*
X356444Y276620D01*
X357120Y277296D01*
X357599Y278125D01*
X357846Y279049D01*
Y280006D01*
X357599Y280930D01*
X357120Y281759D01*
X356444Y282435D01*
X355615Y282914D01*
X354691Y283161D01*
D02*
G37*
G36*
X346699D02*
X345742D01*
X344818Y282914D01*
X343989Y282435D01*
X343313Y281759D01*
X342834Y280930D01*
X342587Y280006D01*
Y279049D01*
X342834Y278125D01*
X343313Y277296D01*
X343989Y276620D01*
X344818Y276141D01*
X345742Y275894D01*
X346699D01*
X347623Y276141D01*
X348452Y276620D01*
X349128Y277296D01*
X349607Y278125D01*
X349854Y279049D01*
Y280006D01*
X349607Y280930D01*
X349128Y281759D01*
X348452Y282435D01*
X347623Y282914D01*
X346699Y283161D01*
D02*
G37*
G36*
X338707D02*
X337750D01*
X336826Y282914D01*
X335997Y282435D01*
X335320Y281759D01*
X334842Y280930D01*
X334594Y280006D01*
Y279049D01*
X334842Y278125D01*
X335320Y277296D01*
X335997Y276620D01*
X336826Y276141D01*
X337750Y275894D01*
X338707D01*
X339631Y276141D01*
X340460Y276620D01*
X341136Y277296D01*
X341615Y278125D01*
X341862Y279049D01*
Y280006D01*
X341615Y280930D01*
X341136Y281759D01*
X340460Y282435D01*
X339631Y282914D01*
X338707Y283161D01*
D02*
G37*
G36*
X272132D02*
X271175D01*
X270251Y282914D01*
X269422Y282435D01*
X268746Y281759D01*
X268267Y280930D01*
X268020Y280006D01*
Y279049D01*
X268267Y278125D01*
X268746Y277296D01*
X269422Y276620D01*
X270251Y276141D01*
X271175Y275894D01*
X272132D01*
X273056Y276141D01*
X273885Y276620D01*
X274561Y277296D01*
X275040Y278125D01*
X275287Y279049D01*
Y280006D01*
X275040Y280930D01*
X274561Y281759D01*
X273885Y282435D01*
X273056Y282914D01*
X272132Y283161D01*
D02*
G37*
G36*
X264140D02*
X263183D01*
X262259Y282914D01*
X261430Y282435D01*
X260754Y281759D01*
X260275Y280930D01*
X260028Y280006D01*
Y279049D01*
X260275Y278125D01*
X260754Y277296D01*
X261430Y276620D01*
X262259Y276141D01*
X263183Y275894D01*
X264140D01*
X265064Y276141D01*
X265893Y276620D01*
X266569Y277296D01*
X267048Y278125D01*
X267295Y279049D01*
Y280006D01*
X267048Y280930D01*
X266569Y281759D01*
X265893Y282435D01*
X265064Y282914D01*
X264140Y283161D01*
D02*
G37*
G36*
X256148D02*
X255191D01*
X254267Y282914D01*
X253438Y282435D01*
X252762Y281759D01*
X252283Y280930D01*
X252035Y280006D01*
Y279049D01*
X252283Y278125D01*
X252762Y277296D01*
X253438Y276620D01*
X254267Y276141D01*
X255191Y275894D01*
X256148D01*
X257072Y276141D01*
X257901Y276620D01*
X258577Y277296D01*
X259055Y278125D01*
X259303Y279049D01*
Y280006D01*
X259055Y280930D01*
X258577Y281759D01*
X257901Y282435D01*
X257072Y282914D01*
X256148Y283161D01*
D02*
G37*
G36*
X248156D02*
X247199D01*
X246274Y282914D01*
X245446Y282435D01*
X244769Y281759D01*
X244291Y280930D01*
X244043Y280006D01*
Y279049D01*
X244291Y278125D01*
X244769Y277296D01*
X245446Y276620D01*
X246274Y276141D01*
X247199Y275894D01*
X248156D01*
X249080Y276141D01*
X249908Y276620D01*
X250585Y277296D01*
X251063Y278125D01*
X251311Y279049D01*
Y280006D01*
X251063Y280930D01*
X250585Y281759D01*
X249908Y282435D01*
X249080Y282914D01*
X248156Y283161D01*
D02*
G37*
G36*
X56827Y274713D02*
Y271787D01*
X59753D01*
X59602Y272351D01*
X59069Y273275D01*
X58314Y274029D01*
X57390Y274563D01*
X56827Y274713D01*
D02*
G37*
G36*
X54827D02*
X54263Y274563D01*
X53339Y274029D01*
X52585Y273275D01*
X52052Y272351D01*
X51901Y271787D01*
X54827D01*
Y274713D01*
D02*
G37*
G36*
X196332Y274626D02*
X195321D01*
X194345Y274364D01*
X193470Y273859D01*
X192755Y273144D01*
X192250Y272269D01*
X191988Y271293D01*
Y270282D01*
X192250Y269306D01*
X192755Y268430D01*
X193470Y267716D01*
X194345Y267210D01*
X195321Y266949D01*
X196332D01*
X197308Y267210D01*
X198184Y267716D01*
X198898Y268430D01*
X199404Y269306D01*
X199665Y270282D01*
Y271293D01*
X199404Y272269D01*
X198898Y273144D01*
X198184Y273859D01*
X197308Y274364D01*
X196332Y274626D01*
D02*
G37*
G36*
X186332D02*
X185321D01*
X184345Y274364D01*
X183470Y273859D01*
X182755Y273144D01*
X182250Y272269D01*
X181988Y271293D01*
Y270282D01*
X182250Y269306D01*
X182755Y268430D01*
X183470Y267716D01*
X184345Y267210D01*
X185321Y266949D01*
X186332D01*
X187308Y267210D01*
X188184Y267716D01*
X188898Y268430D01*
X189404Y269306D01*
X189665Y270282D01*
Y271293D01*
X189404Y272269D01*
X188898Y273144D01*
X188184Y273859D01*
X187308Y274364D01*
X186332Y274626D01*
D02*
G37*
G36*
X176332D02*
X175321D01*
X174345Y274364D01*
X173470Y273859D01*
X172755Y273144D01*
X172250Y272269D01*
X171988Y271293D01*
Y270282D01*
X172250Y269306D01*
X172755Y268430D01*
X173470Y267716D01*
X174345Y267210D01*
X175321Y266949D01*
X176332D01*
X177308Y267210D01*
X178184Y267716D01*
X178898Y268430D01*
X179404Y269306D01*
X179665Y270282D01*
Y271293D01*
X179404Y272269D01*
X178898Y273144D01*
X178184Y273859D01*
X177308Y274364D01*
X176332Y274626D01*
D02*
G37*
G36*
X166332D02*
X165321D01*
X164345Y274364D01*
X163470Y273859D01*
X162755Y273144D01*
X162250Y272269D01*
X161988Y271293D01*
Y270282D01*
X162250Y269306D01*
X162755Y268430D01*
X163470Y267716D01*
X164345Y267210D01*
X165321Y266949D01*
X166332D01*
X167308Y267210D01*
X168184Y267716D01*
X168898Y268430D01*
X169404Y269306D01*
X169665Y270282D01*
Y271293D01*
X169404Y272269D01*
X168898Y273144D01*
X168184Y273859D01*
X167308Y274364D01*
X166332Y274626D01*
D02*
G37*
G36*
X156332D02*
X155321D01*
X154345Y274364D01*
X153470Y273859D01*
X152755Y273144D01*
X152250Y272269D01*
X151988Y271293D01*
Y270282D01*
X152250Y269306D01*
X152755Y268430D01*
X153470Y267716D01*
X154345Y267210D01*
X155321Y266949D01*
X156332D01*
X157308Y267210D01*
X158184Y267716D01*
X158898Y268430D01*
X159404Y269306D01*
X159665Y270282D01*
Y271293D01*
X159404Y272269D01*
X158898Y273144D01*
X158184Y273859D01*
X157308Y274364D01*
X156332Y274626D01*
D02*
G37*
G36*
X146332D02*
X145321D01*
X144345Y274364D01*
X143470Y273859D01*
X142755Y273144D01*
X142250Y272269D01*
X141988Y271293D01*
Y270282D01*
X142250Y269306D01*
X142755Y268430D01*
X143470Y267716D01*
X144345Y267210D01*
X145321Y266949D01*
X146332D01*
X147308Y267210D01*
X148184Y267716D01*
X148898Y268430D01*
X149404Y269306D01*
X149665Y270282D01*
Y271293D01*
X149404Y272269D01*
X148898Y273144D01*
X148184Y273859D01*
X147308Y274364D01*
X146332Y274626D01*
D02*
G37*
G36*
X136332D02*
X135321D01*
X134345Y274364D01*
X133470Y273859D01*
X132755Y273144D01*
X132250Y272269D01*
X131988Y271293D01*
Y270282D01*
X132250Y269306D01*
X132755Y268430D01*
X133470Y267716D01*
X134345Y267210D01*
X135321Y266949D01*
X136332D01*
X137308Y267210D01*
X138184Y267716D01*
X138898Y268430D01*
X139404Y269306D01*
X139665Y270282D01*
Y271293D01*
X139404Y272269D01*
X138898Y273144D01*
X138184Y273859D01*
X137308Y274364D01*
X136332Y274626D01*
D02*
G37*
G36*
X126332D02*
X125321D01*
X124345Y274364D01*
X123470Y273859D01*
X122755Y273144D01*
X122250Y272269D01*
X121988Y271293D01*
Y270282D01*
X122250Y269306D01*
X122755Y268430D01*
X123470Y267716D01*
X124345Y267210D01*
X125321Y266949D01*
X126332D01*
X127308Y267210D01*
X128184Y267716D01*
X128898Y268430D01*
X129404Y269306D01*
X129665Y270282D01*
Y271293D01*
X129404Y272269D01*
X128898Y273144D01*
X128184Y273859D01*
X127308Y274364D01*
X126332Y274626D01*
D02*
G37*
G36*
X116332D02*
X115321D01*
X114345Y274364D01*
X113470Y273859D01*
X112755Y273144D01*
X112250Y272269D01*
X111988Y271293D01*
Y270282D01*
X112250Y269306D01*
X112755Y268430D01*
X113470Y267716D01*
X114345Y267210D01*
X115321Y266949D01*
X116332D01*
X117308Y267210D01*
X118184Y267716D01*
X118898Y268430D01*
X119404Y269306D01*
X119665Y270282D01*
Y271293D01*
X119404Y272269D01*
X118898Y273144D01*
X118184Y273859D01*
X117308Y274364D01*
X116332Y274626D01*
D02*
G37*
G36*
X106332D02*
X105321D01*
X104345Y274364D01*
X103470Y273859D01*
X102755Y273144D01*
X102250Y272269D01*
X101988Y271293D01*
Y270282D01*
X102250Y269306D01*
X102755Y268430D01*
X103470Y267716D01*
X104345Y267210D01*
X105321Y266949D01*
X106332D01*
X107308Y267210D01*
X108184Y267716D01*
X108898Y268430D01*
X109404Y269306D01*
X109665Y270282D01*
Y271293D01*
X109404Y272269D01*
X108898Y273144D01*
X108184Y273859D01*
X107308Y274364D01*
X106332Y274626D01*
D02*
G37*
G36*
X96332D02*
X95321D01*
X94345Y274364D01*
X93470Y273859D01*
X92755Y273144D01*
X92250Y272269D01*
X91988Y271293D01*
Y270282D01*
X92250Y269306D01*
X92755Y268430D01*
X93470Y267716D01*
X94345Y267210D01*
X95321Y266949D01*
X96332D01*
X97308Y267210D01*
X98184Y267716D01*
X98898Y268430D01*
X99404Y269306D01*
X99665Y270282D01*
Y271293D01*
X99404Y272269D01*
X98898Y273144D01*
X98184Y273859D01*
X97308Y274364D01*
X96332Y274626D01*
D02*
G37*
G36*
X86332D02*
X85321D01*
X84345Y274364D01*
X83470Y273859D01*
X82755Y273144D01*
X82250Y272269D01*
X81988Y271293D01*
Y270282D01*
X82250Y269306D01*
X82755Y268430D01*
X83470Y267716D01*
X84345Y267210D01*
X85321Y266949D01*
X86332D01*
X87308Y267210D01*
X88184Y267716D01*
X88898Y268430D01*
X89404Y269306D01*
X89665Y270282D01*
Y271293D01*
X89404Y272269D01*
X88898Y273144D01*
X88184Y273859D01*
X87308Y274364D01*
X86332Y274626D01*
D02*
G37*
G36*
X76332D02*
X75321D01*
X74345Y274364D01*
X73470Y273859D01*
X72755Y273144D01*
X72250Y272269D01*
X71988Y271293D01*
Y270282D01*
X72250Y269306D01*
X72755Y268430D01*
X73470Y267716D01*
X74345Y267210D01*
X75321Y266949D01*
X76332D01*
X77308Y267210D01*
X78184Y267716D01*
X78898Y268430D01*
X79404Y269306D01*
X79665Y270282D01*
Y271293D01*
X79404Y272269D01*
X78898Y273144D01*
X78184Y273859D01*
X77308Y274364D01*
X76332Y274626D01*
D02*
G37*
G36*
X66332D02*
X65321D01*
X64345Y274364D01*
X63470Y273859D01*
X62755Y273144D01*
X62250Y272269D01*
X61988Y271293D01*
Y270282D01*
X62250Y269306D01*
X62755Y268430D01*
X63470Y267716D01*
X64345Y267210D01*
X65321Y266949D01*
X66332D01*
X67308Y267210D01*
X68184Y267716D01*
X68898Y268430D01*
X69404Y269306D01*
X69665Y270282D01*
Y271293D01*
X69404Y272269D01*
X68898Y273144D01*
X68184Y273859D01*
X67308Y274364D01*
X66332Y274626D01*
D02*
G37*
G36*
X59753Y269787D02*
X56827D01*
Y266861D01*
X57390Y267012D01*
X58314Y267546D01*
X59069Y268300D01*
X59602Y269224D01*
X59753Y269787D01*
D02*
G37*
G36*
X54827D02*
X51901D01*
X52052Y269224D01*
X52585Y268300D01*
X53339Y267546D01*
X54263Y267012D01*
X54827Y266861D01*
Y269787D01*
D02*
G37*
G36*
X358667Y273161D02*
X357711D01*
X356786Y272914D01*
X355958Y272435D01*
X355281Y271759D01*
X354803Y270930D01*
X354555Y270006D01*
Y269049D01*
X354803Y268125D01*
X355281Y267296D01*
X355958Y266620D01*
X356786Y266141D01*
X357711Y265894D01*
X358667D01*
X359592Y266141D01*
X360420Y266620D01*
X361097Y267296D01*
X361575Y268125D01*
X361823Y269049D01*
Y270006D01*
X361575Y270930D01*
X361097Y271759D01*
X360420Y272435D01*
X359592Y272914D01*
X358667Y273161D01*
D02*
G37*
G36*
X350675D02*
X349718D01*
X348794Y272914D01*
X347966Y272435D01*
X347289Y271759D01*
X346811Y270930D01*
X346563Y270006D01*
Y269049D01*
X346811Y268125D01*
X347289Y267296D01*
X347966Y266620D01*
X348794Y266141D01*
X349718Y265894D01*
X350675D01*
X351600Y266141D01*
X352428Y266620D01*
X353105Y267296D01*
X353583Y268125D01*
X353831Y269049D01*
Y270006D01*
X353583Y270930D01*
X353105Y271759D01*
X352428Y272435D01*
X351600Y272914D01*
X350675Y273161D01*
D02*
G37*
G36*
X342683D02*
X341726D01*
X340802Y272914D01*
X339973Y272435D01*
X339297Y271759D01*
X338819Y270930D01*
X338571Y270006D01*
Y269049D01*
X338819Y268125D01*
X339297Y267296D01*
X339973Y266620D01*
X340802Y266141D01*
X341726Y265894D01*
X342683D01*
X343607Y266141D01*
X344436Y266620D01*
X345112Y267296D01*
X345591Y268125D01*
X345839Y269049D01*
Y270006D01*
X345591Y270930D01*
X345112Y271759D01*
X344436Y272435D01*
X343607Y272914D01*
X342683Y273161D01*
D02*
G37*
G36*
X334691D02*
X333734D01*
X332810Y272914D01*
X331981Y272435D01*
X331305Y271759D01*
X330826Y270930D01*
X330579Y270006D01*
Y269049D01*
X330826Y268125D01*
X331305Y267296D01*
X331981Y266620D01*
X332810Y266141D01*
X333734Y265894D01*
X334691D01*
X335615Y266141D01*
X336444Y266620D01*
X337120Y267296D01*
X337599Y268125D01*
X337846Y269049D01*
Y270006D01*
X337599Y270930D01*
X337120Y271759D01*
X336444Y272435D01*
X335615Y272914D01*
X334691Y273161D01*
D02*
G37*
G36*
X268116D02*
X267159D01*
X266235Y272914D01*
X265407Y272435D01*
X264730Y271759D01*
X264252Y270930D01*
X264004Y270006D01*
Y269049D01*
X264252Y268125D01*
X264730Y267296D01*
X265407Y266620D01*
X266235Y266141D01*
X267159Y265894D01*
X268116D01*
X269040Y266141D01*
X269869Y266620D01*
X270546Y267296D01*
X271024Y268125D01*
X271272Y269049D01*
Y270006D01*
X271024Y270930D01*
X270546Y271759D01*
X269869Y272435D01*
X269040Y272914D01*
X268116Y273161D01*
D02*
G37*
G36*
X260124D02*
X259167D01*
X258243Y272914D01*
X257414Y272435D01*
X256738Y271759D01*
X256259Y270930D01*
X256012Y270006D01*
Y269049D01*
X256259Y268125D01*
X256738Y267296D01*
X257414Y266620D01*
X258243Y266141D01*
X259167Y265894D01*
X260124D01*
X261048Y266141D01*
X261877Y266620D01*
X262554Y267296D01*
X263032Y268125D01*
X263280Y269049D01*
Y270006D01*
X263032Y270930D01*
X262554Y271759D01*
X261877Y272435D01*
X261048Y272914D01*
X260124Y273161D01*
D02*
G37*
G36*
X252132D02*
X251175D01*
X250251Y272914D01*
X249422Y272435D01*
X248746Y271759D01*
X248267Y270930D01*
X248020Y270006D01*
Y269049D01*
X248267Y268125D01*
X248746Y267296D01*
X249422Y266620D01*
X250251Y266141D01*
X251175Y265894D01*
X252132D01*
X253056Y266141D01*
X253885Y266620D01*
X254561Y267296D01*
X255040Y268125D01*
X255287Y269049D01*
Y270006D01*
X255040Y270930D01*
X254561Y271759D01*
X253885Y272435D01*
X253056Y272914D01*
X252132Y273161D01*
D02*
G37*
G36*
X244140D02*
X243183D01*
X242259Y272914D01*
X241430Y272435D01*
X240754Y271759D01*
X240275Y270930D01*
X240028Y270006D01*
Y269049D01*
X240275Y268125D01*
X240754Y267296D01*
X241430Y266620D01*
X242259Y266141D01*
X243183Y265894D01*
X244140D01*
X245064Y266141D01*
X245893Y266620D01*
X246569Y267296D01*
X247048Y268125D01*
X247295Y269049D01*
Y270006D01*
X247048Y270930D01*
X246569Y271759D01*
X245893Y272435D01*
X245064Y272914D01*
X244140Y273161D01*
D02*
G37*
G36*
X373916Y273209D02*
X372501D01*
X371113Y272933D01*
X369805Y272391D01*
X368629Y271605D01*
X367628Y270604D01*
X366841Y269427D01*
X366300Y268119D01*
X366024Y266731D01*
Y265316D01*
X366300Y263928D01*
X366841Y262620D01*
X367628Y261443D01*
X368629Y260443D01*
X369805Y259656D01*
X371113Y259115D01*
X372501Y258839D01*
X373916D01*
X375305Y259115D01*
X376612Y259656D01*
X377789Y260443D01*
X378790Y261443D01*
X379576Y262620D01*
X380118Y263928D01*
X380394Y265316D01*
Y266731D01*
X380118Y268119D01*
X379576Y269427D01*
X378790Y270604D01*
X377789Y271605D01*
X376612Y272391D01*
X375305Y272933D01*
X373916Y273209D01*
D02*
G37*
G36*
X323916D02*
X322501D01*
X321113Y272933D01*
X319805Y272391D01*
X318629Y271605D01*
X317628Y270604D01*
X316841Y269427D01*
X316300Y268119D01*
X316024Y266731D01*
Y265316D01*
X316300Y263928D01*
X316841Y262620D01*
X317628Y261443D01*
X318629Y260443D01*
X319805Y259656D01*
X321113Y259115D01*
X322501Y258839D01*
X323916D01*
X325305Y259115D01*
X326612Y259656D01*
X327789Y260443D01*
X328790Y261443D01*
X329576Y262620D01*
X330118Y263928D01*
X330394Y265316D01*
Y266731D01*
X330118Y268119D01*
X329576Y269427D01*
X328790Y270604D01*
X327789Y271605D01*
X326612Y272391D01*
X325305Y272933D01*
X323916Y273209D01*
D02*
G37*
G36*
X283365D02*
X281950D01*
X280562Y272933D01*
X279254Y272391D01*
X278077Y271605D01*
X277077Y270604D01*
X276290Y269427D01*
X275748Y268119D01*
X275472Y266731D01*
Y265316D01*
X275748Y263928D01*
X276290Y262620D01*
X277077Y261443D01*
X278077Y260443D01*
X279254Y259656D01*
X280562Y259115D01*
X281950Y258839D01*
X283365D01*
X284753Y259115D01*
X286061Y259656D01*
X287238Y260443D01*
X288239Y261443D01*
X289025Y262620D01*
X289566Y263928D01*
X289843Y265316D01*
Y266731D01*
X289566Y268119D01*
X289025Y269427D01*
X288239Y270604D01*
X287238Y271605D01*
X286061Y272391D01*
X284753Y272933D01*
X283365Y273209D01*
D02*
G37*
G36*
X233365D02*
X231950D01*
X230562Y272933D01*
X229254Y272391D01*
X228077Y271605D01*
X227077Y270604D01*
X226290Y269427D01*
X225748Y268119D01*
X225472Y266731D01*
Y265316D01*
X225748Y263928D01*
X226290Y262620D01*
X227077Y261443D01*
X228077Y260443D01*
X229254Y259656D01*
X230562Y259115D01*
X231950Y258839D01*
X233365D01*
X234753Y259115D01*
X236061Y259656D01*
X237238Y260443D01*
X238239Y261443D01*
X239025Y262620D01*
X239566Y263928D01*
X239843Y265316D01*
Y266731D01*
X239566Y268119D01*
X239025Y269427D01*
X238239Y270604D01*
X237238Y271605D01*
X236061Y272391D01*
X234753Y272933D01*
X233365Y273209D01*
D02*
G37*
G36*
X165707Y236772D02*
X165002D01*
X164351Y236502D01*
X163852Y236004D01*
X163583Y235352D01*
Y234648D01*
X163852Y233996D01*
X164351Y233498D01*
X165002Y233228D01*
X165707D01*
X166358Y233498D01*
X166856Y233996D01*
X167126Y234648D01*
Y235352D01*
X166856Y236004D01*
X166358Y236502D01*
X165707Y236772D01*
D02*
G37*
G36*
X152006Y232953D02*
X151301D01*
X150650Y232683D01*
X150152Y232185D01*
X149882Y231534D01*
Y230829D01*
X150152Y230177D01*
X150650Y229679D01*
X151301Y229410D01*
X152006D01*
X152657Y229679D01*
X153156Y230177D01*
X153425Y230829D01*
Y231534D01*
X153156Y232185D01*
X152657Y232683D01*
X152006Y232953D01*
D02*
G37*
G36*
X108738D02*
X108033D01*
X107382Y232683D01*
X106884Y232185D01*
X106614Y231534D01*
Y230829D01*
X106884Y230177D01*
X107382Y229679D01*
X108033Y229410D01*
X108738D01*
X109389Y229679D01*
X109888Y230177D01*
X110158Y230829D01*
Y231534D01*
X109888Y232185D01*
X109389Y232683D01*
X108738Y232953D01*
D02*
G37*
G36*
X257990Y229685D02*
X257285D01*
X256634Y229415D01*
X256136Y228917D01*
X255866Y228266D01*
Y227561D01*
X256136Y226910D01*
X256634Y226412D01*
X257285Y226142D01*
X257990D01*
X258641Y226412D01*
X259140Y226910D01*
X259409Y227561D01*
Y228266D01*
X259140Y228917D01*
X258641Y229415D01*
X257990Y229685D01*
D02*
G37*
G36*
X191652Y228622D02*
X190947D01*
X190296Y228352D01*
X189797Y227854D01*
X189528Y227203D01*
Y226498D01*
X189797Y225847D01*
X190296Y225348D01*
X190947Y225079D01*
X191652D01*
X192303Y225348D01*
X192801Y225847D01*
X193071Y226498D01*
Y227203D01*
X192801Y227854D01*
X192303Y228352D01*
X191652Y228622D01*
D02*
G37*
G36*
X420904Y227126D02*
X420199D01*
X419548Y226856D01*
X419049Y226358D01*
X418780Y225707D01*
Y225002D01*
X419049Y224351D01*
X419548Y223852D01*
X420199Y223583D01*
X420904D01*
X421555Y223852D01*
X422053Y224351D01*
X422323Y225002D01*
Y225707D01*
X422053Y226358D01*
X421555Y226856D01*
X420904Y227126D01*
D02*
G37*
G36*
X338343Y226497D02*
X337639D01*
X336987Y226227D01*
X336489Y225729D01*
X336219Y225078D01*
Y224373D01*
X336489Y223722D01*
X336987Y223224D01*
X337639Y222954D01*
X338343D01*
X338995Y223224D01*
X339493Y223722D01*
X339763Y224373D01*
Y225078D01*
X339493Y225729D01*
X338995Y226227D01*
X338343Y226497D01*
D02*
G37*
G36*
X236533Y225319D02*
X235829D01*
X235178Y225049D01*
X234679Y224550D01*
X234409Y223899D01*
Y223195D01*
X234679Y222543D01*
X235178Y222045D01*
X235829Y221775D01*
X236533D01*
X237185Y222045D01*
X237683Y222543D01*
X237953Y223195D01*
Y223899D01*
X237683Y224550D01*
X237185Y225049D01*
X236533Y225319D01*
D02*
G37*
G36*
X110825Y222992D02*
X110120D01*
X109469Y222722D01*
X108970Y222224D01*
X108701Y221573D01*
Y220868D01*
X108970Y220217D01*
X109469Y219719D01*
X110120Y219449D01*
X110825D01*
X111476Y219719D01*
X111974Y220217D01*
X112244Y220868D01*
Y221573D01*
X111974Y222224D01*
X111476Y222722D01*
X110825Y222992D01*
D02*
G37*
G36*
X399719Y222523D02*
X399014D01*
X398363Y222253D01*
X397865Y221755D01*
X397595Y221104D01*
Y220399D01*
X397865Y219748D01*
X398363Y219250D01*
X399014Y218980D01*
X399719D01*
X400370Y219250D01*
X400868Y219748D01*
X401138Y220399D01*
Y221104D01*
X400868Y221755D01*
X400370Y222253D01*
X399719Y222523D01*
D02*
G37*
G36*
X66612Y222402D02*
X65907D01*
X65256Y222132D01*
X64758Y221634D01*
X64488Y220982D01*
Y220278D01*
X64758Y219626D01*
X65256Y219128D01*
X65907Y218858D01*
X66612D01*
X67263Y219128D01*
X67762Y219626D01*
X68032Y220278D01*
Y220982D01*
X67762Y221634D01*
X67263Y222132D01*
X66612Y222402D01*
D02*
G37*
G36*
X317349Y221811D02*
X316644D01*
X315992Y221541D01*
X315494Y221043D01*
X315224Y220392D01*
Y219687D01*
X315494Y219036D01*
X315992Y218537D01*
X316644Y218268D01*
X317349D01*
X318000Y218537D01*
X318498Y219036D01*
X318768Y219687D01*
Y220392D01*
X318498Y221043D01*
X318000Y221541D01*
X317349Y221811D01*
D02*
G37*
G36*
X227478Y220433D02*
X226774D01*
X226122Y220163D01*
X225624Y219665D01*
X225354Y219014D01*
Y218309D01*
X225624Y217658D01*
X226122Y217160D01*
X226774Y216890D01*
X227478D01*
X228130Y217160D01*
X228628Y217658D01*
X228898Y218309D01*
Y219014D01*
X228628Y219665D01*
X228130Y220163D01*
X227478Y220433D01*
D02*
G37*
G36*
X147754Y217874D02*
X147049D01*
X146398Y217604D01*
X145900Y217106D01*
X145630Y216455D01*
Y215750D01*
X145900Y215099D01*
X146398Y214600D01*
X147049Y214331D01*
X147754D01*
X148405Y214600D01*
X148904Y215099D01*
X149173Y215750D01*
Y216455D01*
X148904Y217106D01*
X148405Y217604D01*
X147754Y217874D01*
D02*
G37*
G36*
X105313D02*
X104608D01*
X103957Y217604D01*
X103459Y217106D01*
X103189Y216455D01*
Y215750D01*
X103459Y215099D01*
X103957Y214600D01*
X104608Y214331D01*
X105313D01*
X105964Y214600D01*
X106463Y215099D01*
X106732Y215750D01*
Y216455D01*
X106463Y217106D01*
X105964Y217604D01*
X105313Y217874D01*
D02*
G37*
G36*
X390274Y217795D02*
X389569D01*
X388918Y217526D01*
X388419Y217027D01*
X388150Y216376D01*
Y215671D01*
X388419Y215020D01*
X388918Y214522D01*
X389569Y214252D01*
X390274D01*
X390925Y214522D01*
X391423Y215020D01*
X391693Y215671D01*
Y216376D01*
X391423Y217027D01*
X390925Y217526D01*
X390274Y217795D01*
D02*
G37*
G36*
X114250D02*
X113545D01*
X112894Y217526D01*
X112396Y217027D01*
X112126Y216376D01*
Y215671D01*
X112396Y215020D01*
X112894Y214522D01*
X113545Y214252D01*
X114250D01*
X114901Y214522D01*
X115400Y215020D01*
X115669Y215671D01*
Y216376D01*
X115400Y217027D01*
X114901Y217526D01*
X114250Y217795D01*
D02*
G37*
G36*
X157597Y217717D02*
X156892D01*
X156240Y217447D01*
X155742Y216948D01*
X155472Y216297D01*
Y215593D01*
X155742Y214941D01*
X156240Y214443D01*
X156892Y214173D01*
X157597D01*
X158248Y214443D01*
X158746Y214941D01*
X159016Y215593D01*
Y216297D01*
X158746Y216948D01*
X158248Y217447D01*
X157597Y217717D01*
D02*
G37*
G36*
X69880D02*
X69175D01*
X68524Y217447D01*
X68026Y216948D01*
X67756Y216297D01*
Y215593D01*
X68026Y214941D01*
X68524Y214443D01*
X69175Y214173D01*
X69880D01*
X70531Y214443D01*
X71030Y214941D01*
X71299Y215593D01*
Y216297D01*
X71030Y216948D01*
X70531Y217447D01*
X69880Y217717D01*
D02*
G37*
G36*
X307872Y217008D02*
X307167D01*
X306516Y216738D01*
X306018Y216240D01*
X305748Y215589D01*
Y214884D01*
X306018Y214233D01*
X306516Y213734D01*
X307167Y213465D01*
X307872D01*
X308523Y213734D01*
X309022Y214233D01*
X309291Y214884D01*
Y215589D01*
X309022Y216240D01*
X308523Y216738D01*
X307872Y217008D01*
D02*
G37*
G36*
X113620Y212992D02*
X112915D01*
X112264Y212722D01*
X111766Y212224D01*
X111496Y211573D01*
Y210868D01*
X111766Y210217D01*
X112264Y209718D01*
X112915Y209449D01*
X113620D01*
X114271Y209718D01*
X114770Y210217D01*
X115039Y210868D01*
Y211573D01*
X114770Y212224D01*
X114271Y212722D01*
X113620Y212992D01*
D02*
G37*
G36*
X69289Y212913D02*
X68585D01*
X67933Y212644D01*
X67435Y212145D01*
X67165Y211494D01*
Y210789D01*
X67435Y210138D01*
X67933Y209640D01*
X68585Y209370D01*
X69289D01*
X69941Y209640D01*
X70439Y210138D01*
X70709Y210789D01*
Y211494D01*
X70439Y212145D01*
X69941Y212644D01*
X69289Y212913D01*
D02*
G37*
G36*
X102360Y212835D02*
X101655D01*
X101004Y212565D01*
X100506Y212067D01*
X100236Y211415D01*
Y210711D01*
X100506Y210059D01*
X101004Y209561D01*
X101655Y209291D01*
X102360D01*
X103011Y209561D01*
X103510Y210059D01*
X103779Y210711D01*
Y211415D01*
X103510Y212067D01*
X103011Y212565D01*
X102360Y212835D01*
D02*
G37*
G36*
X145825Y212795D02*
X145120D01*
X144469Y212526D01*
X143971Y212027D01*
X143701Y211376D01*
Y210671D01*
X143971Y210020D01*
X144469Y209522D01*
X145120Y209252D01*
X145825D01*
X146476Y209522D01*
X146974Y210020D01*
X147244Y210671D01*
Y211376D01*
X146974Y212027D01*
X146476Y212526D01*
X145825Y212795D01*
D02*
G37*
G36*
X146534Y207756D02*
X145829D01*
X145177Y207486D01*
X144679Y206988D01*
X144409Y206337D01*
Y205632D01*
X144679Y204981D01*
X145177Y204482D01*
X145829Y204213D01*
X146534D01*
X147185Y204482D01*
X147683Y204981D01*
X147953Y205632D01*
Y206337D01*
X147683Y206988D01*
X147185Y207486D01*
X146534Y207756D01*
D02*
G37*
G36*
X103108Y207559D02*
X102403D01*
X101752Y207289D01*
X101254Y206791D01*
X100984Y206140D01*
Y205435D01*
X101254Y204784D01*
X101752Y204286D01*
X102403Y204016D01*
X103108D01*
X103760Y204286D01*
X104258Y204784D01*
X104528Y205435D01*
Y206140D01*
X104258Y206791D01*
X103760Y207289D01*
X103108Y207559D01*
D02*
G37*
G36*
X417951Y202992D02*
X417246D01*
X416595Y202722D01*
X416096Y202224D01*
X415827Y201573D01*
Y200868D01*
X416096Y200217D01*
X416595Y199718D01*
X417246Y199449D01*
X417951D01*
X418602Y199718D01*
X419100Y200217D01*
X419370Y200868D01*
Y201573D01*
X419100Y202224D01*
X418602Y202722D01*
X417951Y202992D01*
D02*
G37*
G36*
X157006Y202677D02*
X156301D01*
X155650Y202407D01*
X155152Y201909D01*
X154882Y201258D01*
Y200553D01*
X155152Y199902D01*
X155650Y199404D01*
X156301Y199134D01*
X157006D01*
X157657Y199404D01*
X158156Y199902D01*
X158425Y200553D01*
Y201258D01*
X158156Y201909D01*
X157657Y202407D01*
X157006Y202677D01*
D02*
G37*
G36*
X335628Y202480D02*
X334923D01*
X334272Y202211D01*
X333774Y201712D01*
X333504Y201061D01*
Y200356D01*
X333774Y199705D01*
X334272Y199207D01*
X334923Y198937D01*
X335628D01*
X336279Y199207D01*
X336777Y199705D01*
X337047Y200356D01*
Y201061D01*
X336777Y201712D01*
X336279Y202211D01*
X335628Y202480D01*
D02*
G37*
G36*
X221446Y199260D02*
X220742D01*
X220091Y198990D01*
X219592Y198492D01*
X219322Y197841D01*
Y197136D01*
X219592Y196485D01*
X220091Y195987D01*
X220742Y195717D01*
X221446D01*
X222098Y195987D01*
X222596Y196485D01*
X222866Y197136D01*
Y197841D01*
X222596Y198492D01*
X222098Y198990D01*
X221446Y199260D01*
D02*
G37*
G36*
X177557Y198110D02*
X176852D01*
X176201Y197840D01*
X175703Y197342D01*
X175433Y196691D01*
Y195986D01*
X175703Y195335D01*
X176201Y194837D01*
X176852Y194567D01*
X177557D01*
X178208Y194837D01*
X178707Y195335D01*
X178976Y195986D01*
Y196691D01*
X178707Y197342D01*
X178208Y197840D01*
X177557Y198110D01*
D02*
G37*
G36*
X202596Y197874D02*
X201892D01*
X201240Y197604D01*
X200742Y197106D01*
X200472Y196455D01*
Y195750D01*
X200742Y195099D01*
X201240Y194600D01*
X201892Y194331D01*
X202596D01*
X203248Y194600D01*
X203746Y195099D01*
X204016Y195750D01*
Y196455D01*
X203746Y197106D01*
X203248Y197604D01*
X202596Y197874D01*
D02*
G37*
G36*
X307872Y195551D02*
X307167D01*
X306516Y195282D01*
X306018Y194783D01*
X305748Y194132D01*
Y193427D01*
X306018Y192776D01*
X306516Y192278D01*
X307167Y192008D01*
X307872D01*
X308523Y192278D01*
X309022Y192776D01*
X309291Y193427D01*
Y194132D01*
X309022Y194783D01*
X308523Y195282D01*
X307872Y195551D01*
D02*
G37*
G36*
X390510Y194646D02*
X389805D01*
X389154Y194376D01*
X388655Y193878D01*
X388386Y193226D01*
Y192522D01*
X388655Y191870D01*
X389154Y191372D01*
X389805Y191102D01*
X390510D01*
X391161Y191372D01*
X391659Y191870D01*
X391929Y192522D01*
Y193226D01*
X391659Y193878D01*
X391161Y194376D01*
X390510Y194646D01*
D02*
G37*
G36*
X293256Y194081D02*
X292551D01*
X291900Y193811D01*
X291402Y193313D01*
X291132Y192661D01*
Y191957D01*
X291402Y191305D01*
X291764Y190943D01*
X291526Y190706D01*
X291256Y190055D01*
Y189350D01*
X291526Y188699D01*
X292024Y188200D01*
X292676Y187931D01*
X293380D01*
X294032Y188200D01*
X294530Y188699D01*
X294800Y189350D01*
Y190055D01*
X294530Y190706D01*
X294168Y191068D01*
X294406Y191305D01*
X294675Y191957D01*
Y192661D01*
X294406Y193313D01*
X293907Y193811D01*
X293256Y194081D01*
D02*
G37*
G36*
X186415Y187480D02*
X185711D01*
X185059Y187211D01*
X184561Y186712D01*
X184291Y186061D01*
Y185356D01*
X184561Y184705D01*
X185059Y184207D01*
X185711Y183937D01*
X186415D01*
X187067Y184207D01*
X187565Y184705D01*
X187835Y185356D01*
Y186061D01*
X187565Y186712D01*
X187067Y187211D01*
X186415Y187480D01*
D02*
G37*
G36*
X409464Y191935D02*
X408249D01*
X407076Y191621D01*
X406024Y191014D01*
X405165Y190155D01*
X404558Y189103D01*
X404244Y187930D01*
Y186716D01*
X404558Y185543D01*
X405165Y184491D01*
X406024Y183632D01*
X407076Y183025D01*
X408249Y182710D01*
X409464D01*
X410637Y183025D01*
X411689Y183632D01*
X412547Y184491D01*
X413154Y185543D01*
X413469Y186716D01*
Y187930D01*
X413154Y189103D01*
X412547Y190155D01*
X411689Y191014D01*
X410637Y191621D01*
X409464Y191935D01*
D02*
G37*
G36*
X369464D02*
X368249D01*
X367076Y191621D01*
X366024Y191014D01*
X365165Y190155D01*
X364558Y189103D01*
X364244Y187930D01*
Y186716D01*
X364558Y185543D01*
X365165Y184491D01*
X366024Y183632D01*
X367076Y183025D01*
X368249Y182710D01*
X369464D01*
X370637Y183025D01*
X371689Y183632D01*
X372547Y184491D01*
X373154Y185543D01*
X373469Y186716D01*
Y187930D01*
X373154Y189103D01*
X372547Y190155D01*
X371689Y191014D01*
X370637Y191621D01*
X369464Y191935D01*
D02*
G37*
G36*
X154762Y181220D02*
X154057D01*
X153406Y180951D01*
X152908Y180452D01*
X152638Y179801D01*
Y179096D01*
X152908Y178445D01*
X153257Y178096D01*
X153113Y177952D01*
X152844Y177301D01*
Y176596D01*
X153113Y175945D01*
X153612Y175447D01*
X154263Y175177D01*
X154968D01*
X155619Y175447D01*
X156117Y175945D01*
X156387Y176596D01*
Y177301D01*
X156117Y177952D01*
X155768Y178302D01*
X155911Y178445D01*
X156181Y179096D01*
Y179801D01*
X155911Y180452D01*
X155413Y180951D01*
X154762Y181220D01*
D02*
G37*
G36*
X202629Y177284D02*
X201925D01*
X201273Y177014D01*
X200775Y176515D01*
X200505Y175864D01*
Y175159D01*
X200775Y174508D01*
X201273Y174010D01*
X201925Y173740D01*
X202273D01*
Y173392D01*
X202543Y172740D01*
X203041Y172242D01*
X203692Y171972D01*
X204397D01*
X205048Y172242D01*
X205547Y172740D01*
X205816Y173392D01*
Y174097D01*
X205547Y174748D01*
X205048Y175246D01*
X204397Y175516D01*
X204049D01*
Y175864D01*
X203779Y176515D01*
X203280Y177014D01*
X202629Y177284D01*
D02*
G37*
G36*
X315352Y173465D02*
X314648D01*
X313996Y173195D01*
X313498Y172696D01*
X313228Y172045D01*
Y171341D01*
X313498Y170689D01*
X313996Y170191D01*
X314648Y169921D01*
X315352D01*
X316004Y170191D01*
X316502Y170689D01*
X316772Y171341D01*
Y172045D01*
X316502Y172696D01*
X316004Y173195D01*
X315352Y173465D01*
D02*
G37*
G36*
X98266Y172165D02*
X97561D01*
X96910Y171896D01*
X96412Y171397D01*
X96142Y170746D01*
Y170041D01*
X96412Y169390D01*
X96910Y168892D01*
X97561Y168622D01*
X98266D01*
X98917Y168892D01*
X99415Y169390D01*
X99685Y170041D01*
Y170746D01*
X99415Y171397D01*
X98917Y171896D01*
X98266Y172165D01*
D02*
G37*
G36*
X294199Y168937D02*
X293494D01*
X292843Y168667D01*
X292344Y168169D01*
X292075Y167518D01*
Y166813D01*
X292344Y166162D01*
X292843Y165663D01*
X293494Y165394D01*
X294199D01*
X294850Y165663D01*
X295348Y166162D01*
X295618Y166813D01*
Y167518D01*
X295348Y168169D01*
X294850Y168667D01*
X294199Y168937D01*
D02*
G37*
G36*
X48069Y164213D02*
X47364D01*
X46713Y163943D01*
X46215Y163444D01*
X45945Y162793D01*
Y162089D01*
X46215Y161437D01*
X46713Y160939D01*
X47364Y160669D01*
X48069D01*
X48720Y160939D01*
X49218Y161437D01*
X49488Y162089D01*
Y162793D01*
X49218Y163444D01*
X48720Y163943D01*
X48069Y164213D01*
D02*
G37*
G36*
X284722Y164134D02*
X284018D01*
X283366Y163864D01*
X282868Y163366D01*
X282598Y162715D01*
Y162010D01*
X282868Y161359D01*
X283366Y160860D01*
X284018Y160591D01*
X284722D01*
X285374Y160860D01*
X285872Y161359D01*
X286142Y162010D01*
Y162715D01*
X285872Y163366D01*
X285374Y163864D01*
X284722Y164134D01*
D02*
G37*
G36*
X384549Y174754D02*
X383085D01*
X381649Y174468D01*
X380297Y173908D01*
X379080Y173095D01*
X378045Y172060D01*
X377232Y170843D01*
X376672Y169490D01*
X376386Y168055D01*
Y166591D01*
X376672Y165155D01*
X377232Y163803D01*
X378045Y162586D01*
X379080Y161551D01*
X380297Y160738D01*
X381649Y160177D01*
X383085Y159892D01*
X384549D01*
X385985Y160177D01*
X387337Y160738D01*
X388554Y161551D01*
X389589Y162586D01*
X390402Y163803D01*
X390963Y165155D01*
X391248Y166591D01*
Y168055D01*
X390963Y169490D01*
X390402Y170843D01*
X389589Y172060D01*
X388554Y173095D01*
X387337Y173908D01*
X385985Y174468D01*
X384549Y174754D01*
D02*
G37*
G36*
X119093Y162835D02*
X118388D01*
X117737Y162565D01*
X117238Y162067D01*
X116969Y161415D01*
Y160711D01*
X117238Y160059D01*
X117737Y159561D01*
X118388Y159291D01*
X119093D01*
X119744Y159561D01*
X120242Y160059D01*
X120512Y160711D01*
Y161415D01*
X120242Y162067D01*
X119744Y162565D01*
X119093Y162835D01*
D02*
G37*
G36*
X9959Y160433D02*
X9254D01*
X8603Y160163D01*
X8104Y159665D01*
X7835Y159014D01*
Y158309D01*
X8104Y157658D01*
X8603Y157159D01*
X9254Y156890D01*
X9959D01*
X10610Y157159D01*
X11108Y157658D01*
X11378Y158309D01*
Y159014D01*
X11108Y159665D01*
X10610Y160163D01*
X9959Y160433D01*
D02*
G37*
G36*
X161852Y159843D02*
X161147D01*
X160496Y159573D01*
X159997Y159074D01*
X159728Y158423D01*
Y157719D01*
X159997Y157067D01*
X160496Y156569D01*
X161147Y156299D01*
X161852D01*
X162503Y156569D01*
X163001Y157067D01*
X163271Y157719D01*
Y158423D01*
X163001Y159074D01*
X162503Y159573D01*
X161852Y159843D01*
D02*
G37*
G36*
X229568Y159764D02*
X228864D01*
X228212Y159494D01*
X227714Y158996D01*
X227444Y158344D01*
Y157640D01*
X227714Y156989D01*
X228212Y156490D01*
X228864Y156220D01*
X229568D01*
X230220Y156490D01*
X230718Y156989D01*
X230988Y157640D01*
Y158344D01*
X230718Y158996D01*
X230220Y159494D01*
X229568Y159764D01*
D02*
G37*
G36*
X140510Y155551D02*
X139805D01*
X139154Y155281D01*
X138655Y154783D01*
X138386Y154132D01*
Y153427D01*
X138655Y152776D01*
X139154Y152278D01*
X139805Y152008D01*
X140510D01*
X141161Y152278D01*
X141659Y152776D01*
X141929Y153427D01*
Y154132D01*
X141659Y154783D01*
X141161Y155281D01*
X140510Y155551D01*
D02*
G37*
G36*
X208187Y155397D02*
X207482D01*
X206831Y155128D01*
X206332Y154629D01*
X206063Y153978D01*
Y153273D01*
X206332Y152622D01*
X206831Y152124D01*
X207482Y151854D01*
X208187D01*
X208838Y152124D01*
X209336Y152622D01*
X209606Y153273D01*
Y153978D01*
X209336Y154629D01*
X208838Y155128D01*
X208187Y155397D01*
D02*
G37*
G36*
X131858Y151478D02*
X131153D01*
X130502Y151208D01*
X130004Y150709D01*
X129734Y150058D01*
Y149354D01*
X130004Y148702D01*
X130502Y148204D01*
X131153Y147934D01*
X131858D01*
X132509Y148204D01*
X133008Y148702D01*
X133277Y149354D01*
Y150058D01*
X133008Y150709D01*
X132509Y151208D01*
X131858Y151478D01*
D02*
G37*
G36*
X199057Y150512D02*
X198352D01*
X197701Y150242D01*
X197202Y149744D01*
X196932Y149093D01*
Y148388D01*
X197202Y147737D01*
X197701Y147238D01*
X198352Y146968D01*
X199057D01*
X199708Y147238D01*
X200206Y147737D01*
X200476Y148388D01*
Y149093D01*
X200206Y149744D01*
X199708Y150242D01*
X199057Y150512D01*
D02*
G37*
G36*
X314683Y149291D02*
X313978D01*
X313327Y149022D01*
X312829Y148523D01*
X312559Y147872D01*
Y147167D01*
X312829Y146516D01*
X313327Y146018D01*
X313978Y145748D01*
X314683D01*
X315334Y146018D01*
X315833Y146516D01*
X316102Y147167D01*
Y147872D01*
X315833Y148523D01*
X315334Y149022D01*
X314683Y149291D01*
D02*
G37*
G36*
X38699Y147205D02*
X37994D01*
X37343Y146935D01*
X36845Y146437D01*
X36575Y145785D01*
Y145081D01*
X36845Y144430D01*
X37343Y143931D01*
X37994Y143661D01*
X38699D01*
X39350Y143931D01*
X39848Y144430D01*
X40118Y145081D01*
Y145785D01*
X39848Y146437D01*
X39350Y146935D01*
X38699Y147205D01*
D02*
G37*
G36*
X79329Y147047D02*
X78624D01*
X77973Y146777D01*
X77474Y146279D01*
X77205Y145628D01*
Y144923D01*
X77474Y144272D01*
X77973Y143774D01*
X78624Y143504D01*
X79329D01*
X79980Y143774D01*
X80478Y144272D01*
X80748Y144923D01*
Y145628D01*
X80478Y146279D01*
X79980Y146777D01*
X79329Y147047D01*
D02*
G37*
G36*
X409464Y151935D02*
X408249D01*
X407076Y151621D01*
X406024Y151014D01*
X405165Y150155D01*
X404558Y149103D01*
X404244Y147930D01*
Y146716D01*
X404558Y145543D01*
X405165Y144491D01*
X406024Y143632D01*
X407076Y143025D01*
X408249Y142710D01*
X409464D01*
X410637Y143025D01*
X411689Y143632D01*
X412547Y144491D01*
X413154Y145543D01*
X413469Y146716D01*
Y147930D01*
X413154Y149103D01*
X412547Y150155D01*
X411689Y151014D01*
X410637Y151621D01*
X409464Y151935D01*
D02*
G37*
G36*
X369464D02*
X368249D01*
X367076Y151621D01*
X366024Y151014D01*
X365165Y150155D01*
X364558Y149103D01*
X364244Y147930D01*
Y146716D01*
X364558Y145543D01*
X365165Y144491D01*
X366024Y143632D01*
X367076Y143025D01*
X368249Y142710D01*
X369464D01*
X370637Y143025D01*
X371689Y143632D01*
X372547Y144491D01*
X373154Y145543D01*
X373469Y146716D01*
Y147930D01*
X373154Y149103D01*
X372547Y150155D01*
X371689Y151014D01*
X370637Y151621D01*
X369464Y151935D01*
D02*
G37*
G36*
X79329Y141496D02*
X78624D01*
X77973Y141226D01*
X77474Y140728D01*
X77205Y140077D01*
Y139372D01*
X77474Y138721D01*
X77973Y138223D01*
X78624Y137953D01*
X79329D01*
X79980Y138223D01*
X80478Y138721D01*
X80748Y139372D01*
Y140077D01*
X80478Y140728D01*
X79980Y141226D01*
X79329Y141496D01*
D02*
G37*
G36*
X285156Y140905D02*
X284451D01*
X283800Y140636D01*
X283301Y140137D01*
X283032Y139486D01*
Y138781D01*
X283301Y138130D01*
X283800Y137632D01*
X284451Y137362D01*
X285156D01*
X285807Y137632D01*
X286305Y138130D01*
X286575Y138781D01*
Y139486D01*
X286305Y140137D01*
X285807Y140636D01*
X285156Y140905D01*
D02*
G37*
G36*
X79171Y136811D02*
X78466D01*
X77815Y136541D01*
X77317Y136043D01*
X77047Y135392D01*
Y134687D01*
X77317Y134036D01*
X77815Y133537D01*
X78466Y133268D01*
X79171D01*
X79822Y133537D01*
X80321Y134036D01*
X80590Y134687D01*
Y135392D01*
X80321Y136043D01*
X79822Y136541D01*
X79171Y136811D01*
D02*
G37*
G36*
X38699Y136653D02*
X37994D01*
X37343Y136384D01*
X36845Y135885D01*
X36575Y135234D01*
Y134529D01*
X36845Y133878D01*
X37343Y133380D01*
X37994Y133110D01*
X38699D01*
X39350Y133380D01*
X39848Y133878D01*
X40118Y134529D01*
Y135234D01*
X39848Y135885D01*
X39350Y136384D01*
X38699Y136653D01*
D02*
G37*
G36*
X261701Y138189D02*
X260996D01*
X260345Y137919D01*
X259846Y137421D01*
X259577Y136770D01*
Y136065D01*
X259846Y135414D01*
X260345Y134915D01*
X260996Y134646D01*
X261701D01*
X261739Y134661D01*
X262093Y134308D01*
X262077Y134270D01*
Y133565D01*
X262347Y132914D01*
X262845Y132415D01*
X263496Y132146D01*
X264201D01*
X264852Y132415D01*
X265350Y132914D01*
X265620Y133565D01*
Y134270D01*
X265350Y134921D01*
X264852Y135419D01*
X264201Y135689D01*
X263496D01*
X263458Y135673D01*
X263104Y136027D01*
X263120Y136065D01*
Y136770D01*
X262850Y137421D01*
X262352Y137919D01*
X261701Y138189D01*
D02*
G37*
G36*
X192990Y129961D02*
X192285D01*
X191634Y129691D01*
X191136Y129192D01*
X190866Y128541D01*
Y127837D01*
X191136Y127185D01*
X191634Y126687D01*
X192285Y126417D01*
X192990D01*
X193641Y126687D01*
X194140Y127185D01*
X194409Y127837D01*
Y128541D01*
X194140Y129192D01*
X193641Y129691D01*
X192990Y129961D01*
D02*
G37*
G36*
X38699Y129528D02*
X37994D01*
X37343Y129258D01*
X36845Y128760D01*
X36575Y128108D01*
Y127403D01*
X36845Y126752D01*
X37343Y126254D01*
X37994Y125984D01*
X38699D01*
X39350Y126254D01*
X39848Y126752D01*
X40118Y127403D01*
Y128108D01*
X39848Y128760D01*
X39350Y129258D01*
X38699Y129528D01*
D02*
G37*
G36*
X133896Y129055D02*
X133191D01*
X132540Y128785D01*
X132041Y128287D01*
X131772Y127636D01*
Y126931D01*
X132041Y126280D01*
X132540Y125782D01*
X133191Y125512D01*
X133896D01*
X134547Y125782D01*
X135045Y126280D01*
X135315Y126931D01*
Y127636D01*
X135045Y128287D01*
X134547Y128785D01*
X133896Y129055D01*
D02*
G37*
G36*
X409466Y132880D02*
X408251D01*
X407078Y132566D01*
X406026Y131959D01*
X405167Y131100D01*
X404560Y130048D01*
X404246Y128875D01*
Y127661D01*
X404560Y126487D01*
X405167Y125436D01*
X406026Y124577D01*
X407078Y123970D01*
X408251Y123655D01*
X409466D01*
X410639Y123970D01*
X411690Y124577D01*
X412549Y125436D01*
X413156Y126487D01*
X413471Y127661D01*
Y128875D01*
X413156Y130048D01*
X412549Y131100D01*
X411690Y131959D01*
X410639Y132566D01*
X409466Y132880D01*
D02*
G37*
G36*
X369465D02*
X368251D01*
X367078Y132566D01*
X366026Y131959D01*
X365167Y131100D01*
X364560Y130048D01*
X364246Y128875D01*
Y127661D01*
X364560Y126487D01*
X365167Y125436D01*
X366026Y124577D01*
X367078Y123970D01*
X368251Y123655D01*
X369465D01*
X370639Y123970D01*
X371690Y124577D01*
X372549Y125436D01*
X373156Y126487D01*
X373471Y127661D01*
Y128875D01*
X373156Y130048D01*
X372549Y131100D01*
X371690Y131959D01*
X370639Y132566D01*
X369465Y132880D01*
D02*
G37*
G36*
X311140Y122677D02*
X310435D01*
X309784Y122407D01*
X309285Y121909D01*
X309016Y121258D01*
Y120553D01*
X309285Y119902D01*
X309784Y119404D01*
X310435Y119134D01*
X310451D01*
Y118544D01*
X310720Y117893D01*
X311219Y117395D01*
X311870Y117125D01*
X312575D01*
X313226Y117395D01*
X313724Y117893D01*
X313994Y118544D01*
Y119249D01*
X313724Y119900D01*
X313226Y120399D01*
X312575Y120668D01*
X312559D01*
Y121258D01*
X312289Y121909D01*
X311791Y122407D01*
X311140Y122677D01*
D02*
G37*
G36*
X294762Y119764D02*
X294057D01*
X293406Y119494D01*
X292908Y118996D01*
X292638Y118344D01*
Y117640D01*
X292908Y116989D01*
X293406Y116490D01*
X294057Y116220D01*
X294762D01*
X295413Y116490D01*
X295911Y116989D01*
X296181Y117640D01*
Y118344D01*
X295911Y118996D01*
X295413Y119494D01*
X294762Y119764D01*
D02*
G37*
G36*
X269994Y119571D02*
X269290D01*
X268638Y119301D01*
X268140Y118802D01*
X267870Y118151D01*
Y117446D01*
X268140Y116795D01*
X268638Y116297D01*
X269290Y116027D01*
X269994D01*
X270646Y116297D01*
X271144Y116795D01*
X271414Y117446D01*
Y118151D01*
X271144Y118802D01*
X270646Y119301D01*
X269994Y119571D01*
D02*
G37*
G36*
X343817Y117126D02*
X343112D01*
X342461Y116856D01*
X341963Y116358D01*
X341693Y115707D01*
Y115002D01*
X341963Y114351D01*
X342461Y113852D01*
X343112Y113583D01*
X343817D01*
X344468Y113852D01*
X344967Y114351D01*
X345236Y115002D01*
Y115707D01*
X344967Y116358D01*
X344468Y116856D01*
X343817Y117126D01*
D02*
G37*
G36*
X330510D02*
X329805D01*
X329154Y116856D01*
X328656Y116358D01*
X328386Y115707D01*
Y115002D01*
X328656Y114351D01*
X329154Y113852D01*
X329805Y113583D01*
X330510D01*
X331161Y113852D01*
X331659Y114351D01*
X331929Y115002D01*
Y115707D01*
X331659Y116358D01*
X331161Y116856D01*
X330510Y117126D01*
D02*
G37*
G36*
X260510Y114724D02*
X259805D01*
X259154Y114455D01*
X258656Y113956D01*
X258386Y113305D01*
Y112600D01*
X258656Y111949D01*
X259154Y111451D01*
X259805Y111181D01*
X260510D01*
X261161Y111451D01*
X261659Y111949D01*
X261929Y112600D01*
Y113305D01*
X261659Y113956D01*
X261161Y114455D01*
X260510Y114724D01*
D02*
G37*
G36*
X343817Y111772D02*
X343112D01*
X342461Y111502D01*
X341963Y111004D01*
X341693Y110352D01*
Y109648D01*
X341963Y108996D01*
X342461Y108498D01*
X343112Y108228D01*
X343817D01*
X344468Y108498D01*
X344967Y108996D01*
X345236Y109648D01*
Y110352D01*
X344967Y111004D01*
X344468Y111502D01*
X343817Y111772D01*
D02*
G37*
G36*
X339382D02*
X338677D01*
X338026Y111502D01*
X337527Y111004D01*
X337258Y110352D01*
Y109648D01*
X337527Y108996D01*
X338026Y108498D01*
X338677Y108228D01*
X339382D01*
X340033Y108498D01*
X340531Y108996D01*
X340801Y109648D01*
Y110352D01*
X340531Y111004D01*
X340033Y111502D01*
X339382Y111772D01*
D02*
G37*
G36*
X334947D02*
X334242D01*
X333591Y111502D01*
X333093Y111004D01*
X332823Y110352D01*
Y109648D01*
X333093Y108996D01*
X333591Y108498D01*
X334242Y108228D01*
X334947D01*
X335598Y108498D01*
X336096Y108996D01*
X336366Y109648D01*
Y110352D01*
X336096Y111004D01*
X335598Y111502D01*
X334947Y111772D01*
D02*
G37*
G36*
X330510D02*
X329805D01*
X329154Y111502D01*
X328656Y111004D01*
X328386Y110352D01*
Y109648D01*
X328656Y108996D01*
X329154Y108498D01*
X329805Y108228D01*
X330510D01*
X331161Y108498D01*
X331659Y108996D01*
X331929Y109648D01*
Y110352D01*
X331659Y111004D01*
X331161Y111502D01*
X330510Y111772D01*
D02*
G37*
G36*
X204417Y111653D02*
X203713D01*
X203061Y111384D01*
X202563Y110886D01*
X202293Y110234D01*
Y109529D01*
X202563Y108878D01*
X203061Y108380D01*
X203713Y108110D01*
X204061D01*
Y107762D01*
X204331Y107111D01*
X204829Y106612D01*
X205480Y106342D01*
X206185D01*
X206836Y106612D01*
X207335Y107111D01*
X207604Y107762D01*
Y108466D01*
X207335Y109118D01*
X206836Y109616D01*
X206185Y109886D01*
X205837D01*
Y110234D01*
X205567Y110886D01*
X205068Y111384D01*
X204417Y111653D01*
D02*
G37*
G36*
X254447Y93976D02*
X253742D01*
X253091Y93707D01*
X252593Y93208D01*
X252323Y92557D01*
Y91852D01*
X252593Y91201D01*
X253091Y90703D01*
X253742Y90433D01*
X254447D01*
X255098Y90703D01*
X255596Y91201D01*
X255866Y91852D01*
Y92557D01*
X255596Y93208D01*
X255098Y93707D01*
X254447Y93976D01*
D02*
G37*
G36*
X300427Y93135D02*
X299722D01*
X299071Y92866D01*
X298572Y92367D01*
X298303Y91716D01*
Y91011D01*
X298572Y90360D01*
X298830Y90103D01*
X299021Y89776D01*
X298830Y89450D01*
X298572Y89192D01*
X298303Y88541D01*
Y87837D01*
X298572Y87185D01*
X299071Y86687D01*
X299722Y86417D01*
X300427D01*
X301078Y86687D01*
X301576Y87185D01*
X301846Y87837D01*
Y88541D01*
X301576Y89192D01*
X301319Y89450D01*
X301128Y89776D01*
X301319Y90103D01*
X301576Y90360D01*
X301846Y91011D01*
Y91716D01*
X301576Y92367D01*
X301078Y92866D01*
X300427Y93135D01*
D02*
G37*
G36*
X287754Y93150D02*
X287049D01*
X286398Y92880D01*
X285900Y92382D01*
X285630Y91730D01*
Y91026D01*
X285900Y90374D01*
X286164Y90110D01*
X286346Y89784D01*
X286164Y89457D01*
X285900Y89192D01*
X285630Y88541D01*
Y87837D01*
X285900Y87185D01*
X286398Y86687D01*
X287049Y86417D01*
X287754D01*
X288405Y86687D01*
X288903Y87185D01*
X289173Y87837D01*
Y88541D01*
X288903Y89192D01*
X288639Y89457D01*
X288457Y89784D01*
X288639Y90110D01*
X288903Y90374D01*
X289173Y91026D01*
Y91730D01*
X288903Y92382D01*
X288405Y92880D01*
X287754Y93150D01*
D02*
G37*
G36*
X235077Y88110D02*
X234372D01*
X233721Y87840D01*
X233223Y87342D01*
X232953Y86691D01*
Y85986D01*
X233223Y85335D01*
X233721Y84837D01*
X234372Y84567D01*
X235077D01*
X235728Y84837D01*
X236226Y85335D01*
X236496Y85986D01*
Y86691D01*
X236226Y87342D01*
X235728Y87840D01*
X235077Y88110D01*
D02*
G37*
G36*
X209750Y87963D02*
X209045D01*
X208394Y87693D01*
X207896Y87195D01*
X207626Y86543D01*
Y85839D01*
X207896Y85187D01*
X208394Y84689D01*
X209045Y84419D01*
X209750D01*
X210401Y84689D01*
X210900Y85187D01*
X211169Y85839D01*
Y86543D01*
X210900Y87195D01*
X210401Y87693D01*
X209750Y87963D01*
D02*
G37*
G36*
X409466Y92880D02*
X408251D01*
X407078Y92566D01*
X406026Y91959D01*
X405167Y91100D01*
X404560Y90048D01*
X404246Y88875D01*
Y87660D01*
X404560Y86487D01*
X405167Y85436D01*
X406026Y84577D01*
X407078Y83970D01*
X408251Y83655D01*
X409466D01*
X410639Y83970D01*
X411690Y84577D01*
X412549Y85436D01*
X413156Y86487D01*
X413471Y87660D01*
Y88875D01*
X413156Y90048D01*
X412549Y91100D01*
X411690Y91959D01*
X410639Y92566D01*
X409466Y92880D01*
D02*
G37*
G36*
X369465D02*
X368251D01*
X367078Y92566D01*
X366026Y91959D01*
X365167Y91100D01*
X364560Y90048D01*
X364246Y88875D01*
Y87660D01*
X364560Y86487D01*
X365167Y85436D01*
X366026Y84577D01*
X367078Y83970D01*
X368251Y83655D01*
X369465D01*
X370639Y83970D01*
X371690Y84577D01*
X372549Y85436D01*
X373156Y86487D01*
X373471Y87660D01*
Y88875D01*
X373156Y90048D01*
X372549Y91100D01*
X371690Y91959D01*
X370639Y92566D01*
X369465Y92880D01*
D02*
G37*
G36*
X317242Y84882D02*
X316537D01*
X315886Y84612D01*
X315388Y84114D01*
X315118Y83463D01*
Y82758D01*
X315388Y82107D01*
X315886Y81608D01*
X316537Y81339D01*
X317242D01*
X317893Y81608D01*
X318392Y82107D01*
X318661Y82758D01*
Y83463D01*
X318392Y84114D01*
X317893Y84612D01*
X317242Y84882D01*
D02*
G37*
G36*
X306376D02*
X305671D01*
X305020Y84612D01*
X304522Y84114D01*
X304252Y83463D01*
Y82758D01*
X304522Y82107D01*
X305020Y81608D01*
X305671Y81339D01*
X306376D01*
X307027Y81608D01*
X307526Y82107D01*
X307795Y82758D01*
Y83463D01*
X307526Y84114D01*
X307027Y84612D01*
X306376Y84882D01*
D02*
G37*
G36*
X200431Y82913D02*
X199726D01*
X199075Y82644D01*
X198577Y82145D01*
X198307Y81494D01*
Y80789D01*
X198577Y80138D01*
X199075Y79640D01*
X199726Y79370D01*
X200431D01*
X201082Y79640D01*
X201581Y80138D01*
X201850Y80789D01*
Y81494D01*
X201581Y82145D01*
X201082Y82644D01*
X200431Y82913D01*
D02*
G37*
G36*
X87911Y81535D02*
X87207D01*
X86555Y81266D01*
X86057Y80767D01*
X85787Y80116D01*
Y79411D01*
X86057Y78760D01*
X86555Y78262D01*
X87207Y77992D01*
X87911D01*
X88563Y78262D01*
X89061Y78760D01*
X89331Y79411D01*
Y80116D01*
X89061Y80767D01*
X88563Y81266D01*
X87911Y81535D01*
D02*
G37*
G36*
X112006Y80276D02*
X111301D01*
X110650Y80006D01*
X110152Y79507D01*
X109882Y78856D01*
Y78152D01*
X110152Y77500D01*
X110650Y77002D01*
X111301Y76732D01*
X112006D01*
X112657Y77002D01*
X113155Y77500D01*
X113425Y78152D01*
Y78856D01*
X113155Y79507D01*
X112657Y80006D01*
X112006Y80276D01*
D02*
G37*
G36*
X103148Y74134D02*
X102443D01*
X101792Y73864D01*
X101293Y73366D01*
X101024Y72715D01*
Y72010D01*
X101293Y71359D01*
X101792Y70860D01*
X102443Y70591D01*
X103148D01*
X103799Y70860D01*
X104297Y71359D01*
X104567Y72010D01*
Y72715D01*
X104297Y73366D01*
X103799Y73864D01*
X103148Y74134D01*
D02*
G37*
G36*
X149526Y71969D02*
X148821D01*
X148170Y71699D01*
X147671Y71200D01*
X147402Y70549D01*
Y69844D01*
X147671Y69193D01*
X148170Y68695D01*
X148821Y68425D01*
X149526D01*
X150177Y68695D01*
X150675Y69193D01*
X150945Y69844D01*
Y70549D01*
X150675Y71200D01*
X150177Y71699D01*
X149526Y71969D01*
D02*
G37*
G36*
X102911Y66964D02*
X102207D01*
X101556Y66694D01*
X101057Y66196D01*
X100787Y65545D01*
Y64840D01*
X101057Y64189D01*
X101556Y63690D01*
X102207Y63421D01*
X102911D01*
X103563Y63690D01*
X104061Y64189D01*
X104331Y64840D01*
Y65545D01*
X104061Y66196D01*
X103563Y66694D01*
X102911Y66964D01*
D02*
G37*
G36*
X178069Y60118D02*
X177364D01*
X176713Y59848D01*
X176215Y59350D01*
X175945Y58699D01*
Y57994D01*
X176215Y57343D01*
X176713Y56845D01*
X177364Y56575D01*
X178069D01*
X178720Y56845D01*
X179218Y57343D01*
X179488Y57994D01*
Y58699D01*
X179218Y59350D01*
X178720Y59848D01*
X178069Y60118D01*
D02*
G37*
G36*
X102707Y56452D02*
X102002D01*
X101351Y56182D01*
X100852Y55684D01*
X100583Y55033D01*
Y54328D01*
X100852Y53677D01*
X101351Y53179D01*
X102002Y52909D01*
X102707D01*
X103358Y53179D01*
X103856Y53677D01*
X104126Y54328D01*
Y55033D01*
X103856Y55684D01*
X103358Y56182D01*
X102707Y56452D01*
D02*
G37*
G36*
X200825Y55000D02*
X200120D01*
X199469Y54730D01*
X198970Y54232D01*
X198701Y53581D01*
Y52876D01*
X198970Y52225D01*
X199469Y51726D01*
X200120Y51457D01*
X200825D01*
X201476Y51726D01*
X201974Y52225D01*
X202244Y52876D01*
Y53581D01*
X201974Y54232D01*
X201476Y54730D01*
X200825Y55000D01*
D02*
G37*
G36*
X293108Y53780D02*
X292404D01*
X291752Y53510D01*
X291254Y53011D01*
X290984Y52360D01*
Y51656D01*
X291254Y51004D01*
X291752Y50506D01*
X292404Y50236D01*
X293108D01*
X293759Y50506D01*
X294258Y51004D01*
X294528Y51656D01*
Y52360D01*
X294258Y53011D01*
X293759Y53510D01*
X293108Y53780D01*
D02*
G37*
G36*
X102707Y49484D02*
X102002D01*
X101351Y49214D01*
X100852Y48716D01*
X100583Y48064D01*
Y47360D01*
X100852Y46709D01*
X101351Y46210D01*
X102002Y45940D01*
X102707D01*
X103358Y46210D01*
X103856Y46709D01*
X104126Y47360D01*
Y48064D01*
X103856Y48716D01*
X103358Y49214D01*
X102707Y49484D01*
D02*
G37*
G36*
X207124Y48701D02*
X206419D01*
X205768Y48431D01*
X205270Y47933D01*
X205000Y47282D01*
Y46577D01*
X205270Y45926D01*
X205768Y45427D01*
X206419Y45158D01*
X207124D01*
X207775Y45427D01*
X208274Y45926D01*
X208543Y46577D01*
Y47282D01*
X208274Y47933D01*
X207775Y48431D01*
X207124Y48701D01*
D02*
G37*
G36*
X145382Y47063D02*
X144677D01*
X144026Y46793D01*
X143527Y46295D01*
X143257Y45643D01*
Y44939D01*
X143527Y44287D01*
X144026Y43789D01*
X144677Y43519D01*
X145382D01*
X146033Y43789D01*
X146531Y44287D01*
X146801Y44939D01*
Y45643D01*
X146531Y46295D01*
X146033Y46793D01*
X145382Y47063D01*
D02*
G37*
G36*
X323778Y45354D02*
X323073D01*
X322422Y45085D01*
X321923Y44586D01*
X321654Y43935D01*
Y43230D01*
X321923Y42579D01*
X322422Y42081D01*
X323073Y41811D01*
X323778D01*
X324429Y42081D01*
X324927Y42579D01*
X325197Y43230D01*
Y43935D01*
X324927Y44586D01*
X324429Y45085D01*
X323778Y45354D01*
D02*
G37*
G36*
X316809D02*
X316104D01*
X315453Y45085D01*
X314955Y44586D01*
X314685Y43935D01*
Y43230D01*
X314955Y42579D01*
X315453Y42081D01*
X316104Y41811D01*
X316809D01*
X317460Y42081D01*
X317959Y42579D01*
X318228Y43230D01*
Y43935D01*
X317959Y44586D01*
X317460Y45085D01*
X316809Y45354D01*
D02*
G37*
G36*
X306179D02*
X305474D01*
X304823Y45085D01*
X304325Y44586D01*
X304055Y43935D01*
Y43230D01*
X304325Y42579D01*
X304823Y42081D01*
X305474Y41811D01*
X306179D01*
X306830Y42081D01*
X307329Y42579D01*
X307598Y43230D01*
Y43935D01*
X307329Y44586D01*
X306830Y45085D01*
X306179Y45354D01*
D02*
G37*
G36*
X390988Y70669D02*
X388540D01*
X386122Y70286D01*
X383794Y69530D01*
X381613Y68419D01*
X379633Y66980D01*
X377902Y65249D01*
X376463Y63269D01*
X375352Y61088D01*
X374595Y58760D01*
X374213Y56342D01*
Y53894D01*
X374595Y51477D01*
X375352Y49148D01*
X376463Y46968D01*
X377902Y44987D01*
X379633Y43256D01*
X381613Y41818D01*
X383794Y40706D01*
X386122Y39950D01*
X388540Y39567D01*
X390988D01*
X393405Y39950D01*
X395733Y40706D01*
X397914Y41818D01*
X399895Y43256D01*
X401626Y44987D01*
X403064Y46968D01*
X404176Y49148D01*
X404932Y51477D01*
X405315Y53894D01*
Y56342D01*
X404932Y58760D01*
X404176Y61088D01*
X403064Y63269D01*
X401626Y65249D01*
X399895Y66980D01*
X397914Y68419D01*
X395733Y69530D01*
X393405Y70286D01*
X390988Y70669D01*
D02*
G37*
G36*
X376969Y21260D02*
X375984D01*
X375033Y21005D01*
X374180Y20513D01*
X373483Y19816D01*
X372991Y18963D01*
X372736Y18012D01*
Y17027D01*
X372991Y16076D01*
X373483Y15223D01*
X374180Y14527D01*
X375033Y14034D01*
X375984Y13780D01*
X376969D01*
X377920Y14034D01*
X378773Y14527D01*
X379469Y15223D01*
X379962Y16076D01*
X380217Y17027D01*
Y18012D01*
X379962Y18963D01*
X379469Y19816D01*
X378773Y20513D01*
X377920Y21005D01*
X376969Y21260D01*
D02*
G37*
G36*
X347441D02*
X346456D01*
X345505Y21005D01*
X344652Y20513D01*
X343956Y19816D01*
X343463Y18963D01*
X343209Y18012D01*
Y17027D01*
X343463Y16076D01*
X343956Y15223D01*
X344652Y14527D01*
X345505Y14034D01*
X346456Y13780D01*
X347441D01*
X348393Y14034D01*
X349245Y14527D01*
X349942Y15223D01*
X350434Y16076D01*
X350689Y17027D01*
Y18012D01*
X350434Y18963D01*
X349942Y19816D01*
X349245Y20513D01*
X348393Y21005D01*
X347441Y21260D01*
D02*
G37*
G36*
X327756D02*
X326771D01*
X325820Y21005D01*
X324967Y20513D01*
X324271Y19816D01*
X323779Y18963D01*
X323524Y18012D01*
Y17027D01*
X323779Y16076D01*
X324271Y15223D01*
X324967Y14527D01*
X325820Y14034D01*
X326771Y13780D01*
X327756D01*
X328707Y14034D01*
X329560Y14527D01*
X330257Y15223D01*
X330749Y16076D01*
X331004Y17027D01*
Y18012D01*
X330749Y18963D01*
X330257Y19816D01*
X329560Y20513D01*
X328707Y21005D01*
X327756Y21260D01*
D02*
G37*
G36*
X298229D02*
X297244D01*
X296293Y21005D01*
X295440Y20513D01*
X294743Y19816D01*
X294251Y18963D01*
X293996Y18012D01*
Y17027D01*
X294251Y16076D01*
X294743Y15223D01*
X295440Y14527D01*
X296293Y14034D01*
X297244Y13780D01*
X298229D01*
X299180Y14034D01*
X300033Y14527D01*
X300729Y15223D01*
X301221Y16076D01*
X301476Y17027D01*
Y18012D01*
X301221Y18963D01*
X300729Y19816D01*
X300033Y20513D01*
X299180Y21005D01*
X298229Y21260D01*
D02*
G37*
G36*
X168307D02*
X167323D01*
X166371Y21005D01*
X165518Y20513D01*
X164822Y19816D01*
X164330Y18963D01*
X164075Y18012D01*
Y17027D01*
X164330Y16076D01*
X164822Y15223D01*
X165518Y14527D01*
X166371Y14034D01*
X167323Y13780D01*
X168307D01*
X169259Y14034D01*
X170111Y14527D01*
X170808Y15223D01*
X171300Y16076D01*
X171555Y17027D01*
Y18012D01*
X171300Y18963D01*
X170808Y19816D01*
X170111Y20513D01*
X169259Y21005D01*
X168307Y21260D01*
D02*
G37*
G36*
X138780D02*
X137795D01*
X136844Y21005D01*
X135991Y20513D01*
X135294Y19816D01*
X134802Y18963D01*
X134547Y18012D01*
Y17027D01*
X134802Y16076D01*
X135294Y15223D01*
X135991Y14527D01*
X136844Y14034D01*
X137795Y13780D01*
X138780D01*
X139731Y14034D01*
X140584Y14527D01*
X141280Y15223D01*
X141773Y16076D01*
X142027Y17027D01*
Y18012D01*
X141773Y18963D01*
X141280Y19816D01*
X140584Y20513D01*
X139731Y21005D01*
X138780Y21260D01*
D02*
G37*
G36*
X119095D02*
X118110D01*
X117159Y21005D01*
X116306Y20513D01*
X115610Y19816D01*
X115117Y18963D01*
X114862Y18012D01*
Y17027D01*
X115117Y16076D01*
X115610Y15223D01*
X116306Y14527D01*
X117159Y14034D01*
X118110Y13780D01*
X119095D01*
X120046Y14034D01*
X120899Y14527D01*
X121595Y15223D01*
X122088Y16076D01*
X122343Y17027D01*
Y18012D01*
X122088Y18963D01*
X121595Y19816D01*
X120899Y20513D01*
X120046Y21005D01*
X119095Y21260D01*
D02*
G37*
G36*
X89567D02*
X88582D01*
X87631Y21005D01*
X86778Y20513D01*
X86082Y19816D01*
X85589Y18963D01*
X85335Y18012D01*
Y17027D01*
X85589Y16076D01*
X86082Y15223D01*
X86778Y14527D01*
X87631Y14034D01*
X88582Y13780D01*
X89567D01*
X90518Y14034D01*
X91371Y14527D01*
X92068Y15223D01*
X92560Y16076D01*
X92815Y17027D01*
Y18012D01*
X92560Y18963D01*
X92068Y19816D01*
X91371Y20513D01*
X90518Y21005D01*
X89567Y21260D01*
D02*
G37*
G36*
X367126Y21260D02*
X366141D01*
X365190Y21005D01*
X364337Y20513D01*
X363641Y19816D01*
X363149Y18963D01*
X362894Y18012D01*
Y17027D01*
X363149Y16076D01*
X363641Y15223D01*
X364337Y14527D01*
X365190Y14034D01*
X366141Y13780D01*
X367126D01*
X368077Y14034D01*
X368930Y14527D01*
X369627Y15223D01*
X370119Y16076D01*
X370374Y17027D01*
Y18012D01*
X370119Y18963D01*
X369627Y19816D01*
X368930Y20513D01*
X368077Y21005D01*
X367126Y21260D01*
D02*
G37*
G36*
X337599D02*
X336614D01*
X335663Y21005D01*
X334810Y20513D01*
X334113Y19816D01*
X333621Y18963D01*
X333366Y18012D01*
Y17027D01*
X333621Y16076D01*
X334113Y15223D01*
X334810Y14527D01*
X335663Y14034D01*
X336614Y13780D01*
X337599D01*
X338550Y14034D01*
X339403Y14527D01*
X340099Y15223D01*
X340592Y16076D01*
X340846Y17027D01*
Y18012D01*
X340592Y18963D01*
X340099Y19816D01*
X339403Y20513D01*
X338550Y21005D01*
X337599Y21260D01*
D02*
G37*
G36*
X317914D02*
X316929D01*
X315978Y21005D01*
X315125Y20513D01*
X314428Y19816D01*
X313936Y18963D01*
X313681Y18012D01*
Y17027D01*
X313936Y16076D01*
X314428Y15223D01*
X315125Y14527D01*
X315978Y14034D01*
X316929Y13780D01*
X317914D01*
X318865Y14034D01*
X319718Y14527D01*
X320414Y15223D01*
X320906Y16076D01*
X321161Y17027D01*
Y18012D01*
X320906Y18963D01*
X320414Y19816D01*
X319718Y20513D01*
X318865Y21005D01*
X317914Y21260D01*
D02*
G37*
G36*
X288386D02*
X287401D01*
X286450Y21005D01*
X285597Y20513D01*
X284901Y19816D01*
X284408Y18963D01*
X284154Y18012D01*
Y17027D01*
X284408Y16076D01*
X284901Y15223D01*
X285597Y14527D01*
X286450Y14034D01*
X287401Y13780D01*
X288386D01*
X289337Y14034D01*
X290190Y14527D01*
X290886Y15223D01*
X291379Y16076D01*
X291634Y17027D01*
Y18012D01*
X291379Y18963D01*
X290886Y19816D01*
X290190Y20513D01*
X289337Y21005D01*
X288386Y21260D01*
D02*
G37*
G36*
X158465D02*
X157480D01*
X156529Y21005D01*
X155676Y20513D01*
X154980Y19816D01*
X154487Y18963D01*
X154232Y18012D01*
Y17027D01*
X154487Y16076D01*
X154980Y15223D01*
X155676Y14527D01*
X156529Y14034D01*
X157480Y13780D01*
X158465D01*
X159416Y14034D01*
X160269Y14527D01*
X160965Y15223D01*
X161458Y16076D01*
X161713Y17027D01*
Y18012D01*
X161458Y18963D01*
X160965Y19816D01*
X160269Y20513D01*
X159416Y21005D01*
X158465Y21260D01*
D02*
G37*
G36*
X128937D02*
X127953D01*
X127001Y21005D01*
X126148Y20513D01*
X125452Y19816D01*
X124960Y18963D01*
X124705Y18012D01*
Y17027D01*
X124960Y16076D01*
X125452Y15223D01*
X126148Y14527D01*
X127001Y14034D01*
X127953Y13780D01*
X128937D01*
X129888Y14034D01*
X130741Y14527D01*
X131438Y15223D01*
X131930Y16076D01*
X132185Y17027D01*
Y18012D01*
X131930Y18963D01*
X131438Y19816D01*
X130741Y20513D01*
X129888Y21005D01*
X128937Y21260D01*
D02*
G37*
G36*
X109252D02*
X108267D01*
X107316Y21005D01*
X106463Y20513D01*
X105767Y19816D01*
X105275Y18963D01*
X105020Y18012D01*
Y17027D01*
X105275Y16076D01*
X105767Y15223D01*
X106463Y14527D01*
X107316Y14034D01*
X108267Y13780D01*
X109252D01*
X110204Y14034D01*
X111056Y14527D01*
X111753Y15223D01*
X112245Y16076D01*
X112500Y17027D01*
Y18012D01*
X112245Y18963D01*
X111753Y19816D01*
X111056Y20513D01*
X110204Y21005D01*
X109252Y21260D01*
D02*
G37*
G36*
X79725D02*
X78740D01*
X77789Y21005D01*
X76936Y20513D01*
X76239Y19816D01*
X75747Y18963D01*
X75492Y18012D01*
Y17027D01*
X75747Y16076D01*
X76239Y15223D01*
X76936Y14527D01*
X77789Y14034D01*
X78740Y13780D01*
X79725D01*
X80676Y14034D01*
X81529Y14527D01*
X82225Y15223D01*
X82718Y16076D01*
X82972Y17027D01*
Y18012D01*
X82718Y18963D01*
X82225Y19816D01*
X81529Y20513D01*
X80676Y21005D01*
X79725Y21260D01*
D02*
G37*
G36*
X357284Y21260D02*
X356299D01*
X355348Y21005D01*
X354495Y20513D01*
X353799Y19816D01*
X353306Y18963D01*
X353051Y18012D01*
Y17027D01*
X353306Y16076D01*
X353799Y15223D01*
X354495Y14527D01*
X355348Y14034D01*
X356299Y13780D01*
X357284D01*
X358235Y14034D01*
X359088Y14527D01*
X359784Y15223D01*
X360277Y16076D01*
X360531Y17027D01*
Y18012D01*
X360277Y18963D01*
X359784Y19816D01*
X359088Y20513D01*
X358235Y21005D01*
X357284Y21260D01*
D02*
G37*
G36*
X308071D02*
X307086D01*
X306135Y21005D01*
X305282Y20513D01*
X304586Y19816D01*
X304094Y18963D01*
X303839Y18012D01*
Y17027D01*
X304094Y16076D01*
X304586Y15223D01*
X305282Y14527D01*
X306135Y14034D01*
X307086Y13780D01*
X308071D01*
X309022Y14034D01*
X309875Y14527D01*
X310572Y15223D01*
X311064Y16076D01*
X311319Y17027D01*
Y18012D01*
X311064Y18963D01*
X310572Y19816D01*
X309875Y20513D01*
X309022Y21005D01*
X308071Y21260D01*
D02*
G37*
G36*
X148622D02*
X147637D01*
X146686Y21005D01*
X145833Y20513D01*
X145137Y19816D01*
X144645Y18963D01*
X144390Y18012D01*
Y17027D01*
X144645Y16076D01*
X145137Y15223D01*
X145833Y14527D01*
X146686Y14034D01*
X147637Y13780D01*
X148622D01*
X149574Y14034D01*
X150426Y14527D01*
X151123Y15223D01*
X151615Y16076D01*
X151870Y17027D01*
Y18012D01*
X151615Y18963D01*
X151123Y19816D01*
X150426Y20513D01*
X149574Y21005D01*
X148622Y21260D01*
D02*
G37*
G36*
X99410D02*
X98425D01*
X97474Y21005D01*
X96621Y20513D01*
X95924Y19816D01*
X95432Y18963D01*
X95177Y18012D01*
Y17027D01*
X95432Y16076D01*
X95924Y15223D01*
X96621Y14527D01*
X97474Y14034D01*
X98425Y13780D01*
X99410D01*
X100361Y14034D01*
X101214Y14527D01*
X101910Y15223D01*
X102403Y16076D01*
X102657Y17027D01*
Y18012D01*
X102403Y18963D01*
X101910Y19816D01*
X101214Y20513D01*
X100361Y21005D01*
X99410Y21260D01*
D02*
G37*
G36*
X173736Y11501D02*
Y8677D01*
X176560D01*
X176420Y9203D01*
X175899Y10104D01*
X175163Y10840D01*
X174262Y11361D01*
X173736Y11501D01*
D02*
G37*
G36*
X171736D02*
X171211Y11361D01*
X170309Y10840D01*
X169573Y10104D01*
X169053Y9203D01*
X168912Y8677D01*
X171736D01*
Y11501D01*
D02*
G37*
G36*
X134366Y11501D02*
Y8677D01*
X137190D01*
X137049Y9203D01*
X136529Y10104D01*
X135793Y10840D01*
X134892Y11361D01*
X134366Y11501D01*
D02*
G37*
G36*
X94996D02*
Y8677D01*
X97820D01*
X97679Y9203D01*
X97159Y10104D01*
X96423Y10840D01*
X95522Y11361D01*
X94996Y11501D01*
D02*
G37*
G36*
X293815Y11501D02*
Y8677D01*
X296639D01*
X296498Y9203D01*
X295978Y10104D01*
X295242Y10840D01*
X294341Y11361D01*
X293815Y11501D01*
D02*
G37*
G36*
X291815Y11501D02*
X291289Y11361D01*
X290388Y10840D01*
X289652Y10104D01*
X289132Y9203D01*
X288991Y8677D01*
X291815D01*
Y11501D01*
D02*
G37*
G36*
X92996D02*
X92470Y11361D01*
X91569Y10840D01*
X90833Y10104D01*
X90313Y9203D01*
X90172Y8677D01*
X92996D01*
Y11501D01*
D02*
G37*
G36*
X132366Y11501D02*
X131840Y11361D01*
X130939Y10840D01*
X130203Y10104D01*
X129683Y9203D01*
X129542Y8677D01*
X132366D01*
Y11501D01*
D02*
G37*
G36*
X381890Y11417D02*
X380905D01*
X379954Y11162D01*
X379101Y10670D01*
X378405Y9974D01*
X377912Y9121D01*
X377658Y8170D01*
Y7185D01*
X377912Y6233D01*
X378405Y5381D01*
X379101Y4684D01*
X379954Y4192D01*
X380905Y3937D01*
X381890D01*
X382841Y4192D01*
X383694Y4684D01*
X384390Y5381D01*
X384883Y6233D01*
X385138Y7185D01*
Y8170D01*
X384883Y9121D01*
X384390Y9974D01*
X383694Y10670D01*
X382841Y11162D01*
X381890Y11417D01*
D02*
G37*
G36*
X372047D02*
X371063D01*
X370111Y11162D01*
X369259Y10670D01*
X368562Y9974D01*
X368070Y9121D01*
X367815Y8170D01*
Y7185D01*
X368070Y6233D01*
X368562Y5381D01*
X369259Y4684D01*
X370111Y4192D01*
X371063Y3937D01*
X372047D01*
X372999Y4192D01*
X373852Y4684D01*
X374548Y5381D01*
X375040Y6233D01*
X375295Y7185D01*
Y8170D01*
X375040Y9121D01*
X374548Y9974D01*
X373852Y10670D01*
X372999Y11162D01*
X372047Y11417D01*
D02*
G37*
G36*
X332677D02*
X331693D01*
X330741Y11162D01*
X329889Y10670D01*
X329192Y9974D01*
X328700Y9121D01*
X328445Y8170D01*
Y7185D01*
X328700Y6233D01*
X329192Y5381D01*
X329889Y4684D01*
X330741Y4192D01*
X331693Y3937D01*
X332677D01*
X333629Y4192D01*
X334482Y4684D01*
X335178Y5381D01*
X335670Y6233D01*
X335925Y7185D01*
Y8170D01*
X335670Y9121D01*
X335178Y9974D01*
X334482Y10670D01*
X333629Y11162D01*
X332677Y11417D01*
D02*
G37*
G36*
X322835D02*
X321850D01*
X320899Y11162D01*
X320046Y10670D01*
X319350Y9974D01*
X318857Y9121D01*
X318602Y8170D01*
Y7185D01*
X318857Y6233D01*
X319350Y5381D01*
X320046Y4684D01*
X320899Y4192D01*
X321850Y3937D01*
X322835D01*
X323786Y4192D01*
X324639Y4684D01*
X325335Y5381D01*
X325828Y6233D01*
X326083Y7185D01*
Y8170D01*
X325828Y9121D01*
X325335Y9974D01*
X324639Y10670D01*
X323786Y11162D01*
X322835Y11417D01*
D02*
G37*
G36*
X163386D02*
X162401D01*
X161450Y11162D01*
X160597Y10670D01*
X159901Y9974D01*
X159408Y9121D01*
X159153Y8170D01*
Y7185D01*
X159408Y6233D01*
X159901Y5381D01*
X160597Y4684D01*
X161450Y4192D01*
X162401Y3937D01*
X163386D01*
X164337Y4192D01*
X165190Y4684D01*
X165887Y5381D01*
X166379Y6233D01*
X166634Y7185D01*
Y8170D01*
X166379Y9121D01*
X165887Y9974D01*
X165190Y10670D01*
X164337Y11162D01*
X163386Y11417D01*
D02*
G37*
G36*
X124016D02*
X123031D01*
X122080Y11162D01*
X121227Y10670D01*
X120531Y9974D01*
X120038Y9121D01*
X119783Y8170D01*
Y7185D01*
X120038Y6233D01*
X120531Y5381D01*
X121227Y4684D01*
X122080Y4192D01*
X123031Y3937D01*
X124016D01*
X124967Y4192D01*
X125820Y4684D01*
X126516Y5381D01*
X127009Y6233D01*
X127264Y7185D01*
Y8170D01*
X127009Y9121D01*
X126516Y9974D01*
X125820Y10670D01*
X124967Y11162D01*
X124016Y11417D01*
D02*
G37*
G36*
X114173D02*
X113189D01*
X112237Y11162D01*
X111385Y10670D01*
X110688Y9974D01*
X110196Y9121D01*
X109941Y8170D01*
Y7185D01*
X110196Y6233D01*
X110688Y5381D01*
X111385Y4684D01*
X112237Y4192D01*
X113189Y3937D01*
X114173D01*
X115125Y4192D01*
X115978Y4684D01*
X116674Y5381D01*
X117166Y6233D01*
X117421Y7185D01*
Y8170D01*
X117166Y9121D01*
X116674Y9974D01*
X115978Y10670D01*
X115125Y11162D01*
X114173Y11417D01*
D02*
G37*
G36*
X362205Y11417D02*
X361220D01*
X360269Y11162D01*
X359416Y10670D01*
X358720Y9974D01*
X358227Y9121D01*
X357972Y8170D01*
Y7185D01*
X358227Y6233D01*
X358720Y5381D01*
X359416Y4684D01*
X360269Y4192D01*
X361220Y3937D01*
X362205D01*
X363156Y4192D01*
X364009Y4684D01*
X364705Y5381D01*
X365198Y6233D01*
X365453Y7185D01*
Y8170D01*
X365198Y9121D01*
X364705Y9974D01*
X364009Y10670D01*
X363156Y11162D01*
X362205Y11417D01*
D02*
G37*
G36*
X352362D02*
X351378D01*
X350426Y11162D01*
X349574Y10670D01*
X348877Y9974D01*
X348385Y9121D01*
X348130Y8170D01*
Y7185D01*
X348385Y6233D01*
X348877Y5381D01*
X349574Y4684D01*
X350426Y4192D01*
X351378Y3937D01*
X352362D01*
X353314Y4192D01*
X354167Y4684D01*
X354863Y5381D01*
X355355Y6233D01*
X355610Y7185D01*
Y8170D01*
X355355Y9121D01*
X354863Y9974D01*
X354167Y10670D01*
X353314Y11162D01*
X352362Y11417D01*
D02*
G37*
G36*
X342520D02*
X341535D01*
X340584Y11162D01*
X339731Y10670D01*
X339035Y9974D01*
X338542Y9121D01*
X338287Y8170D01*
Y7185D01*
X338542Y6233D01*
X339035Y5381D01*
X339731Y4684D01*
X340584Y4192D01*
X341535Y3937D01*
X342520D01*
X343471Y4192D01*
X344324Y4684D01*
X345020Y5381D01*
X345513Y6233D01*
X345768Y7185D01*
Y8170D01*
X345513Y9121D01*
X345020Y9974D01*
X344324Y10670D01*
X343471Y11162D01*
X342520Y11417D01*
D02*
G37*
G36*
X312992D02*
X312008D01*
X311056Y11162D01*
X310204Y10670D01*
X309507Y9974D01*
X309015Y9121D01*
X308760Y8170D01*
Y7185D01*
X309015Y6233D01*
X309507Y5381D01*
X310204Y4684D01*
X311056Y4192D01*
X312008Y3937D01*
X312992D01*
X313944Y4192D01*
X314796Y4684D01*
X315493Y5381D01*
X315985Y6233D01*
X316240Y7185D01*
Y8170D01*
X315985Y9121D01*
X315493Y9974D01*
X314796Y10670D01*
X313944Y11162D01*
X312992Y11417D01*
D02*
G37*
G36*
X303150D02*
X302165D01*
X301214Y11162D01*
X300361Y10670D01*
X299665Y9974D01*
X299172Y9121D01*
X298917Y8170D01*
Y7185D01*
X299172Y6233D01*
X299665Y5381D01*
X300361Y4684D01*
X301214Y4192D01*
X302165Y3937D01*
X303150D01*
X304101Y4192D01*
X304954Y4684D01*
X305650Y5381D01*
X306143Y6233D01*
X306398Y7185D01*
Y8170D01*
X306143Y9121D01*
X305650Y9974D01*
X304954Y10670D01*
X304101Y11162D01*
X303150Y11417D01*
D02*
G37*
G36*
X153544D02*
X152559D01*
X151608Y11162D01*
X150755Y10670D01*
X150058Y9974D01*
X149566Y9121D01*
X149311Y8170D01*
Y7185D01*
X149566Y6233D01*
X150058Y5381D01*
X150755Y4684D01*
X151608Y4192D01*
X152559Y3937D01*
X153544D01*
X154495Y4192D01*
X155348Y4684D01*
X156044Y5381D01*
X156536Y6233D01*
X156791Y7185D01*
Y8170D01*
X156536Y9121D01*
X156044Y9974D01*
X155348Y10670D01*
X154495Y11162D01*
X153544Y11417D01*
D02*
G37*
G36*
X143701D02*
X142716D01*
X141765Y11162D01*
X140912Y10670D01*
X140216Y9974D01*
X139723Y9121D01*
X139469Y8170D01*
Y7185D01*
X139723Y6233D01*
X140216Y5381D01*
X140912Y4684D01*
X141765Y4192D01*
X142716Y3937D01*
X143701D01*
X144652Y4192D01*
X145505Y4684D01*
X146202Y5381D01*
X146694Y6233D01*
X146949Y7185D01*
Y8170D01*
X146694Y9121D01*
X146202Y9974D01*
X145505Y10670D01*
X144652Y11162D01*
X143701Y11417D01*
D02*
G37*
G36*
X104331D02*
X103346D01*
X102395Y11162D01*
X101542Y10670D01*
X100846Y9974D01*
X100353Y9121D01*
X100098Y8170D01*
Y7185D01*
X100353Y6233D01*
X100846Y5381D01*
X101542Y4684D01*
X102395Y4192D01*
X103346Y3937D01*
X104331D01*
X105282Y4192D01*
X106135Y4684D01*
X106831Y5381D01*
X107324Y6233D01*
X107579Y7185D01*
Y8170D01*
X107324Y9121D01*
X106831Y9974D01*
X106135Y10670D01*
X105282Y11162D01*
X104331Y11417D01*
D02*
G37*
G36*
X84646D02*
X83661D01*
X82710Y11162D01*
X81857Y10670D01*
X81161Y9974D01*
X80668Y9121D01*
X80413Y8170D01*
Y7185D01*
X80668Y6233D01*
X81161Y5381D01*
X81857Y4684D01*
X82710Y4192D01*
X83661Y3937D01*
X84646D01*
X85597Y4192D01*
X86450Y4684D01*
X87146Y5381D01*
X87639Y6233D01*
X87894Y7185D01*
Y8170D01*
X87639Y9121D01*
X87146Y9974D01*
X86450Y10670D01*
X85597Y11162D01*
X84646Y11417D01*
D02*
G37*
G36*
X176560Y6677D02*
X173736D01*
Y3853D01*
X174262Y3994D01*
X175163Y4514D01*
X175899Y5250D01*
X176420Y6151D01*
X176560Y6677D01*
D02*
G37*
G36*
X171736D02*
X168912D01*
X169053Y6151D01*
X169573Y5250D01*
X170309Y4514D01*
X171211Y3994D01*
X171736Y3853D01*
Y6677D01*
D02*
G37*
G36*
X137190Y6677D02*
X134366D01*
Y3853D01*
X134892Y3994D01*
X135793Y4514D01*
X136529Y5250D01*
X137049Y6151D01*
X137190Y6677D01*
D02*
G37*
G36*
X291815D02*
X288991D01*
X289132Y6151D01*
X289652Y5250D01*
X290388Y4514D01*
X291289Y3994D01*
X291815Y3853D01*
Y6677D01*
D02*
G37*
G36*
X97820D02*
X94996D01*
Y3853D01*
X95522Y3994D01*
X96423Y4514D01*
X97159Y5250D01*
X97679Y6151D01*
X97820Y6677D01*
D02*
G37*
G36*
X92996D02*
X90172D01*
X90313Y6151D01*
X90833Y5250D01*
X91569Y4514D01*
X92470Y3994D01*
X92996Y3853D01*
Y6677D01*
D02*
G37*
G36*
X296639D02*
X293815D01*
Y3853D01*
X294341Y3994D01*
X295242Y4514D01*
X295978Y5250D01*
X296498Y6151D01*
X296639Y6677D01*
D02*
G37*
G36*
X132366D02*
X129542D01*
X129683Y6151D01*
X130203Y5250D01*
X130939Y4514D01*
X131840Y3994D01*
X132366Y3853D01*
Y6677D01*
D02*
G37*
%LPD*%
D68*
X172736Y7677D02*
D03*
X93996Y7677D02*
D03*
X133366D02*
D03*
X292815D02*
D03*
D72*
X55827Y270787D02*
D03*
D73*
X383819Y108268D02*
D03*
D75*
X340560Y212101D02*
D03*
X284842Y131417D02*
D03*
X318583Y158504D02*
D03*
X294094Y106457D02*
D03*
X234646Y74724D02*
D03*
X120000Y71575D02*
D03*
X168347Y194264D02*
D03*
X206575Y58465D02*
D03*
X233937Y80827D02*
D03*
X189567Y211181D02*
D03*
X82047Y196024D02*
D03*
X113543Y203701D02*
D03*
X196968Y226850D02*
D03*
X151654Y236653D02*
D03*
X108425Y236575D02*
D03*
X155630Y169016D02*
D03*
X166063Y148228D02*
D03*
X423268Y215472D02*
D03*
X285472Y167047D02*
D03*
X309055Y182874D02*
D03*
X414646Y236063D02*
D03*
X390236Y221024D02*
D03*
X302874Y261575D02*
D03*
X214961Y261890D02*
D03*
X261653Y218032D02*
D03*
X216693Y222598D02*
D03*
X300080Y57639D02*
D03*
X293465Y112402D02*
D03*
X229606Y207165D02*
D03*
X331978Y234764D02*
D03*
X307598Y220197D02*
D03*
X403858Y16535D02*
D03*
X260306Y117983D02*
D03*
X265158Y101575D02*
D03*
X201063Y86221D02*
D03*
X225079Y100079D02*
D03*
X316457Y64961D02*
D03*
X305827D02*
D03*
X53228Y151969D02*
D03*
X60236Y145709D02*
D03*
Y135079D02*
D03*
X36772Y265984D02*
D03*
X18661Y265945D02*
D03*
X27716D02*
D03*
X9606D02*
D03*
X251732Y237402D02*
D03*
X257165Y207913D02*
D03*
M02*
