M48
;Layer_Color=9474304
;FILE_FORMAT=2:5
INCH,TZ
;TYPE=PLATED
T01F00S00C0.00984
T02F00S00C0.01181
T03F00S00C0.03504
T04F00S00C0.03858
T05F00S00C0.04016
T06F00S00C0.05315
T07F00S00C0.06181
T08F00S00C0.08858
T09F00S00C0.14173
;TYPE=NON_PLATED
T10F00S00C0.12795
%
T01
X297146Y192362
X299646
X204045Y174256
X202277Y176024
X154685Y176949
Y179449
X204065Y108819
X205833Y107051
T02
X102354Y47712
X145029Y45291
X206772Y46929
X292756Y52008
X305827Y43583
X316457
X323286Y43722
X403858Y16535
X316457Y64961
X305827
X300219Y57779
X300074Y88189
Y91364
X287402Y91378
Y88189
X306024Y83110
X316890
X313504Y117913
X310787Y120905
X292965Y117992
Y112402
Y106457
X330157Y110000
X334594
X339029
X343465
Y115354
X330157
X314331Y147520
X318583Y158504
X315000Y171693
X309055Y182874
X307520Y193780
X335276Y200709
X390158Y192874
X417598Y201220
X293986Y167026
X285472Y167047
X284370Y162362
X284803Y139134
X284842Y131417
X263848Y133917
X261348Y136417
X260306Y117983
X260157Y112953
X269781Y117660
X265158Y101575
X254095Y92205
X234724Y86339
X233937Y80827
X234646Y74724
X225079Y100079
X209537Y86052
X201063Y86221
X200079Y81142
X200472Y53228
X206575Y58465
X177717Y58346
X149370Y70197
X133543Y127284
X131506Y149706
X140157Y153779
X161499Y158071
X166063Y148228
X155630Y169016
X156653Y200905
X146181Y205984
X168307Y193425
X177205Y196339
X186063Y185709
X202244Y196102
X220866Y198622
X229606Y207165
X257165Y207913
X229216Y157992
X207835Y153626
X198704Y148740
X192638Y128189
X118740Y161063
X97913Y170394
X102756Y205787
X113543Y203701
X82047Y196024
X78976Y145276
Y139724
X78819Y135039
X60236Y135079
Y145709
X53228Y151969
X47717Y162441
X38346Y145433
Y134882
Y127756
X9606Y158661
X87559Y79764
X102795Y72362
X102420Y65053
X102354Y54681
X111653Y78504
X120984Y74291
X113268Y211221
X113898Y216024
X110472Y221220
X104961Y216102
X102008Y211063
X108386Y231181
X108425Y236575
X66260Y220630
X69528Y215945
X68937Y211142
X36772Y265984
X27716Y265945
X18661
X9606
X151654Y236653
Y231181
X165354Y235000
X157244Y215945
X147402Y216102
X145504Y210992
X189567Y211181
X191299Y226850
X196968
X216693Y222598
X227126Y218661
X236181Y223547
X257777Y227774
X261653Y218032
X251871Y237262
X214961Y261890
X302874Y261575
X307598Y220197
X307520Y215236
X317135Y219900
X337991Y224726
X340560Y212101
X331978Y234764
X390236Y221024
X389921Y216024
X399563Y220752
X420551Y225354
X423268Y215472
X414646Y236063
T03
X243661Y269528
X251654
X259646
X267638
X263661Y279528
X255669
X247677
X271654
X338228
X346220
X354213
X362205
X358189Y269528
X350197
X342205
X334213
T04
X84153Y7677
X93996
X103839
X113681Y7677
X123524
X128445Y17520
X118602Y17520
X108760Y17520
X98917Y17520
X89075Y17520
X79232Y17520
X138287Y17520
X148130Y17520
X157972Y17520
X167815Y17520
X162894Y7677
X153051Y7677
X143209
X133366
X172736Y7677
X292815Y7677
X302658
X312500
X322342Y7677
X332185
X342028Y7677
X351870
X361713
X371555Y7677
X381398
X376476Y17520
X366634Y17520
X356791Y17520
X346949Y17520
X337106Y17520
X327264Y17520
X317421Y17520
X307579Y17520
X297736Y17520
X287894Y17520
T05
X55827Y270787
X65827
X75827
X85827
X95827
X105827
X115827
X125827
Y280787
X115827
X105827
X95827
X85827
X75827
X65827
X55827
X135827
Y270787
X145827
X155827
X165827
X175827
X185827
X195827
Y280787
X185827
X175827
X165827
X155827
X145827
T06
X368858Y88268
X408858
Y128268
X408856Y147323
X368856
X368858Y128268
X368856Y187323
X408856
T07
X225650Y282716
X289665
X316201
X380217
T08
X383819Y108268
X383817Y167323
T09
X389764Y55118
X15748
Y299213
X429134
T10
X232658Y266024
X282658
X323209
X373209
M30
